<svg width="573" height="315" viewBox="0 0 573 315" fill="none" xmlns="http://www.w3.org/2000/svg">
<path d="M19.8758 285.661C9.28036 221.183 -3.38989 93.5907 0.833478 69.6475C5.05685 45.5993 53.7367 2.1236 60.1088 0.653408C66.4809 -0.816786 407.436 0.653453 487.903 0.653453C568.369 0.653453 571.359 77.2085 572.396 93.6957C573.433 110.183 556.523 276.63 556.523 285.661C556.523 290.387 420.799 300.888 278.242 304.564C211.705 306.244 142.279 319.055 93.0807 313.7C47.7351 308.764 19.8758 285.661 19.8758 285.661Z" fill="#C8AB37"/>
<path opacity="0.354" d="M60.7013 0.65332C60.405 0.65332 60.2569 0.65332 60.1087 0.65332C53.7366 2.12351 5.05676 45.5993 0.833392 69.6474C-3.38998 93.6956 9.35437 221.182 19.8757 285.661C19.8757 285.661 47.7349 308.764 93.0065 313.595C95.748 313.91 98.5638 314.12 101.379 314.33V281.04L134.203 272.114L101.601 260.878L101.453 260.773L101.453 171.931V170.041L177.696 147.568L89.8206 123.52L78.1876 59.041C78.1876 59.041 71.2229 29.5321 64.5544 0.758309C62.702 0.758309 61.3682 0.65332 60.7013 0.65332Z" fill="black"/>
<path opacity="0.4248" d="M569.729 142.527L525.865 159.749L567.284 173.611C568.099 162.9 568.988 152.293 569.729 142.527Z" fill="black"/>
<path opacity="0.292" d="M21.3577 35.833C11.1327 47.5946 2.53764 60.0912 0.833478 69.6475C-3.38989 93.6956 9.28036 221.182 19.8758 285.661C19.8758 285.661 26.9284 290.117 31.5084 293.079C36.6608 296.41 39.9133 298.499 50.1411 302.729C61.6428 307.486 62.3232 310.354 79.2175 312.196C81.959 312.511 84.7748 311.986 87.5904 312.196V296.234C74.4757 291.509 68.852 285.556 61.6649 281.25C50.5508 274.529 35.2131 246.806 31.5084 224.963C28.6928 208.161 22.0246 103.777 21.3577 35.833Z" fill="black"/>
<path opacity="0.3761" d="M68.0369 95.586C67.0737 104.407 64.1839 117.219 69.3705 122.259C72.927 125.62 79.2249 121.734 81.5218 116.589C84.6338 109.868 83.3742 98.7363 79.6695 92.5405C77.4467 88.865 72.9271 86.6598 69.8893 88.7601C68.4074 89.9152 68.3333 93.1706 68.0369 95.586Z" fill="black"/>
<path opacity="0.3761" d="M59.59 236.934C59.9605 242.605 60.5535 252.686 68.3334 248.591C73.1495 246.071 75.5944 241.555 74.4089 236.934C73.0011 231.264 66.0364 230.424 61.9612 232.419C60.7016 233.049 59.4418 235.044 59.59 236.934Z" fill="black"/>
<path opacity="0.3761" d="M38.3994 203.96C35.5097 212.256 42.6227 213.726 44.9937 211.836C47.3647 209.946 49.5132 203.54 47.3645 200.18C45.2158 196.819 42.845 195.349 41.289 196.399C39.733 197.554 38.3994 203.96 38.3994 203.96Z" fill="black"/>
<path opacity="0.3761" d="M45.2898 224.963C41.0665 228.009 42.4002 233.574 46.8459 233.574C51.3656 233.574 55.8111 230.949 53.7365 227.904C51.6619 224.963 45.2898 224.963 45.2898 224.963Z" fill="black"/>
<path opacity="0.4735" d="M440.434 110.813L292.987 133.076L200.888 149.038L276.464 161.745C283.207 161.745 405.981 180.857 405.981 180.857L418.132 274.11L509.713 257.517C505.045 227.483 498.821 186.108 498.821 186.108L440.434 110.813ZM97.1563 314.12C98.1936 314.225 99.3048 314.33 100.342 314.435C99.3048 314.225 98.2677 314.225 97.1563 314.12Z" fill="url(#paint0_radial)"/>
<path opacity="0.7003" d="M60.7015 0.65332C60.4051 0.65332 60.2571 0.65332 60.1089 0.65332C56.4042 1.49343 38.0288 16.9304 22.6172 34.3627L60.924 8.10928L88.7093 127.72L187.403 150.613L91.3026 118.374L73.5942 8.84439C73.5942 8.84439 110.271 8.63435 125.09 8.10928C89.8949 3.80371 64.7767 0.65332 60.7015 0.65332Z" fill="white"/>
<path opacity="0.2168" d="M206.753 11.3228C292.85 27.2849 424.705 11.3228 450.194 11.3228C475.608 11.3228 528.808 19.8289 534.735 25.0796C540.737 30.4353 563.416 109.826 563.416 115.182C563.416 120.537 540.224 127.888 517.032 127.888C493.841 127.888 511.253 67.8202 507.549 62.4645C481.688 25.0796 233.4 52.5932 217.618 47.2375C201.91 41.8818 185.461 31.2754 190.648 28.125C195.908 25.0796 206.753 11.3228 206.753 11.3228Z" fill="white"/>
<path opacity="0.2168" d="M524.235 177.707C551.205 184.113 557.947 188.313 557.947 188.313L551.205 258.357C551.205 258.357 535.497 265.813 529.495 260.458C523.494 255.102 524.235 177.707 524.235 177.707Z" fill="white"/>
<path opacity="0.7003" d="M98.1934 170.566L101.602 261.298L134.944 272.534L104.269 257.517L105.084 173.086L125.979 163.74L98.1934 170.566Z" fill="white"/>
<path opacity="0.1681" d="M197.702 202.07C164.063 220.447 178.882 249.326 191.626 254.157C204.296 258.987 241.64 250.061 251.717 236.514C261.794 222.968 264.683 207.636 255.94 199.759C247.197 191.988 197.702 202.07 197.702 202.07Z" fill="black"/>
<path opacity="0.1327" d="M303.953 227.063C286.393 254.682 289.727 257.307 301.36 258.882C312.992 260.458 321.587 263.083 323.069 251.426C324.551 239.77 328.33 237.145 321.587 232.839C314.845 228.638 303.953 227.063 303.953 227.063Z" fill="black"/>
<path opacity="0.1283" d="M127.386 162.48L105.232 173.821L104.417 257.202L134.129 272.114L101.306 280.935V314.225C149.837 317.48 256.483 301.528 319.389 299.953C377.966 298.486 395.742 301.085 443.707 294.566C512.473 285.219 556.016 288.857 556.016 286.073C556.016 284.393 556.534 276.832 557.35 267.381L555.942 266.961L385.683 294.566L247.28 305.812H158.306L161.026 272.639L125.46 252.267C125.608 252.372 124.719 186.738 127.386 162.48ZM76.9286 311.074C78.1882 311.389 79.5217 311.599 80.7813 311.914C79.4476 311.599 78.1882 311.389 76.9286 311.074ZM86.6347 312.86C88.7093 313.175 90.8581 313.49 93.0068 313.7C90.8581 313.49 88.7834 313.175 86.6347 312.86ZM97.1562 314.12C98.1935 314.225 99.3048 314.33 100.342 314.435C99.3048 314.225 98.2676 314.225 97.1562 314.12Z" fill="black"/>
<defs>
<radialGradient id="paint0_radial" cx="0" cy="0" r="1" gradientUnits="userSpaceOnUse" gradientTransform="translate(370.82 223.306) rotate(12.2964) scale(112.098 104.116)">
<stop/>
<stop offset="1" stop-color="#5E511A" stop-opacity="0"/>
</radialGradient>
</defs>
</svg>
