<svg width="380" height="382" viewBox="0 0 380 382" fill="none" xmlns="http://www.w3.org/2000/svg">
<path d="M191.649 127.673L171.619 190.929L179.182 202.477L342.5 214L344.441 211.65L328.177 160.169C328.177 160.169 323.374 159.556 320.206 158.636L191.649 127.673Z" fill="#8D7A27"/>
<path d="M156 3.5L5.5 3.5C5.5 3.5 4.22963 308.551 0.141971 334.099C0.141971 334.099 -2 369.5 12 376C26 382.5 133.994 379.7 145.254 381.107C159.05 382.845 203.503 375.487 217.708 373.034L179.386 202.17L175.809 192.462L201.868 131.76L202.992 130.227L156 3.5ZM223.941 371.91L223.635 372.012C223.533 372.012 223.941 371.91 223.941 371.91Z" fill="#786721"/>
<path d="M179.386 202.17L217 372L315 381.5L379.5 369L344.817 212.307C344.817 212.307 344.102 212 344 212L343.284 213.84L179.386 202.17Z" fill="#C8AB37"/>
<path d="M328.177 160.374L371.357 26V12.5L312 18.3056L156 3.5L202.277 132.169L328.177 160.374Z" fill="#C8AB37"/>
<path opacity="0.2335" d="M74 3.5L5.5 3.5C5.5 3.5 4.22962 308.551 0.141968 334.099C0.141973 357.5 0.141972 375.518 22.5 377.5C65.5 381.312 135.59 379.899 145.254 381.107C147.195 381.312 149.852 381.414 152.918 381.312L155.268 336.96L154.043 337.471C154.043 337.471 79.263 363.179 67 359.5C54.737 355.923 74 316.5 74 316.5C74 316.5 34.1096 305.135 29 275.5C25.0145 251.894 56.7297 79.7348 74 3.5ZM217.708 373.034C214.642 373.545 210.247 374.261 205.036 375.18C210.145 374.261 214.642 373.545 217.708 373.034ZM205.036 375.078C202.685 375.487 200.029 375.895 197.474 376.304C200.029 375.895 202.583 375.487 205.036 375.078Z" fill="black"/>
<path opacity="0.2163" d="M179.284 203.09L155.882 278.405L158.437 298.843L155.371 332.566L152.817 381.312C171.109 380.801 205.445 375.078 217.605 372.932L179.591 203.192L179.284 203.09ZM223.941 371.91L223.635 372.012C223.533 372.012 223.941 371.91 223.941 371.91Z" fill="black"/>
<path opacity="0.2163" d="M85.6764 218.112C78.7274 246.215 78.7276 253.879 90.9906 262.054C103.254 270.23 105.502 273.091 115.006 268.697C124.407 264.405 123.998 251.529 123.998 241.412C123.998 231.192 123.181 216.886 115.517 215.046C107.852 213.309 94.8738 209.426 92.0125 210.652C89.2533 211.981 85.6764 218.112 85.6764 218.112Z" fill="black"/>
<path opacity="0.2163" d="M147.298 230.375C137.079 240.083 142.189 244.171 145.255 245.193C148.32 246.215 158.539 251.324 157.007 243.149C155.474 234.974 147.298 230.375 147.298 230.375Z" fill="black"/>
<path opacity="0.2163" d="M85.9832 149.644C88.538 163.44 106.932 170.082 112.042 164.972C117.152 159.863 123.283 151.688 116.641 146.578C109.998 141.468 103.867 134.826 98.7571 134.826C93.6475 134.826 85.9832 149.644 85.9832 149.644Z" fill="black"/>
<path opacity="0.2163" d="M179.386 202.17L185.109 227.82C191.342 228.025 320.963 230.854 332 233C343.548 235.146 311.569 364.92 313 378C313.102 378.92 313.511 379.84 314.226 380.657L380 369L345 212C345 212 344.285 211.693 344.183 211.693L343.467 213.533L179.386 202.17Z" fill="#574B18"/>
<path opacity="0.2163" d="M312.5 18C319.96 57.3437 278.205 118.476 273.3 125.833C269.212 131.965 242.336 135.848 226.496 137.687L328.177 160.476L371.5 25V12.5L312.5 18Z" fill="#574B18"/>
<path opacity="0.2163" d="M202.481 235.587C204.525 259.397 229.153 329.092 244.073 366.698L283.212 356.684C269.825 323.165 315.223 277.537 309.5 266.5C301.631 251.478 202.481 235.587 202.481 235.587Z" fill="white"/>
<path d="M157.5 4.20001C157.9 27 195.3 130.1 195.3 130.1C195.3 130.1 197.1 143.8 189.2 158.6C184.952 166.458 176.884 183.708 175.5 193L179.5 202C179.5 202 197.4 146.3 205.7 142C214 137.7 327 158.6 327 158.6C327 158.6 218.4 135.9 213.3 129.4C208.3 122.8 161.5 6.00001 161.5 6.00001L157.5 4.20001Z" fill="#E6D9A4"/>
</svg>
