<svg width="587" height="724" viewBox="0 0 587 724" fill="none" xmlns="http://www.w3.org/2000/svg">
<path d="M66.9779 230.596C57.8679 191.462 46.9739 114.023 50.6052 99.4918C54.2365 84.8964 96.0916 58.5099 101.57 57.6176C107.049 56.7253 398.251 85.8524 467.436 85.8524C536.621 85.8524 541.144 104.081 542.036 114.087C542.928 124.094 531.142 214.216 531.142 219.697C531.142 222.565 411.693 239.837 289.122 242.068C231.913 243.088 172.221 250.863 129.92 247.613C90.9313 244.617 66.9779 230.596 66.9779 230.596Z" fill="#C8AB37"/>
<path opacity="0.354" d="M102.08 57.6177C101.825 57.6177 101.698 57.6177 101.57 57.6177C96.0916 58.51 54.2366 84.8964 50.6053 99.4919C46.974 114.087 57.9317 191.462 66.978 230.596C66.978 230.596 90.9314 244.617 129.856 247.549C132.213 247.74 134.634 247.868 137.055 247.995V227.791L165.277 222.374L137.246 215.554L137.118 215.49V161.57V160.423L202.673 146.784L127.117 132.188L117.115 93.0546C117.115 93.0546 111.126 75.1449 105.393 57.6814C103.8 57.6814 102.653 57.6177 102.08 57.6177Z" fill="black"/>
<path opacity="0.4248" d="M539.743 143.724L502.029 154.177L537.64 162.59C538.341 156.089 539.106 149.652 539.743 143.724Z" fill="black"/>
<path opacity="0.292" d="M68.252 78.969C59.4605 86.1074 52.0705 93.6919 50.6052 99.4918C46.9739 114.087 57.8679 191.462 66.9779 230.596C66.9779 230.596 90.9313 244.617 129.856 247.613C132.213 247.804 134.634 247.932 137.055 248.059V237.925C125.779 235.057 109.088 230.532 102.908 227.919C93.3522 223.84 80.1649 207.013 76.9796 193.756C74.5587 183.559 68.8253 120.206 68.252 78.969Z" fill="black"/>
<path opacity="0.3761" d="M108.387 115.234C107.559 120.588 105.074 128.364 109.534 131.423C112.592 133.463 118.007 131.105 119.982 127.981C122.657 123.902 121.574 117.146 118.389 113.386C116.478 111.155 112.592 109.817 109.98 111.092C108.706 111.793 108.642 113.769 108.387 115.234Z" fill="black"/>
<path opacity="0.3761" d="M101.124 201.022C101.443 204.464 101.953 210.583 108.642 208.097C112.783 206.567 114.885 203.827 113.866 201.022C112.655 197.581 106.667 197.071 103.163 198.282C102.08 198.664 100.997 199.875 101.124 201.022Z" fill="black"/>
<path opacity="0.3761" d="M82.9044 181.009C80.4198 186.044 86.5356 186.937 88.5742 185.789C90.6128 184.642 92.4601 180.754 90.6126 178.715C88.7651 176.675 86.7267 175.783 85.3889 176.42C84.051 177.122 82.9044 181.009 82.9044 181.009Z" fill="black"/>
<path opacity="0.3761" d="M88.829 193.756C85.1978 195.605 86.3446 198.983 90.1669 198.983C94.053 198.983 97.8753 197.389 96.0915 195.541C94.3077 193.757 88.829 193.756 88.829 193.756Z" fill="black"/>
<path opacity="0.4735" d="M428.575 124.476L301.799 137.988L222.612 147.676L287.593 155.388C293.39 155.388 398.952 166.988 398.952 166.988L409.4 223.585L488.14 213.514C484.127 195.286 478.776 170.174 478.776 170.174L428.575 124.476ZM133.424 247.868C134.315 247.932 135.271 247.995 136.163 248.059C135.271 247.932 134.379 247.932 133.424 247.868Z" fill="url(#paint0_radial)"/>
<path opacity="0.7003" d="M102.08 57.6177C101.825 57.6177 101.698 57.6177 101.57 57.6177C98.385 58.1276 82.5858 67.4967 69.3349 78.0767L102.271 62.1429L126.161 134.738L211.018 148.632L128.391 129.065L113.165 62.589C113.165 62.589 144.7 62.4616 157.441 62.1429C127.18 59.5297 105.584 57.6177 102.08 57.6177Z" fill="white"/>
<path opacity="0.2168" d="M238.093 78.1405C312.12 87.8283 435.647 93.5645 457.562 93.5645C479.413 93.5645 525.154 98.727 530.251 101.914C535.411 105.164 536.048 129.575 536.048 132.825C536.048 136.076 516.108 140.537 496.168 140.537C476.228 140.537 491.199 104.081 488.013 100.83C484.764 97.5798 252.3 94.8392 238.73 91.5887C225.224 88.3382 211.082 81.9009 215.541 79.9888C220.064 78.1405 238.093 78.1405 238.093 78.1405Z" fill="white"/>
<path opacity="0.2168" d="M500.627 165.075C523.816 168.963 529.613 171.513 529.613 171.513L523.816 214.024C523.816 214.024 510.31 218.549 505.15 215.299C499.99 212.048 500.627 165.075 500.627 165.075Z" fill="white"/>
<path opacity="0.7003" d="M134.315 160.742L137.246 215.809L165.914 222.629L139.539 213.514L140.24 162.271L158.205 156.599L134.315 160.742Z" fill="white"/>
<path opacity="0.1681" d="M219.873 179.862C190.951 191.016 203.692 208.543 214.649 211.475C225.543 214.407 257.651 208.989 266.315 200.767C274.979 192.545 277.464 183.24 269.946 178.46C262.429 173.744 219.873 179.862 219.873 179.862Z" fill="black"/>
<path opacity="0.1327" d="M311.228 195.031C296.13 211.794 298.996 213.387 308.998 214.343C319 215.299 326.39 216.892 327.664 209.818C328.938 202.743 332.187 201.15 326.39 198.537C320.593 195.987 311.228 195.031 311.228 195.031Z" fill="black"/>
<path opacity="0.1283" d="M159.416 155.834L140.367 162.717L139.667 213.323L165.213 222.374L136.991 227.727V247.932C178.719 249.907 234.971 242.896 289.058 241.94C339.423 241.05 389.76 237.457 431 233.5C490.125 227.828 531.079 221.259 531.079 219.569C531.079 218.55 531.525 213.961 532.225 208.224L531.015 207.969L382.515 226.963L171.329 233.91L188.339 222.692L157.759 210.328C157.887 210.391 157.122 170.557 159.416 155.834ZM116.032 246.019C117.115 246.211 118.261 246.338 119.344 246.529C118.198 246.338 117.115 246.211 116.032 246.019ZM124.377 247.103C126.161 247.294 128.008 247.485 129.856 247.613C128.008 247.485 126.225 247.294 124.377 247.103ZM133.424 247.868C134.315 247.932 135.271 247.995 136.163 248.059C135.271 247.932 134.379 247.932 133.424 247.868Z" fill="black"/>
<path opacity="0.4469" d="M38.2463 92.6084C41.559 108.733 45.445 131.487 84.6244 128.555C96.6649 127.663 97.8118 110.454 105.202 108.096C116.733 104.336 128.773 117.848 132.532 118.74C151.134 123.138 190.504 104.527 202.545 107.777C214.585 111.092 221.657 119.823 233.697 117.656C245.738 115.489 256.122 100.129 262.11 100.129C268.099 100.129 283.962 104.527 286.191 105.61C288.357 106.694 299.315 168.326 319.637 147.931C326.454 141.047 321.166 139.008 329.958 134.61C338.685 130.212 317.726 109.753 326.454 99.8742C335.182 89.9952 379.712 102.296 387.93 106.694C396.149 111.092 420.23 114.916 426.218 115.426C432.206 115.936 474.89 124.731 482.025 121.99C489.16 119.25 483.681 117.083 512.094 114.852C540.507 112.685 547.642 113.769 547.642 107.204C547.642 100.639 550.955 83.1118 543.82 82.6019C536.685 82.0283 376.973 59.5934 359.517 60.167C341.998 60.7407 208.024 52.5188 191.587 58.5099C175.151 64.5011 116.095 67.2417 116.095 67.2417L71.3098 71.9581L38.2463 92.6084Z" fill="black"/>
<path d="M97.8756 0.000770653C93.5435 0.0645061 90.9952 6.43806 94.8812 17.1456C81.5029 5.6095 72.5203 12.1105 80.165 23.0093C60.2886 26.451 43.7888 35.3102 38.8834 44.1694C30.2831 32.1234 20.9819 37.1585 26.3969 51.1166C17.2232 48.4397 13.5921 54.9407 20.7909 62.9076C20.6635 62.9076 20.536 62.9714 20.4723 62.9714C4.80058 70.1098 5.69222 80.3711 16.7134 79.67C16.586 79.7338 16.5223 79.7975 16.3949 79.8613C15.5667 80.4986 14.7386 81.0722 13.9104 81.7096C13.0822 82.3469 12.1903 83.048 11.3621 83.7491C10.6614 84.3227 9.96073 84.9601 9.25996 85.6612C-4.69173 102.36 7.09394 112.239 21.0456 95.5402C21.5553 95.094 22.1287 94.6479 22.7021 94.2018C23.148 93.8831 23.5302 93.5644 23.9762 93.2457C21.7465 99.5555 22.5108 103.953 24.8042 105.674C24.7405 106.184 24.6767 106.694 24.6767 107.204C24.613 107.714 24.6133 108.224 24.6133 108.67C23.9125 128.428 36.7172 130.403 39.3292 113.641C44.5531 124.094 52.3891 122.946 52.8351 113.004C58.9509 117.656 63.9835 114.47 62.582 106.566C77.3619 103.188 97.8755 94.0743 109.597 87.0634C103.163 102.169 113.484 107.714 122.594 94.0105C122.785 94.0105 122.912 94.0743 123.103 94.0743C125.524 109.881 136.673 109.626 137.819 94.3292C143.808 98.472 148.522 95.0303 146.866 86.9996C155.593 87.0633 164.895 86.2985 173.941 84.7052C172.667 89.1029 175.597 90.9512 179.483 88.0194C178.4 94.138 181.777 96.305 184.962 92.8633C184.962 93.2457 184.962 93.6281 185.026 94.0105C185.408 105.292 193.435 105.037 192.989 93.6918C192.989 93.1819 192.925 92.7358 192.925 92.2259C196.365 100.129 202.29 97.9621 200.061 89.0392C203.055 89.9315 205.029 89.1029 205.284 87.5095C205.539 87.7007 205.858 87.8919 206.176 88.0831C206.113 88.0194 206.049 87.9557 205.985 87.8282C206.049 87.8282 206.176 87.9556 206.24 87.9556C206.367 88.0194 206.495 88.1468 206.686 88.2743C206.813 88.3381 206.941 88.4655 207.004 88.5293C209.298 90.9512 211.4 92.0985 212.993 92.3534C214.076 95.7951 217.134 96.56 220.319 93.7556C220.956 96.9424 222.549 98.4083 224.078 98.0896C224.141 98.2808 224.205 98.472 224.205 98.6632C226.18 109.626 233.889 108.224 231.977 97.261C231.914 96.8786 231.85 96.4962 231.722 96.1138C231.659 95.9226 231.659 95.7314 231.595 95.6039C232.678 96.1138 233.57 96.1775 234.334 95.9863C235.863 108.032 244.973 107.395 245.802 93.8831C248.796 95.0303 250.58 92.9907 249.305 89.2304C262.493 89.6765 277.591 91.3974 292.69 93.182C290.842 101.977 297.085 105.164 304.22 98.2808C304.921 112.876 312.757 116.573 316.834 109.434C316.898 109.562 316.898 109.689 316.962 109.753C317.28 110.582 317.535 111.41 317.854 112.175C318.172 113.004 318.427 113.832 318.682 114.661C318.936 115.489 319.255 116.318 319.51 117.147C319.765 117.975 320.019 118.804 320.274 119.568C320.529 120.397 320.72 121.289 320.975 122.118C325.817 143.214 340.724 139.773 335.882 118.676C335.627 117.784 335.437 116.892 335.182 116.063C334.927 115.107 334.672 114.215 334.353 113.322C334.29 113.195 334.29 113.067 334.226 112.94C337.666 112.621 339.768 108.224 338.176 100.703C347.604 111.665 356.077 107.841 352.383 97.261C356.842 96.9424 360.855 96.305 364.168 95.2852C368.5 93.9468 377.164 93.6281 388.313 94.0105C387.548 96.9423 389.269 98.5995 392.199 97.6434C392.072 102.296 395.575 103.38 398.633 99.3006C398.315 110.263 406.087 110.454 406.533 99.3643C406.533 98.9181 406.596 98.5357 406.596 98.0896C406.724 98.2808 406.787 98.472 406.915 98.7269C407.106 99.1731 407.234 99.6192 407.361 100.002C407.361 100.065 407.425 100.193 407.425 100.257C409.782 110.008 416.152 109.562 415.707 101.723C419.147 104.144 421.822 101.531 419.911 96.1138C421.313 96.2413 422.714 96.3687 424.179 96.4962C424.116 96.6874 424.052 96.9424 424.052 97.1336C423.988 97.516 423.925 97.8984 423.925 98.2808C423.861 98.7269 423.797 99.1731 423.797 99.5555C423.797 100.002 423.734 100.448 423.734 100.894C423.734 101.213 423.734 101.531 423.734 101.914C423.925 111.601 429.849 112.749 431.315 105.61C433.735 106.821 436.22 103.953 435.392 97.516C435.838 97.5797 436.284 97.5797 436.73 97.6434V97.7072C436.73 98.0259 436.73 98.3445 436.73 98.5995C436.73 98.9819 436.73 99.3006 436.666 99.683C436.666 100.002 436.666 100.257 436.602 100.575C436.22 110.964 443.036 111.856 444.247 102.87C446.158 105.61 449.152 104.527 450.044 99.7467C450.872 109.116 457.434 108.988 457.689 99.8742C457.88 100.32 458.135 100.83 458.454 101.276C458.326 101.531 458.199 101.786 458.135 102.041C457.944 102.424 457.816 102.806 457.689 103.188C457.562 103.571 457.37 103.953 457.243 104.336C457.116 104.718 456.988 105.1 456.797 105.547C456.67 105.929 456.542 106.375 456.415 106.758C454.313 115.298 458.581 118.294 461.766 113.896C462.021 124.604 469.666 124.412 469.729 113.386C469.729 112.94 469.729 112.494 469.729 112.048C469.666 111.41 469.602 110.773 469.538 110.136C469.475 109.689 469.411 109.243 469.284 108.797C470.813 108.797 471.959 107.331 472.087 104.527C475.973 110.008 480.305 108.16 478.84 102.041C480.56 102.232 482.152 102.424 483.809 102.615C486.803 111.092 492.473 110.391 491.836 103.507C501.583 104.591 510.947 105.547 519.038 106.311C516.108 114.023 523.115 116.892 531.27 107.331C531.397 107.331 531.461 107.331 531.588 107.331C531.588 107.459 531.525 107.65 531.525 107.777C531.461 108.287 531.397 108.797 531.334 109.371C529.868 124.986 540.889 126.069 542.355 110.454C542.355 110.391 542.355 110.391 542.355 110.327C542.355 110.391 542.418 110.391 542.418 110.454C542.737 110.964 542.992 111.41 543.247 111.92C543.501 112.43 543.756 112.94 543.947 113.45C544.138 113.832 544.266 114.215 544.393 114.597C549.235 129.639 559.874 126.197 555.032 111.155C554.841 110.709 554.65 110.199 554.459 109.753C554.332 109.498 554.268 109.243 554.14 109.052C564.843 115.489 569.812 107.268 558.281 98.5357C557.963 98.3445 558.09 98.4083 557.836 98.2808C557.453 98.0896 557.135 97.9621 556.816 97.7709C556.434 97.5797 556.052 97.3885 555.733 97.1973C555.414 97.0061 555.032 96.8149 554.714 96.6237C554.395 96.4325 554.013 96.2413 553.695 96.0501C553.376 95.8588 553.057 95.6677 552.675 95.4765C552.42 95.349 552.165 95.1578 551.911 95.0303C551.911 94.3292 551.847 93.6281 551.783 92.8633C561.148 88.8479 560.001 82.0283 551.019 82.4744C557.899 75.6547 554.65 69.9823 546.942 73.1053C544.393 68.2614 540.571 64.756 535.156 64.3098C535.092 64.3098 535.028 64.3098 534.965 64.3098C536.43 60.7406 533.882 57.4901 527.894 56.9165C529.677 50.9891 525.218 47.6749 517.637 50.7979C515.598 46.8463 509.419 47.4837 502.984 55.1319C502.156 53.4748 501.137 51.754 499.863 49.9056C499.672 49.7144 499.48 49.5232 499.353 49.332C487.44 34.6091 476.865 40.0266 483.299 52.8374C479.158 52.0726 475.017 51.499 470.94 51.2441C454.886 50.1606 401.818 39.9629 361.747 33.9718C361.683 33.908 361.556 33.8443 361.429 33.8443C361.301 33.7806 361.174 33.7168 361.046 33.5893C360.919 33.5256 360.792 33.3982 360.664 33.3344H360.601C355.377 26.8971 350.471 25.6224 348.305 27.5982C347.158 27.0246 345.311 27.1521 343.018 28.363C342.38 24.2202 339.323 23.5192 337.093 26.9609C336.966 26.7059 336.902 26.5147 336.838 26.2598C336.774 26.1323 336.711 25.9411 336.647 25.8136C334.29 15.8709 327.664 16.6357 328.62 25.24C327.282 25.495 326.39 27.0883 326.581 29.7015C326.518 29.7015 326.39 29.7015 326.326 29.7015C325.116 28.2993 323.46 26.8971 321.357 25.4949C321.294 25.4949 321.166 25.4312 321.103 25.4312C320.975 25.3675 320.848 25.3038 320.657 25.24C320.529 25.1763 320.338 25.1126 320.211 25.0488C320.083 24.9851 320.019 24.9851 320.019 25.0488C312.438 18.2929 306.578 19.1214 306.195 23.328C305.112 23.5192 303.902 23.7741 302.692 24.1565C302.373 24.2202 302.054 24.284 301.736 24.4115C301.417 24.5389 301.099 24.6664 300.78 24.7939C300.271 25.0488 299.825 25.3675 299.379 25.7499C299.124 26.0048 298.869 26.196 298.614 26.451C298.55 26.3872 298.487 26.3873 298.423 26.3235C298.105 26.1323 297.85 25.9411 297.531 25.7499C297.276 25.5587 297.021 25.4312 296.767 25.24C296.512 25.1125 296.257 24.9851 296.002 24.7939C295.684 24.6027 295.429 24.4752 295.11 24.284C294.855 24.1565 294.601 24.029 294.346 23.9016C294.027 23.7741 293.773 23.6466 293.454 23.4554C293.136 23.328 292.817 23.2005 292.499 23.073C292.18 22.9455 291.925 22.8818 291.606 22.8181C291.288 22.7543 290.906 22.6268 290.587 22.6268C289.377 22.3719 288.103 22.4356 286.892 22.7543C284.981 22.4994 282.496 22.6906 279.566 23.4554C278.865 23.0093 278.101 22.5631 277.528 23.3917C276.508 23.2005 275.616 23.073 274.724 23.0093C276.253 10.7721 268.035 8.73252 264.468 19.7588C261.219 6.82046 252.172 8.22267 253.638 20.5873C249.306 18.4841 246.439 21.6071 248.35 27.5982C238.284 27.407 227.836 27.2158 217.261 27.1521C217.261 27.0883 217.261 27.0246 217.197 26.9609C213.885 6.94796 200.188 8.41385 202.163 27.0883C201.844 27.0883 201.526 27.0883 201.207 27.0883C200.697 26.8971 200.188 26.7059 199.614 26.5784C199.487 26.5784 199.36 26.5784 199.232 26.5784C198.531 26.5147 197.767 26.451 197.066 26.3872C195.346 26.3235 193.69 26.2598 192.033 26.3235C191.333 26.3235 190.695 26.3872 189.995 26.3872C189.358 26.3872 188.721 26.451 188.02 26.451C187.383 26.451 186.746 26.5147 186.109 26.5147C185.472 26.5147 184.835 26.5784 184.261 26.5784C184.771 26.5784 183.879 26.5784 184.771 26.5784C185.535 26.5784 182.86 26.5784 183.624 26.5784C183.114 26.5784 182.541 26.6422 182.031 26.5784C181.458 26.5147 180.949 26.5147 180.375 26.451C179.802 26.3872 179.228 26.3235 178.655 26.2598C178.082 26.196 177.508 26.0686 176.935 26.0049C176.362 25.9411 175.788 25.8136 175.279 25.6862C174.705 25.5587 174.132 25.4312 173.622 25.3037C173.049 25.1763 172.476 25.0488 171.966 24.9213C171.393 24.7939 170.819 24.6664 170.31 24.4752C169.736 24.3477 169.226 24.2202 168.653 24.029C168.08 23.9016 167.507 23.7741 166.933 23.5829C166.36 23.4554 165.723 23.2642 165.149 23.1368C164.512 23.0093 163.875 22.8181 163.238 22.6906C162.537 22.5631 161.837 22.4357 161.2 22.3719C159.543 22.1807 157.95 22.1807 156.294 22.2444C155.593 22.3082 154.893 22.3719 154.192 22.4994C153.491 22.6269 152.854 22.8181 152.153 23.0093C151.452 23.2642 150.752 23.4554 150.115 23.7741C149.541 24.0928 148.904 24.4115 148.331 24.7301C147.885 24.9851 147.439 25.24 146.993 25.4949C146.611 25.7499 146.229 25.9411 145.846 26.1323C145.528 26.3235 145.145 26.5147 144.763 26.6422C144.381 26.8334 144.063 27.0246 143.68 27.1521C143.362 27.2796 142.98 27.4708 142.661 27.5982C142.279 27.7257 141.96 27.8531 141.578 28.0444C141.45 28.1081 141.26 28.1719 141.132 28.2356C140.24 28.2993 139.348 28.2993 138.456 28.363C137.055 26.1323 134.061 23.9016 129.346 22.1807C131.258 18.8665 130.366 15.9984 127.308 14.7237C134.252 -0.955237 122.211 -6.30903 112.018 10.9633C111.509 11.6006 111.063 12.238 110.553 12.8116C110.298 13.0666 110.107 13.3852 109.852 13.6402C109.789 13.5127 109.788 13.449 109.725 13.3215C109.597 13.0028 109.406 12.6204 109.279 12.3017C105.903 3.82493 101.316 -0.0629648 97.8756 0.000770653ZM278.292 23.5829C278.419 23.5829 278.674 23.5829 278.865 23.6466C278.801 23.6466 278.738 23.7104 278.674 23.7104C278.547 23.6466 278.419 23.6466 278.292 23.5829ZM279.948 23.7741C280.139 23.7741 280.33 23.8378 280.585 23.8378C280.394 23.9016 280.203 23.8378 279.948 23.7741Z" fill="#AAD400"/>
<path d="M257.523 10.5809C254.848 10.4534 252.618 13.9588 253.446 20.5236C249.114 18.4203 246.247 21.5433 248.159 27.5345C238.093 27.3433 227.645 27.1521 217.07 27.0883C217.07 27.0246 217.07 26.9609 217.006 26.8971C214.076 9.05121 202.8 8.28639 201.844 21.6071C201.271 21.4796 200.634 21.3522 199.997 21.4159C197.576 21.4159 194.518 22.6906 191.205 25.3675C189.74 24.7301 188.211 24.0928 186.491 23.5192C184.388 23.2005 182.222 23.0093 180.184 23.5192C179.802 23.5829 179.419 23.7104 179.037 23.8378C178.974 23.8378 178.973 23.8378 178.91 23.8378C177.508 24.4114 176.171 24.9851 174.96 25.6224C174.45 25.4949 173.941 25.4312 173.495 25.3037C172.921 25.1763 172.348 25.0488 171.838 24.9213C171.265 24.7939 170.692 24.6664 170.182 24.4752C169.609 24.3477 169.099 24.2203 168.526 24.0928C167.506 26.7697 166.933 29.1916 166.869 31.4224C159.607 39.1981 165.213 46.7188 179.356 43.3409C173.877 62.0153 188.657 66.4131 198.913 44.743C199.041 44.4881 198.977 44.6156 199.105 44.4244C199.168 44.2969 199.296 44.1057 199.36 43.9782H199.423C199.423 44.0419 199.36 44.1057 199.36 44.1057C199.423 44.042 199.423 44.0419 199.487 43.9782C212.356 44.1057 211.336 35.2465 231.34 35.3102C227.136 45.6353 253.446 58.0638 258.989 48.6309C260.964 53.2836 264.977 52.8375 266.57 47.3562C270.902 57.7451 278.419 55.1319 275.425 44.2969C289.631 44.3606 303.902 44.4881 316.898 44.743C313.203 49.332 316.388 52.3913 321.612 48.376C321.803 52.5188 325.434 52.71 327.537 47.4199L327.6 47.4837C327.6 47.5474 327.664 47.5474 327.664 47.6111C327.855 48.0573 327.983 48.5035 328.174 48.9496C328.301 49.3957 328.492 49.8419 328.62 50.288C328.683 50.543 328.747 50.7342 328.811 50.9891C330.595 58.8286 335.882 58.255 335.118 51.3715C339.577 52.5825 340.788 48.8221 335.691 45.1892C349.77 45.5716 360.919 46.1452 366.716 47.0375C392.454 50.8617 432.907 55.2594 439.469 64.5648C442.527 68.8988 458.135 78.7777 475.973 88.593C498.779 94.5841 527.001 99.0456 533.499 96.8786C543.055 93.6918 549.044 95.6677 557.835 85.2788C557.007 83.6854 554.586 82.6019 550.891 82.7931C557.771 75.9734 554.522 70.3009 546.814 73.424C544.266 68.5801 540.443 65.0746 535.028 64.6285C534.964 64.6285 534.901 64.6285 534.901 64.6285C536.366 61.0593 533.818 57.8088 527.83 57.2352C529.613 51.3078 525.154 47.9935 517.573 51.1166C515.534 47.165 509.355 47.8023 502.92 55.4506C502.092 53.7935 501.073 52.0726 499.799 50.2243C499.608 50.0331 499.416 49.8419 499.289 49.6507C487.376 34.9278 476.801 40.3453 483.235 53.1561C479.094 52.3913 474.953 51.8177 470.876 51.5627C454.822 50.4792 401.754 40.2816 361.683 34.2905C361.556 34.2267 361.492 34.163 361.365 34.163C361.237 34.0992 361.11 34.0355 360.983 33.908C360.855 33.8443 360.728 33.7168 360.6 33.6531H360.537C355.313 27.2158 350.407 25.9411 348.241 27.9169C347.095 27.3433 345.247 27.4707 342.954 28.6817C342.316 24.5389 339.259 23.8378 337.029 27.2796C336.902 27.0246 336.838 26.8334 336.774 26.5784C336.711 26.451 336.647 26.2598 336.583 26.1323C334.226 16.1896 327.6 16.9544 328.556 25.5587C327.218 25.8136 326.326 27.407 326.517 30.0202C326.454 30.0202 326.326 30.0202 326.263 30.0202C325.052 28.618 323.396 27.2158 321.293 25.8136C321.23 25.8136 321.102 25.7499 321.039 25.7499C320.911 25.6862 320.784 25.6224 320.593 25.5587C320.465 25.495 320.274 25.4312 320.147 25.3675C320.019 25.3038 319.956 25.3038 320.019 25.3675C312.438 18.6115 306.577 19.4401 306.195 23.6466C305.112 23.8378 303.902 24.0928 302.691 24.4752C302.373 24.5389 302.054 24.6027 301.736 24.7301C301.417 24.8576 301.099 24.9851 300.78 25.1125C300.27 25.3675 299.824 25.6862 299.378 26.0686C299.124 26.3235 298.869 26.5147 298.614 26.7696C298.55 26.7059 298.487 26.7059 298.423 26.6422C298.104 26.451 297.85 26.2598 297.531 26.0686C297.276 25.8774 297.021 25.7499 296.766 25.5587C296.512 25.4312 296.257 25.3037 296.002 25.1125C295.684 24.9213 295.429 24.7939 295.11 24.6027C294.855 24.4752 294.601 24.3477 294.346 24.2202C294.027 24.0928 293.772 23.9653 293.454 23.7741C293.135 23.6466 292.817 23.5191 292.498 23.3917C292.18 23.2642 291.925 23.2005 291.606 23.1368C291.288 23.073 290.906 22.9455 290.587 22.9455C289.377 22.6906 288.102 22.7543 286.892 23.073C284.981 22.8181 282.496 23.0093 279.566 23.7741C278.865 23.328 278.101 22.8818 277.527 23.7104C276.508 23.5191 275.616 23.3917 274.724 23.328C276.253 11.0908 268.035 9.0512 264.468 20.0774C262.747 13.6401 259.944 10.7083 257.523 10.5809ZM278.292 23.5829C278.419 23.5829 278.674 23.5829 278.865 23.6466C278.801 23.6466 278.738 23.7104 278.674 23.7104C278.547 23.6466 278.419 23.6466 278.292 23.5829ZM279.948 23.7741C280.139 23.7741 280.33 23.8378 280.585 23.8378C280.394 23.9016 280.203 23.8378 279.948 23.7741ZM557.962 85.5975C558.026 85.7249 558.026 85.9161 558.09 86.0436C558.026 85.9161 558.026 85.7249 557.962 85.5975ZM556.306 90.1227C556.179 90.2501 555.988 90.4413 555.797 90.5688C555.924 90.4413 556.115 90.2501 556.306 90.1227ZM552.611 92.6084C552.293 92.7358 551.974 92.927 551.592 93.0545C551.974 92.927 552.293 92.7358 552.611 92.6084Z" fill="#CCFF00"/>
<path d="M134.889 0.0645752C138.775 0.574459 136.099 5.41834 137.692 7.58535C141.96 8.54138 140.304 -0.445316 145.273 0.893128C149.414 2.35904 147.694 7.64908 146.547 10.4534C148.458 13.8952 151.006 9.17873 152.408 7.90402C156.103 5.86449 160.053 10.9633 156.294 13.5127C154.638 15.4248 156.421 19.5039 158.651 16.4446C161.199 14.0226 165.85 16.1896 164.13 19.7588C163.811 24.284 167.697 26.9609 171.074 28.9367C174.132 31.4861 176.998 34.2905 180.12 36.9036C181.776 41.3651 174.514 39.5168 174.004 36.5212C171.329 33.5894 167.761 31.4861 165.277 28.4906C161.709 26.3236 158.269 34.0355 155.657 29.2554C154.192 27.2159 156.931 20.5236 152.726 22.8818C150.497 26.0686 146.42 23.9016 146.929 20.3962C147.311 19.0577 145.846 16.1259 145.4 18.994C144.444 23.0093 138.074 23.3917 138.074 18.8028C138.392 17.2731 137.755 11.7919 136.354 15.616C135.462 19.5676 130.174 20.4599 129.41 15.9984C128.136 12.8754 129.474 19.2489 127.18 19.2489C124.696 21.4159 122.147 19.3764 121.956 16.6995C120.045 14.5962 117.624 17.4643 119.599 19.3764C120.3 22.6906 114.948 25.495 113.292 21.9895C109.342 22.2445 113.611 30.5938 107.877 28.6818C105.647 27.5983 102.972 27.2796 100.869 27.662C99.5952 24.7939 104.373 22.4357 102.335 19.2489C101.634 15.8072 105.456 12.7479 107.941 15.9984C111.381 16.3171 107.431 10.8996 110.808 9.87981C114.503 6.94798 116.541 14.9786 119.854 10.8358C121.51 8.35016 122.275 1.97661 126.607 4.78097C127.817 5.86447 128.645 8.15897 129.92 5.67328C131.003 3.25134 131.639 0.128311 134.889 0.0645752ZM155.275 15.5523L155.211 15.6798L155.275 15.5523Z" fill="#CCFF00"/>
<path d="M501.646 85.6612C500.181 83.4942 499.863 87.8282 499.863 89.3578C499.99 91.3336 499.226 95.7314 501.073 95.7951C502.666 94.0105 502.793 90.5051 502.347 87.7644C502.156 87.0633 501.965 86.2985 501.646 85.6612ZM495.467 78.0129C494.575 76.4833 493.428 74.1888 491.963 74.5075C491.899 76.7382 493.173 78.6503 493.683 80.6898C494.639 83.6854 495.34 86.8721 495.403 90.1226C493.62 88.2743 491.708 86.4897 489.797 84.8963C489.861 81.0085 488.65 76.9932 486.675 74.4437C484.955 72.468 485.274 76.547 485.784 77.9492C485.975 79.3514 487.185 82.2832 486.739 82.6019C485.656 81.2634 483.426 81.5184 483.108 79.2239C482.407 76.3558 481.133 73.424 479.158 72.2767C477.438 72.2767 479.031 75.7185 479.413 76.9932C479.923 78.1404 480.05 78.8415 479.031 78.0766C476.865 77.9492 476.992 73.9339 475.272 72.5317C474.571 71.1932 471.577 70.1097 472.087 72.7866C472.342 73.8701 474.316 76.1009 473.743 76.3558C471.259 76.0371 468.774 75.9734 466.289 76.2921C465.334 77.1843 467.691 77.758 468.264 78.0129C469.984 78.5865 471.705 78.9689 473.425 79.4788C472.214 80.2436 469.984 82.4744 470.94 84.6414C472.469 84.5777 473.807 83.3029 475.272 82.8568C476.992 81.7096 478.585 81.1359 480.305 82.8568C478.202 83.9403 475.973 85.7249 474.89 88.8479C475.081 91.0787 477.374 88.7205 478.266 88.4655C480.241 87.2546 482.216 86.1073 484.255 85.47C485.656 86.426 486.994 87.4458 488.396 88.5293C485.593 88.9754 482.662 90.6963 481.133 94.3929C480.368 97.3885 483.108 95.2852 483.936 94.7753C486.293 93.2457 488.841 92.4808 491.135 90.8237C491.772 91.5248 493.556 92.6083 493.428 93.0545C490.562 93.2457 487.567 96.1138 486.93 100.512C487.376 102.997 489.287 99.5555 490.179 99.0456C492.027 97.1335 494.32 96.8149 496.359 95.4764C496.869 96.1775 499.544 97.7071 497.569 97.5159C494.957 98.1533 492.218 100.639 491.453 104.654C491.326 107.969 493.683 104.654 494.511 103.953C496.231 102.169 498.206 101.085 499.863 99.1731C500.946 98.9819 502.22 101.595 503.558 101.531C503.112 99.6192 501.774 98.3445 500.882 96.8786C499.544 95.094 498.206 93.4369 496.741 91.9072C498.461 87.4458 497.378 81.837 495.467 78.0129Z" fill="#90B400"/>
<path d="M357.097 61.123C359.645 58.6374 359.072 63.2263 358.753 64.8834C358.116 66.9867 358.179 71.6394 355.631 71.9581C353.847 70.2372 354.485 66.4768 355.631 63.4813C356.013 62.7164 356.46 61.8879 357.097 61.123ZM367.29 52.2001C368.882 50.4155 370.985 47.8661 372.896 47.9936C372.45 50.3518 370.284 52.5825 369.137 54.877C367.162 58.1912 365.506 61.6967 364.614 65.2658C367.544 63.0351 370.539 60.9318 373.533 59.0198C374.297 54.8132 376.909 50.3518 380.286 47.3562C383.152 44.998 381.751 49.4595 380.668 51.0529C380.095 52.5825 377.674 55.8967 378.247 56.1517C380.031 54.5583 383.089 54.5583 384.044 52.0726C385.637 48.8858 388.122 45.5716 391.116 44.1057C393.473 43.9145 390.479 47.8023 389.714 49.2045C388.759 50.543 388.376 51.3078 390.033 50.288C393.027 49.9056 393.791 45.5716 396.467 43.8508C397.741 42.3848 402.201 40.7914 400.799 43.787C400.162 44.998 396.913 47.6111 397.677 47.8661C401.181 47.2287 404.685 46.8463 407.998 46.9101C409.145 47.7386 405.705 48.6309 404.813 49.0133C402.328 49.8419 399.844 50.4155 397.295 51.2441C398.761 51.9451 401.372 54.0484 399.589 56.4704C397.486 56.5978 395.894 55.3869 393.983 55.0682C391.88 54.0484 389.778 53.666 387.039 55.7055C389.714 56.6616 392.39 58.2549 393.154 61.5054C392.39 63.9274 389.778 61.6966 388.631 61.5054C386.21 60.4219 383.726 59.4022 380.987 59.0198C378.821 60.2308 376.718 61.5055 374.552 62.8439C378.311 62.9714 382.006 64.501 383.28 68.2614C383.726 71.3845 380.349 69.4724 379.33 68.9625C376.463 67.5603 373.087 67.0505 370.284 65.5208C369.264 66.3494 366.525 67.7515 366.589 68.1977C370.539 68.0702 373.979 70.8108 373.915 75.3998C372.768 78.1404 370.857 74.6987 369.71 74.2525C367.608 72.4042 364.423 72.3405 362.002 71.1295C361.174 71.9581 357.097 73.8701 359.836 73.4877C363.34 73.8701 366.589 76.1646 366.716 80.4349C366.143 84.0041 363.595 80.6898 362.639 80.0525C360.664 78.3316 358.116 77.4393 356.332 75.591C354.867 75.5273 352.51 78.4591 350.726 78.5866C351.745 76.4833 353.911 74.8899 355.504 73.2328C357.734 71.1932 360.027 69.2174 362.32 67.3691C361.046 62.7164 363.786 56.5341 367.29 52.2001Z" fill="#90B400"/>
<path opacity="0.2434" d="M29.0727 37.3497C25.1229 37.6684 23.1479 42.7673 26.3969 51.0529C17.2232 48.376 13.5921 54.877 20.7909 62.8439C20.6635 62.8439 20.536 62.9076 20.4723 62.9076C4.80058 70.046 5.69222 80.3074 16.7134 79.6063C16.586 79.6701 16.5223 79.7338 16.3949 79.7975C15.5667 80.4349 14.7386 81.0085 13.9104 81.6459C13.0822 82.2832 12.1903 82.9843 11.3621 83.6854C10.6614 84.259 9.96073 84.8964 9.25996 85.5975C-4.69173 102.296 7.09394 112.175 21.0456 95.4765C21.5553 95.0303 22.1287 94.5841 22.7021 94.138C23.148 93.8193 23.5302 93.5006 23.9762 93.182C21.7465 99.4918 22.5108 103.89 24.8042 105.61C24.7405 106.12 24.6767 106.63 24.6767 107.14C24.613 107.65 24.6132 108.16 24.6132 108.606C23.9125 128.364 36.7172 130.34 39.3292 113.577C44.5531 124.03 52.3891 122.883 52.835 112.94C58.9509 117.593 63.9835 114.406 62.582 106.503C77.3619 103.125 97.8755 94.0105 109.597 86.9996C108.451 89.7402 107.814 92.2259 107.623 94.2655C111.254 88.5293 112.783 84.7052 110.171 85.1513C100.87 86.8084 64.7482 98.8544 43.9799 95.0303C28.2445 92.0985 16.9048 74.4438 36.3989 40.9827C33.6596 38.3695 31.1113 37.2223 29.0727 37.3497Z" fill="black"/>
<path opacity="0.2434" d="M153.3 52.4551C139.603 62.3341 156.039 62.8439 159.288 61.1868C162.601 59.5297 171.329 56.2792 169.163 52.4551C166.997 48.631 153.3 52.4551 153.3 52.4551Z" fill="black"/>
<path opacity="0.2434" d="M192.161 55.1957C192.161 60.1033 203.628 62.844 203.628 59.0198C203.628 55.1957 199.805 48.631 197.639 48.0573C195.41 47.4837 192.161 55.1957 192.161 55.1957Z" fill="black"/>
<path opacity="0.2434" d="M176.298 63.3538C167.57 68.835 173.559 72.0855 178.464 69.9185C183.369 67.7515 188.848 68.835 186.109 64.4373C183.369 60.1033 176.298 63.3538 176.298 63.3538Z" fill="black"/>
<path opacity="0.1062" d="M516.999 62.2702C505.532 72.6591 514.26 75.9734 518.082 74.8261C521.905 73.7426 529.55 75.9096 530.123 68.835C530.696 61.6966 530.696 61.1867 526.81 59.5296C523.052 57.8725 516.999 62.2702 516.999 62.2702Z" fill="black"/>
<path opacity="0.1062" d="M449.216 58.4462C445.394 64.4374 450.872 70.4922 454.121 68.3252C457.434 66.1582 460.683 63.4176 460.683 60.677C460.683 57.9364 460.683 57.3627 457.37 55.7693C454.121 54.0485 449.216 58.4462 449.216 58.4462Z" fill="black"/>
<path opacity="0.1062" d="M419.147 51.8814C416.407 59.5296 424.625 57.8725 424.625 57.8725C424.625 57.8725 428.448 54.5583 425.708 52.9649C422.969 51.3078 419.147 51.8814 419.147 51.8814Z" fill="black"/>
<path d="M195.48 342.71C195.48 338.983 198.52 333.589 205.778 328.097C206.17 327.802 206.562 327.41 206.955 327.116C207.445 326.724 207.935 326.331 208.426 325.939C208.916 325.547 209.505 325.154 210.093 324.762C210.682 324.37 211.27 323.879 211.859 323.487C190.478 312.601 198.226 297.301 220.097 308.187C220.391 308.383 220.587 308.579 220.881 308.678C223.137 294.064 229.218 279.156 243.145 269.251L252.756 264.151C252.756 264.151 300.323 268.172 305.423 271.507C310.523 274.939 307.679 341.141 304.835 359.285C304.639 360.364 304.541 361.443 304.344 362.423C317.781 367.621 316.702 377.429 303.756 378.116C308.268 386.158 300.029 391.748 284.925 384.098C284.925 384.196 284.925 384.294 284.827 384.393C284.729 384.785 284.729 385.177 284.631 385.569C275.608 406.95 260.799 402.144 267.174 382.529C259.229 392.631 250.991 389.787 252.364 379.096C250.108 378.508 247.46 376.743 244.812 373.8C226.668 382.921 218.92 371.741 233.239 360.952C230.002 359.285 227.158 357.52 225.099 355.362C216.958 367.033 207.151 361.148 212.251 344.181C202.345 350.458 195.578 348.3 195.48 342.71Z" fill="url(#paint1_radial)"/>
<path d="M529.822 570.64C526.095 570.64 520.701 567.599 515.209 560.342C514.914 559.949 514.522 559.557 514.228 559.165C513.836 558.674 513.443 558.184 513.051 557.694C512.659 557.203 512.267 556.615 511.874 556.026C511.482 555.438 510.991 554.849 510.599 554.261C499.713 575.642 484.413 567.894 495.299 546.022C495.496 545.728 495.692 545.532 495.79 545.238C481.176 542.982 466.269 536.901 456.363 522.975L451.263 513.363C451.263 513.363 455.284 465.796 458.619 460.696C462.051 455.596 528.253 458.44 546.397 461.284C547.476 461.481 548.555 461.579 549.535 461.775C554.734 448.338 564.541 449.417 565.228 462.363C573.27 457.852 578.86 466.09 571.21 481.194C571.309 481.194 571.407 481.194 571.505 481.292C571.897 481.39 572.289 481.39 572.682 481.488C594.062 490.511 589.256 505.321 569.641 498.946C579.743 506.89 576.899 515.128 566.208 513.755C565.62 516.011 563.855 518.659 560.912 521.307C570.034 539.451 558.853 547.199 548.064 532.88C546.397 536.117 544.632 538.961 542.474 541.021C554.145 549.161 548.261 558.969 531.293 553.869C537.57 563.774 535.511 570.542 529.822 570.64Z" fill="url(#paint2_radial)"/>
<path opacity="0.98" d="M203.128 310.735C219.547 313.907 264.421 327.434 264.421 327.434L247.628 283.4L194.359 285.826L203.128 310.735Z" fill="#2B2200"/>
<path d="M462.113 723.085L374.045 719.913L326 689.5L268.432 380.051L247.069 357.381L235.594 304.204L203.408 311.015L191 297.86L193.239 264.742C230.089 256.252 279.441 245.337 279.441 245.337C279.441 245.337 426.469 230.13 521.441 251.867L529.37 330.512L483.471 343.76L533.475 365.404L543.831 463.36L527.878 496.852C543.737 658.901 524.053 543.684 533.475 689.5L504.368 695.844L491.121 699.016L490.281 699.202L462.113 723.085Z" fill="#C8AB37"/>
<path opacity="0.3186" d="M376.079 717.593L373 717.5L324.955 687.087L268.432 380.051L247.069 357.381L235.594 304.204L203.408 311.015L191 297.86L193.239 264.742C222.813 257.931 266.94 247.762 279.441 244.87L337.189 364.004C337.282 363.911 349.304 538.566 376.079 717.593Z" fill="black"/>
<path opacity="0.1018" d="M268.619 380.89L268.432 379.957L247.069 357.287L235.594 304.111L203.408 310.921L191 297.767L193.239 264.648C199.116 263.249 204.621 262.036 212.084 260.264C216.655 259.237 219.268 258.584 223.932 257.558C226.358 256.998 228.317 256.532 230.743 255.972C250.707 251.401 272.164 246.456 279.441 244.777L337.189 363.911C337.282 363.911 303.417 360.273 268.619 380.89Z" fill="black"/>
<path opacity="0.3407" d="M344.466 704L334.763 697.843L268.432 379.957L247.069 357.287L235.594 304.111L203.408 310.921L191 297.767L193.332 264.648C222.906 257.838 267.033 247.669 279.441 244.777L280.001 245.896C263.768 259.237 247.535 274.071 248.748 280.694C250.987 293.196 290.636 328.273 299.685 348.611C308.735 369.042 290.356 395.63 304.257 427.909C308.548 437.891 321.889 492.747 337.655 568.967C339.521 565.329 342.226 565.422 344.466 566.914C349.317 570.086 362.098 587.719 358.086 600.5C355.287 609.362 353.328 624.103 349.97 630.353C374.785 758.91 339.334 583.747 344.466 704Z" fill="#2B2200"/>
<path opacity="0.2743" d="M490.841 704.281L475.075 652.97L492.707 615C492.707 615 483.004 556.372 468.637 511.592C454.177 466.719 497.465 471.57 502.316 455.524C507.167 439.478 492.707 380.237 492.707 380.237L423.764 320.997C423.764 320.997 426.936 303.364 455.856 295.341C484.683 287.318 495.972 288.904 495.972 288.904C495.972 288.904 497.558 268.1 468.731 263.249C439.903 258.398 297.353 244.031 297.353 244.031C297.353 244.031 297.166 243.751 297.073 243.658C327.113 241.325 391.578 237.594 453.524 242.165C476.287 245.057 498.864 248.602 521.534 251.774L529.464 330.326C515.377 329.113 490.374 326.874 468.917 324.915C452.778 323.422 438.69 322.209 433.093 321.65C432.16 321.556 431.507 321.463 431.041 321.463C430.574 321.37 430.387 321.37 430.574 321.37C431.134 321.37 437.011 323.795 445.781 327.434C450.165 329.3 455.297 331.445 460.707 333.778C466.212 336.11 472.089 338.629 478.06 341.241C495.225 348.611 510.525 355.235 521.627 360.086C526.012 361.952 531.796 364.471 533.569 365.31L542.804 452.912L543.924 463.267L494.293 500.117L523.493 570.273L520.041 698.03L490.841 704.281Z" fill="#F4EED7"/>
<path opacity="0.1018" d="M415.367 692.5L367.229 690.727C340.454 511.793 337.282 363.911 337.282 363.911L279.534 244.777C281.493 244.311 290.916 242.165 290.916 242.165L325.061 243.564C316.385 257.278 414.155 267.82 414.155 267.82C414.155 267.82 376.838 269.22 365.55 282.84C354.261 296.461 358.739 312.227 358.739 355.328C358.739 398.336 401.747 516.164 415.367 670.282C425.443 786.338 392.604 575.978 415.367 692.5Z" fill="#2B2200"/>
<path opacity="0.09292" d="M401.374 411.49C398.948 391.432 416.58 389.846 423.017 393.858C429.455 397.869 440.65 417.927 432.626 425.857C424.603 433.88 408.557 441.903 403.799 437.052C399.041 432.294 401.374 411.49 401.374 411.49Z" fill="#2B2200"/>
<path opacity="0.09292" d="M410.236 291.33C411.076 275.284 424.697 275.284 427.869 278.549C431.041 281.721 437.478 284.146 429.455 292.17C421.432 300.099 410.236 291.33 410.236 291.33Z" fill="#2B2200"/>
<path opacity="0.09292" d="M452.684 625.315C438.224 527.639 432.627 472.316 426.283 470.73C419.846 469.145 443.075 628.487 443.075 628.487C449.886 644.534 452.498 640.709 452.684 625.315Z" fill="#2B2200"/>
<path opacity="0.09292" d="M473 678.5C448.184 531.938 453.524 546.857 455.856 544.431C458.282 542.006 477.758 692.867 479.344 701.73C481.023 710.499 473 678.5 473 678.5Z" fill="#2B2200"/>
<path opacity="0.2434" d="M366.203 664.591C362.191 650.131 364.617 647.799 367.789 651.81C370.96 655.822 379.823 666.271 376.558 670.189C373.386 674.201 366.203 664.591 366.203 664.591Z" fill="#2B2200"/>
<path d="M508.157 693.284L502 688.153C504.519 673.04 514.221 693.191 518.419 666.23C522.618 639.268 523.457 601.392 523.83 577.415C524.203 555.865 525.883 527.691 526.256 522C527.469 576.762 528.775 631.245 532.413 688.06L508.157 693.284Z" fill="#9D862C"/>
<path opacity="0.354" d="M466.209 715.816L450.816 721.04L442.14 680.815C442.14 680.815 416.485 480.423 418.071 482.009C419.657 483.595 453.055 670.739 454.268 675.217C466.676 719.718 454.268 691 454.268 691L466.209 715.816Z" fill="black"/>
<path opacity="0.4071" d="M484.03 343.573L529.464 330.419L430.574 321.277L484.03 343.573Z" fill="black"/>
<path opacity="0.6681" d="M486.457 317.204C466.842 345.744 478.71 358.984 491.067 375.069C503.425 391.153 503.915 402.825 502.052 411.553C500.188 420.282 495.481 416.555 494.009 423.519C492.538 430.482 503.327 447.744 509.702 436.955C515.979 426.167 506.465 418.321 507.544 409.101C508.623 399.882 509.604 374.48 516.077 372.617C522.55 370.656 522.942 376.246 524.413 382.032C525.884 387.819 530.592 392.821 533.632 390.173C536.673 387.525 542.753 377.521 547.265 367.811C551.776 358.102 538.046 324.363 532.75 323.186C527.257 322.01 486.457 317.204 486.457 317.204Z" fill="#222B00"/>
<path d="M493.813 268.95C490.871 269.048 488.125 273.167 488.223 281.21C476.944 276.502 472.236 283.171 480.279 290.135C469.098 295.529 471.452 303.669 482.731 301.512C482.142 303.277 481.652 305.042 481.259 306.906C477.532 306.415 476.061 308.377 477.925 310.633C473.021 313.379 473.119 316.713 476.356 317.008C474.59 320.833 476.748 322.794 479.984 320.636C480.082 322.598 480.377 324.363 480.769 326.031L480.671 326.129C480.573 326.227 480.573 326.227 480.475 326.325C478.317 329.954 478.513 332.602 479.788 333.386C474.983 339.075 478.611 342.704 483.711 338.094C484.398 338.781 485.379 339.467 486.555 340.056C486.555 340.056 486.556 340.056 486.654 340.056C490.675 342.409 493.323 341.919 493.715 340.252C494.5 340.84 495.284 341.429 496.069 342.017C487.144 348.49 490.871 356.434 503.915 354.963C495.48 362.907 502.542 371.048 519.313 365.065C519.999 365.261 520.784 365.359 521.471 365.457C521.373 366.046 521.275 366.634 521.176 367.321C521.078 367.909 521.176 367.615 521.078 368.105C519.411 382.13 527.061 385.759 531.18 377.423C534.024 380.071 537.457 378.6 538.732 373.304C538.83 373.696 538.928 374.088 538.928 374.48C539.124 375.559 539.222 376.736 539.419 377.815L539.517 378.404C541.576 395.959 554.032 394.488 551.972 376.932L551.874 376.344C551.678 375.167 551.482 373.99 551.286 372.813C551.09 371.832 550.893 370.754 550.697 369.773V369.675C551.482 368.89 552.267 367.811 553.149 366.438C565.311 368.792 568.449 361.044 558.74 355.944C565.801 343.881 574.04 331.131 556.68 314.262C535.888 294.058 525.688 282.092 503.719 281.504C502.542 281.504 501.365 281.602 500.286 281.798C500.286 281.798 500.286 281.798 500.286 281.7C500.286 281.602 500.286 281.504 500.286 281.504C499.992 272.971 496.853 268.852 493.813 268.95ZM520.784 364.575C520.98 364.575 520.882 364.575 520.98 364.575C521.275 364.575 521.569 364.673 521.765 364.673C521.765 364.771 521.765 364.771 521.765 364.869V364.967C521.372 364.967 520.588 364.967 519.901 364.869C520.294 364.771 520.49 364.673 520.784 364.575ZM517.744 364.673C517.842 364.673 518.038 364.673 518.136 364.673C518.332 364.673 518.528 364.771 518.725 364.771C518.234 364.771 518.038 364.771 517.351 364.673C517.547 364.673 517.646 364.673 517.744 364.673Z" fill="#AAD400"/>
<path d="M549.815 326.521C549.618 326.521 549.52 326.521 549.324 326.521C547.363 326.717 545.695 328.777 545.009 332.602C530.886 326.619 526.57 336.917 541.282 343.979C541.478 344.077 541.576 344.077 541.772 344.175C542.165 344.371 542.459 344.469 542.851 344.665C537.653 348.883 538.732 353.394 544.519 353.884C543.244 358.004 544.224 360.848 546.382 361.534C547.167 367.811 549.324 371.538 551.58 372.813C551.384 371.832 551.188 370.852 550.991 369.871V369.773C551.776 368.988 552.561 367.909 553.443 366.536C565.605 368.89 568.743 361.142 559.034 356.042C562.564 349.961 566.389 343.783 567.174 336.917C567.174 336.819 567.174 336.819 567.174 336.721C567.37 334.367 567.272 331.915 566.586 329.365C564.624 325.737 559.72 326.815 555.993 334.073C554.424 328.973 552.07 326.619 549.815 326.521Z" fill="#CCFF00"/>
<path opacity="0.3982" d="M536.084 316.419C536.084 319.754 531.867 322.402 526.571 322.402C521.373 322.402 517.057 319.656 517.057 316.419C517.057 313.085 521.274 310.437 526.571 310.437C531.867 310.437 536.084 313.085 536.084 316.419Z" fill="#668000"/>
<path d="M524.021 280.523C524.021 286.114 518.136 290.723 510.878 290.723C503.621 290.723 497.736 286.212 497.736 280.523C497.736 274.933 503.621 270.323 510.878 270.323C518.136 270.421 524.021 274.933 524.021 280.523Z" fill="#D4FF2A"/>
<path d="M493.813 268.95C490.871 269.048 488.125 273.167 488.223 281.21C476.944 276.502 472.236 283.171 480.279 290.135C469.098 295.529 471.452 303.669 482.731 301.512C482.142 303.277 481.652 305.042 481.259 306.906C477.532 306.415 476.061 308.377 477.925 310.633C473.021 313.379 473.119 316.713 476.356 317.008C474.59 320.833 476.748 322.794 479.984 320.636C480.082 322.598 480.377 324.363 480.769 326.031L480.671 326.129C480.573 326.227 480.573 326.227 480.475 326.325C478.317 329.954 478.513 332.602 479.788 333.386C474.983 339.075 478.611 342.704 483.711 338.094C484.398 338.781 485.379 339.467 486.555 340.056C486.555 340.056 486.556 340.056 486.654 340.056C490.675 342.409 493.323 341.919 493.715 340.252C494.5 340.84 495.284 341.429 496.069 342.017C487.144 348.49 490.871 356.434 503.915 354.963C495.48 362.907 502.542 371.048 519.313 365.065C519.999 365.261 520.784 365.359 521.471 365.457C521.373 366.046 521.275 366.634 521.176 367.321C521.078 367.909 521.176 367.615 521.078 368.105C519.411 382.13 527.061 385.759 531.18 377.423C534.024 380.071 537.457 378.6 538.732 373.304C538.83 373.696 538.928 374.088 538.928 374.48C539.124 375.559 539.222 376.736 539.419 377.815L539.517 378.404C541.576 395.959 554.032 394.488 551.972 376.932L551.874 376.344C551.776 375.854 551.776 375.461 551.678 374.971C549.422 372.029 546.774 368.988 544.028 365.85C544.126 365.261 544.323 364.771 544.519 364.281C545.107 362.025 545.499 359.867 545.892 357.611C550.501 355.944 554.326 351.334 556.19 347.313C556.876 345.548 557.955 343.096 556.778 342.115C554.915 343.586 554.228 345.842 552.855 347.608C550.992 350.354 548.932 353.002 546.284 355.257C546.578 352.511 546.872 349.863 546.872 347.215C550.109 344.665 552.561 341.036 553.346 337.702C553.836 334.956 550.698 337.898 549.913 339.271C548.932 340.35 547.265 343.292 546.774 343.096C547.167 341.331 545.499 339.663 547.167 337.898C549.03 335.446 550.599 332.406 550.305 330.052C549.226 328.679 547.363 332.21 546.578 333.386C545.99 334.563 545.499 335.152 545.499 333.779C544.126 331.915 547.559 329.365 547.559 327.011C548.147 325.54 547.069 322.402 545.205 324.658C544.519 325.54 544.028 328.679 543.342 328.385C541.969 326.129 540.399 324.069 538.438 322.304C537.065 322.108 538.144 324.363 538.34 325.05C539.026 326.815 539.811 328.483 540.596 330.248C539.125 329.758 535.888 329.463 534.711 331.621C535.79 332.798 537.653 333.092 539.026 333.975C541.086 334.661 542.655 335.642 542.361 338.094C540.105 337.113 537.163 336.427 533.926 337.604C532.259 339.271 535.594 339.565 536.476 340.056C538.732 340.84 540.988 341.723 542.949 342.998C543.047 344.763 543.145 346.529 543.145 348.392C540.988 346.431 537.555 345.156 533.534 346.332C530.592 347.607 534.123 348.588 535.103 348.882C537.947 349.765 540.301 351.334 543.145 352.119C543.047 353.1 543.244 355.257 542.851 355.454C540.988 353.492 537.359 352.806 533.73 354.375C529.415 349.765 525.296 345.156 522.255 340.938C516.959 333.681 514.213 323.971 513.526 315.34C514.507 316.321 515.782 318.185 516.665 316.027C516.763 312.987 515.292 310.829 513.33 309.75C513.33 308.671 513.33 307.592 513.428 306.612C513.428 306.612 513.428 306.612 513.526 306.513C515.978 307.985 518.823 308.475 521.373 309.75C522.255 310.24 525.198 312.006 524.805 309.063C523.726 305.435 520.49 304.062 517.253 303.865C519.117 302.59 520.882 301.413 522.746 300.237C525.099 300.629 527.257 301.61 529.317 302.59C530.298 302.787 532.553 304.944 533.24 302.59C532.651 299.55 530.297 297.883 527.944 297C528.238 296.804 528.434 296.608 528.63 296.51C534.024 298.275 540.498 301.119 545.99 303.571C543.538 301.217 541.282 299.06 539.026 297.098C539.811 295.039 537.85 293.371 536.673 292.783C538.83 291.998 540.988 291.41 543.145 290.625C543.93 290.331 546.872 289.448 545.892 288.664C543.047 288.565 540.007 288.958 536.967 289.546C536.28 289.35 539.125 286.8 539.615 285.623C540.792 282.779 536.967 284.25 535.888 285.721C534.123 286.996 533.338 289.742 531.867 291.115C531.376 290.821 530.984 290.429 530.494 290.135C531.376 288.467 533.044 285.819 531.278 286.015C530.2 286.604 529.121 287.585 528.238 288.664C520.98 283.956 513.428 281.406 503.425 281.112C502.248 281.112 501.071 281.21 499.992 281.406C499.992 281.406 499.992 281.406 499.992 281.308C499.992 281.21 499.992 281.112 499.992 281.112C499.992 272.971 496.853 268.852 493.813 268.95ZM521.667 295.137C522.55 295.235 523.432 295.431 524.413 295.627C523.236 296.51 521.667 296.902 520.588 297.981C520.196 297.785 520.882 296.412 521.667 295.137ZM518.234 295.235C517.351 297 516.763 298.863 516.469 300.629C515.684 301.217 514.9 301.806 514.115 302.394C514.802 299.256 515.88 296.804 517.253 295.725C517.548 295.529 517.842 295.431 518.234 295.235ZM553.738 356.238C552.757 356.238 550.698 357.709 549.913 358.396C548.344 359.769 544.224 362.123 545.401 363.594C547.853 363.692 550.894 361.534 552.855 359.377C553.346 358.788 553.836 358.102 554.13 357.415C554.326 356.532 554.13 356.238 553.738 356.238ZM535.888 357.023C538.634 357.317 540.301 358.984 542.753 359.671C542.459 360.554 543.047 363.692 541.87 362.025C541.184 361.534 540.301 361.044 539.419 360.848C538.242 359.573 537.065 358.298 535.888 357.023ZM520.784 364.575C520.98 364.575 520.882 364.575 520.98 364.575C521.275 364.575 521.569 364.673 521.765 364.673C521.765 364.771 521.765 364.771 521.765 364.869V364.967C521.372 364.967 520.588 364.967 519.901 364.869C520.294 364.771 520.49 364.673 520.784 364.575ZM517.744 364.673C517.842 364.673 518.038 364.673 518.136 364.673C518.332 364.673 518.528 364.771 518.725 364.771C518.234 364.771 518.038 364.771 517.351 364.673C517.547 364.673 517.646 364.673 517.744 364.673Z" fill="#93B800"/>
<path d="M542.753 285.819C545.499 287.781 541.576 290.429 541.969 292.783C544.911 295.235 547.167 287.585 550.501 290.625C553.051 293.371 549.717 296.804 547.657 298.471C547.755 301.904 551.58 299.256 553.149 298.864C556.778 298.765 557.857 304.258 553.934 304.748C551.874 305.533 551.678 309.358 554.62 307.985C557.563 307.102 560.211 310.633 557.465 312.692C555.405 316.027 557.367 319.656 559.132 322.5C560.505 325.736 561.584 328.973 562.957 332.21C562.466 336.231 557.563 332.013 558.347 329.463C557.465 326.129 555.503 323.088 554.817 319.754C552.953 316.713 547.167 321.225 547.069 316.517C546.774 314.36 551.482 310.338 547.363 310.437C544.421 312.006 542.165 308.769 543.832 306.219C544.617 305.337 544.617 302.492 543.244 304.552C540.89 307.298 535.888 305.042 537.653 301.512C538.438 300.433 540.203 296.019 537.653 298.373C535.398 301.021 530.984 299.648 532.161 295.921C532.455 292.979 530.886 298.471 529.12 297.589C526.374 298.275 525.198 295.725 526.08 293.567C525.394 291.214 522.451 292.39 523.236 294.646C522.451 297.49 517.253 297.49 517.351 294.156C514.213 292.783 514.213 300.923 510.584 297.196C509.309 295.431 507.348 294.156 505.582 293.567C505.778 290.919 510.388 290.919 509.996 287.683C510.78 284.741 514.998 283.956 515.586 287.389C518.136 288.958 517.253 283.269 520.196 283.858C524.217 283.073 522.549 290.037 526.767 288.173C529.023 286.898 532.161 282.289 534.319 286.114C534.809 287.487 534.515 289.546 536.574 288.075C538.438 286.8 540.203 284.642 542.753 285.819Z" fill="#CCFF00"/>
<path d="M382.422 557.76C380.544 559.765 376.015 560.631 369.231 559.011C369.019 558.956 368.88 558.965 368.668 558.91C368.475 559.132 368.281 559.354 368.088 559.576C367.25 560.537 366.477 561.424 365.565 562.321C365.565 562.321 365.565 562.321 365.501 562.394C368.991 568.69 363.905 572.583 355.278 567.405C355.14 567.414 355.14 567.414 355.001 567.424C354.946 567.636 354.891 567.848 354.901 567.987C354.865 568.476 354.819 568.826 354.709 569.251C355 581.604 346.254 581.787 345.963 569.433C346.073 569.008 346.045 568.593 346.155 568.169C346.21 567.957 346.191 567.68 346.31 567.394C346.107 567.477 345.904 567.56 345.702 567.644C336.525 569.663 333.168 565.305 337.378 561.819C334.673 560.892 333.517 559.233 333.763 557.757C324.962 558.151 323.961 550.643 334.589 545.466C334.561 545.051 334.671 544.626 334.707 544.137C334.788 543.297 335.082 542.512 335.376 541.728C335.67 540.943 336.037 540.223 336.47 539.428C337.463 537.692 338.826 536.278 340.429 535.334C341.028 534.945 341.775 534.686 342.448 534.361C343.121 534.037 343.804 533.851 344.486 533.666C345.03 533.489 345.583 533.451 346.137 533.414C344.812 530.307 345.693 527.952 347.934 527.173C348.099 526.536 348.485 526.093 348.937 525.575C344.002 516.459 349.871 511.817 357.929 518.842C357.967 514.321 362.255 512.985 367.761 517.265C371.66 510.255 378.244 513.001 377.628 524.305C389.811 521.524 392.696 530.154 380.906 535.619C380.805 536.182 380.492 536.69 380.17 537.06C379.804 538.823 379.107 540.817 378.077 543.042C377.755 543.412 377.359 543.717 377.101 544.013C376.715 544.456 376.466 544.891 376.154 545.399C375.841 545.907 375.537 546.553 375.299 547.126C375.179 547.412 374.986 547.634 374.867 547.92C382.769 550.645 384.881 555.089 382.422 557.76Z" fill="#CCFF00"/>
<path opacity="0.2301" d="M365.586 568.714C363.892 570.36 360.136 570.339 355.278 567.405C355.14 567.414 355.14 567.414 355.001 567.424C354.946 567.636 354.891 567.848 354.901 567.987C354.865 568.476 354.819 568.826 354.709 569.251C355 581.604 346.254 581.787 345.963 569.433C346.073 569.008 346.045 568.593 346.155 568.169C346.21 567.957 346.191 567.68 346.31 567.394C346.107 567.477 345.904 567.56 345.702 567.644C336.525 569.663 333.168 565.305 337.378 561.819C334.673 560.892 333.517 559.233 333.763 557.757C324.962 558.151 323.961 550.643 334.589 545.466C334.561 545.051 334.671 544.626 334.707 544.137C334.788 543.297 335.082 542.512 335.376 541.728C335.67 540.943 336.037 540.223 336.47 539.428C337.463 537.692 338.826 536.278 340.429 535.334C341.028 534.945 341.775 534.686 342.448 534.361C343.121 534.037 343.804 533.851 344.486 533.666C345.03 533.489 345.583 533.451 346.137 533.414C344.812 530.307 345.693 527.952 347.934 527.173C348.099 526.536 348.485 526.093 348.937 525.575C344.002 516.459 349.871 511.817 357.929 518.842C357.976 514.459 361.913 513.078 367.179 516.888C365.301 518.893 361.608 522.83 359.258 524.034C356.106 525.71 347.792 530.172 351.067 535.37C354.407 540.493 348.618 543.253 348.092 552.813C347.745 559.927 354.531 562.59 366.28 564.635C366.883 566.332 366.562 567.744 365.586 568.714Z" fill="#222B00"/>
<path d="M322.75 547.567C321.922 547.567 321.405 547.567 321.198 547.463C320.06 547.153 306.304 533.5 308.372 532.983C310.441 532.465 342.919 535.672 344.367 537.016C345.816 538.361 350.677 546.326 350.677 546.326L328.128 547.463L328.128 547.567C326.06 547.567 323.991 547.567 322.75 547.567Z" fill="black"/>
<path d="M0.242158 432.755C-1.61966 425.204 60.6905 243.574 67 234.161C70.2519 229.31 84.723 241.648 104 242.5C122.125 243.302 142.963 235.364 150.532 234.161C166.254 231.679 397 236.5 397 236.5L458.5 231C458.5 231 408.317 282.529 405.075 293.5C396.953 320.981 382.594 370.173 381.707 377.418C380.466 387.451 378.604 395.001 375.398 401.311C372.191 407.62 368.468 418.274 368.468 418.274C368.468 418.274 333.3 417.55 332.679 417.343C341.368 429.031 350.987 438.444 352.849 440.202C356.573 443.926 354.711 448.373 357.917 448.994C357.917 448.994 355.435 467.819 354.194 487.885C352.953 507.951 350.367 541.878 350.987 546.326L328.852 547.67L337.851 556.979L344.161 556.359C344.161 556.359 349.229 570.839 346.022 572.081C342.919 573.322 337.23 590.906 337.23 590.906L328.439 693.926L170.805 696.409L76.9903 653.277L52.4764 464.302L0.242158 432.755Z" fill="#C8AB37"/>
<path opacity="0.4292" d="M170.702 696.305L76.8867 653.173L52.3729 464.199L0.242169 432.858C-1.61965 425.308 59.1905 245.332 65.5 235.92C68.7257 231.11 82.6936 240.805 100.5 243C114.097 244.676 130.349 239.234 143.291 235.92C143.291 235.92 133.672 276.776 141.223 283.603C152.497 296.015 204.008 319.908 204.008 319.908C204.008 319.908 142.257 304.186 137.396 307.806C124.053 323.528 129.224 408.241 129.224 408.241L183.217 448.373C183.217 448.27 164.599 662.792 170.702 696.305Z" fill="black"/>
<path opacity="0.4292" d="M52.3728 464.199L0.242124 432.858L129.224 407.931L129.224 408.241L183.217 448.373L52.3728 464.199Z" fill="black"/>
<path opacity="0.3894" d="M102.331 664.861L76.8866 653.173L52.3727 464.199L183.217 448.373C183.217 448.373 182.907 451.787 182.493 457.372C161.082 463.164 122.604 475.68 99.4352 513.434C77.4038 549.222 87.0232 596.181 102.331 664.861ZM90.7032 384.658C90.4963 383.727 89.7722 380.831 88.7378 376.59C86.6691 368.005 83.4628 353.628 79.8426 337.389C78.9117 333.355 78.0841 329.114 77.1532 324.873C76.2223 320.632 75.2913 316.288 74.4638 312.047C72.7055 303.359 70.9472 294.774 69.3957 286.499C68.6716 282.362 67.9475 278.431 67.2235 274.604C66.6028 270.777 65.9823 267.157 65.4651 263.743C64.9479 260.33 64.5343 257.227 64.224 254.331C64.0171 252.883 63.9138 251.538 63.8103 250.297C63.5 247.091 63.3965 244.401 63.5 242.333L63.5 242.229C63.5 241.402 63.6034 240.678 63.7068 240.057C63.7068 239.747 63.8102 239.436 63.9136 239.23C63.9136 239.126 63.9137 239.126 64.0171 239.023C64.0171 238.816 64.1205 238.609 64.224 238.506C64.3274 238.299 64.4308 238.195 64.4308 237.988C64.5342 237.885 64.6377 237.781 64.7411 237.575C64.8446 237.471 65.0514 237.264 65.2583 237.161C65.672 236.851 66.1893 236.437 66.9133 236.127C77.3545 230.351 91.5895 246.986 105.5 244.134C117.496 241.675 130.367 239.479 143.395 236.127C143.395 236.127 139.464 253.193 138.637 267.053C125.087 268.398 103.469 270.363 96.8494 270.363C87.1266 270.363 109.787 283.896 109.787 325.58C109.787 346.577 110.718 372.953 114.442 400.466L90.7032 384.658Z" fill="#2B2200"/>
<path opacity="0.1549" d="M170.701 696.305C164.599 662.689 183.217 448.27 183.217 448.27L129.224 408.138C129.224 408.138 124.156 323.425 137.396 307.703C142.257 304.186 204.007 319.805 204.007 319.805C204.007 319.805 152.497 296.015 141.223 283.499C133.672 276.569 143.188 235.816 143.188 235.816C115.157 243.057 109.5 250.5 67.448 234.466C66 227 135.637 236.54 150.428 234.161C166.15 231.679 397.5 233 397.5 233L459.5 230C459.5 230 407.669 284.12 404.049 296.429C403.842 294.05 403.532 292.291 402.911 291.464C398.463 285.258 391.327 271.087 371.778 271.087C352.228 271.087 287.479 266.64 261.723 268.398C235.968 270.156 170.288 273.777 175.563 285.258C180.942 296.842 240.416 327.873 240.416 327.873C240.416 327.873 197.801 337.595 190.664 341.216C183.527 344.732 178.252 364.281 174.632 377.624C171.115 390.967 208.352 414.964 219.936 459.337C230.176 498.746 217.35 582.321 214.971 695.684L170.701 696.305ZM67.5515 234.466C66.9309 234.776 66.3102 235.19 65.8965 235.5C66.4136 235.19 66.9309 234.879 67.5515 234.466Z" fill="black"/>
<path opacity="0.6814" d="M368.468 418.171L310.751 393.657C310.751 393.657 310.544 393.553 310.648 393.657C297.615 386.416 288.927 382.176 288.41 381.658L357.814 402.656C357.814 402.656 399.912 310.703 400.222 308.22C400.325 307.289 400.636 307.393 400.946 307.91C392.878 335.527 382.535 371.315 381.811 377.418C380.569 387.451 378.604 395.001 375.501 401.311C372.191 407.517 368.468 418.171 368.468 418.171Z" fill="#F4EED7"/>
<path opacity="0.6814" d="M308.683 532.983L293.892 526.57L341.368 536.81L354.504 480.231C354.297 482.714 354.09 485.299 353.987 487.885C352.746 507.951 350.16 541.878 350.78 546.326C350.78 546.429 347.988 545.291 347.781 545.291L308.683 532.983Z" fill="#F4EED7"/>
<path opacity="0.3894" d="M77.3974 382.031C77.1906 381.101 76.4664 378.204 75.432 373.964C87.4999 366.379 84.2936 352.001 80.6734 335.762C79.7425 331.728 78.915 327.487 77.9841 323.246C77.0531 319.006 76.1221 314.661 75.2947 310.421C73.5363 301.732 71.778 293.147 70.2265 284.872C69.5024 280.735 68.7783 276.805 68.0543 272.978C67.4337 269.15 66.8131 265.53 66.2959 262.117C65.7788 258.704 65.3651 255.601 65.0548 252.704C64.8479 251.256 64.7446 249.912 64.6411 248.67C64.3308 245.464 64.2274 242.775 64.3308 240.706L64.3308 240.603C64.3308 239.775 64.4342 239.051 64.5376 238.43C64.5376 238.12 64.641 237.81 64.7444 237.603C64.7444 237.5 64.7445 237.5 64.848 237.396C64.848 237.189 64.9513 236.982 65.0548 236.879C65.1582 236.672 65.2616 236.569 65.2616 236.362C65.365 236.258 65.4685 236.155 65.5719 235.948C65.6754 235.845 65.8822 235.638 66.0891 235.534C66.5029 235.224 67.0201 234.81 67.7442 234.5C74.5416 230.758 91.562 242.447 101.5 242.5C118.48 242.591 114.603 243.458 136.982 237.782C125.708 242.85 116.709 246.884 113.709 248.229C102.125 253.607 98.1537 244.364 87.4999 251.5C76.8462 258.637 78.9489 262.358 78.9489 284.596C78.9489 300.318 77.6042 338.279 83.4999 381.204L77.3974 382.031Z" fill="#2B2200"/>
<path opacity="0.4425" d="M332.679 417.757L367.743 418.171L310.751 393.657L332.679 417.757Z" fill="black"/>
<path opacity="0.4381" d="M350.884 546.222L328.749 547.567L308.579 532.879L350.884 546.222Z" fill="black"/>
<path opacity="0.3496" d="M129.541 606.671C110.923 581.847 125.094 572.021 132.231 571.193C139.368 570.263 157.055 584.536 151.78 612.981C146.401 641.425 148.263 646.7 135.748 644.011C123.335 641.322 129.541 606.671 129.541 606.671Z" fill="#28220B"/>
<path opacity="0.3496" d="M147.332 519.683C137.609 509.03 145.574 495.687 157.055 494.859C168.64 493.928 179.293 499.307 170.398 511.719C161.606 524.131 147.332 519.683 147.332 519.683Z" fill="#28220B"/>
<path opacity="0.3496" d="M46.07 369.6C42.5532 345.604 56.7237 334.122 64.6881 346.535C72.6525 358.947 78.8586 369.6 64.6881 373.221C50.5176 376.737 46.07 369.6 46.07 369.6Z" fill="#28220B"/>
<path opacity="0.1195" d="M327.618 343.845C236.182 311.884 291.209 290.577 314.275 292.335C337.341 294.093 361.337 295.024 361.337 318.09C361.337 341.156 327.618 343.845 327.618 343.845Z" fill="#28220B"/>
<path opacity="0.1195" d="M256.559 376.737C253.869 361.636 269.902 346.534 278.797 357.188C287.692 367.842 296.588 382.943 280.555 386.46C264.523 389.977 256.559 376.737 256.559 376.737Z" fill="#28220B"/>
<defs>
<radialGradient id="paint0_radial" cx="0" cy="0" r="1" gradientUnits="userSpaceOnUse" gradientTransform="translate(368.72 192.751) rotate(8.74702) scale(95.2793 63.9219)">
<stop/>
<stop offset="1" stop-color="#5E511A" stop-opacity="0"/>
</radialGradient>
<radialGradient id="paint1_radial" cx="0" cy="0" r="1" gradientUnits="userSpaceOnUse" gradientTransform="translate(271.511 311.76) rotate(121.689) scale(55.2898 95.1074)">
<stop stop-color="#3A4900"/>
<stop offset="1" stop-color="#88AA00"/>
</radialGradient>
<radialGradient id="paint2_radial" cx="0" cy="0" r="1" gradientUnits="userSpaceOnUse" gradientTransform="translate(498.916 494.615) rotate(31.6892) scale(55.2897 95.1072)">
<stop stop-color="#88AA00"/>
<stop offset="1" stop-color="#AAD400"/>
</radialGradient>
</defs>
</svg>
