<svg width="549" height="724" viewBox="0 0 549 724" fill="none" xmlns="http://www.w3.org/2000/svg">
<path d="M195.48 342.71C195.48 338.983 198.52 333.589 205.778 328.097C206.17 327.802 206.562 327.41 206.955 327.116C207.445 326.724 207.935 326.331 208.426 325.939C208.916 325.547 209.505 325.154 210.093 324.762C210.682 324.37 211.27 323.879 211.859 323.487C190.478 312.601 198.226 297.301 220.097 308.187C220.391 308.383 220.587 308.579 220.881 308.678C223.137 294.064 229.218 279.156 243.145 269.251L252.756 264.151C252.756 264.151 300.323 268.172 305.423 271.507C310.523 274.939 307.679 341.141 304.835 359.285C304.639 360.364 304.541 361.443 304.344 362.423C317.781 367.621 316.702 377.429 303.756 378.116C308.268 386.158 300.029 391.748 284.925 384.098C284.925 384.196 284.925 384.294 284.827 384.393C284.729 384.785 284.729 385.177 284.631 385.569C275.608 406.95 260.799 402.144 267.174 382.529C259.229 392.631 250.991 389.787 252.364 379.096C250.108 378.508 247.46 376.743 244.812 373.8C226.668 382.921 218.92 371.741 233.239 360.952C230.002 359.285 227.158 357.52 225.099 355.362C216.958 367.033 207.151 361.148 212.251 344.181C202.345 350.458 195.578 348.3 195.48 342.71Z" fill="url(#paint0_radial)"/>
<path d="M486.559 348.474C482.832 348.474 477.438 345.434 471.946 338.176C471.652 337.784 471.259 337.391 470.965 336.999C470.573 336.509 470.18 336.018 469.788 335.528C469.396 335.037 469.004 334.449 468.611 333.861C468.219 333.272 467.729 332.684 467.336 332.095C456.45 353.476 441.15 345.728 452.036 323.857C452.233 323.562 452.429 323.366 452.527 323.072C437.913 320.816 423.006 314.736 413.1 300.809L408 291.197C408 291.197 412.021 243.63 415.356 238.53C418.788 233.43 484.99 236.274 503.134 239.119C504.213 239.315 505.292 239.413 506.273 239.609C511.471 226.173 521.278 227.251 521.965 240.198C530.007 235.686 535.597 243.924 527.948 259.028C528.046 259.028 528.144 259.028 528.242 259.126C528.634 259.224 529.026 259.224 529.419 259.322C550.799 268.345 545.993 283.155 526.378 276.78C536.48 284.724 533.636 292.963 522.946 291.59C522.357 293.845 520.592 296.493 517.649 299.141C526.771 317.286 515.59 325.034 504.801 310.714C503.134 313.951 501.369 316.795 499.211 318.855C510.882 326.995 504.998 336.803 488.03 331.703C494.307 341.609 492.248 348.376 486.559 348.474Z" fill="url(#paint1_radial)"/>
<path opacity="0.98" d="M203.128 310.735C219.547 313.907 264.421 327.434 264.421 327.434L247.628 283.4L194.359 285.826L203.128 310.735Z" fill="#2B2200"/>
<path d="M462.113 723.085L374.045 719.913L326 689.5L268.432 380.051L247.069 357.381L235.594 304.204L203.408 311.015L191 297.86L193.239 264.742C230.089 256.252 279.441 245.337 279.441 245.337C279.441 245.337 426.469 230.13 521.441 251.867L529.37 330.512L483.471 343.76L533.475 365.404L543.831 463.36L527.878 496.852C543.737 658.901 524.053 543.684 533.475 689.5L504.368 695.844L491.121 699.016L490.281 699.202L462.113 723.085Z" fill="#C8AB37"/>
<path opacity="0.3186" d="M376.079 717.593L373 717.5L324.955 687.087L268.432 380.051L247.069 357.381L235.594 304.204L203.408 311.015L191 297.86L193.239 264.742C222.813 257.931 266.94 247.762 279.441 244.87L337.189 364.004C337.282 363.911 349.304 538.566 376.079 717.593Z" fill="black"/>
<path opacity="0.1018" d="M268.619 380.89L268.432 379.957L247.069 357.287L235.594 304.111L203.408 310.921L191 297.767L193.239 264.648C199.116 263.249 204.621 262.036 212.084 260.264C216.655 259.237 219.268 258.584 223.932 257.558C226.358 256.998 228.317 256.532 230.743 255.972C250.707 251.401 272.164 246.456 279.441 244.777L337.189 363.911C337.282 363.911 303.417 360.273 268.619 380.89Z" fill="black"/>
<path opacity="0.3407" d="M344.466 704L334.763 697.843L268.432 379.957L247.069 357.287L235.594 304.111L203.408 310.921L191 297.767L193.332 264.648C222.906 257.838 267.033 247.669 279.441 244.777L280.001 245.896C263.768 259.237 247.535 274.071 248.748 280.694C250.987 293.196 290.636 328.273 299.685 348.611C308.735 369.042 290.356 395.63 304.257 427.909C308.548 437.891 321.889 492.747 337.655 568.967C339.521 565.329 342.226 565.422 344.466 566.914C349.317 570.086 362.098 587.719 358.086 600.5C355.287 609.362 353.328 624.103 349.97 630.353C374.785 758.91 339.334 583.747 344.466 704Z" fill="#2B2200"/>
<path opacity="0.2743" d="M490.841 704.281L475.075 652.97L492.707 615C492.707 615 483.004 556.372 468.637 511.592C454.177 466.719 497.465 471.57 502.316 455.524C507.167 439.478 492.707 380.237 492.707 380.237L423.764 320.997C423.764 320.997 426.936 303.364 455.856 295.341C484.683 287.318 495.972 288.904 495.972 288.904C495.972 288.904 497.558 268.1 468.731 263.249C439.903 258.398 297.353 244.031 297.353 244.031C297.353 244.031 297.166 243.751 297.073 243.658C327.113 241.325 391.578 237.594 453.524 242.165C476.287 245.057 498.864 248.602 521.534 251.774L529.464 330.326C515.377 329.113 490.374 326.874 468.917 324.915C452.778 323.422 438.69 322.209 433.093 321.65C432.16 321.556 431.507 321.463 431.041 321.463C430.574 321.37 430.387 321.37 430.574 321.37C431.134 321.37 437.011 323.795 445.781 327.434C450.165 329.3 455.297 331.445 460.707 333.778C466.212 336.11 472.089 338.629 478.06 341.241C495.225 348.611 510.525 355.235 521.627 360.086C526.012 361.952 531.796 364.471 533.569 365.31L542.804 452.912L543.924 463.267L494.293 500.117L523.493 570.273L520.041 698.03L490.841 704.281Z" fill="#F4EED7"/>
<path opacity="0.1018" d="M415.367 692.5L367.229 690.727C340.454 511.793 337.282 363.911 337.282 363.911L279.534 244.777C281.493 244.311 290.916 242.165 290.916 242.165L325.061 243.564C316.385 257.278 392 296.5 392 296.5C392 296.5 370.028 292.379 358.739 306C347.451 319.621 358.739 312.227 358.739 355.328C358.739 398.336 401.747 516.164 415.367 670.282C425.443 786.338 392.604 575.978 415.367 692.5Z" fill="#2B2200"/>
<path opacity="0.09292" d="M401.374 411.49C398.948 391.432 416.58 389.846 423.017 393.858C429.455 397.869 440.65 417.927 432.626 425.857C424.603 433.88 408.557 441.903 403.799 437.052C399.041 432.294 401.374 411.49 401.374 411.49Z" fill="#2B2200"/>
<path opacity="0.09292" d="M410.236 291.33C411.076 275.284 424.697 275.284 427.869 278.549C431.041 281.721 437.478 284.146 429.455 292.17C421.432 300.099 410.236 291.33 410.236 291.33Z" fill="#2B2200"/>
<path opacity="0.09292" d="M452.684 625.315C438.224 527.639 432.627 472.316 426.283 470.73C419.846 469.145 443.075 628.487 443.075 628.487C449.886 644.534 452.498 640.709 452.684 625.315Z" fill="#2B2200"/>
<path opacity="0.09292" d="M473 678.5C448.184 531.938 453.524 546.857 455.856 544.431C458.282 542.006 477.758 692.867 479.344 701.73C481.023 710.499 473 678.5 473 678.5Z" fill="#2B2200"/>
<path opacity="0.2434" d="M366.203 664.591C362.191 650.131 364.617 647.799 367.789 651.81C370.96 655.822 379.823 666.271 376.558 670.189C373.386 674.201 366.203 664.591 366.203 664.591Z" fill="#2B2200"/>
<path d="M508.157 693.284L502 688.153C504.519 673.04 514.221 693.191 518.419 666.23C522.618 639.268 523.457 601.392 523.83 577.415C524.203 555.865 525.883 527.691 526.256 522C527.469 576.762 528.775 631.245 532.413 688.06L508.157 693.284Z" fill="#9D862C"/>
<path opacity="0.354" d="M466.209 715.816L450.816 721.04L442.14 680.815C442.14 680.815 416.485 480.423 418.071 482.009C419.657 483.595 453.055 670.739 454.268 675.217C466.676 719.718 454.268 691 454.268 691L466.209 715.816Z" fill="black"/>
<path opacity="0.4071" d="M484.03 343.573L529.464 330.419L430.574 321.277L484.03 343.573Z" fill="black"/>
<path opacity="0.6681" d="M458.425 242C438.809 270.54 450.677 283.781 463.035 299.865C475.392 315.95 475.883 327.621 474.019 336.35C472.156 345.078 467.448 341.351 465.977 348.315C464.506 355.278 475.294 372.54 481.669 361.751C487.946 350.963 478.432 343.117 479.511 333.898C480.59 324.678 481.571 299.277 488.044 297.413C494.517 295.452 494.909 301.042 496.381 306.828C497.852 312.615 502.559 317.617 505.6 314.969C508.64 312.321 514.721 302.317 519.232 292.607C523.744 282.898 510.013 249.16 504.717 247.983C499.225 246.806 458.425 242 458.425 242Z" fill="#222B00"/>
<path d="M473.826 222.002C470.884 222.1 468.138 226.219 468.236 234.261C456.957 229.554 452.25 236.223 460.292 243.186C449.111 248.58 451.465 256.721 462.744 254.563C462.156 256.328 461.665 258.094 461.273 259.957C457.546 259.467 456.075 261.428 457.938 263.684C453.034 266.43 453.132 269.765 456.369 270.059C454.604 273.884 456.761 275.846 459.998 273.688C460.096 275.65 460.39 277.415 460.782 279.082L460.684 279.18C460.586 279.278 460.586 279.278 460.488 279.376C458.33 283.005 458.527 285.653 459.802 286.438C454.996 292.126 458.625 295.755 463.725 291.146C464.411 291.832 465.392 292.519 466.569 293.107C466.569 293.107 466.569 293.107 466.667 293.107C470.688 295.461 473.336 294.971 473.728 293.303C474.513 293.892 475.298 294.48 476.082 295.069C467.157 301.542 470.884 309.486 483.928 308.015C475.494 315.959 482.555 324.099 499.326 318.117C500.013 318.313 500.798 318.411 501.484 318.509C501.386 319.097 501.288 319.686 501.19 320.372C501.092 320.961 501.19 320.667 501.092 321.157C499.424 335.182 507.074 338.811 511.194 330.474C514.038 333.122 517.47 331.651 518.745 326.355C518.844 326.747 518.942 327.14 518.942 327.532C519.138 328.611 519.236 329.788 519.432 330.867L519.53 331.455C521.59 349.011 534.045 347.54 531.986 329.984L531.888 329.395C531.692 328.218 531.495 327.042 531.299 325.865C531.103 324.884 530.907 323.805 530.711 322.824V322.726C531.495 321.942 532.28 320.863 533.163 319.49C545.324 321.844 548.463 314.095 538.753 308.996C545.815 296.932 554.053 284.182 536.694 267.313C515.901 247.109 505.701 235.144 483.732 234.555C482.555 234.555 481.378 234.654 480.3 234.85C480.3 234.85 480.3 234.85 480.3 234.752C480.3 234.654 480.3 234.555 480.3 234.555C480.005 226.023 476.867 221.904 473.826 222.002ZM500.797 317.626C500.994 317.626 500.896 317.626 500.994 317.626C501.288 317.626 501.582 317.724 501.778 317.724C501.778 317.822 501.778 317.822 501.778 317.92V318.019C501.386 318.019 500.601 318.019 499.915 317.92C500.307 317.822 500.503 317.724 500.797 317.626ZM497.757 317.724C497.855 317.724 498.051 317.724 498.149 317.724C498.346 317.724 498.542 317.822 498.738 317.822C498.248 317.822 498.051 317.822 497.365 317.724C497.561 317.724 497.659 317.724 497.757 317.724Z" fill="#AAD400"/>
<path d="M529.828 279.573C529.632 279.573 529.534 279.573 529.338 279.573C527.376 279.769 525.709 281.828 525.022 285.653C510.899 279.671 506.584 289.969 521.295 297.03C521.492 297.128 521.59 297.128 521.786 297.226C522.178 297.423 522.472 297.521 522.864 297.717C517.666 301.934 518.745 306.446 524.532 306.936C523.257 311.055 524.238 313.899 526.395 314.586C527.18 320.863 529.338 324.59 531.593 325.865C531.397 324.884 531.201 323.903 531.005 322.922V322.824C531.789 322.04 532.574 320.961 533.457 319.588C545.618 321.942 548.757 314.194 539.047 309.094C542.578 303.013 546.403 296.834 547.187 289.969C547.187 289.871 547.187 289.871 547.187 289.773C547.384 287.419 547.286 284.967 546.599 282.417C544.638 278.788 539.734 279.867 536.007 287.124C534.438 282.025 532.084 279.671 529.828 279.573Z" fill="#CCFF00"/>
<path opacity="0.3982" d="M516.097 269.471C516.097 272.805 511.88 275.453 506.584 275.453C501.386 275.453 497.071 272.707 497.071 269.471C497.071 266.136 501.288 263.488 506.584 263.488C511.88 263.488 516.097 266.136 516.097 269.471Z" fill="#668000"/>
<path d="M504.034 233.575C504.034 239.165 498.149 243.775 490.892 243.775C483.634 243.775 477.749 239.263 477.749 233.575C477.749 227.984 483.634 223.375 490.892 223.375C498.149 223.473 504.034 227.984 504.034 233.575Z" fill="#D4FF2A"/>
<path d="M473.826 222.002C470.884 222.1 468.138 226.219 468.236 234.261C456.957 229.554 452.25 236.223 460.292 243.186C449.111 248.58 451.465 256.721 462.744 254.563C462.156 256.328 461.665 258.094 461.273 259.957C457.546 259.467 456.075 261.428 457.938 263.684C453.034 266.43 453.132 269.765 456.369 270.059C454.604 273.884 456.761 275.846 459.998 273.688C460.096 275.65 460.39 277.415 460.782 279.082L460.684 279.18C460.586 279.278 460.586 279.278 460.488 279.376C458.33 283.005 458.527 285.653 459.802 286.438C454.996 292.126 458.625 295.755 463.725 291.146C464.411 291.832 465.392 292.519 466.569 293.107C466.569 293.107 466.569 293.107 466.667 293.107C470.688 295.461 473.336 294.971 473.728 293.303C474.513 293.892 475.298 294.48 476.082 295.069C467.157 301.542 470.884 309.486 483.928 308.015C475.494 315.959 482.555 324.099 499.326 318.117C500.013 318.313 500.798 318.411 501.484 318.509C501.386 319.097 501.288 319.686 501.19 320.372C501.092 320.961 501.19 320.667 501.092 321.157C499.424 335.182 507.074 338.811 511.194 330.474C514.038 333.122 517.47 331.651 518.745 326.355C518.844 326.747 518.942 327.14 518.942 327.532C519.138 328.611 519.236 329.788 519.432 330.867L519.53 331.455C521.59 349.011 534.045 347.54 531.986 329.984L531.888 329.395C531.79 328.905 531.79 328.513 531.692 328.022C529.436 325.08 526.788 322.04 524.042 318.901C524.14 318.313 524.336 317.822 524.532 317.332C525.121 315.076 525.513 312.919 525.905 310.663C530.515 308.996 534.34 304.386 536.203 300.365C536.89 298.599 537.969 296.148 536.792 295.167C534.928 296.638 534.242 298.894 532.869 300.659C531.005 303.405 528.945 306.053 526.297 308.309C526.592 305.563 526.886 302.915 526.886 300.267C530.122 297.717 532.574 294.088 533.359 290.753C533.849 288.007 530.711 290.949 529.926 292.323C528.946 293.401 527.278 296.344 526.788 296.148C527.18 294.382 525.513 292.715 527.18 290.949C529.044 288.498 530.613 285.457 530.319 283.103C529.24 281.73 527.376 285.261 526.592 286.438C526.003 287.615 525.513 288.203 525.513 286.83C524.14 284.967 527.572 282.417 527.572 280.063C528.161 278.592 527.082 275.453 525.219 277.709C524.532 278.592 524.042 281.73 523.355 281.436C521.982 279.18 520.413 277.121 518.451 275.355C517.078 275.159 518.157 277.415 518.353 278.101C519.04 279.867 519.824 281.534 520.609 283.299C519.138 282.809 515.901 282.515 514.724 284.673C515.803 285.849 517.667 286.144 519.04 287.026C521.099 287.713 522.668 288.694 522.374 291.146C520.118 290.165 517.176 289.478 513.94 290.655C512.273 292.323 515.607 292.617 516.49 293.107C518.745 293.892 521.001 294.774 522.963 296.049C523.061 297.815 523.159 299.58 523.159 301.444C521.001 299.482 517.569 298.207 513.547 299.384C510.605 300.659 514.136 301.64 515.117 301.934C517.961 302.817 520.315 304.386 523.159 305.171C523.061 306.151 523.257 308.309 522.865 308.505C521.001 306.544 517.373 305.857 513.744 307.426C509.428 302.817 505.309 298.207 502.269 293.99C496.972 286.732 494.226 277.023 493.54 268.392C494.521 269.373 495.796 271.236 496.678 269.078C496.776 266.038 495.305 263.88 493.344 262.802C493.344 261.723 493.344 260.644 493.442 259.663C493.442 259.663 493.442 259.663 493.54 259.565C495.992 261.036 498.836 261.527 501.386 262.802C502.269 263.292 505.211 265.057 504.819 262.115C503.74 258.486 500.503 257.113 497.267 256.917C499.13 255.642 500.896 254.465 502.759 253.288C505.113 253.68 507.271 254.661 509.33 255.642C510.311 255.838 512.567 257.996 513.253 255.642C512.665 252.602 510.311 250.934 507.957 250.052C508.251 249.855 508.447 249.659 508.644 249.561C514.038 251.327 520.511 254.171 526.003 256.623C523.551 254.269 521.296 252.111 519.04 250.15C519.824 248.09 517.863 246.423 516.686 245.834C518.844 245.05 521.001 244.461 523.159 243.677C523.944 243.382 526.886 242.5 525.905 241.715C523.061 241.617 520.02 242.009 516.98 242.598C516.294 242.402 519.138 239.852 519.628 238.675C520.805 235.83 516.98 237.302 515.901 238.773C514.136 240.048 513.351 242.794 511.88 244.167C511.39 243.873 510.998 243.48 510.507 243.186C511.39 241.519 513.057 238.871 511.292 239.067C510.213 239.655 509.134 240.636 508.251 241.715C500.994 237.007 493.442 234.457 483.438 234.163C482.261 234.163 481.084 234.261 480.005 234.457C480.005 234.457 480.005 234.457 480.005 234.359C480.005 234.261 480.005 234.163 480.005 234.163C480.005 226.023 476.867 221.904 473.826 222.002ZM501.68 248.188C502.563 248.286 503.446 248.482 504.426 248.679C503.25 249.561 501.68 249.954 500.601 251.032C500.209 250.836 500.896 249.463 501.68 248.188ZM498.248 248.286C497.365 250.052 496.776 251.915 496.482 253.68C495.698 254.269 494.913 254.857 494.128 255.446C494.815 252.307 495.894 249.855 497.267 248.777C497.561 248.58 497.855 248.482 498.248 248.286ZM533.751 309.29C532.77 309.29 530.711 310.761 529.926 311.447C528.357 312.821 524.238 315.174 525.415 316.645C527.867 316.744 530.907 314.586 532.869 312.428C533.359 311.84 533.849 311.153 534.143 310.467C534.34 309.584 534.144 309.29 533.751 309.29ZM515.901 310.074C518.648 310.369 520.315 312.036 522.767 312.722C522.472 313.605 523.061 316.744 521.884 315.076C521.197 314.586 520.315 314.095 519.432 313.899C518.255 312.624 517.078 311.349 515.901 310.074ZM500.797 317.626C500.994 317.626 500.896 317.626 500.994 317.626C501.288 317.626 501.582 317.724 501.778 317.724C501.778 317.822 501.778 317.822 501.778 317.92V318.019C501.386 318.019 500.601 318.019 499.915 317.92C500.307 317.822 500.503 317.724 500.797 317.626ZM497.757 317.724C497.855 317.724 498.051 317.724 498.149 317.724C498.346 317.724 498.542 317.822 498.738 317.822C498.248 317.822 498.051 317.822 497.365 317.724C497.561 317.724 497.659 317.724 497.757 317.724Z" fill="#93B800"/>
<path d="M522.767 238.871C525.513 240.832 521.59 243.48 521.982 245.834C524.924 248.286 527.18 240.636 530.515 243.677C533.065 246.423 529.73 249.855 527.671 251.523C527.769 254.955 531.593 252.307 533.163 251.915C536.791 251.817 537.87 257.309 533.947 257.8C531.888 258.584 531.692 262.409 534.634 261.036C537.576 260.153 540.224 263.684 537.478 265.744C535.419 269.078 537.38 272.707 539.145 275.551C540.518 278.788 541.597 282.024 542.97 285.261C542.48 289.282 537.576 285.065 538.361 282.515C537.478 279.18 535.517 276.14 534.83 272.805C532.967 269.765 527.18 274.276 527.082 269.569C526.788 267.411 531.495 263.39 527.376 263.488C524.434 265.057 522.178 261.821 523.845 259.271C524.63 258.388 524.63 255.544 523.257 257.603C520.903 260.35 515.901 258.094 517.667 254.563C518.451 253.484 520.217 249.071 517.667 251.425C515.411 254.073 510.997 252.7 512.174 248.973C512.469 246.03 510.899 251.523 509.134 250.64C506.388 251.327 505.211 248.777 506.094 246.619C505.407 244.265 502.465 245.442 503.249 247.698C502.465 250.542 497.267 250.542 497.365 247.207C494.226 245.834 494.226 253.975 490.598 250.248C489.323 248.482 487.361 247.207 485.596 246.619C485.792 243.971 490.401 243.971 490.009 240.734C490.794 237.792 495.011 237.007 495.6 240.44C498.15 242.009 497.267 236.321 500.209 236.909C504.23 236.125 502.563 243.088 506.78 241.225C509.036 239.95 512.174 235.34 514.332 239.165C514.822 240.538 514.528 242.598 516.588 241.127C518.451 239.852 520.217 237.694 522.767 238.871Z" fill="#CCFF00"/>
<path d="M382.422 557.76C380.544 559.765 376.015 560.631 369.231 559.011C369.019 558.956 368.88 558.965 368.668 558.91C368.475 559.132 368.281 559.354 368.088 559.576C367.25 560.537 366.477 561.424 365.565 562.321C365.565 562.321 365.565 562.321 365.501 562.394C368.991 568.69 363.905 572.583 355.278 567.405C355.14 567.414 355.14 567.414 355.001 567.424C354.946 567.636 354.891 567.848 354.901 567.987C354.865 568.476 354.819 568.826 354.709 569.251C355 581.604 346.254 581.787 345.963 569.433C346.073 569.008 346.045 568.593 346.155 568.169C346.21 567.957 346.191 567.68 346.31 567.394C346.107 567.477 345.904 567.56 345.702 567.644C336.525 569.663 333.168 565.305 337.378 561.819C334.673 560.892 333.517 559.233 333.763 557.757C324.962 558.151 323.961 550.643 334.589 545.466C334.561 545.051 334.671 544.626 334.707 544.137C334.788 543.297 335.082 542.512 335.376 541.728C335.67 540.943 336.037 540.223 336.47 539.428C337.463 537.692 338.826 536.278 340.429 535.334C341.028 534.945 341.775 534.686 342.448 534.361C343.121 534.037 343.804 533.851 344.486 533.666C345.03 533.489 345.583 533.451 346.137 533.414C344.812 530.307 345.693 527.952 347.934 527.173C348.099 526.536 348.485 526.093 348.937 525.575C344.002 516.459 349.871 511.817 357.929 518.842C357.967 514.321 362.255 512.985 367.761 517.265C371.66 510.255 378.244 513.001 377.628 524.305C389.811 521.524 392.696 530.154 380.906 535.619C380.805 536.182 380.492 536.69 380.17 537.06C379.804 538.823 379.107 540.817 378.077 543.042C377.755 543.412 377.359 543.717 377.101 544.013C376.715 544.456 376.466 544.891 376.154 545.399C375.841 545.907 375.537 546.553 375.299 547.126C375.179 547.412 374.986 547.634 374.867 547.92C382.769 550.645 384.881 555.089 382.422 557.76Z" fill="#CCFF00"/>
<path opacity="0.2301" d="M365.586 568.714C363.892 570.36 360.136 570.339 355.278 567.405C355.14 567.414 355.14 567.414 355.001 567.424C354.946 567.636 354.891 567.848 354.901 567.987C354.865 568.476 354.819 568.826 354.709 569.251C355 581.604 346.254 581.787 345.963 569.433C346.073 569.008 346.045 568.593 346.155 568.169C346.21 567.957 346.191 567.68 346.31 567.394C346.107 567.477 345.904 567.56 345.702 567.644C336.525 569.663 333.168 565.305 337.378 561.819C334.673 560.892 333.517 559.233 333.763 557.757C324.962 558.151 323.961 550.643 334.589 545.466C334.561 545.051 334.671 544.626 334.707 544.137C334.788 543.297 335.082 542.512 335.376 541.728C335.67 540.943 336.037 540.223 336.47 539.428C337.463 537.692 338.826 536.278 340.429 535.334C341.028 534.945 341.775 534.686 342.448 534.361C343.121 534.037 343.804 533.851 344.486 533.666C345.03 533.489 345.583 533.451 346.137 533.414C344.812 530.307 345.693 527.952 347.934 527.173C348.099 526.536 348.485 526.093 348.937 525.575C344.002 516.459 349.871 511.817 357.929 518.842C357.976 514.459 361.913 513.078 367.179 516.888C365.301 518.893 361.608 522.83 359.258 524.034C356.106 525.71 347.792 530.172 351.067 535.37C354.407 540.493 348.618 543.253 348.092 552.813C347.745 559.927 354.531 562.59 366.28 564.635C366.883 566.332 366.562 567.744 365.586 568.714Z" fill="#222B00"/>
<path d="M299.926 541.015C299.157 541.015 298.677 541.015 298.484 540.889C297.427 540.514 284.644 524.004 286.566 523.379C288.488 522.753 318.669 526.631 320.014 528.257C321.36 529.883 325.877 539.514 325.877 539.514L304.924 540.889L304.924 541.015C303.002 541.015 301.079 541.015 299.926 541.015Z" fill="black"/>
<path d="M0.23926 402.179C-1.49081 393.049 56.4103 173.414 62.2733 162.032C65.2951 156.166 78.7423 171.085 96.6552 172.115C113.498 173.085 132.861 163.487 139.894 162.032C154.504 159.03 368.923 164.86 368.923 164.86L426.071 158.209C426.071 158.209 379.439 220.52 376.426 233.787C368.879 267.018 355.536 326.503 354.712 335.263C353.558 347.396 351.829 356.526 348.849 364.156C345.869 371.786 342.409 384.669 342.409 384.669C342.409 384.669 309.73 383.793 309.153 383.543C317.227 397.677 326.166 409.059 327.896 411.185C327.896 411.185 385.52 438.75 388.5 439.5L329.145 468.845C327.992 493.11 325.589 534.135 326.166 539.514L305.597 541.14L313.959 552.397L319.822 551.646C319.822 551.646 324.532 569.157 321.552 570.658C318.669 572.159 313.382 593.422 313.382 593.422L305.213 717.998L158.733 721L12.5 708L28 441.5L0.23926 402.179Z" fill="#C8AB37"/>
<path opacity="0.4292" d="M146 720.5L12.5 708.5L28 441L0.239201 402.305C-1.49087 393.175 55.0164 175.541 60.8794 164.159C63.8769 158.344 76.8564 170.066 93.4028 172.721C106.038 174.748 121.139 168.167 133.166 164.159C133.166 164.159 124.228 213.564 131.244 221.819C141.721 236.829 189.586 265.721 189.586 265.721C189.586 265.721 132.205 246.71 127.688 251.087C115.289 270.099 120.095 372.537 120.095 372.537L170.267 421.067C170.267 420.942 140.329 679.975 146 720.5Z" fill="black"/>
<path opacity="0.4292" d="M48.6818 440.203L0.239895 402.304L120.095 372.161L120.095 372.536L170.268 421.066L48.6818 440.203Z" fill="black"/>
<path opacity="0.3894" d="M62.5 703.5L33.5 674.5L48.681 440.203L170.267 421.066C170.267 421.066 169.978 425.194 169.594 431.948C149.698 438.952 113.943 454.086 92.4134 499.739C71.9409 543.016 48.2749 620.449 62.5 703.5ZM84.2992 344.019C84.107 342.893 83.4341 339.391 82.4729 334.263C80.5506 323.881 77.5712 306.496 74.2071 286.859C73.3421 281.981 72.5731 276.853 71.708 271.724C70.843 266.596 69.9779 261.343 69.209 256.215C67.575 245.708 65.9411 235.327 64.4994 225.321C63.8266 220.318 63.1537 215.565 62.4809 210.937C61.9042 206.309 61.3276 201.932 60.847 197.804C60.3664 193.677 59.982 189.924 59.6937 186.422C59.5014 184.671 59.4054 183.045 59.3093 181.544C59.0209 177.667 58.9248 174.415 59.0209 171.913L59.0209 171.788C59.0209 170.787 59.117 169.912 59.2131 169.161C59.2131 168.786 59.3091 168.411 59.4053 168.161C59.4053 168.036 59.4054 168.036 59.5015 167.911C59.5015 167.661 59.5975 167.41 59.6937 167.285C59.7898 167.035 59.8858 166.91 59.8858 166.66C59.982 166.535 60.0781 166.41 60.1742 166.16C60.2703 166.035 60.4626 165.784 60.6548 165.659C61.0393 165.284 61.5199 164.784 62.1927 164.409C71.8951 157.424 85.1228 177.541 98.049 174.092C109.196 171.118 121.156 168.463 133.262 164.409C133.262 164.409 129.61 185.046 128.841 201.806C116.25 203.432 96.1619 205.809 90.0105 205.809C80.9757 205.809 102.033 222.173 102.033 272.579C102.033 297.97 102.898 329.864 106.358 363.135L84.2992 344.019Z" fill="#2B2200"/>
<path opacity="0.1549" d="M158.637 720.876C158.288 718.374 145.684 723.674 145.5 719.628C142.688 657.928 170.267 420.942 170.267 420.942L120.095 372.412C120.095 372.412 115.385 269.974 127.688 250.962C132.205 246.71 189.586 265.596 189.586 265.596C189.586 265.596 141.721 236.829 131.244 221.694C124.228 213.314 133.07 164.034 133.07 164.034C107.023 172.789 101.766 181.79 62.6896 162.401C61.344 153.373 126.054 164.909 139.798 162.033C154.408 159.031 369.387 160.628 369.387 160.628L427 157.001C427 157.001 378.837 222.445 375.473 237.329C375.28 234.452 374.992 232.326 374.415 231.325C370.282 223.821 363.651 206.685 345.485 206.685C327.319 206.685 267.151 201.307 243.218 203.433C219.285 205.559 158.252 209.937 163.154 223.821C168.152 237.829 223.419 275.352 223.419 275.352C223.419 275.352 183.819 287.109 177.187 291.487C170.555 295.74 165.653 319.379 162.289 335.514C159.021 351.649 193.623 380.667 204.388 434.325C213.903 481.979 201.985 583.041 199.774 720.125L158.637 720.876ZM62.7858 162.401C62.2091 162.776 61.6323 163.276 61.2478 163.652C61.7284 163.276 62.2091 162.901 62.7858 162.401Z" fill="black"/>
<path opacity="0.6814" d="M342.409 384.544L288.777 354.9C288.777 354.9 288.585 354.775 288.681 354.9C276.57 346.145 268.496 341.017 268.016 340.391L332.509 365.782C332.509 365.782 364.212 285.002 364.5 282C364.596 280.874 364.884 280.999 365.173 281.625C357.676 315.02 355.481 327.884 354.808 335.263C353.655 347.396 351.828 356.526 348.945 364.156C345.869 371.661 342.409 384.544 342.409 384.544Z" fill="#F4EED7"/>
<path opacity="0.6814" d="M286.855 523.379L273.11 515.624L317.227 528.007L329.434 459.589C329.241 462.591 329.049 465.718 328.953 468.845C327.8 493.11 325.397 534.135 325.973 539.514C325.973 539.639 323.378 538.263 323.186 538.263L286.855 523.379Z" fill="#F4EED7"/>
<path opacity="0.3894" d="M71.935 340.843C71.7427 339.717 71.0698 336.215 70.1086 331.087C81.3226 321.914 78.3432 304.529 74.9792 284.892C74.1141 280.014 73.3451 274.886 72.4801 269.757C71.615 264.629 70.7499 259.376 69.981 254.248C68.347 243.741 66.7132 233.36 65.2714 223.354C64.5986 218.351 63.9257 213.598 63.2529 208.97C62.6762 204.342 62.0996 199.965 61.619 195.837C61.1384 191.71 60.754 187.957 60.4657 184.455C60.2734 182.704 60.1774 181.078 60.0813 179.577C59.793 175.7 59.6968 172.448 59.7929 169.946L59.7929 169.821C59.7929 168.82 59.889 167.945 59.9851 167.194C59.9851 166.819 60.0812 166.444 60.1773 166.194C60.1773 166.069 60.1774 166.069 60.2735 165.944C60.2735 165.694 60.3696 165.443 60.4657 165.318C60.5618 165.068 60.6579 164.943 60.6579 164.693C60.754 164.568 60.8501 164.443 60.9462 164.193C61.0424 164.068 61.2346 163.817 61.4268 163.692C61.8113 163.317 62.292 162.817 62.9648 162.442C69.2812 157.916 85.0972 172.051 94.332 172.116C110.11 172.226 106.507 173.274 127.303 166.41C116.827 172.539 108.465 177.417 105.677 179.043C94.9125 185.547 91.2225 174.369 81.3226 182.999C71.4228 191.63 73.3767 196.129 73.3767 223.02C73.3767 242.032 72.1271 287.935 77.6057 339.842L71.935 340.843Z" fill="#2B2200"/>
<path opacity="0.4425" d="M309.153 384.043L341.736 384.544L288.777 354.9L309.153 384.043Z" fill="black"/>
<path opacity="0.4381" d="M326.07 539.389L305.501 541.015L286.758 523.254L326.07 539.389Z" fill="black"/>
<path opacity="0.3496" d="M91.6566 648.022C68.1143 617.955 86.0328 606.054 95.0573 605.052C104.082 603.924 126.447 621.213 119.777 655.664C112.976 690.115 115.33 696.505 99.5041 693.247C83.8092 689.99 91.6566 648.022 91.6566 648.022Z" fill="#28220B"/>
<path opacity="0.3496" d="M106.057 540.143C97.0221 527.26 104.423 511.125 115.092 510.124C125.857 508.999 135.757 515.503 127.491 530.512C119.321 545.521 106.057 540.143 106.057 540.143Z" fill="#28220B"/>
<path opacity="0.3496" d="M42.8242 325.81C39.5563 296.792 52.7241 282.909 60.125 297.918C67.5258 312.927 73.2928 325.81 60.125 330.188C46.9572 334.441 42.8242 325.81 42.8242 325.81Z" fill="#28220B"/>
<path opacity="0.1195" d="M304.45 314.666C219.484 276.018 270.617 250.252 292.051 252.378C313.485 254.504 335.783 255.63 335.783 283.522C335.783 311.414 304.45 314.666 304.45 314.666Z" fill="#28220B"/>
<path opacity="0.1195" d="M238.419 334.441C235.92 316.179 250.818 297.918 259.084 310.801C267.349 323.684 275.615 341.945 260.717 346.198C245.82 350.45 238.419 334.441 238.419 334.441Z" fill="#28220B"/>
<path d="M66.9779 230.596C57.8679 191.462 46.9739 114.023 50.6052 99.4918C54.2365 84.8964 96.0916 58.5099 101.57 57.6176C107.049 56.7253 398.251 85.8524 467.436 85.8524C536.621 85.8524 541.144 104.081 542.036 114.087C542.928 124.094 531.142 214.216 531.142 219.697C531.142 222.565 411.693 239.837 289.122 242.068C231.913 243.088 172.221 250.863 129.92 247.613C90.9313 244.617 66.9779 230.596 66.9779 230.596Z" fill="#C8AB37"/>
<path opacity="0.354" d="M102.08 57.6177C101.825 57.6177 101.698 57.6177 101.57 57.6177C96.0916 58.51 54.2366 84.8964 50.6053 99.4919C46.974 114.087 57.9317 191.462 66.978 230.596C66.978 230.596 90.9314 244.617 129.856 247.549C132.213 247.74 134.634 247.868 137.055 247.995V227.791L165.277 222.374L137.246 215.554L137.118 215.49V161.57V160.423L202.673 146.784L127.117 132.188L117.115 93.0546C117.115 93.0546 111.126 75.1449 105.393 57.6814C103.8 57.6814 102.653 57.6177 102.08 57.6177Z" fill="black"/>
<path opacity="0.4248" d="M539.743 143.724L502.029 154.177L537.64 162.59C538.341 156.089 539.106 149.652 539.743 143.724Z" fill="black"/>
<path opacity="0.292" d="M68.252 78.969C59.4605 86.1074 52.0705 93.6919 50.6052 99.4918C46.9739 114.087 57.8679 191.462 66.9779 230.596C66.9779 230.596 81.5621 343.703 85.5 345.5C89.9301 347.522 84.2062 238.387 93 240.954C102.889 243.842 103.474 245.583 118 246.701C120.357 246.892 122.778 246.573 125.199 246.701V237.013C113.923 234.145 109.088 230.532 102.908 227.919C93.3522 223.84 80.1649 207.013 76.9796 193.756C74.5587 183.559 68.8253 120.206 68.252 78.969Z" fill="black"/>
<path opacity="0.3761" d="M108.387 115.234C107.559 120.588 105.074 128.364 109.534 131.423C112.592 133.463 118.007 131.105 119.982 127.981C122.657 123.902 121.574 117.146 118.389 113.386C116.478 111.155 112.592 109.817 109.98 111.092C108.706 111.793 108.642 113.769 108.387 115.234Z" fill="black"/>
<path opacity="0.3761" d="M101.124 201.022C101.443 204.464 101.953 210.583 108.642 208.097C112.783 206.567 114.885 203.827 113.866 201.022C112.655 197.581 106.667 197.071 103.163 198.282C102.08 198.664 100.997 199.875 101.124 201.022Z" fill="black"/>
<path opacity="0.3761" d="M82.9044 181.009C80.4198 186.044 86.5356 186.937 88.5742 185.789C90.6128 184.642 92.4601 180.754 90.6126 178.715C88.7651 176.675 86.7267 175.783 85.3889 176.42C84.051 177.122 82.9044 181.009 82.9044 181.009Z" fill="black"/>
<path opacity="0.3761" d="M88.829 193.756C85.1978 195.605 86.3446 198.983 90.1669 198.983C94.053 198.983 97.8753 197.389 96.0915 195.541C94.3077 193.757 88.829 193.756 88.829 193.756Z" fill="black"/>
<path opacity="0.4735" d="M428.575 124.476L301.799 137.988L222.612 147.676L287.593 155.388C293.39 155.388 398.952 166.988 398.952 166.988L409.4 223.585L488.14 213.514C484.127 195.286 478.776 170.174 478.776 170.174L428.575 124.476ZM133.424 247.868C134.315 247.932 135.271 247.995 136.163 248.059C135.271 247.932 134.379 247.932 133.424 247.868Z" fill="url(#paint2_radial)"/>
<path opacity="0.7003" d="M102.08 57.6177C101.825 57.6177 101.698 57.6177 101.57 57.6177C98.385 58.1276 82.5858 67.4967 69.3349 78.0767L102.271 62.1429L126.161 134.738L211.018 148.632L128.391 129.065L113.165 62.589C113.165 62.589 144.7 62.4616 157.441 62.1429C127.18 59.5297 105.584 57.6177 102.08 57.6177Z" fill="white"/>
<path opacity="0.2168" d="M238.093 78.1405C312.12 87.8283 435.647 93.5645 457.562 93.5645C479.413 93.5645 525.154 98.727 530.251 101.914C535.411 105.164 536.048 129.575 536.048 132.825C536.048 136.076 516.108 140.537 496.168 140.537C476.228 140.537 491.199 104.081 488.013 100.83C484.764 97.5798 252.3 94.8392 238.73 91.5887C225.224 88.3382 211.082 81.9009 215.541 79.9888C220.064 78.1405 238.093 78.1405 238.093 78.1405Z" fill="white"/>
<path opacity="0.2168" d="M500.627 165.075C523.816 168.963 529.613 171.513 529.613 171.513L523.816 214.024C523.816 214.024 510.31 218.549 505.15 215.299C499.99 212.048 500.627 165.075 500.627 165.075Z" fill="white"/>
<path opacity="0.7003" d="M134.315 160.742L137.246 215.809L165.914 222.629L139.539 213.514L140.24 162.271L158.205 156.599L134.315 160.742Z" fill="white"/>
<path opacity="0.1681" d="M219.873 179.862C190.951 191.016 203.692 208.543 214.649 211.475C225.543 214.407 257.651 208.989 266.315 200.767C274.979 192.545 277.464 183.24 269.946 178.46C262.429 173.744 219.873 179.862 219.873 179.862Z" fill="black"/>
<path opacity="0.1327" d="M311.228 195.031C296.13 211.794 298.996 213.387 308.998 214.343C319 215.299 326.39 216.892 327.664 209.818C328.938 202.743 332.187 201.15 326.39 198.537C320.593 195.987 311.228 195.031 311.228 195.031Z" fill="black"/>
<path opacity="0.1283" d="M159.416 155.834L140.367 162.717L139.667 213.323L165.213 222.374L136.991 227.727V247.932C178.719 249.907 270.413 240.226 324.5 239.27C374.864 238.379 389.76 237.457 431 233.5C490.125 227.828 531.079 221.259 531.079 219.569C531.079 218.55 531.525 213.961 532.225 208.224L531.015 207.969L381.5 236L262.5 242.826H186L188.339 222.692L157.759 210.328C157.887 210.391 157.122 170.557 159.416 155.834ZM116.032 246.019C117.115 246.211 118.261 246.338 119.344 246.529C118.198 246.338 117.115 246.211 116.032 246.019ZM124.377 247.103C126.161 247.294 128.008 247.485 129.856 247.613C128.008 247.485 126.225 247.294 124.377 247.103ZM133.424 247.868C134.315 247.932 135.271 247.995 136.163 248.059C135.271 247.932 134.379 247.932 133.424 247.868Z" fill="black"/>
<path opacity="0.4469" d="M38.2463 92.6084C41.559 108.733 45.445 131.487 84.6244 128.555C96.6649 127.663 97.8118 110.454 105.202 108.096C116.733 104.336 128.773 117.848 132.532 118.74C151.134 123.138 190.504 104.527 202.545 107.777C214.585 111.092 221.657 119.823 233.697 117.656C245.738 115.489 256.122 100.129 262.11 100.129C268.099 100.129 283.962 104.527 286.191 105.61C288.357 106.694 299.315 168.326 319.637 147.931C326.454 141.047 321.166 139.008 329.958 134.61C338.685 130.212 317.726 109.753 326.454 99.8742C335.182 89.9952 379.712 102.296 387.93 106.694C396.149 111.092 420.23 114.916 426.218 115.426C432.206 115.936 474.89 124.731 482.025 121.99C489.16 119.25 483.681 117.083 512.094 114.852C540.507 112.685 547.642 113.769 547.642 107.204C547.642 100.639 550.955 83.1118 543.82 82.6019C536.685 82.0283 376.973 59.5934 359.517 60.167C341.998 60.7407 208.024 52.5188 191.587 58.5099C175.151 64.5011 116.095 67.2417 116.095 67.2417L71.3098 71.9581L38.2463 92.6084Z" fill="black"/>
<path d="M97.8756 0.000770653C93.5435 0.0645061 90.9952 6.43806 94.8813 17.1456C81.5029 5.6095 72.5203 12.1105 80.165 23.0093C60.2886 26.451 43.7888 35.3102 38.8834 44.1694C30.2831 32.1235 20.9819 37.1585 26.3969 51.1166C17.2232 48.4397 13.5921 54.9407 20.7909 62.9076C20.6635 62.9076 20.5361 62.9714 20.4724 62.9714C4.80059 70.1098 5.69223 80.3711 16.7134 79.67C16.586 79.7338 16.5223 79.7975 16.3949 79.8613C15.5667 80.4986 14.7386 81.0722 13.9104 81.7096C13.0822 82.3469 12.1903 83.048 11.3622 83.7491C10.6614 84.3227 9.96074 84.9601 9.25997 85.6612C-4.69172 102.36 7.09396 112.239 21.0457 95.5402C21.5553 95.094 22.1287 94.6479 22.7021 94.2018C23.148 93.8831 23.5303 93.5644 23.9762 93.2457C21.7465 99.5555 22.5108 103.953 24.8043 105.674C24.7406 106.184 24.6767 106.694 24.6767 107.204C24.613 107.714 24.6133 108.224 24.6133 108.67C23.9125 128.428 36.7172 130.403 39.3292 113.641C44.5531 124.094 52.3891 122.946 52.8351 113.004C58.9509 117.656 63.9836 114.47 62.582 106.566C77.3619 103.188 97.8755 94.0743 109.597 87.0634C103.163 102.169 113.484 107.714 122.594 94.0105C122.785 94.0105 122.912 94.0743 123.103 94.0743C125.524 109.881 136.673 109.626 137.819 94.3292C143.808 98.472 148.522 95.0303 146.866 86.9996C155.593 87.0633 164.895 86.2985 173.941 84.7052C172.667 89.1029 175.597 90.9512 179.483 88.0194C178.4 94.138 181.777 96.305 184.962 92.8633C184.962 93.2457 184.962 93.6281 185.026 94.0105C185.408 105.292 193.435 105.037 192.989 93.6918C192.989 93.1819 192.925 92.7358 192.925 92.2259C196.365 100.129 202.29 97.9621 200.061 89.0392C203.055 89.9314 205.029 89.1029 205.284 87.5095C205.539 87.7007 205.858 87.8919 206.176 88.0831C206.113 88.0194 206.049 87.9557 205.985 87.8282C206.049 87.8282 206.176 87.9556 206.24 87.9556C206.367 88.0194 206.495 88.1469 206.686 88.2743C206.813 88.3381 206.941 88.4655 207.004 88.5293C209.298 90.9512 211.4 92.0985 212.993 92.3534C214.076 95.7951 217.134 96.5599 220.319 93.7556C220.956 96.9424 222.549 98.4083 224.078 98.0896C224.141 98.2808 224.205 98.472 224.205 98.6632C226.18 109.626 233.889 108.224 231.977 97.261C231.914 96.8786 231.85 96.4962 231.722 96.1138C231.659 95.9226 231.659 95.7314 231.595 95.6039C232.678 96.1138 233.57 96.1775 234.334 95.9863C235.863 108.032 244.973 107.395 245.802 93.8831C248.796 95.0303 250.58 92.9907 249.305 89.2304C262.493 89.6765 277.591 91.3974 292.69 93.182C290.842 101.977 297.085 105.164 304.22 98.2808C304.921 112.876 312.757 116.573 316.834 109.434C316.898 109.562 316.898 109.689 316.962 109.753C317.28 110.582 317.535 111.41 317.854 112.175C318.172 113.004 318.427 113.832 318.682 114.661C318.936 115.489 319.255 116.318 319.51 117.147C319.765 117.975 320.019 118.804 320.274 119.568C320.529 120.397 320.72 121.289 320.975 122.118C325.817 143.214 340.724 139.773 335.882 118.676C335.628 117.784 335.437 116.892 335.182 116.063C334.927 115.107 334.672 114.215 334.353 113.322C334.29 113.195 334.29 113.067 334.226 112.94C337.666 112.621 339.768 108.224 338.176 100.703C347.604 111.665 356.077 107.841 352.383 97.261C356.842 96.9424 360.855 96.305 364.168 95.2852C368.5 93.9468 377.164 93.6281 388.313 94.0105C387.548 96.9423 389.269 98.5995 392.199 97.6434C392.072 102.296 395.575 103.38 398.633 99.3006C398.315 110.263 406.087 110.454 406.533 99.3643C406.533 98.9182 406.596 98.5357 406.596 98.0896C406.724 98.2808 406.788 98.472 406.915 98.7269C407.106 99.1731 407.234 99.6192 407.361 100.002C407.361 100.065 407.425 100.193 407.425 100.257C409.782 110.008 416.153 109.562 415.707 101.723C419.147 104.144 421.822 101.531 419.911 96.1138C421.313 96.2413 422.714 96.3687 424.179 96.4962C424.116 96.6874 424.052 96.9423 424.052 97.1336C423.988 97.516 423.925 97.8984 423.925 98.2808C423.861 98.7269 423.797 99.1731 423.797 99.5555C423.797 100.002 423.734 100.448 423.734 100.894C423.734 101.213 423.734 101.531 423.734 101.914C423.925 111.601 429.849 112.749 431.315 105.61C433.735 106.821 436.22 103.953 435.392 97.516C435.838 97.5797 436.284 97.5797 436.73 97.6434V97.7072C436.73 98.0259 436.73 98.3445 436.73 98.5995C436.73 98.9819 436.73 99.3006 436.666 99.683C436.666 100.002 436.666 100.257 436.602 100.575C436.22 110.964 443.037 111.856 444.247 102.87C446.158 105.61 449.152 104.527 450.044 99.7467C450.872 109.116 457.434 108.988 457.689 99.8742C457.88 100.32 458.135 100.83 458.454 101.276C458.326 101.531 458.199 101.786 458.135 102.041C457.944 102.424 457.816 102.806 457.689 103.188C457.562 103.571 457.37 103.953 457.243 104.336C457.116 104.718 456.988 105.1 456.797 105.547C456.67 105.929 456.542 106.375 456.415 106.758C454.313 115.298 458.581 118.294 461.766 113.896C462.021 124.604 469.666 124.412 469.729 113.386C469.729 112.94 469.729 112.494 469.729 112.048C469.666 111.41 469.602 110.773 469.538 110.136C469.475 109.689 469.411 109.243 469.284 108.797C470.813 108.797 471.959 107.331 472.087 104.527C475.973 110.008 480.305 108.16 478.84 102.041C480.56 102.232 482.152 102.424 483.809 102.615C486.803 111.092 492.473 110.391 491.836 103.507C501.583 104.591 510.947 105.547 519.038 106.311C516.108 114.023 523.115 116.892 531.27 107.331C531.397 107.331 531.461 107.331 531.588 107.331C531.588 107.459 531.525 107.65 531.525 107.777C531.461 108.287 531.397 108.797 531.334 109.371C531.305 109.674 539.535 117.5 537.751 105.929C537.56 105.483 537.369 104.973 537.178 104.527C537.05 104.272 536.986 104.017 536.859 103.826C547.562 110.263 552.531 102.041 541 93.3094C540.681 93.1182 540.809 93.1819 540.554 93.0545C540.172 92.8633 539.853 92.7358 539.535 92.5446C539.153 92.3534 538.77 92.1622 538.452 91.971C538.133 91.7798 537.751 91.5886 537.432 91.3974C537.114 91.2062 536.732 91.0149 536.413 90.8237C536.095 90.6325 535.776 90.4413 535.394 90.2501C535.139 90.1227 534.884 89.9314 534.629 89.804C534.629 89.1029 534.566 88.4018 534.502 87.637C543.867 83.6216 542.72 76.802 533.738 77.2481C540.618 70.4284 537.369 64.7559 529.66 67.879C527.112 63.0351 540.571 64.756 535.156 64.3098C535.092 64.3098 535.028 64.3098 534.965 64.3098C536.43 60.7406 533.882 57.4901 527.894 56.9165C529.677 50.9891 525.218 47.6749 517.637 50.7979C515.598 46.8463 509.419 47.4837 502.984 55.1319C502.156 53.4748 501.137 51.754 499.863 49.9056C499.672 49.7144 499.48 49.5232 499.353 49.332C487.44 34.6091 476.865 40.0266 483.299 52.8374C479.158 52.0726 475.017 51.499 470.94 51.2441C454.886 50.1606 401.818 39.9629 361.747 33.9718C361.683 33.908 361.556 33.8443 361.429 33.8443C361.301 33.7806 361.174 33.7168 361.046 33.5893C360.919 33.5256 360.792 33.3982 360.664 33.3344H360.601C355.377 26.8971 350.471 25.6224 348.305 27.5982C347.158 27.0246 345.311 27.1521 343.018 28.363C342.38 24.2202 339.323 23.5192 337.093 26.9609C336.966 26.7059 336.902 26.5147 336.838 26.2598C336.774 26.1323 336.711 25.9411 336.647 25.8136C334.29 15.8709 327.664 16.6357 328.62 25.24C327.282 25.495 326.39 27.0883 326.581 29.7015C326.518 29.7015 326.39 29.7015 326.326 29.7015C325.116 28.2993 323.46 26.8971 321.357 25.4949C321.294 25.4949 321.166 25.4312 321.103 25.4312C320.975 25.3675 320.848 25.3038 320.657 25.24C320.529 25.1763 320.338 25.1126 320.211 25.0488C320.083 24.9851 320.019 24.9851 320.019 25.0488C312.438 18.2929 306.578 19.1214 306.195 23.328C305.112 23.5192 303.902 23.7741 302.692 24.1565C302.373 24.2202 302.054 24.284 301.736 24.4115C301.417 24.5389 301.099 24.6664 300.78 24.7939C300.271 25.0488 299.825 25.3675 299.379 25.7499C299.124 26.0048 298.869 26.196 298.614 26.451C298.55 26.3872 298.487 26.3873 298.423 26.3235C298.105 26.1323 297.85 25.9411 297.531 25.7499C297.276 25.5587 297.021 25.4312 296.767 25.24C296.512 25.1125 296.257 24.9851 296.002 24.7939C295.684 24.6027 295.429 24.4752 295.11 24.284C294.855 24.1565 294.601 24.029 294.346 23.9016C294.027 23.7741 293.773 23.6466 293.454 23.4554C293.136 23.328 292.817 23.2005 292.499 23.073C292.18 22.9455 291.925 22.8818 291.606 22.8181C291.288 22.7543 290.906 22.6268 290.587 22.6268C289.377 22.3719 288.103 22.4356 286.892 22.7543C284.981 22.4994 282.496 22.6906 279.566 23.4554C278.865 23.0093 278.101 22.5631 277.528 23.3917C276.508 23.2005 275.616 23.073 274.724 23.0093C276.253 10.7721 268.035 8.73252 264.468 19.7588C261.219 6.82046 252.172 8.22267 253.638 20.5873C249.306 18.4841 246.439 21.6071 248.35 27.5982C238.284 27.407 227.836 27.2158 217.261 27.1521C217.261 27.0883 217.261 27.0246 217.197 26.9609C213.885 6.94796 200.188 8.41385 202.163 27.0883C201.844 27.0883 201.526 27.0883 201.207 27.0883C200.697 26.8971 200.188 26.7059 199.614 26.5784C199.487 26.5784 199.36 26.5784 199.232 26.5784C198.531 26.5147 197.767 26.451 197.066 26.3872C195.346 26.3235 193.69 26.2598 192.033 26.3235C191.333 26.3235 190.696 26.3872 189.995 26.3872C189.358 26.3872 188.721 26.451 188.02 26.451C187.383 26.451 186.746 26.5147 186.109 26.5147C185.472 26.5147 184.835 26.5784 184.261 26.5784C184.771 26.5784 183.879 26.5784 184.771 26.5784C185.535 26.5784 182.86 26.5784 183.624 26.5784C183.114 26.5784 182.541 26.6422 182.031 26.5784C181.458 26.5147 180.949 26.5147 180.375 26.451C179.802 26.3872 179.228 26.3235 178.655 26.2598C178.082 26.196 177.508 26.0686 176.935 26.0049C176.362 25.9411 175.788 25.8136 175.279 25.6862C174.705 25.5587 174.132 25.4312 173.622 25.3037C173.049 25.1763 172.476 25.0488 171.966 24.9213C171.393 24.7939 170.819 24.6664 170.31 24.4752C169.736 24.3477 169.226 24.2202 168.653 24.029C168.08 23.9016 167.507 23.7741 166.933 23.5829C166.36 23.4554 165.723 23.2642 165.149 23.1368C164.512 23.0093 163.875 22.8181 163.238 22.6906C162.537 22.5631 161.837 22.4357 161.2 22.3719C159.543 22.1807 157.95 22.1807 156.294 22.2444C155.593 22.3082 154.893 22.3719 154.192 22.4994C153.491 22.6269 152.854 22.8181 152.153 23.0093C151.452 23.2642 150.752 23.4554 150.115 23.7741C149.541 24.0928 148.904 24.4115 148.331 24.7301C147.885 24.9851 147.439 25.24 146.993 25.4949C146.611 25.7499 146.229 25.9411 145.846 26.1323C145.528 26.3235 145.145 26.5147 144.763 26.6422C144.381 26.8334 144.063 27.0246 143.68 27.1521C143.362 27.2796 142.98 27.4708 142.661 27.5982C142.279 27.7257 141.96 27.8531 141.578 28.0444C141.45 28.1081 141.26 28.1719 141.132 28.2356C140.24 28.2993 139.348 28.2993 138.456 28.363C137.055 26.1323 134.061 23.9016 129.346 22.1807C131.258 18.8665 130.366 15.9984 127.308 14.7237C134.252 -0.955238 122.211 -6.30903 112.018 10.9633C111.509 11.6006 111.063 12.238 110.553 12.8116C110.298 13.0666 110.107 13.3852 109.852 13.6402C109.789 13.5127 109.788 13.449 109.725 13.3215C109.597 13.0028 109.406 12.6204 109.279 12.3017C105.903 3.82493 101.316 -0.0629648 97.8756 0.000770653ZM278.292 23.5829C278.419 23.5829 278.674 23.5829 278.865 23.6466C278.801 23.6466 278.738 23.7104 278.674 23.7104C278.547 23.6466 278.419 23.6466 278.292 23.5829ZM279.948 23.7741C280.139 23.7741 280.33 23.8378 280.585 23.8378C280.394 23.9016 280.203 23.8378 279.948 23.7741Z" fill="#AAD400"/>
<path d="M257.523 0.00335761C254.848 -0.124113 252.618 3.38132 253.446 9.94607C249.114 7.8428 246.247 10.9658 248.159 16.957C238.093 16.7658 227.645 16.5745 217.07 16.5108C217.07 16.4471 217.07 16.3833 217.006 16.3196C214.076 -1.52631 202.8 -2.29112 201.844 11.0296C201.271 10.9021 200.634 10.7746 199.997 10.8384C197.576 10.8384 194.518 12.1131 191.205 14.79C189.74 14.1526 188.211 13.5153 186.491 12.9416C184.388 12.623 182.222 12.4318 180.184 12.9416C179.802 13.0054 179.419 13.1328 179.037 13.2603C178.974 13.2603 178.973 13.2603 178.91 13.2603C177.508 13.8339 176.171 14.4075 174.96 15.0449C174.45 14.9174 173.941 14.8537 173.495 14.7262C172.921 14.5988 172.348 14.4713 171.838 14.3438C171.265 14.2164 170.692 14.0889 170.182 13.8977C169.609 13.7702 169.099 13.6427 168.526 13.5153C167.506 16.1922 166.933 18.6141 166.869 20.8448C159.607 28.6206 165.213 36.1413 179.356 32.7633C173.877 51.4378 188.657 55.8356 198.913 34.1655C199.041 33.9106 198.977 34.0381 199.105 33.8468C199.168 33.7194 199.296 33.5282 199.36 33.4007H199.423C199.423 33.4644 199.36 33.5282 199.36 33.5282C199.423 33.4644 199.423 33.4644 199.487 33.4007C212.356 33.5282 205.496 32.6996 225.5 32.7633C221.295 43.0885 253.446 47.4863 258.989 38.0534C260.964 42.7061 264.977 42.2599 266.57 36.7787C270.902 47.1676 278.419 44.5544 275.425 33.7194C289.631 33.7831 303.902 33.9106 316.898 34.1655C313.203 38.7545 316.388 41.8138 321.612 37.7985C321.803 41.9413 325.434 42.1325 327.537 36.8424L327.6 36.9061C327.6 36.9699 327.664 36.9699 327.664 37.0336C327.855 37.4798 327.983 37.9259 328.174 38.3721C328.301 38.8182 328.492 39.2644 328.62 39.7105C328.683 39.9655 328.747 40.1566 328.811 40.4116C330.595 48.251 335.882 47.6774 335.118 40.794C339.577 42.005 340.788 38.2446 335.691 34.6117C349.77 34.9941 360.919 35.5677 366.716 36.46C392.454 40.2841 432.907 44.6819 439.469 53.9873C442.527 58.3213 458.135 68.2002 475.973 78.0155C498.779 84.0066 527.001 88.4681 533.499 86.3011C543.055 83.1143 539.23 85.0357 548.021 74.6468C547.193 73.0534 542.195 56.6097 538.5 56.8009C545.38 49.9812 542.131 44.3087 534.423 47.4318C531.875 42.5879 537.866 39.1369 532.451 38.6908C532.387 38.6908 532.324 38.6908 532.324 38.6908C533.789 35.1216 531.241 31.8711 525.252 31.2975C527.036 25.3701 522.577 22.0558 514.996 25.1788C512.957 21.2273 506.777 21.8646 500.343 29.5128C499.515 27.8557 498.496 26.1349 497.222 24.2866C497.03 24.0954 496.839 23.9041 496.712 23.7129C484.799 8.99006 474.224 14.4076 480.658 27.2184C476.517 26.4536 472.376 25.8799 468.299 25.625C452.245 24.5415 401.754 29.7041 361.683 23.7129C361.556 23.6492 361.492 23.5855 361.365 23.5855C361.237 23.5217 361.11 23.458 360.983 23.3305C360.855 23.2668 360.728 23.1393 360.6 23.0756H360.537C355.313 16.6383 350.407 15.3636 348.241 17.3394C347.095 16.7658 345.247 16.8932 342.954 18.1042C342.316 13.9614 339.259 13.2603 337.029 16.702C336.902 16.4471 336.838 16.2559 336.774 16.0009C336.711 15.8735 336.647 15.6822 336.583 15.5548C334.226 5.61205 327.6 6.3769 328.556 14.9812C327.218 15.2361 326.326 16.8295 326.517 19.4427C326.454 19.4427 326.326 19.4427 326.263 19.4427C325.052 18.0405 323.396 16.6383 321.293 15.2361C321.23 15.2361 321.102 15.1724 321.039 15.1724C320.911 15.1086 320.784 15.0449 320.593 14.9812C320.465 14.9174 320.274 14.8537 320.147 14.79C320.019 14.7262 319.956 14.7262 320.019 14.79C312.438 8.03403 306.577 8.86258 306.195 13.0691C305.112 13.2603 303.902 13.5153 302.691 13.8977C302.373 13.9614 302.054 14.0252 301.736 14.1526C301.417 14.2801 301.099 14.4076 300.78 14.535C300.27 14.79 299.824 15.1086 299.378 15.4911C299.124 15.746 298.869 15.9372 298.614 16.1921C298.55 16.1284 298.487 16.1284 298.423 16.0647C298.104 15.8735 297.85 15.6823 297.531 15.4911C297.276 15.2999 297.021 15.1724 296.766 14.9812C296.512 14.8537 296.257 14.7262 296.002 14.535C295.684 14.3438 295.429 14.2164 295.11 14.0251C294.855 13.8977 294.601 13.7702 294.346 13.6427C294.027 13.5152 293.772 13.3878 293.454 13.1966C293.135 13.0691 292.817 12.9416 292.498 12.8142C292.18 12.6867 291.925 12.623 291.606 12.5592C291.288 12.4955 290.906 12.368 290.587 12.368C289.377 12.1131 288.102 12.1768 286.892 12.4955C284.981 12.2405 282.496 12.4318 279.566 13.1966C278.865 12.7504 278.101 12.3043 277.527 13.1328C276.508 12.9416 275.616 12.8142 274.724 12.7504C276.253 0.513241 268.035 -1.52632 264.468 9.49991C262.747 3.06263 259.944 0.130828 257.523 0.00335761ZM278.292 13.0054C278.419 13.0054 278.674 13.0054 278.865 13.0691C278.801 13.0691 278.738 13.1328 278.674 13.1328C278.547 13.0691 278.419 13.0691 278.292 13.0054ZM279.948 13.1966C280.139 13.1966 280.33 13.2603 280.585 13.2603C280.394 13.3241 280.203 13.2603 279.948 13.1966ZM546.492 79.4907C546.365 79.6181 546.174 79.8094 545.983 79.9368C546.11 79.8094 546.301 79.6181 546.492 79.4907Z" fill="#CCFF00"/>
<path d="M134.889 0.0645752C138.775 0.574459 136.099 5.41834 137.692 7.58535C141.96 8.54138 140.304 -0.445316 145.273 0.893128C149.414 2.35904 147.694 7.64908 146.547 10.4534C148.458 13.8952 151.006 9.17873 152.408 7.90402C156.103 5.86449 160.053 10.9633 156.294 13.5127C154.638 15.4248 156.421 19.5039 158.651 16.4446C161.199 14.0226 165.85 16.1896 164.13 19.7588C163.811 24.284 167.697 26.9609 171.074 28.9367C174.132 31.4861 176.998 34.2905 180.12 36.9036C181.776 41.3651 174.514 39.5168 174.004 36.5212C171.329 33.5894 167.761 31.4861 165.277 28.4906C161.709 26.3236 158.269 34.0355 155.657 29.2554C154.192 27.2159 156.931 20.5236 152.726 22.8818C150.497 26.0686 146.42 23.9016 146.929 20.3962C147.311 19.0577 145.846 16.1259 145.4 18.994C144.444 23.0093 138.074 23.3917 138.074 18.8028C138.392 17.2731 137.755 11.7919 136.354 15.616C135.462 19.5676 130.174 20.4599 129.41 15.9984C128.136 12.8754 129.474 19.2489 127.18 19.2489C124.696 21.4159 122.147 19.3764 121.956 16.6995C120.045 14.5962 117.624 17.4643 119.599 19.3764C120.3 22.6906 114.948 25.495 113.292 21.9895C109.342 22.2445 113.611 30.5938 107.877 28.6818C105.647 27.5983 102.972 27.2796 100.869 27.662C99.5952 24.7939 104.373 22.4357 102.335 19.2489C101.634 15.8072 105.456 12.7479 107.941 15.9984C111.381 16.3171 107.431 10.8996 110.808 9.87981C114.503 6.94798 116.541 14.9786 119.854 10.8358C121.51 8.35016 122.275 1.97661 126.607 4.78097C127.817 5.86447 128.645 8.15897 129.92 5.67328C131.003 3.25134 131.639 0.128311 134.889 0.0645752ZM155.275 15.5523L155.211 15.6798L155.275 15.5523Z" fill="#CCFF00"/>
<path d="M501.646 85.6612C500.181 83.4942 499.863 87.8282 499.863 89.3578C499.99 91.3336 499.226 95.7314 501.073 95.7951C502.666 94.0105 502.793 90.5051 502.347 87.7644C502.156 87.0633 501.965 86.2985 501.646 85.6612ZM495.467 78.0129C494.575 76.4833 493.428 74.1888 491.963 74.5075C491.899 76.7382 493.173 78.6503 493.683 80.6898C494.639 83.6854 495.34 86.8721 495.403 90.1226C493.62 88.2743 491.708 86.4897 489.797 84.8963C489.861 81.0085 488.65 76.9932 486.675 74.4437C484.955 72.468 485.274 76.547 485.784 77.9492C485.975 79.3514 487.185 82.2832 486.739 82.6019C485.656 81.2634 483.426 81.5184 483.108 79.2239C482.407 76.3558 481.133 73.424 479.158 72.2767C477.438 72.2767 479.031 75.7185 479.413 76.9932C479.923 78.1404 480.05 78.8415 479.031 78.0766C476.865 77.9492 476.992 73.9339 475.272 72.5317C474.571 71.1932 471.577 70.1097 472.087 72.7866C472.342 73.8701 474.316 76.1009 473.743 76.3558C471.259 76.0371 468.774 75.9734 466.289 76.2921C465.334 77.1843 467.691 77.758 468.264 78.0129C469.984 78.5865 471.705 78.9689 473.425 79.4788C472.214 80.2436 469.984 82.4744 470.94 84.6414C472.469 84.5777 473.807 83.3029 475.272 82.8568C476.992 81.7096 478.585 81.1359 480.305 82.8568C478.202 83.9403 475.973 85.7249 474.89 88.8479C475.081 91.0787 477.374 88.7205 478.266 88.4655C480.241 87.2546 482.216 86.1073 484.255 85.47C485.656 86.426 486.994 87.4458 488.396 88.5293C485.593 88.9754 482.662 90.6963 481.133 94.3929C480.368 97.3885 483.108 95.2852 483.936 94.7753C486.293 93.2457 488.841 92.4808 491.135 90.8237C491.772 91.5248 493.556 92.6083 493.428 93.0545C490.562 93.2457 487.567 96.1138 486.93 100.512C487.376 102.997 489.287 99.5555 490.179 99.0456C492.027 97.1335 494.32 96.8149 496.359 95.4764C496.869 96.1775 499.544 97.7071 497.569 97.5159C494.957 98.1533 492.218 100.639 491.453 104.654C491.326 107.969 493.683 104.654 494.511 103.953C496.231 102.169 498.206 101.085 499.863 99.1731C500.946 98.9819 502.22 101.595 503.558 101.531C503.112 99.6192 501.774 98.3445 500.882 96.8786C499.544 95.094 498.206 93.4369 496.741 91.9072C498.461 87.4458 497.378 81.837 495.467 78.0129Z" fill="#90B400"/>
<path d="M357.097 61.123C359.645 58.6374 359.072 63.2263 358.753 64.8834C358.116 66.9867 358.179 71.6394 355.631 71.9581C353.847 70.2372 354.485 66.4768 355.631 63.4813C356.013 62.7164 356.46 61.8879 357.097 61.123ZM367.29 52.2001C368.882 50.4155 370.985 47.8661 372.896 47.9936C372.45 50.3518 370.284 52.5825 369.137 54.877C367.162 58.1912 365.506 61.6967 364.614 65.2658C367.544 63.0351 370.539 60.9318 373.533 59.0198C374.297 54.8132 376.909 50.3518 380.286 47.3562C383.152 44.998 381.751 49.4595 380.668 51.0529C380.095 52.5825 377.674 55.8967 378.247 56.1517C380.031 54.5583 383.089 54.5583 384.044 52.0726C385.637 48.8858 388.122 45.5716 391.116 44.1057C393.473 43.9145 390.479 47.8023 389.714 49.2045C388.759 50.543 388.376 51.3078 390.033 50.288C393.027 49.9056 393.791 45.5716 396.467 43.8508C397.741 42.3848 402.201 40.7914 400.799 43.787C400.162 44.998 396.913 47.6111 397.677 47.8661C401.181 47.2287 404.685 46.8463 407.998 46.9101C409.145 47.7386 405.705 48.6309 404.813 49.0133C402.328 49.8419 399.844 50.4155 397.295 51.2441C398.761 51.9451 401.372 54.0484 399.589 56.4704C397.486 56.5978 395.894 55.3869 393.983 55.0682C391.88 54.0484 389.778 53.666 387.039 55.7055C389.714 56.6616 392.39 58.2549 393.154 61.5054C392.39 63.9274 389.778 61.6966 388.631 61.5054C386.21 60.4219 383.726 59.4022 380.987 59.0198C378.821 60.2308 376.718 61.5055 374.552 62.8439C378.311 62.9714 382.006 64.501 383.28 68.2614C383.726 71.3845 380.349 69.4724 379.33 68.9625C376.463 67.5603 373.087 67.0505 370.284 65.5208C369.264 66.3494 366.525 67.7515 366.589 68.1977C370.539 68.0702 373.979 70.8108 373.915 75.3998C372.768 78.1404 370.857 74.6987 369.71 74.2525C367.608 72.4042 364.423 72.3405 362.002 71.1295C361.174 71.9581 357.097 73.8701 359.836 73.4877C363.34 73.8701 366.589 76.1646 366.716 80.4349C366.143 84.0041 363.595 80.6898 362.639 80.0525C360.664 78.3316 358.116 77.4393 356.332 75.591C354.867 75.5273 352.51 78.4591 350.726 78.5866C351.745 76.4833 353.911 74.8899 355.504 73.2328C357.734 71.1932 360.027 69.2174 362.32 67.3691C361.046 62.7164 363.786 56.5341 367.29 52.2001Z" fill="#90B400"/>
<path opacity="0.2434" d="M29.0727 37.3497C25.1229 37.6684 23.1479 42.7673 26.3969 51.0529C17.2232 48.376 13.5921 54.877 20.7909 62.8439C20.6635 62.8439 20.536 62.9076 20.4723 62.9076C4.80058 70.046 5.69222 80.3074 16.7134 79.6063C16.586 79.6701 16.5223 79.7338 16.3949 79.7975C15.5667 80.4349 14.7386 81.0085 13.9104 81.6459C13.0822 82.2832 12.1903 82.9843 11.3621 83.6854C10.6614 84.259 9.96073 84.8964 9.25996 85.5975C-4.69173 102.296 7.09394 112.175 21.0456 95.4765C21.5553 95.0303 22.1287 94.5841 22.7021 94.138C23.148 93.8193 23.5302 93.5006 23.9762 93.182C21.7465 99.4918 22.5108 103.89 24.8042 105.61C24.7405 106.12 24.6767 106.63 24.6767 107.14C24.613 107.65 24.6132 108.16 24.6132 108.606C23.9125 128.364 36.7172 130.34 39.3292 113.577C44.5531 124.03 52.3891 122.883 52.835 112.94C58.9509 117.593 63.9835 114.406 62.582 106.503C77.3619 103.125 97.8755 94.0105 109.597 86.9996C108.451 89.7402 107.814 92.2259 107.623 94.2655C111.254 88.5293 112.783 84.7052 110.171 85.1513C100.87 86.8084 64.7482 98.8544 43.9799 95.0303C28.2445 92.0985 16.9048 74.4438 36.3989 40.9827C33.6596 38.3695 31.1113 37.2223 29.0727 37.3497Z" fill="black"/>
<path opacity="0.2434" d="M153.3 52.4551C139.603 62.3341 156.039 62.8439 159.288 61.1868C162.601 59.5297 171.329 56.2792 169.163 52.4551C166.997 48.631 153.3 52.4551 153.3 52.4551Z" fill="black"/>
<path opacity="0.2434" d="M192.161 55.1957C192.161 60.1033 203.628 62.844 203.628 59.0198C203.628 55.1957 199.805 48.631 197.639 48.0573C195.41 47.4837 192.161 55.1957 192.161 55.1957Z" fill="black"/>
<path opacity="0.2434" d="M176.298 63.3538C167.57 68.835 173.559 72.0855 178.464 69.9185C183.369 67.7515 188.848 68.835 186.109 64.4373C183.369 60.1033 176.298 63.3538 176.298 63.3538Z" fill="black"/>
<path opacity="0.1062" d="M516.999 62.2702C505.532 72.6591 514.26 75.9734 518.082 74.8261C521.905 73.7426 529.55 75.9096 530.123 68.835C530.696 61.6966 530.696 61.1867 526.81 59.5296C523.052 57.8725 516.999 62.2702 516.999 62.2702Z" fill="black"/>
<path opacity="0.1062" d="M449.216 58.4462C445.394 64.4374 450.872 70.4922 454.121 68.3252C457.434 66.1582 460.683 63.4176 460.683 60.677C460.683 57.9364 460.683 57.3627 457.37 55.7693C454.121 54.0485 449.216 58.4462 449.216 58.4462Z" fill="black"/>
<path opacity="0.1062" d="M419.147 51.8814C416.407 59.5296 424.625 57.8725 424.625 57.8725C424.625 57.8725 428.448 54.5583 425.708 52.9649C422.969 51.3078 419.147 51.8814 419.147 51.8814Z" fill="black"/>
<defs>
<radialGradient id="paint0_radial" cx="0" cy="0" r="1" gradientUnits="userSpaceOnUse" gradientTransform="translate(271.511 311.76) rotate(121.689) scale(55.2898 95.1074)">
<stop stop-color="#3A4900"/>
<stop offset="1" stop-color="#88AA00"/>
</radialGradient>
<radialGradient id="paint1_radial" cx="0" cy="0" r="1" gradientUnits="userSpaceOnUse" gradientTransform="translate(455.653 272.449) rotate(31.6892) scale(55.2897 95.1072)">
<stop stop-color="#88AA00"/>
<stop offset="1" stop-color="#AAD400"/>
</radialGradient>
<radialGradient id="paint2_radial" cx="0" cy="0" r="1" gradientUnits="userSpaceOnUse" gradientTransform="translate(368.72 192.751) rotate(8.74702) scale(95.2793 63.9219)">
<stop/>
<stop offset="1" stop-color="#5E511A" stop-opacity="0"/>
</radialGradient>
</defs>
</svg>
