<svg width="1580" height="3732" viewBox="0 0 1580 3732" fill="none" xmlns="http://www.w3.org/2000/svg">
<path opacity="0.98" d="M50.7797 3435.35C119.528 3422.07 307.413 3365.45 307.413 3365.45L237.102 3549.77L14.0625 3539.62L50.7797 3435.35Z" fill="#2B2200"/>
<path d="M1430.81 255.343L1062.08 268.62L860.91 395.93L324.209 3145.19L234.759 3240.09L186.713 3462.69L51.9517 3434.18L0 3489.24L9.3748 3627.88C163.667 3663.41 370.301 3709.11 370.301 3709.11C370.301 3709.11 985.907 3772.76 1383.55 3681.77L1416.75 3352.56L1224.57 3297.11L1433.94 3206.51L1477.3 2796.46L1410.5 2656.26C1476.91 1977.93 1451.52 1435.5 1490.97 825.112L1369.1 798.557L1313.63 785.279L1310.12 784.498L1430.81 255.343Z" fill="#C8AB37"/>
<path opacity="0.3186" d="M1074.97 268.23L1062.08 268.621L860.911 395.93L324.209 3145.19L234.759 3240.09L186.713 3462.69L51.9517 3434.18L0 3489.24L9.3748 3627.88C133.199 3656.39 317.959 3698.95 370.301 3711.06L612.09 3212.36C612.481 3212.75 962.861 1017.64 1074.97 268.23Z" fill="black"/>
<path opacity="0.1018" d="M324.99 3141.68L324.209 3145.58L234.759 3240.48L186.713 3463.08L51.9517 3434.57L0 3489.63L9.3748 3628.27C33.9834 3634.13 57.0298 3639.2 88.2788 3646.62C107.419 3650.92 118.356 3653.65 137.886 3657.95C148.042 3660.29 156.245 3662.24 166.401 3664.59C249.992 3683.72 339.833 3704.42 370.301 3711.45L612.09 3212.75C612.481 3212.75 470.689 3227.98 324.99 3141.68Z" fill="black"/>
<path opacity="0.3407" d="M901.534 370.546L860.911 396.32L324.209 3145.58L234.759 3240.48L186.713 3463.08L51.9517 3434.57L0 3489.63L9.76532 3628.27C133.59 3656.78 318.35 3699.34 370.301 3711.45L372.645 3706.76C304.678 3650.92 236.711 3588.82 241.789 3561.1C251.164 3508.77 417.174 3361.93 455.064 3276.8C492.953 3191.28 416.003 3079.98 474.204 2944.86C492.172 2903.07 548.03 2673.45 614.043 2354.39C621.856 2369.62 633.183 2369.23 642.558 2362.98C662.87 2349.7 716.384 2275.9 699.588 2222.39C687.869 2185.29 679.666 2123.59 665.604 2097.43C769.507 1559.29 880.051 873.927 901.534 370.546Z" fill="#2B2200"/>
<path opacity="0.2743" d="M1369.1 799.338L1303.08 1014.12L1376.91 1173.07C1376.91 1173.07 1222.62 2407.11 1162.46 2594.56C1101.92 2782.4 1283.16 2762.09 1303.47 2829.26C1323.79 2896.43 1263.24 3144.41 1263.24 3144.41L974.579 3392.39C974.579 3392.39 987.86 3466.2 1108.95 3499.79C1229.65 3533.37 1276.91 3526.73 1276.91 3526.73C1276.91 3526.73 1283.55 3613.82 1162.85 3634.13C1042.15 3654.43 445.299 3714.57 445.299 3714.57C445.299 3714.57 444.518 3715.74 444.127 3716.14C569.904 3725.9 839.817 3741.52 1099.18 3722.38C1194.49 3710.28 1289.02 3695.44 1383.94 3682.16L1417.14 3353.34C1358.16 3358.42 1253.48 3367.79 1163.64 3375.99C1096.06 3382.24 1037.08 3387.32 1013.64 3389.66C1009.73 3390.05 1007 3390.44 1005.05 3390.44C1003.09 3390.83 1002.31 3390.83 1003.09 3390.83C1005.44 3390.83 1030.05 3380.68 1066.76 3365.45C1085.12 3357.64 1106.61 3348.66 1129.26 3338.89C1152.31 3329.13 1176.92 3318.59 1201.92 3307.65C1273.79 3276.8 1337.85 3249.07 1384.33 3228.77C1402.69 3220.96 1426.91 3210.41 1434.33 3206.9L1473 2840.2L1477.69 2796.85L1269.88 2642.59L1392.14 2348.92L1491.36 825.503L1369.1 799.338Z" fill="#F4EED7"/>
<path opacity="0.1018" d="M1276.13 261.201L1074.58 268.621C962.47 1017.64 612.481 3212.75 612.481 3212.75L370.691 3711.45C378.894 3713.4 418.346 3722.38 418.346 3722.38L561.311 3716.53C524.984 3659.12 934.346 3614.99 934.346 3614.99C934.346 3614.99 778.101 3609.13 730.837 3552.12C683.572 3495.1 702.322 3429.1 702.322 3248.68C702.322 3068.65 882.394 2575.42 939.423 1930.29C981.61 1444.48 1180.82 748.961 1276.13 261.201Z" fill="#2B2200"/>
<path opacity="0.09292" d="M880.832 3013.59C870.676 3097.55 944.502 3104.19 971.454 3087.4C998.406 3070.6 1045.28 2986.64 1011.69 2953.45C978.094 2919.86 910.909 2886.28 890.988 2906.59C871.067 2926.5 880.832 3013.59 880.832 3013.59Z" fill="#2B2200"/>
<path opacity="0.09292" d="M917.94 3516.58C921.455 3583.75 978.485 3583.75 991.766 3570.08C1005.05 3556.8 1032 3546.65 998.407 3513.06C964.814 3479.87 917.94 3516.58 917.94 3516.58Z" fill="#2B2200"/>
<path opacity="0.09292" d="M1095.67 2118.52C1035.12 2527.39 1011.69 2758.97 985.126 2765.61C958.174 2772.25 1055.44 2105.24 1055.44 2105.24C1083.95 2038.07 1094.89 2054.08 1095.67 2118.52Z" fill="#2B2200"/>
<path opacity="0.09292" d="M1216.37 1655.75C1112.47 2269.26 1099.18 2446.94 1108.95 2457.1C1119.11 2467.25 1236.29 1595.61 1242.93 1558.51C1249.96 1521.8 1216.37 1655.75 1216.37 1655.75Z" fill="#2B2200"/>
<path opacity="0.2434" d="M797.241 1377.7C746.852 1521.8 710.134 1615.92 760.523 1599.12C810.912 1582.33 844.505 1444.87 847.63 1398.01C851.145 1351.14 867.942 1226.96 834.349 1250.39C800.366 1273.43 797.241 1377.7 797.241 1377.7Z" fill="#2B2200"/>
<path opacity="0.2434" d="M733.571 1954.11C716.774 2014.64 726.93 2024.4 740.211 2007.61C753.492 1990.82 790.6 1947.08 776.929 1930.68C763.648 1913.88 733.571 1954.11 733.571 1954.11Z" fill="#2B2200"/>
<path opacity="0.2434" d="M814.037 1072.31C827.318 1125.81 860.911 1132.84 864.426 1109.02C867.942 1085.59 891.379 1058.64 864.426 1045.37C837.474 1032.09 827.709 1072.31 827.709 1072.31L814.428 1089.1V1072.31H814.037Z" fill="#2B2200"/>
<path d="M1389.41 803.633L1363.63 825.112C1374.18 888.376 1414.8 804.024 1432.38 916.884C1449.95 1029.74 1453.47 1188.3 1455.03 1288.66C1456.59 1378.87 1463.63 1496.81 1465.19 1520.63C1470.27 1291.39 1475.74 1063.33 1490.97 825.503L1389.41 803.633Z" fill="#9D862C"/>
<path opacity="0.354" d="M1369.1 798.947L1304.65 777.078L1082 1662.78C1082 1662.78 974.579 2501.62 981.219 2494.98C987.86 2488.34 1127.7 1704.95 1132.78 1686.21C1184.73 1499.93 1319.1 902.826 1319.1 902.826L1369.1 798.947Z" fill="black"/>
<path opacity="0.4071" d="M1226.91 3297.89L1417.14 3352.95L1003.09 3391.22L1226.91 3297.89Z" fill="black"/>
<path d="M1018.27 340.631C998.144 467.901 861.399 1566.94 853.597 1594.44C845.795 1621.95 808.837 1990.62 808.837 1990.62C808.837 1990.62 916.015 1350.17 923.406 1317.73C930.798 1285.3 1058.1 492.944 1075.34 452.711C1092.59 412.887 1090.13 303.271 1090.13 303.271L1018.27 340.631Z" fill="#AAD400"/>
<path opacity="0.5796" d="M878.993 398.122C869.618 534.414 800.87 527.385 896.961 537.929C993.051 548.473 1102.81 443.813 1139.92 455.138C1177.03 466.464 1242.34 478.96 1286.79 478.96C1349.68 484.818 1367.26 445.766 1375.85 439.908C1384.05 434.05 1418.43 381.721 1414.91 375.863C1411.4 370.005 1215.7 222.779 1170.78 239.571C1125.86 255.973 947.741 278.623 918.054 327.438C888.367 375.472 878.993 398.122 878.993 398.122Z" fill="#22280B"/>
<path d="M1311.79 12.6788C1295.78 13.0693 1277.42 34.1575 1270.39 78.6769C1270 81.02 1269.61 83.7536 1269.21 86.0967C1243.43 83.3631 1218.04 81.4105 1192.65 80.6295C1148.91 77.5053 1108.28 77.1148 1069.22 80.6295C1068.83 73.2096 1066.88 68.1328 1063.75 65.7897C1077.03 40.7964 1060.24 30.2522 1044.22 52.9024C1044.61 50.5592 1045 47.8257 1045 44.7015C1045 43.9205 1045 43.1394 1045 41.9678C1045.78 13.8504 1029.38 8.77365 1023.52 27.1281C1016.88 22.4419 1007.5 30.2522 1007.11 50.9498C1007.11 52.1213 1007.11 53.293 1007.11 54.4645C1007.11 55.6361 1006.72 56.8077 1006.72 58.3697C990.317 27.9091 966.881 33.3764 968.443 65.3991C964.146 61.1033 959.849 61.1034 956.334 65.0086C952.818 65.3992 950.084 68.5233 948.913 73.9906C946.178 72.819 943.053 73.6001 940.319 76.7242C934.069 61.8845 923.913 61.1035 920.007 71.6475C918.445 71.6475 916.882 72.038 915.711 72.819C903.992 56.4172 891.102 62.6655 895.789 82.5821C894.226 83.7536 892.664 85.7062 891.492 88.4399C886.024 89.6114 884.071 95.8597 888.368 104.842C888.368 105.623 888.368 106.013 888.368 106.794C888.368 107.966 888.368 109.137 888.758 110.309C888.758 111.48 888.758 112.262 889.149 113.043C887.977 113.043 887.196 113.433 886.415 113.824C886.024 113.433 885.243 113.043 884.852 113.043C875.087 105.623 866.884 103.67 861.806 104.842C856.728 103.28 852.822 103.28 850.087 105.232C782.121 48.9973 741.107 98.2028 810.245 159.515C810.245 159.515 810.245 159.124 810.245 158.734C811.026 159.515 812.198 160.296 812.979 161.077C814.151 162.248 815.323 163.42 816.495 164.201C817.276 164.982 818.057 165.763 818.838 166.153C819.62 166.934 820.401 167.716 821.182 168.497C822.354 170.059 823.526 171.23 824.698 172.792C825.479 173.964 826.26 174.745 827.041 175.916C824.697 177.088 822.354 177.869 820.01 179.041C816.886 177.088 813.761 174.745 810.245 172.792C809.854 172.792 809.073 172.402 808.683 172.011C805.948 171.23 803.214 170.059 800.089 169.278C796.964 168.106 793.448 167.325 790.323 166.153C787.199 165.372 783.683 164.591 780.558 163.81C777.824 163.42 775.48 163.029 772.746 162.639C770.793 162.248 768.84 162.248 766.887 162.248C766.105 162.248 765.715 162.248 764.934 162.639C675.874 134.131 654.781 195.833 741.106 225.122C741.106 225.122 741.106 225.122 740.716 225.512C737.591 228.246 734.466 230.98 731.341 233.713C728.607 236.057 725.872 238.79 723.529 241.133C677.046 298.149 696.186 336.811 734.857 319.628C724.701 384.454 755.95 407.495 780.168 379.768C780.949 380.94 782.121 382.502 782.902 383.673C762.59 428.583 784.464 452.405 817.276 433.269C818.838 504.735 864.54 513.326 880.164 456.31C914.538 501.22 953.209 474.274 926.647 404.371C931.725 400.466 936.803 396.951 941.881 393.436C941.881 397.341 942.272 401.247 943.053 405.933C943.053 406.323 943.053 406.323 943.053 406.714C943.444 408.276 943.834 409.448 943.834 411.01C953.209 469.197 993.442 464.901 987.192 409.838C997.739 411.791 1011.41 399.294 1017.27 369.224V368.833C1017.66 368.443 1017.66 368.443 1018.05 368.052C1018.05 368.052 1018.05 368.052 1018.05 368.443C1017.27 371.567 1016.88 375.082 1016.88 378.987V379.378C1016.88 412.962 1040.32 413.353 1040.71 380.159C1042.66 379.768 1044.22 378.206 1045.39 376.253C1046.17 382.502 1048.52 386.797 1050.86 388.75C1055.94 400.466 1069.22 396.17 1073.52 372.348C1073.52 371.958 1073.52 371.958 1073.52 371.567C1074.3 368.052 1074.69 364.928 1074.69 362.195C1076.64 362.195 1078.99 362.195 1081.33 362.195C1081.72 363.757 1082.11 365.709 1082.5 367.662C1082.89 368.443 1082.5 368.052 1082.89 368.833C1089.53 388.359 1100.08 393.436 1105.55 386.797C1112.97 389.922 1119.61 381.721 1116.49 364.538C1128.98 366.1 1141.88 367.662 1154.37 370.005C1153.2 373.52 1152.03 377.034 1151.25 381.33C1150.86 382.502 1150.47 384.064 1150.08 385.235C1149.69 386.797 1149.3 388.359 1148.91 390.312C1148.52 392.265 1148.12 394.217 1147.73 396.17C1147.73 397.732 1147.34 398.904 1147.34 400.466C1147.34 401.247 1147.34 402.028 1147.34 402.809C1145.78 460.215 1186.4 461.387 1187.97 403.98C1187.97 403.199 1187.97 402.418 1187.97 402.028C1187.97 401.247 1187.97 400.856 1188.36 400.075C1188.36 399.685 1188.75 398.904 1188.75 398.513C1189.14 397.341 1189.53 396.17 1189.92 394.998C1190.31 393.827 1190.7 392.265 1191.09 391.093C1192.26 386.407 1193.05 382.111 1193.44 378.206C1195 378.596 1196.95 378.987 1198.51 379.378C1191.87 400.466 1202.03 409.838 1212.19 400.466C1206.72 419.992 1216.48 428.193 1226.25 419.601C1227.03 434.05 1236.4 437.565 1244.22 427.021C1248.51 430.536 1254.37 428.583 1258.28 420.773C1262.97 423.506 1268.43 420.773 1270.78 412.181C1275.86 418.039 1281.71 417.649 1285.23 412.181C1288.75 411.4 1291.87 407.885 1293.43 401.637C1309.45 405.542 1325.07 409.057 1340.31 412.181C1350.85 417.258 1361.4 419.601 1372.34 420.382C1377.8 427.412 1383.27 431.317 1388.35 432.879C1412.57 514.498 1468.43 506.687 1461.4 433.66C1503.97 450.062 1522.33 410.619 1474.29 357.118C1477.41 352.432 1480.15 347.745 1482.88 343.059C1484.83 342.669 1486.79 342.278 1488.74 341.888C1491.08 341.497 1493.82 341.106 1496.16 340.716C1498.5 340.325 1500.46 340.325 1502.8 339.935C1505.14 339.544 1507.1 339.544 1509.44 339.544C1511 339.544 1512.96 339.544 1514.52 339.544C1603.19 313.38 1595.77 254.801 1522.33 263.393C1522.33 263.393 1522.72 263.393 1523.11 263.002C1576.63 209.892 1563.74 167.715 1523.89 177.869C1546.55 130.616 1518.82 106.013 1478.19 133.74C1491.08 91.9545 1455.54 76.3337 1412.57 121.244C1409.05 39.2343 1355.93 32.986 1346.95 100.155C1343.43 99.3744 1339.92 98.5934 1336.4 97.8123C1336.4 97.0313 1336.4 95.8597 1336.79 94.6881C1337.18 93.126 1337.57 91.564 1337.96 90.0019C1345.38 38.8437 1330.15 12.2883 1311.79 12.6788ZM1030.94 69.3043C1031.72 69.3043 1032.11 69.3043 1032.89 69.3043C1032.5 69.6948 1032.11 70.4759 1031.72 70.8664C1031.72 70.8664 1031.72 71.2569 1031.33 71.2569C1030.94 71.2569 1030.55 71.6475 1030.55 71.6475C1030.55 71.257 1030.94 70.4758 1030.94 69.3043Z" fill="#AAD400"/>
<path opacity="0.2168" d="M1033.28 16.5838C1029.77 16.9743 1025.86 20.4891 1023.52 27.1279C1016.88 22.4417 1007.5 30.252 1007.11 50.9496C1007.11 52.1211 1007.11 53.2928 1007.11 54.4644C1007.11 55.6359 1006.72 56.8075 1006.72 58.3696C990.317 27.909 966.881 33.3762 968.443 65.3989C964.147 61.1031 959.849 61.1032 956.334 65.0084C952.818 65.399 950.084 68.5231 948.913 73.9904C946.178 72.8188 943.053 73.5999 940.319 76.7241C934.069 61.8843 923.913 61.1033 920.007 71.6473C918.445 71.6473 916.882 72.0378 915.711 72.8189C903.992 56.417 891.102 62.6653 895.789 82.5819C894.226 83.7534 892.664 85.706 891.492 88.4397C886.024 89.6112 884.071 95.8595 888.368 104.841C888.368 105.623 888.368 106.013 888.368 106.794C888.368 107.966 888.368 109.137 888.758 110.309C888.758 111.48 888.758 112.261 889.149 113.042C887.977 113.042 887.196 113.433 886.415 113.824C886.024 113.433 885.243 113.042 884.852 113.042C875.087 105.623 866.884 103.67 861.806 104.841C856.728 103.279 852.822 103.279 850.087 105.232C782.121 48.9971 741.107 98.2026 810.245 159.514C810.245 159.514 810.245 159.124 810.245 158.733C811.026 159.514 812.198 160.295 812.979 161.076C814.151 162.248 815.323 163.42 816.495 164.201C817.276 164.982 818.057 165.763 818.838 166.153C819.62 166.934 820.401 167.715 821.182 168.496C822.354 170.058 823.526 171.23 824.698 172.792C825.479 173.964 826.26 174.745 827.041 175.916C824.697 177.088 822.354 177.869 820.01 179.04C816.886 177.088 813.761 174.745 810.245 172.792C809.854 172.792 809.073 172.402 808.683 172.011C805.948 171.23 803.214 170.058 800.089 169.277C796.964 168.106 793.448 167.325 790.323 166.153C787.199 165.372 783.683 164.591 780.558 163.81C777.824 163.42 775.48 163.029 772.746 162.639C770.793 162.248 768.84 162.248 766.887 162.248C766.105 162.248 765.715 162.248 764.934 162.639C675.874 134.131 654.781 195.833 741.106 225.122C741.106 225.122 741.106 225.122 740.716 225.512C737.591 228.246 734.466 230.98 731.341 233.713C728.607 236.056 725.872 238.79 723.529 241.133C677.046 298.149 696.186 336.811 734.857 319.628C724.701 384.454 755.95 407.495 780.168 379.768C780.949 380.939 782.121 382.501 782.902 383.673C762.59 428.583 784.464 452.405 817.276 433.269C818.838 504.344 864.54 513.326 880.164 456.31C914.538 501.22 953.209 474.274 926.647 404.371C931.725 400.465 936.803 396.951 941.881 393.436C941.881 397.341 942.272 401.246 943.053 405.933C943.053 406.323 943.053 406.323 943.053 406.714C943.444 408.276 943.834 409.447 943.834 411.009C953.209 469.197 993.442 464.901 987.192 409.838C997.739 411.791 1011.41 399.294 1017.27 369.224V368.833C1017.66 368.443 1017.66 368.443 1018.05 368.052C1018.05 368.052 1018.05 368.052 1018.05 368.443C1017.27 371.567 1017.27 375.082 1017.27 378.987V379.377C1017.27 412.962 1040.71 413.353 1041.1 380.158C1043.05 379.768 1044.61 378.206 1045.78 376.253C1046.57 382.501 1048.91 386.797 1051.25 388.75C1056.33 400.465 1069.61 396.17 1073.91 372.348C1073.91 371.957 1073.91 371.957 1073.91 371.567C1074.69 368.052 1075.08 364.928 1075.08 362.194C1077.03 362.194 1079.38 362.194 1081.72 362.194C1082.11 363.756 1082.5 365.709 1082.89 367.662C1083.28 368.443 1082.89 368.052 1083.28 368.833C1089.92 388.359 1100.47 393.436 1105.94 386.797C1113.36 389.921 1120 381.72 1116.88 364.538C1129.38 366.1 1142.27 367.662 1154.77 370.005C1153.59 373.519 1152.42 377.034 1151.64 381.33C1151.25 382.502 1150.86 384.064 1150.47 385.235C1150.08 386.797 1149.69 388.359 1149.3 390.312C1148.91 392.264 1148.52 394.217 1148.13 396.17C1148.13 397.732 1147.73 398.903 1147.73 400.465C1147.73 401.246 1147.73 402.028 1147.73 402.809C1146.17 460.215 1186.8 461.387 1188.36 403.98C1188.36 403.199 1188.36 402.418 1188.36 402.028C1188.36 401.246 1188.36 400.856 1188.75 400.075C1188.75 399.684 1189.14 398.903 1189.14 398.513C1189.53 397.341 1189.92 396.17 1190.31 394.998C1190.7 393.827 1191.09 392.265 1191.48 391.093C1192.65 386.407 1193.44 382.111 1193.83 378.206C1195.39 378.596 1197.34 378.987 1198.9 379.377C1192.26 400.465 1202.42 409.838 1212.58 400.465C1207.11 419.991 1216.87 428.192 1226.64 419.601C1227.42 434.05 1236.79 437.565 1244.61 427.021C1248.9 430.535 1254.76 428.583 1258.67 420.772C1263.36 423.506 1268.82 420.773 1271.17 412.181C1276.25 418.039 1282.11 417.648 1285.62 412.181C1289.14 411.4 1292.26 407.885 1293.82 401.637C1309.84 405.542 1325.46 409.057 1340.7 412.181C1351.24 417.258 1361.79 419.601 1372.73 420.382C1378.2 427.411 1383.66 431.317 1388.74 432.879C1412.96 514.497 1468.82 506.687 1461.79 433.66C1475.46 438.736 1486.4 438.346 1493.82 433.66C1478.19 411.009 1461.4 392.655 1445.77 386.016C1419.99 375.082 1317.65 345.793 1224.69 320.018C1224.69 320.409 1224.69 320.799 1224.29 321.19C1223.9 322.752 1223.9 324.314 1223.51 325.876C1223.12 327.438 1222.73 329 1222.73 330.562C1222.73 330.953 1222.73 330.953 1222.73 331.343C1217.65 368.052 1191.87 364.538 1196.56 327.829C1196.56 327.438 1196.95 327.048 1196.95 326.657C1197.34 325.095 1197.34 323.533 1197.73 321.971C1194.22 323.142 1191.09 323.923 1187.97 324.314C1179.76 334.467 1168.44 327.438 1168.83 304.788C1164.14 303.616 1160.23 302.445 1155.55 301.273C1153.2 305.178 1148.91 309.474 1142.66 314.16C1142.27 314.551 1141.48 314.551 1141.09 314.941C1139.53 318.066 1137.97 321.19 1136.02 323.533C1132.89 357.899 1108.28 355.556 1110.24 319.628C1110.24 318.456 1110.24 317.675 1110.63 316.504C1110.63 316.113 1110.63 315.722 1110.63 315.332C1102.81 328.219 1088.75 321.19 1089.53 293.853C1089.53 293.072 1089.53 293.463 1089.53 292.682C1089.53 291.12 1089.53 289.948 1089.53 288.386C1089.53 287.214 1089.92 285.652 1089.92 284.481C1089.92 284.09 1089.92 284.09 1089.92 283.7C1077.42 280.185 1058.67 275.108 1058.67 275.108C1058.67 275.108 1036.02 263.783 1019.22 238.399C1013.75 239.962 1009.46 240.352 1006.33 239.18C1003.99 244.257 998.13 250.115 987.192 255.192C986.411 255.192 985.63 255.582 985.239 255.582C983.677 255.973 982.505 256.363 980.943 256.754C979.771 257.144 978.208 257.144 977.037 257.535C976.255 257.535 975.084 257.926 974.302 258.316C974.302 258.316 972.74 259.097 973.13 258.706C943.444 279.014 928.991 257.925 958.678 237.618C959.459 237.228 960.24 236.837 960.631 236.447C961.803 235.666 962.975 235.275 964.537 234.885C966.1 234.494 967.662 233.713 969.224 233.323C970.787 232.932 972.349 232.542 973.911 232.151C974.693 231.761 975.474 231.761 976.256 231.37C987.583 226.293 996.177 225.512 1001.65 227.074C1001.65 226.684 1002.04 225.903 1002.43 225.512C987.583 213.406 986.021 202.081 992.661 198.176C986.411 187.241 989.927 179.821 998.911 180.212C1000.08 180.212 1001.25 180.602 1002.43 180.993C1002.04 169.668 1003.6 157.171 1006.72 143.113C982.896 149.751 977.427 130.225 1005.94 115.776C1007.11 115.386 1007.89 114.995 1009.07 114.995C1009.85 114.995 1010.24 114.995 1009.85 115.386C1012.58 113.823 1015.32 112.652 1017.66 111.48C1018.05 110.699 1018.44 109.918 1018.83 108.747C1018.05 104.841 1019.61 101.327 1023.13 99.7647C1031.72 81.8008 1043.83 62.6653 1059.85 41.5772C1055.55 42.3583 1050.08 46.2634 1044.61 53.6833C1045 51.3401 1045.39 48.6066 1045.39 45.4824C1045.39 44.7014 1045.39 43.9203 1045.39 42.7487C1045.39 24.3943 1039.53 15.8028 1033.28 16.5838ZM1030.94 69.3041C1031.72 69.3041 1032.11 69.3041 1032.89 69.3041C1032.5 69.6946 1032.11 70.4757 1031.72 70.8663C1031.72 70.8663 1031.72 71.2567 1031.33 71.2567C1030.94 71.2567 1030.55 71.6473 1030.55 71.6473C1030.55 71.2568 1030.94 70.4756 1030.94 69.3041ZM840.713 248.162C846.572 247.772 854.775 252.849 862.587 264.955C862.977 265.345 863.368 266.126 863.759 266.517C884.852 296.196 863.759 311.036 842.666 281.357C842.666 280.966 842.275 280.966 842.275 280.576C841.885 279.795 841.494 279.014 841.103 278.623C829.385 261.05 832.51 248.944 840.713 248.162ZM1020 284.09C1020.79 284.09 1021.57 284.09 1022.74 284.09C1027.82 284.481 1034.46 286.824 1041.88 291.51C1041.49 291.51 1041.49 291.12 1041.1 290.729C1073.91 305.178 1063.75 328.61 1030.94 314.16C1030.16 313.77 1029.38 313.379 1028.21 312.989C1007.11 299.711 1007.5 284.871 1020 284.09Z" fill="#22280B"/>
<path d="M1168.83 0.182208C1166.87 0.572729 1165.31 1.35382 1164.14 2.9159C1171.17 12.2884 1182.89 15.8032 1191.87 22.8326C1205.54 31.8146 1219.22 42.7491 1230.54 56.0268C1216.87 54.4647 1203.59 53.293 1190.31 52.9025C1177.81 36.5006 1159.06 24.0041 1142.27 20.0989C1128.59 17.7558 1143.44 33.3764 1150.47 37.2817C1155.94 42.3584 1170.78 50.5593 1170 52.9025C1161.01 50.9499 1152.81 59.1508 1143.83 50.9499C1131.33 41.1869 1116.48 33.3764 1104.38 35.329C1097.34 40.7963 1115.31 49.7784 1121.17 53.6836C1127.03 56.8077 1129.77 59.1509 1123.13 59.1509C1114.14 65.7898 1101.25 48.9974 1089.53 48.6068C1082.5 45.4827 1066.1 50.95 1077.42 60.3225C1082.11 63.8371 1097.74 66.5709 1096.17 69.695C1084.85 76.7244 1074.3 84.5347 1065.31 93.9072C1064.14 100.546 1075.86 95.4693 1078.99 94.2978C1087.97 91.1736 1096.56 86.8778 1105.16 83.3631C1102.81 90.3925 1100.86 107.185 1111.8 112.652C1117.66 107.185 1119.22 97.8124 1123.91 90.783C1127.03 80.6295 1132.11 72.8191 1144.61 73.9907C1139.53 85.7063 1136.41 100.156 1142.27 116.557C1145.39 119.682 1147.34 119.291 1148.91 117.338C1148.52 118.51 1147.73 119.682 1147.34 120.853C1139.92 122.415 1136.02 128.273 1137.97 135.693C1102.03 121.244 1089.14 145.456 1121.17 166.934C1117.27 171.621 1116.48 176.698 1117.66 180.603C1102.81 201.3 1122.34 215.75 1156.72 193.88C1157.89 193.49 1158.67 193.099 1159.84 192.709C1160.62 192.318 1161.41 191.928 1162.19 191.537C1164.53 189.975 1166.87 188.413 1168.83 186.851C1170.39 187.242 1171.95 187.242 1173.51 187.632C1173.51 188.023 1173.9 188.413 1174.3 188.804C1174.69 197.005 1175.86 203.643 1177.81 208.72C1152.81 238.4 1173.9 257.926 1206.33 230.199C1209.84 229.027 1213.36 227.075 1217.26 223.56C1221.56 220.436 1225.07 217.312 1227.81 214.187C1228.2 215.359 1228.59 216.531 1228.98 218.093C1228.98 218.483 1229.37 218.874 1229.37 218.874C1234.84 236.447 1243.04 245.82 1250.46 248.944C1244.22 295.806 1277.03 301.274 1285.62 255.583C1300.07 229.808 1295.39 213.016 1283.67 213.016C1278.98 213.016 1273.12 215.75 1266.87 221.607C1266.48 218.483 1265.7 214.969 1264.53 211.063C1266.48 210.282 1268.43 208.33 1269.61 205.987C1270 206.377 1270.78 206.377 1271.17 206.768C1274.29 207.939 1277.42 209.111 1280.54 210.282C1280.54 210.282 1280.54 210.282 1280.93 210.282C1284.06 211.844 1287.57 213.797 1291.48 215.359C1292.65 215.75 1294.21 215.75 1295.39 216.14H1295.78C1298.12 216.921 1300.85 217.312 1303.2 217.702C1305.15 218.483 1307.1 219.264 1309.45 220.045C1312.96 221.217 1316.48 222.388 1319.99 223.56C1323.12 224.732 1326.63 225.903 1329.76 227.075C1333.28 228.246 1336.4 229.808 1339.92 230.98C1343.43 232.152 1346.95 233.323 1350.46 234.885C1353.98 236.057 1357.49 237.619 1361.01 239.181C1364.52 240.352 1367.65 241.914 1371.16 243.086C1374.29 244.258 1377.02 245.429 1380.15 246.601C1382.88 247.772 1386.01 249.725 1388.74 250.896C1391.87 252.458 1394.6 254.021 1397.34 255.583C1400.07 257.535 1403.19 259.097 1405.93 261.05C1409.05 263.003 1411.79 265.346 1414.91 267.689C1417.65 270.032 1420.77 272.375 1423.51 274.328C1426.24 276.671 1428.98 279.014 1431.71 281.357C1434.44 284.091 1437.18 286.434 1439.91 289.167C1442.65 291.901 1445.38 294.244 1447.72 296.978C1450.46 299.712 1452.8 302.836 1455.54 305.569C1458.27 308.303 1460.61 311.427 1462.96 314.551C1465.69 317.675 1468.04 320.8 1470.38 324.314C1472.72 327.438 1475.07 330.953 1477.41 334.077C1478.97 336.811 1480.93 339.154 1482.49 341.888C1482.49 341.497 1482.88 341.107 1483.27 340.716C1485.22 340.326 1487.18 339.935 1488.74 339.545C1491.08 339.154 1493.82 338.373 1496.16 337.983C1498.5 337.592 1500.85 337.592 1502.8 337.201C1505.14 336.811 1507.1 336.811 1509.44 336.811C1511 336.811 1512.96 336.811 1514.52 336.811C1603.19 310.646 1595.77 252.068 1522.33 260.659C1522.33 260.659 1522.72 260.66 1523.11 260.269C1576.63 207.158 1563.35 164.982 1523.89 175.135C1546.55 127.882 1518.82 103.28 1478.19 131.397C1490.3 92.7357 1460.61 76.7243 1421.94 109.528C1444.6 1.74441 1380.15 -28.3258 1338.74 48.9973C1336.01 23.6134 1324.68 10.3359 1311.79 10.3359C1297.73 10.7264 1281.71 27.1283 1273.12 61.8846C1262.57 59.151 1252.42 57.1982 1241.87 55.6362C1233.67 32.5955 1210.62 13.0695 1189.92 3.69699C1183.67 3.30647 1175.08 -0.598833 1168.83 0.182208ZM1236.79 16.1937C1230.54 17.3653 1241.09 32.5955 1245.39 38.0627C1252.42 45.8731 1263.75 66.5707 1271.56 60.7129C1272.34 48.2162 1261.01 33.3765 1250.07 23.223C1246.95 20.4894 1243.82 18.1462 1240.31 16.5841C1239.14 16.1936 1237.97 16.1937 1236.79 16.1937ZM1196.56 71.6476C1194.22 74.3813 1192.26 77.1149 1190.31 80.239C1189.92 80.239 1189.53 80.239 1188.75 80.239C1183.67 90.7831 1179.76 100.546 1176.64 109.919C1176.25 110.309 1175.86 110.309 1175.47 110.7C1169.61 100.937 1158.67 101.718 1150.47 114.995C1152.03 111.481 1152.81 106.794 1154.37 104.842C1158.28 93.5167 1162.58 81.801 1169.22 72.4285C1178.2 72.038 1187.58 72.0382 1196.56 71.6476ZM1215.31 72.0381C1220.39 72.8191 1231.33 71.2571 1232.11 73.6002C1229.37 75.9434 1227.42 79.0675 1225.86 82.5822C1221.17 82.1916 1216.48 81.8011 1211.79 81.8011C1213.36 78.2864 1214.53 75.1622 1215.31 72.0381ZM1252.42 73.6002C1256.71 74.7718 1272.73 72.4285 1264.53 78.2863C1262.96 80.6294 1261.4 82.9726 1260.23 85.7063C1256.32 85.3158 1252.42 84.9253 1248.12 84.5348C1249.68 81.0201 1251.25 77.1149 1252.42 73.6002Z" fill="#CCFF00"/>
<path d="M1209.45 180.993C1209.84 180.603 1210.23 179.822 1210.62 179.431C1211.01 178.65 1211.4 177.869 1212.18 177.088C1212.97 175.916 1211.4 179.041 1211.4 179.431C1210.62 181.384 1210.62 183.727 1211.01 186.07C1210.23 182.946 1210.62 179.822 1211.4 176.697C1212.58 172.402 1215.31 168.887 1218.83 165.763C1220.78 164.201 1222.73 163.029 1224.68 162.248C1225.86 161.858 1227.03 161.077 1227.81 161.077C1226.64 162.639 1225.47 163.81 1224.29 165.372C1220.78 171.621 1221.17 177.479 1224.29 183.336C1224.29 183.336 1226.25 186.07 1225.86 186.07C1225.47 186.07 1225.08 186.07 1224.68 186.07C1223.9 186.07 1223.12 185.68 1222.73 185.68C1220.78 184.898 1219.22 183.727 1217.65 182.555C1214.14 179.431 1211.79 175.526 1211.01 170.84C1211.01 169.668 1211.01 168.497 1210.62 167.325C1210.62 163.029 1212.19 159.515 1214.53 156C1216.09 153.657 1218.04 151.704 1220.39 150.142C1221.95 148.971 1223.51 148.189 1225.08 147.408C1226.64 146.627 1228.2 145.846 1229.76 145.456C1231.32 144.675 1233.28 144.284 1234.84 143.503C1236.79 142.722 1238.75 142.332 1240.7 141.941C1242.65 141.551 1244.61 141.16 1246.56 140.77C1248.51 140.379 1250.47 139.989 1252.81 139.989C1254.76 139.598 1256.71 139.598 1259.06 139.208C1261.01 138.817 1263.36 138.817 1265.31 138.817C1267.65 138.817 1269.61 138.427 1271.95 138.427C1277.42 138.427 1282.89 138.427 1288.35 138.427C1291.09 138.427 1293.43 138.817 1296.17 138.817C1298.9 138.817 1301.64 139.208 1304.37 139.598C1307.1 139.989 1309.84 139.989 1312.57 140.379C1315.31 140.77 1318.04 141.16 1320.78 141.551C1323.51 141.941 1326.24 142.332 1328.98 143.113C1331.71 143.503 1334.45 144.284 1337.18 145.065C1339.92 145.846 1342.26 146.237 1344.99 147.018C1347.73 147.799 1350.07 148.58 1352.81 149.361C1355.15 150.142 1357.88 150.923 1360.23 151.704C1362.57 152.485 1365.31 153.266 1367.65 154.438C1370.38 155.609 1372.73 156.781 1375.07 157.953C1377.41 159.124 1379.76 160.296 1381.71 161.467C1384.05 162.639 1386.4 164.201 1388.35 165.763C1390.3 167.325 1392.26 168.887 1393.82 170.449C1395.77 172.011 1397.34 173.573 1398.9 175.526C1400.46 177.479 1402.02 179.822 1403.19 181.774C1404.37 183.727 1405.54 185.68 1406.32 188.023C1407.1 190.366 1407.88 192.709 1408.27 195.443C1408.66 197.395 1408.66 199.738 1409.05 201.691C1409.05 204.425 1408.66 206.768 1408.27 209.501C1407.88 211.844 1407.1 213.797 1405.93 216.14C1405.15 217.702 1404.37 219.264 1403.59 220.826C1402.41 223.169 1400.85 224.732 1399.29 226.684C1397.73 228.246 1396.16 229.808 1394.21 230.98C1392.26 232.542 1390.3 233.714 1387.96 234.495C1386.01 235.276 1384.05 236.057 1381.71 236.447C1379.76 236.838 1377.8 237.228 1375.85 237.619C1370.77 238.4 1365.31 238.4 1360.23 237.619C1358.27 237.228 1355.93 237.228 1353.98 236.838C1351.63 236.447 1349.68 236.057 1347.34 235.666C1344.99 235.276 1343.04 234.495 1340.7 234.104C1338.35 233.713 1336.01 232.932 1333.67 232.542C1331.32 232.151 1328.59 231.37 1326.24 230.98C1323.51 230.589 1320.78 229.808 1318.04 229.418C1315.31 229.027 1312.18 228.637 1309.45 228.246C1306.32 227.856 1303.59 227.465 1300.46 227.075C1297.34 226.684 1294.21 226.294 1291.48 226.294C1288.35 225.903 1285.62 225.903 1282.5 225.513C1280.54 225.513 1281.32 225.513 1279.37 225.122C1228.98 208.33 1240.7 172.792 1291.09 189.585C1293.04 189.975 1292.26 189.585 1294.21 189.975C1297.34 190.366 1300.46 190.756 1303.59 190.756C1306.71 191.147 1309.84 191.537 1313.35 191.928C1316.48 192.318 1319.99 192.709 1323.12 193.099C1326.24 193.49 1329.37 194.271 1332.88 194.661C1336.01 195.442 1339.13 195.833 1341.87 196.614C1344.6 197.395 1347.34 197.786 1350.07 198.567C1352.42 199.348 1354.76 199.738 1357.1 200.519C1359.06 200.91 1361.01 201.3 1362.57 201.691C1364.13 202.081 1365.7 202.081 1366.87 202.472C1368.04 202.472 1369.6 202.472 1370.77 202.472C1376.63 202.081 1358.27 202.081 1364.52 202.472C1365.31 202.472 1366.48 202.472 1367.26 202.472C1367.65 202.472 1368.82 202.472 1369.21 202.862C1369.21 203.253 1369.6 203.253 1369.99 203.253C1370.38 203.253 1370.77 203.253 1370.77 203.253L1371.16 203.643C1371.56 203.253 1371.95 202.472 1372.34 202.081C1372.34 201.691 1372.73 200.91 1372.73 201.691C1372.73 201.691 1372.73 202.862 1372.73 202.081C1372.73 201.691 1372.73 201.3 1372.34 200.519C1372.34 200.129 1372.34 200.129 1371.95 200.129C1371.56 199.738 1371.16 198.957 1370.77 198.567C1370.38 198.176 1369.99 197.395 1369.21 197.005C1368.04 196.224 1367.26 195.442 1366.48 194.661C1365.31 193.88 1364.13 192.709 1362.57 191.928C1361.01 191.147 1359.84 190.366 1358.27 189.585C1356.71 188.804 1354.76 188.023 1353.2 187.242C1351.24 186.461 1349.68 186.07 1347.73 185.289C1345.77 184.508 1343.43 184.117 1341.48 183.336C1339.13 182.555 1337.18 182.165 1334.84 181.384C1332.49 180.993 1330.15 180.212 1328.2 179.822C1325.85 179.431 1323.51 178.65 1321.17 178.26C1318.82 177.869 1316.48 177.479 1314.14 177.088C1311.79 176.697 1309.06 176.307 1306.71 175.916C1304.37 175.526 1302.03 175.526 1299.29 175.135C1296.95 174.745 1294.21 174.745 1291.87 174.354C1289.53 173.964 1287.18 173.964 1284.84 173.964C1282.5 173.964 1280.15 173.964 1278.2 173.964C1274.29 173.964 1264.53 173.964 1280.93 173.964C1278.98 173.964 1277.03 173.964 1275.07 173.964C1273.51 173.964 1271.56 173.964 1270 173.964C1268.43 173.964 1266.48 173.964 1264.92 174.354C1263.36 174.354 1261.79 174.745 1260.23 174.745C1258.67 174.745 1257.5 175.135 1255.93 175.135C1254.76 175.135 1253.59 175.526 1252.03 175.916C1250.86 176.307 1249.68 176.307 1248.51 176.697C1247.34 177.088 1246.56 177.479 1245.39 177.869C1244.61 178.26 1243.82 178.65 1243.04 178.65C1242.65 177.869 1244.22 176.698 1244.61 175.916C1245.78 173.183 1246.56 170.84 1246.56 167.716C1246.17 162.639 1245 158.734 1241.09 155.219C1240.7 154.828 1239.53 154.047 1240.7 154.047C1241.87 154.438 1243.04 154.828 1244.22 155.609C1245.78 156.39 1246.95 157.171 1248.51 157.953C1250.86 159.515 1252.81 161.077 1254.37 163.42C1258.67 170.84 1259.06 176.697 1254.76 184.508C1252.81 187.242 1250.46 189.975 1247.34 191.537C1246.17 192.318 1245 192.709 1243.82 193.099C1243.43 193.099 1242.65 193.49 1243.04 192.709C1244.61 190.366 1246.17 188.023 1246.56 185.289C1246.95 183.336 1246.95 183.336 1246.95 181.384C1246.95 180.993 1246.95 180.603 1246.95 179.822V178.65V179.041C1247.73 182.555 1247.73 185.679 1246.56 189.194C1245.78 191.147 1245 193.099 1243.82 195.052C1243.43 195.442 1243.04 195.833 1242.65 196.223C1242.26 196.614 1242.26 196.614 1241.87 197.005C1218.44 242.695 1186.4 226.294 1209.45 180.993Z" fill="#CCFF00"/>
<path d="M999.692 111.481C1000.47 112.262 1000.86 112.652 1001.65 113.433C1002.04 113.824 1002.82 114.214 1003.21 114.995C1003.6 115.386 1003.99 115.776 1004.38 116.167C1036.8 156 1008.68 178.65 976.255 138.817C975.865 138.427 975.474 138.036 974.693 137.646C973.911 136.864 973.521 136.474 972.74 135.693L971.958 134.912C939.147 96.2504 966.49 72.8192 999.692 111.481Z" fill="#CCFF00"/>
<path d="M977.818 244.258C977.818 244.258 977.427 244.648 977.818 244.258C930.163 261.05 918.054 227.465 965.709 210.282C966.49 209.892 966.099 210.282 966.881 209.892C1015.32 194.662 1026.25 229.027 977.818 244.258Z" fill="#CCFF00"/>
<path d="M981.723 198.957L982.114 199.348C982.114 199.738 981.723 199.348 981.723 199.348C981.333 198.957 980.552 198.957 980.161 198.567C979.771 198.176 978.989 197.786 978.208 197.786C977.818 197.786 977.427 197.395 976.646 197.395C976.646 197.395 976.646 197.395 976.255 197.395C934.46 168.106 954.771 138.817 996.957 167.716C996.957 167.716 997.348 167.716 997.348 168.106C998.129 168.497 999.301 169.278 1000.08 169.668C1000.86 170.059 1001.25 170.449 1002.04 170.84C1002.43 171.23 1003.21 171.621 1003.6 171.621C1004.38 172.011 1005.16 172.402 1005.55 173.183C1006.33 173.964 1007.11 174.354 1007.5 175.135C1042.27 212.235 1016.1 236.447 981.723 198.957Z" fill="#CCFF00"/>
<path d="M1010.63 142.332C1011.02 142.332 1011.41 141.941 1011.8 141.941C1054.38 114.605 1073.91 144.675 1031.33 172.011C1030.94 172.011 1030.94 172.402 1030.55 172.402C987.583 200.129 968.052 170.059 1010.63 142.332Z" fill="#CCFF00"/>
<path d="M1015.71 185.679C1016.1 185.679 1016.1 185.679 1016.49 185.679C1016.88 185.679 1016.49 185.679 1016.88 185.679C1065.31 200.519 1054.77 234.885 1006.33 220.045C1005.94 220.045 1005.94 220.045 1005.55 220.045C1004.77 220.045 1003.99 219.655 1003.21 219.655C955.943 202.081 968.052 168.106 1015.71 185.679Z" fill="#CCFF00"/>
<path d="M1315.31 170.449C1310.62 204.815 1334.45 239.181 1357.88 220.045C1381.71 200.91 1379.37 165.372 1355.54 159.515C1332.1 153.657 1315.31 170.449 1315.31 170.449Z" fill="#AAD400"/>
<path d="M1196.95 185.68C1177.81 215.359 1195.78 218.874 1213.36 213.016C1231.33 207.158 1246.56 204.815 1231.33 196.614C1215.7 188.023 1196.95 185.68 1196.95 185.68Z" fill="#AAD400"/>
<path d="M1344.99 314.942C1356.71 337.592 1385.23 369.615 1385.23 332.906C1385.23 296.197 1369.99 290.339 1362.57 290.339C1355.54 289.949 1344.99 314.942 1344.99 314.942Z" fill="#88AA00"/>
<path d="M890.711 317.285C886.024 363.366 880.165 376.644 921.57 350.479C962.975 324.314 980.943 314.942 951.256 307.912C921.57 300.883 890.711 317.285 890.711 317.285Z" fill="#AAD400"/>
</svg>
