<svg width="181" height="167" viewBox="0 0 181 167" fill="none" xmlns="http://www.w3.org/2000/svg">
<path d="M168.545 76.6728C106.542 160.114 102.604 152.228 84.7315 150.887C67.3712 149.833 69.1983 128.817 49.4616 112.405C29.7248 95.9919 11.0632 69.8302 6.93695 63.1747C2.72976 56.1399 45.3932 23.631 49.625 22.3311C53.8568 21.0311 104.411 61.4074 121.719 66.4392C139.889 71.2869 168.545 76.6728 168.545 76.6728Z" fill="black"/>
<path d="M54.8316 38.2753C61.3008 36.8944 62.3841 52.5291 64.1902 52.5402C47.9954 73.8461 44.6541 79.319 36.5936 77.4698C28.5332 75.6205 21.9249 61.562 21.9249 61.562C21.9249 61.562 47.9312 39.7482 54.8316 38.2753ZM78.4241 55.8481C79.2866 55.664 79.7982 55.9515 81.1731 56.0547C85.8097 56.6515 90.448 63.5944 90.448 63.5944C71.6955 96.1557 60.4278 96.181 54.2543 94.7222C48.5122 93.1714 46.6242 86.4347 46.6242 86.4347C46.6242 86.4347 71.9051 73.8988 74.0861 65.1037C75.8094 58.3895 76.2677 56.3084 78.4241 55.8481ZM104.062 68.2245C104.494 68.1325 104.494 68.1325 104.925 68.0405C110.424 68.4532 115.063 75.396 115.063 75.396C103.857 103.173 80.2197 114.962 76.5812 116.928C72.9426 118.895 64.8785 104.354 64.8785 104.354C64.8785 104.354 79.9994 99.143 91.6685 88.3226C102.125 78.1578 99.7497 69.1451 104.062 68.2245ZM128.516 79.2674C132.316 78.0595 146.011 83.0691 146.011 83.0691C129.929 121.803 97.9354 134.582 94.9165 135.227C91.8976 135.871 81.8673 126.906 81.8673 126.906C81.8673 126.906 106.717 114.462 113.103 106.356C119.14 98.7213 124.715 80.4753 128.516 79.2674Z" fill="#F2C94C"/>
<path d="M35.8301 50.6612C31.6265 56.3183 26.2913 63.0101 26.2913 63.0101C26.2913 63.0101 34.8392 73.4815 38.2084 72.3657C41.5777 71.2498 57.0474 59.2216 57.0474 59.2216C57.0474 59.2216 57.2098 59.9802 57.965 61.4056C47.8063 75.0768 43.2788 79.2164 36.6741 77.8496C28.6136 76.0004 22.0053 61.9417 22.0053 61.9417C22.0053 61.9417 28.4457 56.2039 35.8301 50.6612ZM57.8888 80.0642C54.8171 84.6863 50.964 89.8719 52.6627 91.4925C54.8737 93.4005 65.3867 91.9498 70.5884 88.8562C71.3699 88.2927 71.8014 88.2006 71.8824 88.58C63.609 96.2957 58.0279 95.5037 54.2538 94.7227C48.5117 93.1719 46.6236 86.4352 46.6236 86.4352C46.6236 86.4352 51.9055 83.7212 57.8888 80.0642ZM75.6047 99.6848C72.452 103.928 69.5688 107.319 69.5688 107.319C69.5688 107.319 72.6442 115.389 79.49 111.548C84.6917 108.455 97.2776 99.8182 103.962 95.2184C92.59 109.545 79.1679 116.377 76.3109 117.78C72.6723 119.746 64.6083 105.205 64.6083 105.205C64.6083 105.205 69.1092 103.055 75.6047 99.6848ZM144.151 87.0364C127.422 122.736 97.9349 134.583 94.916 135.227C91.897 135.872 81.8667 126.907 81.8667 126.907C81.8667 126.907 93.6451 120.823 103.105 114.44C97.0954 120.086 88.7407 127.423 88.7407 127.423C88.7407 127.423 89.1192 131.308 98.0141 128.616C106.478 126.016 116.557 118.312 144.151 87.0364Z" fill="#FF75AC"/>
</svg>
