<svg width="703" height="395" viewBox="0 0 703 395" fill="none" xmlns="http://www.w3.org/2000/svg">
<path d="M490.452 85.2793C490.452 123.238 529.781 165.263 567.754 165.263C605.727 165.263 627.426 122.899 627.426 85.2793C627.426 47.3208 596.911 16.8184 558.938 16.8184C520.966 16.8184 490.452 47.6597 490.452 85.2793Z" fill="black"/>
<path d="M499.597 78.169C499.597 111.044 530.789 144.597 564.354 144.597C597.919 144.597 618.94 116.128 618.94 83.5918C618.94 50.717 592.156 22.9259 558.591 22.9259C525.025 22.9259 499.597 45.2943 499.597 78.169Z" fill="white"/>
<path d="M696.148 166.07C661.178 84.5845 546.908 13.1067 464.214 8.37005C381.469 3.63336 200.756 26.9963 177.665 54.4193C136.421 76.8268 107.555 96.3017 79.3733 119.13C49.7607 140.282 8.36936 135.482 3.2267 136.052C-1.86453 136.657 1.1179 185.515 12.226 205.032C23.3342 224.513 18.375 256.952 28.6089 258.733C38.8428 260.513 62.2997 324.131 79.3733 330.649C96.4469 337.131 101.855 364.084 147.059 372.952C210.515 394.104 335.59 394.104 358.577 394.104C381.565 394.104 358.481 275.94 371.235 275.94C384.04 275.94 413.966 282.433 472.798 288.345C531.63 294.257 642.013 258.733 680.086 250.272C709.913 236.703 701.239 191.498 701.239 183.236C701.239 174.902 696.148 166.07 696.148 166.07Z" fill="black"/>
<path d="M684.315 185.174C670.02 124.832 566.609 40.4685 485.958 28.1711C405.257 15.8737 251.407 38.784 211.056 54.4168C170.706 70.0497 109.56 117.84 75.1406 131.822C40.6702 145.804 23.5193 142.289 15.9155 144.513C8.36245 146.736 22.7493 226.934 32.837 237.581C45.5281 246.041 41.2977 241.811 49.7585 250.272C58.2192 258.733 65.5598 280.827 70.9103 288.345C78.4634 298.958 96.2925 317.958 121.675 347.57C147.057 377.183 337.469 377.183 345.884 377.183C354.299 377.183 345.542 270.11 352.233 258.958C358.975 247.773 369.874 247.773 372.408 255.589C374.943 263.406 385.842 269.571 405.206 269.571C472.796 279.885 498.458 276.276 540.482 269.571C582.505 262.867 650.586 245.075 671.623 233.351C692.66 221.559 684.315 185.174 684.315 185.174Z" fill="#37ABC8"/>
<path opacity="0.5664" d="M433.553 26.0705C451.562 26.1568 468.277 27.0489 482.598 29.0346C542.373 37.2649 615.223 83.3088 650.475 127.655C544.863 33.1497 373.73 36.1138 334.886 39.0779C291.205 42.4161 237.178 51.4522 217.349 65.2941C197.472 79.1361 170.506 124 139.518 140.231C109.822 155.799 88.077 154.274 75.145 150.331C85.5864 150.562 98.5183 149.468 113.27 144.058C145.84 132.115 184.732 64.8337 222.857 51.4522C253.846 40.6031 355.625 25.6676 433.553 26.0705Z" fill="#B5ECFA"/>
<path opacity="0.292" d="M24.3808 193.894C30.682 196.952 41.6834 202.852 58.7279 206.306C81.7637 210.947 93.075 206.953 93.9014 207.997C93.8497 208.069 93.8498 208.105 93.7981 208.212C92.0937 213.573 89.5112 223.682 94.6245 226.668C99.7378 229.654 44.0594 224.257 33.7811 212.925C29.804 208.5 26.5501 201.233 24.3808 193.894ZM104.386 218.825C106.607 220.984 108.828 223.214 112.031 226.128C128.972 241.741 136.874 264.909 368.833 256.455H375.496C375.496 256.455 377.304 261.816 379.731 268.039C378.182 266.313 377.046 264.406 376.426 262.427C373.843 254.081 362.739 254.117 355.869 266.061C349 278.004 348.948 286.962 340.374 286.962C331.8 286.962 185.373 282.753 150.251 275.019C115.13 267.248 120.346 242.785 112.65 231.452C109.965 227.495 107.124 223.034 104.386 218.825Z" fill="black"/>
<path opacity="0.3053" d="M437.338 24.6844C456.148 24.7822 473.607 25.7927 488.565 28.042C568.207 39.9406 670.211 121.568 684.318 179.953C684.318 179.953 683.876 217.743 663.166 229.12C587.019 254.502 552.344 260.706 510.873 267.193C469.401 273.68 427.983 261.58 408.923 261.58C389.862 261.58 379.057 255.647 376.605 248.051C375.305 244.107 371.703 242.216 367.651 242.836C353.743 217.637 345.889 189.145 345.889 158.894C345.889 106.247 369.552 58.7501 407.572 25.1733C417.727 24.7822 427.732 24.6518 437.338 24.6844Z" fill="white"/>
<path d="M323.957 150.132C323.548 163.687 331.172 205.681 330.302 212.074C329.432 218.417 322.217 184.914 318.431 183.226C314.593 181.538 206.013 196.781 175.056 192.535C144.099 188.29 135.196 172.178 126.293 168.341C117.389 164.505 70.7236 172.996 62.2297 173.405C53.7357 173.814 42.7344 170.439 47.3908 169.569C52.0471 168.7 122.506 154.736 128.442 154.736C134.377 154.736 139.494 177.651 188.258 180.617C237.073 183.584 298.987 172.127 309.579 170.439C320.17 168.751 316.384 167.063 317.663 155.196C318.942 143.329 320.631 131.463 321.91 133.969C323.087 136.527 323.957 150.132 323.957 150.132Z" fill="black"/>
<path d="M649.234 96.5007C689.146 108.214 678.912 139.364 674.153 140.591C669.343 141.768 670.571 137.881 669.343 129.492C661.873 129.441 661.208 115.375 649.541 108.521C637.465 101.36 649.234 96.5007 649.234 96.5007Z" fill="black"/>
<path d="M443.687 88.33C443.687 126.289 483.016 168.314 520.989 168.314C558.962 168.314 580.66 125.95 580.66 88.33C580.66 50.3715 550.146 19.8693 512.174 19.8693C474.54 19.8693 443.687 50.3715 443.687 88.33Z" fill="black"/>
<path d="M452.83 81.2196C452.83 114.094 484.022 147.647 517.587 147.647C551.153 147.647 572.173 119.178 572.173 86.6422C572.173 53.7674 545.388 25.9765 511.823 25.9765C478.258 25.6376 452.83 48.3449 452.83 81.2196Z" fill="#D9D9D9"/>
<path opacity="0.4292" d="M482.336 32.748C474.538 37.4929 468.097 43.2544 465.045 50.7105C450.805 84.6021 491.152 161.197 556.587 130.356C547.094 140.862 533.871 147.64 517.597 147.64C484.032 147.64 452.839 113.749 452.839 81.2129C452.839 59.1834 464.706 41.5598 482.336 32.748Z" fill="black"/>
<path d="M512.163 25.637C545.728 25.637 572.513 53.4281 572.513 86.3029C572.513 99.5206 568.783 112.399 562.341 122.567C567.427 97.4871 568.783 44.2774 509.45 25.976C510.467 25.976 511.146 25.637 512.163 25.637Z" fill="white"/>
<path d="M539.634 61.2168C541.669 61.2168 543.703 61.5558 545.398 61.8947C544.381 63.2503 543.703 65.2838 543.703 66.9784C543.703 71.7232 547.771 75.7903 552.517 75.7903C555.908 75.7903 558.959 73.7568 560.316 70.7066C564.384 75.4514 566.758 81.5518 566.758 87.9912C566.758 102.903 554.552 115.104 539.634 115.104C524.716 115.104 512.511 102.903 512.511 87.9912C512.511 73.4178 524.716 61.2168 539.634 61.2168Z" fill="black"/>
<path opacity="0.4602" d="M640.884 138.35C644.129 153.095 636.754 155.159 632.034 155.749C627.314 156.339 610.794 139.53 616.399 131.863C622.299 124.195 621.414 120.657 627.019 120.657C632.624 120.952 640.884 129.798 640.884 131.863C640.884 133.632 640.884 138.35 640.884 138.35Z" fill="black"/>
<path d="M617.283 109.156C657.109 120.951 647.078 151.915 642.063 153.095C637.343 154.274 638.523 150.441 637.343 141.889C636.163 133.632 630.853 125.67 617.578 120.951C604.302 116.233 617.283 109.156 617.283 109.156Z" fill="black"/>
<path d="M623.773 127.439C611.973 141.299 638.523 150.441 634.393 156.633C630.263 162.531 623.477 158.698 617.577 152.21C611.677 145.722 608.433 135.991 615.218 129.208C621.708 122.131 623.773 127.439 623.773 127.439Z" fill="black"/>
<path d="M348.475 138.311C347.247 150.149 349.85 192.281 357.857 216.023C365.175 237.818 363.947 240.219 357.021 235.645C350.096 231.072 342.777 191.827 338.307 165.717C333.837 139.641 347.247 97.4114 359.085 87.1946C370.873 76.9779 350.931 109.801 348.475 138.311Z" fill="black"/>
</svg>
