<svg width="230" height="417" viewBox="0 0 230 417" fill="none" xmlns="http://www.w3.org/2000/svg">
<path d="M204.747 160.791C135.489 101.024 69.9201 5.68563 49.6692 0.400086C29.4184 -4.88546 -8.43591 160.618 1.68952 190.705C11.8149 220.792 27.0717 228.583 27.0717 228.583C27.0717 228.583 1.05968 269.42 5.91989 300.32C10.7801 331.22 17.3513 403.661 27.0717 414.639C36.7921 425.616 106.999 378.887 115.909 367.91C124.82 357.338 158.213 325.516 170.904 317.086C183.595 300.258 219.776 285.462 227.877 284.649C234.762 283.836 211.676 216.75 213.701 208.619C216.131 200.487 204.747 160.791 204.747 160.791Z" fill="black"/>
<path d="M52.4537 22.4186C55.8492 22.1031 59.2049 25.746 60.9144 26.5777C73.3088 33.2312 127.86 122.818 200.516 181.868C200.516 181.868 205.985 210.055 209.832 217.956C210.259 219.203 210.687 220.867 211.114 222.946C210.259 221.698 208.977 219.619 208.977 219.619C138.03 145.183 116.486 149.4 85.2866 138.588C54.0871 127.776 51.5227 136.093 57.5062 140.251C63.4896 144.409 113.067 154.806 145.121 178.924C177.176 203.043 179.74 206.37 191.28 214.271C202.392 222.172 139.993 203.875 110.503 197.222C81.0133 190.984 67.3362 190.568 81.0127 201.38C96.8261 209.281 169.91 223.003 188.715 227.578C207.947 232.152 198.118 238.39 179.74 239.221C160.935 240.053 127.171 252.112 108.366 263.34C89.5611 274.152 91.6972 289.538 98.9628 289.538C105.801 289.538 125.034 272.489 145.549 262.508C166.064 252.528 190.215 248.22 204.747 249.052C209.448 249.468 213.295 249.884 216.714 249.884C215.859 259.864 222.906 268.746 219.915 269.994C213.931 272.489 194.664 279.095 187.825 279.51C180.987 279.926 146.891 308.361 137.061 321.668C127.231 334.975 54.6342 388.088 48.2233 385.177C41.8125 382.266 25.362 335.833 27.0715 292.586C28.7811 249.338 49.0781 231.796 48.2233 229.301C47.3686 226.806 33.055 208.113 27.0715 199.797C21.0881 191.896 16.0464 149.171 18.6108 128.379C20.3203 110.498 42.1963 23.2503 52.4537 22.4186Z" fill="#F2C94C"/>
<path opacity="0.3186" d="M166.717 155.766C184.133 169.59 203.573 185.04 223.419 202.116C223.419 202.116 223.42 221.226 227.065 228.951C227.47 230.17 227.874 231.797 228.279 233.829C227.469 232.61 226.254 230.577 226.254 230.577C199.118 200.896 177.248 183.007 159.022 170.809C161.047 165.524 163.882 160.239 166.717 155.766ZM154.566 183.414C182.108 204.962 185.348 208.621 195.878 216.347C203.168 222.039 176.438 214.72 150.112 207.808C150.922 199.27 152.541 191.139 154.566 183.414ZM149.706 220.006C167.932 224.072 185.753 227.731 193.448 229.764C211.674 234.236 202.358 240.335 184.943 241.148C176.842 241.555 165.097 244.401 153.351 248.467C151.326 239.115 149.706 229.764 149.706 220.006ZM216.94 249.686C221.395 250.093 225.039 250.499 228.279 250.499C227.469 260.257 225.445 269.609 222.609 270.828C216.939 273.268 200.739 274.894 194.258 275.301C190.208 275.707 178.058 277.334 167.122 280.993C163.072 274.894 160.236 267.982 157.401 261.07C176.842 252.939 204.384 248.873 216.94 249.686Z" fill="black"/>
</svg>
