<svg width="403" height="279" viewBox="0 0 403 279" fill="none" xmlns="http://www.w3.org/2000/svg">
<path d="M394.456 157.959C328.202 120.281 345.81 56.7109 337.749 43.2644C329.688 29.8179 269.232 -0.612409 178.068 24.818C86.8407 50.2444 25.4071 94.2533 12.8818 109.426C0.419492 124.602 17.1915 165.207 20.2832 191.276C23.3749 217.345 26.0222 249.442 26.711 255.541C27.3998 261.64 56.1866 204.189 139.431 188.075C222.732 172.057 337.15 152.684 364.282 154.4C391.407 156.207 394.456 157.959 394.456 157.959Z" fill="black"/>
<path d="M231.898 31.3354C243.848 32.6934 253.691 34.5207 253.691 34.5207C279.966 84.9816 265.303 159.362 265.303 159.362L249.22 157.743C249.22 157.743 246.938 141.332 244.204 125.495C242.786 108.537 237.858 55.2083 231.071 31.283C231.071 31.283 231.485 31.3092 231.898 31.3354ZM224.044 30.8387C226.478 44.8493 230.406 74.6182 233.021 98.8821C234.81 123.094 235.883 152.08 235.883 152.08L213.258 155.469C213.258 155.469 202.037 70.4145 199.114 57.5779C197.806 45.446 191.685 37.227 197.249 34.5665C204.09 31.3843 214.499 30.8376 224.044 30.8387ZM265.603 36.4789C265.603 36.4789 288.675 39.1427 288.633 46.3696C295.559 87.7751 299.087 156.679 299.087 156.679L279.17 156.624C279.17 156.624 278.73 78.2765 275.056 64.1875C271.344 50.6986 265.603 36.4789 265.603 36.4789ZM179.133 38.8431C182.026 39.026 200.177 99.8176 203.667 169.321C203.667 169.321 182.241 180.016 182.996 174.642C183.751 169.267 181.317 155.257 176.757 115.808C172.158 76.9598 161.317 44.9461 163.422 44.4768C165.113 43.9812 176.653 38.6863 179.133 38.8431ZM307.233 47.5458C313.434 47.9378 324.556 49.2435 328.871 59.7583C331.423 65.3418 320.605 118.277 362.258 155.251L310.737 156.211C310.737 156.211 309.957 142.305 307.485 128.894C305.051 114.884 301.329 55.6069 300.843 50.154C300.957 48.3539 303.513 47.3105 307.233 47.5458ZM148.499 50.7628C148.913 50.7889 149.326 50.8149 149.288 51.415C152.856 54.0504 163.351 98.0916 174.615 175.919L146.39 182.569C146.39 182.569 146.398 169.315 142.436 133.519C138.361 99.5236 126.208 62.0049 128.427 59.7353C130.194 58.0397 141.809 51.5445 147.221 51.2843C148.086 50.7365 148.499 50.7628 148.499 50.7628ZM110.496 67.6384C111.323 67.6907 112.112 68.3431 112.901 68.9955C117.933 74.7358 129.107 114.602 135.078 184.263L110.905 199.001C110.905 199.001 119.712 177.869 112.743 143.691C105.361 109.486 95.5357 74.5246 95.5357 74.5246C95.5357 74.5246 104.785 66.0724 110.496 67.6384ZM79.336 81.3321C79.7493 81.3583 79.7491 81.3583 80.1625 81.3844C82.9421 83.3676 101.329 127.305 105.873 193.261L82.3383 211.052C82.3383 211.052 82.6453 199.624 77.216 167.35C71.7867 135.076 58.5464 95.0791 58.812 90.8786C59.0397 87.2782 73.1349 80.94 78.5464 80.6797C78.9218 81.3059 78.9226 81.306 79.336 81.3321ZM46.8206 96.7475C49.2628 97.5044 63.7393 144.207 70.3126 210.894C70.3126 210.894 54.6352 222.554 53.1336 220.049C51.6319 217.544 54.4997 198.447 50.602 181.331C46.7042 164.216 33.1337 109.739 33.1337 109.739C33.1337 109.739 44.3785 95.9906 46.8206 96.7475ZM24.2596 118.817C25.913 118.921 37.425 160.014 45.0147 223.753L36.0611 240.658C36.0611 240.658 33.6989 232.074 33.4833 215.794C33.2677 199.514 22.4128 128.34 20.2363 123.382C18.0218 119.025 22.6062 118.712 24.2596 118.817Z" fill="#F2C94C"/>
<path opacity="0.8982" d="M231.898 31.3357C243.847 32.6937 253.691 34.521 253.691 34.521C265.177 56.3335 268.505 82.4499 269.13 105.383C263.845 83.9626 256.686 52.7844 254.058 48.401C251.431 44.0176 242.489 41.0422 233.058 39.2409C232.421 36.1883 231.745 33.7359 231.07 31.2833C231.07 31.2833 231.485 31.3095 231.898 31.3357ZM224.044 30.839C224.343 32.6653 224.981 35.7179 225.242 38.1442C221.936 37.9351 219.08 37.1522 216.6 36.9954C205.815 36.9159 203.031 41.5595 204.006 45.8383C204.98 50.1172 209.422 97.9928 210.465 114.325C210.912 120.378 210.571 125.779 209.892 129.953C206.525 104.437 201.024 66.736 199.113 57.5782C197.805 45.4463 191.685 37.2273 197.248 34.5668C204.089 31.3846 214.499 30.8379 224.044 30.839ZM265.603 36.4792C265.603 36.4792 288.674 39.143 288.632 46.3699C290.467 56.7278 291.776 68.8599 293.083 80.9918C290.236 66.9551 287.726 54.1446 286.638 51.6659C284.461 46.7086 276.27 44.9857 276.27 44.9857C276.27 44.9857 280.012 71.1282 279.177 84.3296C278.911 88.5301 278.532 94.5307 277.739 100.505C277.11 84.199 275.954 69.6667 274.642 64.1616C271.343 50.6988 265.603 36.4792 265.603 36.4792ZM179.132 38.8434C181.199 38.9741 191.888 73.388 198.887 120.22C192.589 95.121 180.812 58.2285 177.02 52.5665C172.515 45.0521 169.242 50.8697 169.242 50.8697C169.242 50.8697 176.953 99.5545 177.359 112.834C177.245 114.634 177.169 115.835 177.055 117.635C177.093 117.035 177.094 117.035 176.718 116.408C172.12 77.56 161.279 45.5465 163.383 45.0771C165.113 43.9816 176.652 38.6866 179.132 38.8434ZM307.233 47.5461C313.433 47.9381 324.555 49.2438 328.87 59.7585C330.334 62.8634 327.504 81.3609 332.339 103.355C321.043 78.5425 322.519 61.7668 319.364 59.1574C314.969 56.4697 307.229 54.173 307.229 54.173C307.229 54.173 306.644 89.6813 306.859 105.961C307.045 109.588 306.817 113.188 306.214 116.162C303.898 93.7248 301.404 54.4071 301.257 50.1805C300.957 48.3542 303.513 47.3108 307.233 47.5461ZM148.499 50.7631C148.912 50.7892 149.325 50.8152 149.287 51.4153C151.654 53.3723 157.728 75.4451 164.844 113.85C158.167 94.7517 149.503 67.6955 146.838 63.9121C143.046 58.2502 133.159 63.6497 133.159 63.6497C133.159 63.6497 137.495 100.072 140.642 115.935C140.98 117.161 140.867 118.961 141.204 120.187C136.036 90.3399 127.11 60.8572 128.877 59.1616C130.644 57.466 142.261 50.9711 147.672 50.7108C148.086 50.737 148.499 50.7631 148.499 50.7631ZM110.496 67.6387C111.323 67.691 112.112 68.3434 112.9 68.9958C116.393 72.8314 122.956 93.7301 128.571 129.631C125.159 117.968 114.056 83.5279 110.977 79.7184C107.109 75.2566 101.057 79.0912 101.057 79.0912C101.057 79.0912 104.761 105.834 109.334 125.402C110.684 130.307 110.832 134.533 111.055 137.56C103.935 105.782 95.5353 74.5249 95.5353 74.5249C95.5353 74.5249 104.785 66.0727 110.496 67.6387ZM79.3356 81.3324C79.7489 81.3586 79.7487 81.3586 80.1621 81.3847C82.153 82.7155 91.1964 103.771 98.1652 137.95C92.3864 124.33 80.2257 100.065 77.9732 96.3079C75.0079 90.6982 65.159 95.4976 65.159 95.4976C65.159 95.4976 71.6051 124.823 75.0516 142.513C75.9881 147.392 75.3095 151.566 74.7064 154.54C68.2228 125.815 58.9588 95.1055 59.1485 92.1052C59.3761 88.5048 73.4724 82.1667 78.8839 81.9064C78.9218 81.3063 78.9222 81.3063 79.3356 81.3324ZM46.8202 96.7478C48.4736 96.8523 55.1133 116.551 61.4072 148.277L45.159 109.897L38.1655 115.479C38.1655 115.479 52.0816 157.929 52.2213 175.41C52.3311 180.236 52.1038 183.837 51.9141 186.837C51.6146 185.011 51.3145 183.184 50.6395 180.732C46.7418 163.616 33.1712 109.139 33.1712 109.139C33.1712 109.139 44.3781 95.9909 46.8202 96.7478ZM24.2592 118.817C25.0859 118.869 29.925 134.237 34.907 160.458C32.0935 152.448 28.9423 143.212 28.6048 141.986C27.255 137.081 27.8076 154.587 28.6642 167.293C28.5883 168.493 28.513 169.693 28.0617 170.267C24.8808 148.377 21.2483 127.061 20.16 124.583C18.0214 119.025 22.6058 118.713 24.2592 118.817Z" fill="#FF85B6"/>
<path opacity="0.3053" d="M268.248 132.437C267.224 148.639 264.85 159.936 264.85 159.936L248.768 158.316C248.768 158.316 245.355 146.654 244.237 131.522C251.302 131.366 261.221 131.993 268.248 132.437ZM278.996 133.117C285.196 133.509 291.772 134.527 297.935 135.52C298.867 147.025 299.124 156.078 299.124 156.078L279.207 156.024C279.169 156.624 278.988 146.371 278.996 133.117ZM235.518 131.573C235.624 143.026 235.843 152.679 235.843 152.679L213.219 156.069C213.219 156.069 211.198 142.084 210.114 132.979C218.457 132.301 227.213 131.65 235.518 131.573ZM308.981 138.025C325.776 141.497 342.496 146.169 359.102 152.641C360.266 153.92 361.054 154.572 362.256 155.251L310.698 156.81C310.736 156.21 310.441 147.757 308.981 138.025ZM200.907 134.204C202.252 145.736 203.185 157.241 203.666 169.321C203.666 169.321 182.24 180.015 182.995 174.641C183.26 170.441 181.991 157.709 179.561 137.071C186.288 135.689 193.39 134.933 200.907 134.204ZM169.488 138.844C171.247 150.402 173.42 161.986 175.066 175.345L146.839 181.994C146.839 181.994 146.696 171.141 144.232 144.477C152.275 141.973 160.656 140.696 169.488 138.844ZM131.153 147.867C132.536 158.799 133.844 170.931 135.076 184.263L110.904 199.001C110.904 199.001 118.205 181.991 114.201 153.422C119.313 151.336 125.214 149.901 131.153 147.867ZM101.91 157.465C103.707 168.423 105.015 180.554 105.872 193.26L82.3369 211.051C82.3369 211.051 83.0573 199.65 77.2146 167.35L77.2526 166.75C84.9205 163.62 93.0021 160.516 101.91 157.465ZM65.2622 172.619C66.9834 184.777 68.7038 196.935 70.3112 210.893C70.3112 210.893 54.6338 222.553 53.1322 220.049C51.6306 217.544 54.4984 198.446 50.6006 181.331C50.6386 180.731 50.2638 180.105 50.3017 179.505C54.587 177.366 59.699 175.279 65.2622 172.619ZM39.5506 185.452C41.3097 197.01 43.4056 209.794 44.5996 223.726L35.646 240.632C35.646 240.632 33.2838 232.048 33.0682 215.768C32.9584 210.941 31.8741 201.836 30.4904 190.904C33.0843 189.26 36.092 187.643 39.5506 185.452Z" fill="black"/>
</svg>
