<svg width="459" height="384" viewBox="0 0 459 384" fill="none" xmlns="http://www.w3.org/2000/svg">
<path d="M157.744 130.156C183.326 159.501 263.005 138.449 338.398 115.893C434.734 87.0709 447.307 124.757 445.531 156.691C438.188 210.088 393.343 221.135 383.18 222.232C372.638 223.606 367.948 222.075 367.948 222.075C367.948 222.075 343.784 256.332 285.697 291.154C227.35 325.89 181.889 324.693 130.694 303.963C79.4998 283.232 58.0127 272.202 49.6023 253.801C41.1919 235.4 47.9749 159.687 50.3196 139.263C54.3184 104.432 57.5638 89.8626 60.5959 78.8105C64.007 67.4808 157.744 130.156 157.744 130.156Z" fill="black"/>
<path d="M160.784 132.333C144.414 124.178 136.525 127.4 153.132 143.661C174.72 155.574 208.911 164.753 288.56 142.849C351.441 125.557 384.84 112.453 409.078 119.078C439.259 127.327 437.246 155.571 427.415 172.431C417.584 189.292 410.075 206.107 376.412 206.756C342.748 207.404 334.788 208.819 313.87 212.827C292.952 216.834 299.301 222.119 311.051 222.343C323.062 222.652 339.716 218.456 345.946 219.688C352.177 220.92 288.878 280.532 232.71 297.113C193.432 308.774 163.417 306.198 114.046 281.648C66.2395 257.608 65.6474 255.006 61.4066 242.382C57.0473 230.121 57.117 170.736 59.3907 146.992C61.546 123.612 66.8752 98.4578 69.7652 91.3734C72.3946 84.2039 117.098 99.2023 134.771 107.783C152.586 116.811 160.784 132.333 160.784 132.333Z" fill="#74C5D9"/>
<path opacity="0.1327" d="M345.823 220.069C351.935 221.663 288.755 280.913 232.586 297.494C193.309 309.155 163.294 306.579 114.042 281.666C66.2346 257.626 65.6424 255.024 61.2832 242.763C58.1796 233.721 57.3493 200.937 57.9883 174.251C60.6658 195.196 65.1205 223.946 70.5221 236.547C78.127 253.883 88.5028 260.081 108.497 268.616C128.61 276.789 197.857 301.407 229.317 282.779C260.777 264.15 296.667 238.137 288.233 236.588C280.06 235.123 199.419 222.439 210.624 221.683C219.508 220.971 260.587 222.342 300.244 219.235C300.173 221.219 304.863 222.75 311.188 222.809C323.057 222.67 339.711 218.474 345.823 220.069Z" fill="black"/>
<path opacity="0.3053" d="M414.17 121.143C438.595 131.125 436.511 156.938 427.296 172.795C423.482 179.176 420.308 185.365 415.688 190.68C453.448 113.898 352.079 142.614 316.426 163.486C280.015 184.914 234.152 200.846 189.614 182.691C145.077 164.535 138.182 140.608 141.285 136.403C141.404 136.04 141.783 135.763 142.043 135.848C142.778 138.898 147.824 138.698 153.131 143.642C183.326 159.501 208.752 160.291 259.184 150.033C303.553 141.007 378.919 111.64 409.219 119.526C410.901 119.674 412.725 120.27 414.17 121.143Z" fill="white"/>
<path opacity="0.2124" d="M406.632 198.982C399.668 203.532 390.216 206.868 376.404 206.774C346.223 207.355 336.321 208.537 319.643 211.923C320.614 209.831 300.454 217.699 297.99 212.881C294.579 206.548 310.427 196.871 330.066 193.249C347.786 190.204 370.671 209.317 406.632 198.982Z" fill="black"/>
</svg>
