<svg width="157" height="180" viewBox="0 0 157 180" fill="none" xmlns="http://www.w3.org/2000/svg">
<path d="M155.622 53.8156C165.412 133.095 101.953 175.257 80.558 179.221C59.1633 183.546 20.0007 131.654 10.5725 116.879C1.14435 102.104 -3.93308 43.3651 4.40725 27.8696C12.7476 12.374 63.8777 1.56302 80.921 0.481939C97.9643 -0.599146 97.6013 12.3739 98.6892 16.6982C99.777 21.0226 100.865 37.5993 114.282 49.4912C128.062 61.0228 155.622 53.8156 155.622 53.8156Z" fill="black"/>
<path d="M85.2687 6.61471C99.411 7.33543 101.587 15.6238 106.664 25.3536C112.466 35.804 116.092 50.5788 127.333 51.6599C138.937 52.741 153.442 50.2186 153.442 50.2186C153.079 80.1286 120.081 133.102 90.3459 155.444C82.0056 161.57 73.3027 160.849 64.9623 156.165C86.7197 144.633 116.817 118.687 125.157 63.9123C125.157 63.9123 125.158 59.9483 122.982 59.5879C121.894 59.2275 119.718 60.3086 116.817 64.2725C108.839 74.723 108.477 85.5338 95.7853 106.795C84.9066 125.174 63.5118 141.75 52.2705 146.075C37.0404 130.219 25.4359 104.993 23.6228 98.1466C21.4471 89.1376 17.8212 74.0023 18.5465 58.1464C30.513 63.1914 62.0606 69.3177 87.8069 48.4168C87.8069 48.4168 95.0597 39.4077 86.3567 38.687C85.6315 38.687 84.9059 38.687 84.1806 38.687C72.2141 39.0473 66.0495 52.7411 49.7315 52.0204C33.7761 51.66 23.2606 46.6149 20.3596 43.3716C20.7222 42.2905 20.722 41.2094 21.0846 40.1283C26.8866 17.7859 64.9618 7.33556 81.6424 6.9752C83.0929 6.25448 84.1808 6.25435 85.2687 6.61471ZM101.587 56.705C100.861 56.705 99.7739 56.705 98.3234 57.7861C91.071 62.4708 84.1808 76.8852 70.7638 85.8942C57.3467 94.5429 44.6548 92.7411 35.2266 96.7051C25.7984 101.029 29.0627 115.444 45.0181 110.039C61.3361 104.993 75.8403 102.831 102.312 64.633C102.312 64.633 104.488 57.0654 101.587 56.705Z" fill="#F2C94C"/>
<path d="M34.505 22.4645C26.5273 35.4375 34.5056 48.0502 39.5823 48.4106C45.7468 48.771 58.0758 47.6897 67.504 46.2483C62.7899 49.1312 57.7134 51.6537 50.4609 51.6537C34.5056 51.2934 23.9892 46.2484 21.0882 43.0052C21.4508 41.9241 21.4506 40.8429 21.8132 39.7618C23.2637 32.9149 27.9778 27.1492 34.505 22.4645ZM90.7115 44.0862H91.0744C91.0744 44.0862 89.9866 45.1672 89.2613 46.2483C89.9866 45.8879 90.3488 45.1673 90.7115 44.0862ZM88.5363 48.0501C83.8222 54.1763 72.5809 66.0682 55.9003 70.7529C33.0551 77.5998 27.2526 72.1944 27.2526 72.1944L31.2418 90.9333C36.6811 93.4558 81.2835 85.5279 86.3602 71.1134C82.3713 76.1585 77.2948 81.5638 71.1302 85.8881C57.7132 94.5368 45.0212 92.735 35.5931 96.699C26.1649 101.023 29.4283 115.438 45.3837 110.032C50.823 108.231 55.9003 106.789 61.3396 104.627C56.2629 109.672 51.9111 114.357 50.098 116.519C45.0212 122.645 57.3504 136.699 57.3504 136.699C58.8009 142.825 91.4367 115.077 105.216 87.69C105.942 86.6089 106.304 85.8882 107.029 84.8071C104.491 90.9333 101.59 97.7801 96.1508 106.789C85.2721 125.168 63.8774 141.744 52.6361 146.069C37.406 130.213 25.8024 104.987 23.9893 98.1406C21.8136 89.1315 18.1868 73.9961 18.9121 58.1402C31.2412 62.4646 62.4275 68.5908 88.5363 48.0501ZM152.72 58.1402C147.644 88.771 117.909 134.897 90.3494 155.438C84.91 159.402 79.1077 160.483 73.6684 159.402C76.2068 158.681 79.47 156.88 84.1841 152.555C106.304 142.825 130.237 111.114 141.479 80.1224C145.105 70.753 149.094 63.906 152.72 58.1402Z" fill="#FF7DB1"/>
</svg>
