<svg width="222" height="100" viewBox="0 0 222 100" fill="none" xmlns="http://www.w3.org/2000/svg">
<path d="M203.525 8.8355C197.837 4.15668 158.515 -4.89098 102.598 7.8419C46.6408 20.5756 10.2323 39.0943 3.10292 45.163C-3.9868 51.2307 8.44587 65.6359 11.618 75.1645C14.7902 84.693 17.9696 96.4669 18.6901 98.6975C19.4106 100.928 34.7263 78.6298 86.1223 69.6316C137.559 60.6666 203.439 51.8557 220.52 51.4999C211.021 25.4995 220.519 22.8151 203.525 8.8355Z" fill="black"/>
<path d="M137.269 7.90512C144.82 7.97122 151.075 8.28772 151.075 8.28772C169.928 25.9912 164.265 54.0355 164.265 54.0355L154.11 54.0236C154.11 54.0236 151.903 48.0375 149.44 42.2802C147.748 36.0599 142.134 16.5168 136.748 7.91597C136.748 7.91597 137.008 7.91054 137.269 7.90512ZM132.324 8.00813C134.513 13.101 138.384 23.9674 141.172 32.8457C143.44 41.7349 145.485 52.416 145.485 52.416L131.47 54.4952C131.47 54.4952 120.409 23.4482 117.97 18.8074C116.575 14.3682 112.351 11.5519 115.711 10.3649C119.847 8.93827 126.343 8.35613 132.324 8.00813ZM158.631 8.57714C158.631 8.57714 173.214 8.72017 173.53 11.3945C179.831 26.4551 185.306 51.8099 185.306 51.8099L172.824 52.5167C172.824 52.5167 168.836 23.5565 165.867 18.4799C162.902 13.6266 158.631 8.57714 158.631 8.57714ZM104.562 12.6078C106.384 12.5699 120.637 34.3906 126.116 59.9686C126.116 59.9686 113.198 64.706 113.416 62.6907C113.635 60.6755 111.446 55.5827 106.719 41.1595C101.998 26.9596 93.6884 15.5153 94.9849 15.2649C96.0212 15.0199 103.001 12.6403 104.562 12.6078ZM185.24 11.1506C189.144 11.0692 196.175 11.1462 199.377 14.8774C201.24 16.8493 200.02 31.4995 211.02 48.9622L192.584 51.2114C192.584 51.2114 191.436 46.0969 189.252 41.2274C187.063 36.1346 181.922 14.3474 181.36 12.3484C181.346 11.6785 182.898 11.1993 185.24 11.1506ZM85.9325 18.1344C86.1927 18.129 86.4528 18.1235 86.4575 18.3468C88.8182 19.1913 97.4807 35.0964 108.225 63.4691L90.8548 66.9587C90.8548 66.9587 90.2321 62.0566 86.0541 48.9625C81.89 36.5382 72.498 23.1058 73.7805 22.1855C74.8075 21.4939 81.7778 18.6677 85.1563 18.3739C85.6721 18.1398 85.9325 18.1344 85.9325 18.1344ZM62.9199 25.7629C63.4404 25.752 63.9657 25.9645 64.4909 26.177C67.9158 28.1164 76.8063 42.4528 83.8472 67.9983L69.3993 74.3314C69.3993 74.3314 73.9163 66.1945 67.9306 53.8082C61.6846 41.4274 53.8721 28.8557 53.8721 28.8557C53.8721 28.8557 59.2673 25.3922 62.9199 25.7629ZM44.0441 31.9648C44.3043 31.9594 44.3042 31.9594 44.5644 31.954C46.4 32.5859 60.0021 48.1647 65.9742 72.392L52.0705 79.8308C52.0705 79.8308 51.7215 75.5933 46.7907 63.8552C41.8599 52.1172 31.6689 37.8078 31.6363 36.2446C31.6084 34.9048 40.14 32.0461 43.5184 31.7523C43.7833 31.9702 43.7838 31.9702 44.0441 31.9648ZM24.4007 38.8529C25.9668 39.0437 37.2501 55.7878 44.5279 80.2114C44.5279 80.2114 35.2571 85.0961 34.1976 84.2245C33.138 83.3529 34.0302 76.1852 30.7771 69.9975C27.524 63.8098 16.4402 44.1572 16.4402 44.1572C16.4402 44.1572 22.8347 38.6621 24.4007 38.8529ZM11.3099 47.8386C12.3508 47.8169 21.5108 62.5946 29.2859 85.8907L24.4766 92.4698C24.4766 92.4698 22.5898 89.3814 21.6835 83.3682C20.7771 77.355 10.6038 51.4279 9.00518 49.6739C7.4112 48.1433 10.2689 47.8603 11.3099 47.8386Z" fill="#F2B04C"/>
<path opacity="0.8982" d="M137.269 7.90526C144.82 7.97136 151.075 8.28786 151.075 8.28786C159.305 15.9358 162.628 25.4732 164.106 33.932C159.779 26.2028 153.817 14.9331 151.962 13.4078C150.108 11.8826 144.364 11.1086 138.37 10.7866C137.826 9.68091 137.287 8.79853 136.748 7.91612C136.748 7.91612 137.008 7.91068 137.269 7.90526ZM132.324 8.00827C132.598 8.67279 133.142 9.77847 133.421 10.6663C131.339 10.7097 129.512 10.5244 127.951 10.5569C121.189 10.9212 119.666 12.7401 120.479 14.2871C121.292 15.834 126.343 33.3782 127.77 39.3806C128.337 41.6029 128.379 43.6127 128.152 45.1813C124.833 35.8672 119.601 22.1247 117.969 18.8076C116.575 14.3684 112.351 11.5521 115.711 10.365C119.847 8.93842 126.343 8.35628 132.324 8.00827ZM158.631 8.57729C158.631 8.57729 173.214 8.72031 173.53 11.3947C175.17 15.1585 176.565 19.5976 177.959 24.0368C175.51 18.9494 173.33 14.3031 172.531 13.4261C170.932 11.6722 165.718 11.334 165.718 11.334C165.718 11.334 169.301 20.866 169.403 25.7789C169.436 27.3421 169.482 29.5752 169.269 31.8138C168.102 25.806 166.689 20.4736 165.606 18.4854C162.901 13.6268 158.631 8.57729 158.631 8.57729ZM104.562 12.608C105.863 12.5809 114.191 24.9184 120.795 41.9834C115.66 32.9306 106.533 19.7161 103.888 17.7605C100.71 15.1458 98.9349 17.4168 98.9349 17.4168C98.9349 17.4168 106.073 35.141 106.956 40.0376C106.97 40.7076 106.979 41.1542 106.993 41.8241C106.989 41.6008 106.989 41.6007 106.724 41.3829C102.002 27.183 93.6929 15.7388 94.9894 15.4883C96.0211 15.02 103.001 12.6405 104.562 12.608ZM185.24 11.1507C189.144 11.0694 196.175 11.1463 199.376 14.8776C200.441 15.9725 199.544 22.9169 203.615 30.8748C195.362 22.1104 195.492 15.8521 193.392 15.0022C190.51 14.1686 185.552 13.6017 185.552 13.6017C185.552 13.6017 186.867 26.7556 187.774 32.7688C188.062 34.1032 188.09 35.4431 187.853 36.565C185.338 28.3512 181.913 13.9009 181.62 12.3432C181.346 11.6786 182.898 11.1995 185.24 11.1507ZM85.9323 18.1345C86.1926 18.1291 86.4527 18.1236 86.4573 18.347C88.0327 18.9844 92.8843 26.9261 99.1628 40.8702C94.0741 34.0505 87.3639 24.3602 85.5143 23.0582C82.8701 21.1026 76.931 23.4605 76.931 23.4605C76.931 23.4605 81.3736 36.7726 84.0969 42.5245C84.3664 42.9657 84.3809 43.6356 84.6504 44.0768C79.9985 33.2266 73.0086 22.6485 74.0356 21.9569C75.0626 21.2653 82.0336 18.4392 85.412 18.1454C85.6722 18.14 85.9323 18.1345 85.9323 18.1345ZM62.9198 25.763C63.4402 25.7522 63.9656 25.9647 64.4907 26.1772C66.8608 27.4682 71.9633 34.9579 77.1823 48.0304C74.4915 43.8416 65.9034 31.5095 63.7936 30.213C61.1587 28.7041 57.5482 30.3431 57.5482 30.3431C57.5482 30.3431 61.1359 40.0985 64.928 47.1686C66.0062 48.9334 66.2992 50.4912 66.5827 51.6023C60.6156 40.1093 53.872 28.8559 53.872 28.8559C53.872 28.8559 59.2671 25.3923 62.9198 25.763ZM44.0439 31.9649C44.3042 31.9595 44.3041 31.9595 44.5643 31.9541C45.8748 32.3736 52.5387 39.8308 58.5245 52.2171C54.2583 47.3909 45.4891 38.8606 43.8998 37.5532C41.776 35.5868 35.8322 37.7213 35.8322 37.7213C35.8322 37.7213 41.2605 48.3319 44.258 54.7484C45.0759 56.5186 44.8485 58.0872 44.6115 59.2092C39.1881 48.8219 31.9286 37.8026 31.9054 36.686C31.8774 35.3461 40.4097 32.4875 43.7881 32.1937C43.7835 31.9704 43.7837 31.9704 44.0439 31.9649ZM24.4006 38.853C25.4416 38.8314 30.5351 45.8744 35.9817 57.3782L23.9826 43.7768L19.8651 46.0967C19.8651 46.0967 30.5957 61.2884 31.5113 67.7483C31.8088 69.5293 31.8369 70.8692 31.8602 71.9858C31.586 71.3213 31.3114 70.6567 30.7723 69.7743C27.5192 63.5866 16.4354 43.934 16.4354 43.934C16.4354 43.934 22.8346 38.6623 24.4006 38.853ZM11.3097 47.8387C11.8302 47.8279 15.5903 53.3349 19.9542 62.8506C17.8118 59.9909 15.3997 56.69 15.1302 56.2488C14.052 54.484 15.2276 60.9383 16.3663 65.6062C16.3756 66.0529 16.3853 66.4995 16.1297 66.7282C13.0996 58.7486 9.8137 50.9977 9.01438 50.1207C7.41109 48.1434 10.2688 47.8604 11.3097 47.8387Z" fill="#FFFA85"/>
<path opacity="0.3053" d="M164.835 43.97C164.96 49.9995 164.008 54.2641 164.008 54.2641L153.855 54.2522C153.855 54.2522 151.164 50.0635 149.746 44.5078C154.166 44.1923 160.411 44.0622 164.835 43.97ZM171.601 43.8291C175.505 43.7477 179.674 43.8843 183.582 44.0263C184.711 48.2476 185.301 51.5865 185.301 51.5865L172.819 52.2933C172.823 52.5166 172.224 48.7311 171.601 43.8291ZM144.286 44.845C144.895 49.0771 145.489 52.6392 145.489 52.6392L131.474 54.7185C131.474 54.7185 129.545 49.6202 128.434 46.2922C133.63 45.7372 139.086 45.1767 144.286 44.845ZM190.622 44.5499C201.31 45.2209 194.208 46.2837 204.92 48.0712C205.71 48.5016 206.234 48.7141 207.02 48.9211L192.588 51.4347C192.583 51.2113 191.998 48.0958 190.622 44.5499ZM122.723 47.0814C124.113 51.2972 125.242 55.5185 126.116 59.9685C126.116 59.9685 113.197 64.7058 113.416 62.6906C113.383 61.1274 111.984 56.465 109.484 48.9211C113.634 48.1644 118.048 47.6256 122.723 47.0814ZM103.257 49.9445C104.906 54.1549 106.817 58.3599 108.481 63.2403L91.1094 66.7299C91.1094 66.7299 90.5053 62.721 87.6982 52.9495C92.6195 51.7299 97.8102 50.9516 103.257 49.9445ZM79.6638 54.6807C81.0487 58.6733 82.443 63.1124 83.8465 67.9982L69.3986 74.3313C69.3986 74.3313 73.1675 67.7739 69.3055 57.354C72.4098 56.3957 76.0391 55.6499 79.6638 54.6807ZM61.7955 59.2977C63.4407 63.2849 64.8349 67.724 65.9735 72.3919L52.0699 79.8307C52.0699 79.8307 51.9811 75.5877 46.7901 63.8551L46.7854 63.6319C51.4417 62.1944 56.3585 60.7515 61.7955 59.2977ZM39.5505 66.24C41.2049 70.6738 42.8589 75.1076 44.5273 80.2113C44.5273 80.2113 35.2565 85.096 34.1969 84.2244C33.1374 83.3528 34.0296 76.1851 30.7765 69.9974C30.7718 69.7741 30.5073 69.5562 30.5027 69.3329C33.0864 68.3854 36.1906 67.4271 39.5505 66.24ZM24.0479 71.9249C25.6977 76.1353 27.6166 80.7869 29.0247 85.8961L24.2154 92.4751C24.2154 92.4751 22.3286 89.3867 21.4223 83.3735C21.1249 81.5924 20.0141 78.2644 18.6292 74.2719C20.1767 73.5694 21.9846 72.8615 24.0479 71.9249Z" fill="black"/>
</svg>
