<svg width="1920" height="128" viewBox="0 0 1920 128" fill="none" xmlns="http://www.w3.org/2000/svg">
<path fill-rule="evenodd" clip-rule="evenodd" d="M0 29.559C67.7 50.0107 116.5 61.2775 334 22.8234C402.9 10.5768 461.8 53.9296 607.7 32.6206C789.4 6.04563 890 54.5419 1135.4 5.55577C1262.7 -19.917 1347.5 52.0926 1511.2 23.6806C1596.6 8.86233 1687.9 21.1089 1761.5 24.5379C1805.9 26.6198 1833.4 24.5379 1855.8 23.5582C1878.5 22.5784 1895.9 22.7009 1920 29.559V127.654H0V29.559Z" fill="#5F5116"/>
<path fill-rule="evenodd" clip-rule="evenodd" d="M0 39.3562C67.7 57.8484 116.5 67.8906 334 33.2329C402.9 22.211 461.8 61.155 607.7 42.0504C789.4 18.1697 890 61.7673 1135.4 17.6798C1262.7 -5.22121 1347.5 59.5629 1511.2 34.0902C1596.6 20.7414 1687.9 31.7633 1761.5 34.825C1850.9 38.6214 1872.1 27.2321 1920 39.3562V127.654H0V39.3562Z" fill="#B89D31"/>
<path fill-rule="evenodd" clip-rule="evenodd" d="M0 45.2505C67.7 62.4294 116.6 71.9417 334.1 39.5715C403 29.3493 461.9 65.6948 607.8 47.806C789.6 25.516 890.2 66.2627 1135.6 25.0901C1262.9 3.79394 1347.7 64.1331 1511.4 40.2814C1700.6 12.7383 1897 34.1765 1920 45.2505V127.454H0V45.2505Z" fill="#D4BD63"/>
</svg>
