<svg width="87" height="77" viewBox="0 0 87 77" fill="none" xmlns="http://www.w3.org/2000/svg">
<path d="M77.3525 45.2735C21.3944 70.1438 17.3208 76.3614 8.74482 76.3614C0.383257 76.3614 11.746 42.7007 8.31561 26.6208C4.88522 10.5409 4.45653 3.68014 1.45494 0.892958C-1.54665 -1.67983 11.1031 5.39534 14.5335 12.6849C18.1783 19.9745 77.3525 45.2735 77.3525 45.2735Z" fill="#061818"/>
<path d="M87 45.2714C33.829 42.4842 22.2514 63.9242 16.2482 64.7818C10.0306 65.6394 18.6065 52.1322 18.8209 39.4826C19.2497 26.8331 1.24028 0.0332031 1.24028 0.0332031C1.24028 0.0332031 22.6798 13.1116 30.827 17.1851C38.7597 21.4731 87 45.2714 87 45.2714Z" fill="#E0E0E0"/>
</svg>
