<svg width="207" height="226" viewBox="0 0 207 226" fill="none" xmlns="http://www.w3.org/2000/svg">
<path d="M206.511 194.632C201.58 148.965 107.673 34.6906 36.4922 7.89072C-34.6883 -18.9092 18.0541 33.1898 30.2748 60.6329C42.4956 88.2904 49.3564 150.681 45.926 159.042C42.4957 167.404 51.286 173.621 51.286 173.621C51.286 173.621 45.497 178.124 42.4954 180.053C39.4939 181.983 41.4237 202.351 36.2781 210.284C31.3469 218.431 27.9162 225.935 27.9162 225.935C27.9162 225.935 102.527 207.925 111.318 205.567C120.323 203.423 206.511 194.632 206.511 194.632Z" fill="#061818"/>
<path d="M16.339 10.8955C20.8413 10.6811 36.4924 19.2571 72.5115 44.1274C132.329 85.292 177.567 148.969 186.572 189.704C160.415 192.492 117.106 204.284 111.532 205.784C105.1 207.5 70.1532 215.861 48.4989 221.221C49.9996 217.362 52.7866 211.144 55.7882 202.354C60.7194 187.346 56.8603 182.2 59.6475 181.772C62.4347 181.343 81.9448 179.413 78.7288 175.983C75.7272 172.552 63.0777 169.122 63.7209 166.764C64.5785 164.405 62.2202 154.114 61.1482 134.175C60.0762 114.236 34.3485 39.625 21.6989 23.5451C16.1246 16.4699 12.9086 11.1099 16.339 10.8955Z" fill="#8B8B8B"/>
<path d="M16.339 10.8955C20.8414 10.6811 36.4925 19.2571 72.5115 44.1274C132.329 85.292 177.567 148.969 186.572 189.704C179.925 190.348 171.993 191.848 164.06 193.349C150.338 127.1 66.7226 61.0649 54.7163 55.9193C44.2107 51.2026 54.7164 81.4328 54.2876 105.017C45.4972 75.2153 30.2748 34.9082 21.4844 23.5451C16.1244 16.4699 12.9086 11.1099 16.339 10.8955Z" fill="#ADADAD"/>
<path opacity="0.1372" d="M58.361 118.95C63.5066 128.598 70.1533 145.75 77.4429 152.396C84.9468 159.472 94.8089 165.904 98.0249 169.334C101.241 172.764 89.8779 179.625 90.7355 185.843C91.1643 188.63 100.383 197.849 117.535 204.067C115.391 204.71 112.39 205.353 111.532 205.567C105.1 207.283 70.1533 215.644 48.499 221.004C49.9998 217.145 52.7868 210.927 55.7884 202.137C60.7195 187.129 56.8605 181.984 59.6476 181.555C62.2204 181.126 81.9449 179.196 78.729 175.766C75.7274 172.336 63.0778 168.905 63.721 166.547C64.5786 164.188 62.2203 153.897 61.1483 133.958C60.7195 130.528 59.8618 125.382 58.361 118.95Z" fill="black"/>
<path opacity="0.354" d="M66.0537 89.9273C66.0537 92.2931 67.9893 94.2287 70.3551 94.2287C72.7209 94.2287 74.6565 92.2931 74.6565 89.9273C74.6565 87.5616 72.7209 85.626 70.3551 85.626C67.9893 85.626 66.0537 87.5616 66.0537 89.9273Z" fill="white"/>
</svg>
