<svg width="89" height="1184" viewBox="0 0 89 1184" fill="none" xmlns="http://www.w3.org/2000/svg">
<path d="M88.1692 2.91504C79.5932 106.255 56.6525 120.406 44.2174 128.124C31.7822 135.628 27.0654 133.484 28.5662 110.115C30.2813 86.7452 9.69872 21.3533 0.908362 15.9933C-7.66761 10.6334 88.1692 2.91504 88.1692 2.91504Z" fill="#061818"/>
<path d="M78.9495 0.769531C80.0215 51.1533 50.2201 102.609 45.2889 109.684C40.3577 116.759 43.5737 87.3867 39.929 74.9515C36.0698 62.5164 16.5592 20.2798 10.7705 14.2767C4.76727 8.2735 -3.80881 4.62872 3.69517 4.62872C11.1991 4.62872 78.9495 0.769531 78.9495 0.769531Z" fill="#8B8B8B"/>
<path d="M88.1692 1054.38C79.5932 1157.72 56.6525 1171.87 44.2174 1179.59C31.7822 1187.09 27.0654 1184.95 28.5662 1161.58C30.2813 1138.21 9.69872 1072.82 0.908362 1067.46C-7.66761 1062.1 88.1692 1054.38 88.1692 1054.38Z" fill="#061818"/>
<path d="M78.9505 1052.24C80.0225 1102.63 50.2211 1154.08 45.2899 1161.16C40.3587 1168.23 43.5747 1138.86 39.9299 1126.43C36.0707 1113.99 16.5602 1071.75 10.7714 1065.75C4.76825 1059.75 -3.80783 1056.1 3.69615 1056.1C11.2001 1056.1 78.9505 1052.24 78.9505 1052.24Z" fill="#8B8B8B"/>
<path d="M88.0891 133.742C79.5131 226.327 56.5724 239.004 44.1372 245.92C31.7021 252.642 26.9852 250.722 28.486 229.784C30.2012 208.847 9.61858 150.261 0.828223 145.459C-7.74774 140.657 88.0891 133.742 88.0891 133.742Z" fill="#061818"/>
<path d="M78.8684 131.822C79.9404 176.962 50.139 223.062 45.2078 229.401C40.2766 235.74 43.4926 209.424 39.8478 198.283C35.9887 187.143 16.4781 149.302 10.6893 143.924C4.68615 138.545 -3.88992 135.28 3.61405 135.28C11.118 135.28 78.8684 131.822 78.8684 131.822Z" fill="#8B8B8B"/>
<path d="M88.0891 922.338C79.5131 1014.92 56.5724 1027.6 44.1372 1034.52C31.7021 1041.24 26.9852 1039.32 28.486 1018.38C30.2012 997.443 9.61858 938.857 0.828223 934.055C-7.74774 929.253 88.0891 922.338 88.0891 922.338Z" fill="#061818"/>
<path d="M78.8684 920.419C79.9404 965.559 50.139 1011.66 45.2078 1018C40.2766 1024.34 43.4926 998.021 39.8478 986.88C35.9887 975.739 16.4781 937.899 10.6893 932.52C4.68615 927.142 -3.88992 923.876 3.61405 923.876C11.118 923.876 78.8684 920.419 78.8684 920.419Z" fill="#8B8B8B"/>
<path d="M88.1692 265.014C79.5932 350.009 56.6525 361.648 44.2174 367.996C31.7822 374.168 27.0654 372.405 28.5662 353.184C30.2813 333.963 9.69872 280.179 0.908362 275.77C-7.66761 271.362 88.1692 265.014 88.1692 265.014Z" fill="#061818"/>
<path d="M78.9505 263.25C80.0225 304.69 50.2211 347.011 45.2899 352.831C40.3587 358.65 43.5747 334.491 39.9299 324.263C36.0707 314.036 16.5602 279.297 10.7714 274.359C4.76825 269.422 -3.80783 266.424 3.69615 266.424C11.2001 266.424 78.9505 263.25 78.9505 263.25Z" fill="#8B8B8B"/>
<path d="M88.1692 790.746C79.5932 875.742 56.6525 887.38 44.2174 893.729C31.7822 899.9 27.0654 898.137 28.5662 878.916C30.2813 859.695 9.69872 805.911 0.908362 801.503C-7.66761 797.094 88.1692 790.746 88.1692 790.746Z" fill="#061818"/>
<path d="M78.9495 788.986C80.0215 830.426 50.2201 872.748 45.2889 878.567C40.3577 884.386 43.5737 860.228 39.929 850C36.0698 839.772 16.5592 805.033 10.7705 800.096C4.76727 795.158 -3.80881 792.16 3.69517 792.16C11.1991 792.16 78.9495 788.986 78.9495 788.986Z" fill="#8B8B8B"/>
<path d="M88.1692 396.263C79.5932 472.152 56.6525 482.543 44.2174 488.211C31.7822 493.722 27.0654 492.147 28.5662 474.986C30.2813 457.824 9.69872 409.803 0.908362 405.867C-7.66761 401.931 88.1692 396.263 88.1692 396.263Z" fill="#061818"/>
<path d="M78.9505 394.688C80.0225 431.687 50.2211 469.474 45.2899 474.67C40.3587 479.866 43.5747 458.296 39.9299 449.164C36.0707 440.032 16.5602 409.015 10.7714 404.607C4.76825 400.198 -3.80783 397.522 3.69615 397.522C11.2001 397.522 78.9505 394.688 78.9505 394.688Z" fill="#8B8B8B"/>
<path d="M88.1692 659.127C79.5932 735.016 56.6525 745.408 44.2174 751.076C31.7822 756.586 27.0654 755.012 28.5662 737.85C30.2813 720.688 9.69872 672.667 0.908362 668.731C-7.66761 664.795 88.1692 659.127 88.1692 659.127Z" fill="#061818"/>
<path d="M78.9505 657.554C80.0225 694.554 50.2211 732.341 45.2899 737.536C40.3587 742.732 43.5747 721.162 39.9299 712.03C36.0707 702.898 16.5602 671.881 10.7714 667.473C4.76825 663.064 -3.80783 660.388 3.69615 660.388C11.2001 660.388 78.9505 657.554 78.9505 657.554Z" fill="#8B8B8B"/>
<path d="M88.0891 527.575C79.5131 598.007 56.5725 607.651 44.1373 612.911C31.7022 618.026 26.9853 616.565 28.4861 600.637C30.2013 584.71 9.61864 540.142 0.828284 536.489C-7.74768 532.836 88.0891 527.575 88.0891 527.575Z" fill="#061818"/>
<path d="M78.8685 526.12C79.9404 560.459 50.1391 595.529 45.2079 600.351C40.2767 605.173 43.4927 585.154 39.8479 576.679C35.9887 568.204 16.4782 539.417 10.6894 535.326C4.68622 531.234 -3.88986 528.75 3.61411 528.75C11.1181 528.75 78.8685 526.12 78.8685 526.12Z" fill="#8B8B8B"/>
</svg>
