<svg width="706" height="1545" viewBox="0 0 706 1545" fill="none" xmlns="http://www.w3.org/2000/svg">
<path d="M402.238 1062.27H407.238V1057.27C407.238 1041.96 404.05 1018.02 399.22 995.582C396.798 984.324 393.937 973.325 390.808 963.862C387.713 954.505 384.235 946.269 380.452 940.805C379.373 939.246 378.421 937.942 377.6 936.931C376.902 936.073 375.912 934.926 374.751 934.194C374.253 933.88 372.707 932.973 370.664 933.363C368.116 933.85 366.993 935.823 366.614 936.884C366.263 937.87 366.236 938.797 366.238 939.304C366.242 939.9 366.3 940.503 366.373 941.058C366.654 943.176 367.409 946.309 368.351 949.995C368.79 951.712 369.256 953.496 369.759 955.422C370.418 957.946 371.141 960.715 371.951 963.896C377.488 985.658 385.211 1019.69 385.882 1057.36L385.969 1062.27H390.881H402.238Z" fill="#F0F0F0" stroke="black" stroke-width="10"/>
<path d="M348.249 1067.87L353.245 1067.67L353.046 1062.67C352.479 1048.41 348.624 1026.25 343.303 1005.56C340.632 995.179 337.563 985.05 334.299 976.356C331.074 967.766 327.523 960.201 323.774 955.221C322.711 953.809 321.772 952.625 320.963 951.706C320.283 950.934 319.287 949.865 318.126 949.196C317.63 948.909 316.06 948.068 314.044 948.537C311.525 949.122 310.488 951.132 310.156 952.196C309.848 953.183 309.858 954.093 309.88 954.578C309.906 955.152 309.985 955.726 310.075 956.247C310.419 958.23 311.243 961.135 312.254 964.52C312.727 966.107 313.226 967.748 313.765 969.519C314.47 971.836 315.242 974.376 316.113 977.307C322.061 997.32 330.489 1028.63 332.503 1063.58L332.786 1068.48L337.693 1068.29L348.249 1067.87Z" fill="#F0F0F0" stroke="black" stroke-width="10"/>
<path d="M294.753 1071.55L299.749 1071.35L299.55 1066.35C299.014 1052.88 295.374 1031.97 290.354 1012.45C287.834 1002.65 284.938 993.089 281.856 984.88C278.813 976.774 275.452 969.61 271.892 964.881C270.888 963.547 269.998 962.424 269.228 961.549C268.587 960.822 267.621 959.78 266.481 959.124C265.996 958.844 264.435 958.005 262.425 958.472C259.913 959.056 258.88 961.06 258.551 962.115C258.246 963.093 258.257 963.99 258.279 964.459C258.304 965.017 258.38 965.571 258.466 966.068C258.794 967.958 259.576 970.714 260.528 973.902C260.976 975.405 261.447 976.952 261.954 978.62C262.618 980.803 263.345 983.192 264.167 985.958C269.774 1004.82 277.712 1034.32 279.609 1067.24L279.892 1072.14L284.8 1071.94L294.753 1071.55Z" fill="#F0F0F0" stroke="black" stroke-width="10"/>
<path d="M243.363 1076.27L248.339 1075.78L247.851 1070.81C246.592 1057.98 241.965 1038.27 236.103 1019.96C233.16 1010.77 229.871 1001.82 226.479 994.169C223.131 986.617 219.525 979.96 215.853 975.629C214.822 974.414 213.908 973.389 213.12 972.593C212.47 971.936 211.47 970.973 210.311 970.392C209.818 970.145 208.218 969.399 206.243 969.981C203.775 970.708 202.864 972.765 202.598 973.83C202.352 974.817 202.415 975.702 202.463 976.157C202.519 976.699 202.624 977.233 202.735 977.707C203.155 979.503 204.058 982.097 205.139 985.075C205.651 986.485 206.185 987.932 206.76 989.491C207.511 991.529 208.334 993.758 209.27 996.348C215.649 1013.99 224.831 1041.6 228.457 1072.8L229.024 1077.68L233.912 1077.2L243.363 1076.27Z" fill="#F0F0F0" stroke="black" stroke-width="10"/>
<path d="M189.757 1085.94L194.733 1085.45L194.244 1080.48C193.234 1070.19 189.534 1054.44 184.864 1039.86C182.518 1032.53 179.892 1025.38 177.177 1019.26C174.507 1013.23 171.594 1007.83 168.577 1004.28C167.751 1003.3 167.005 1002.46 166.352 1001.8C165.837 1001.28 164.937 1000.4 163.85 999.859C163.393 999.63 161.821 998.89 159.867 999.465C157.42 1000.19 156.523 1002.22 156.264 1003.26C156.025 1004.22 156.09 1005.06 156.132 1005.46C156.183 1005.95 156.277 1006.42 156.37 1006.82C156.72 1008.32 157.461 1010.44 158.315 1012.8C158.729 1013.94 159.154 1015.09 159.609 1016.32C160.202 1017.93 160.849 1019.68 161.598 1021.75C166.659 1035.75 173.923 1057.61 176.791 1082.28L177.358 1087.16L182.246 1086.68L189.757 1085.94Z" fill="#F0F0F0" stroke="black" stroke-width="10"/>
<path d="M145.438 1095.84L150.418 1095.38L149.893 1090.41C148.962 1081.59 145.569 1068.18 141.31 1055.8C139.167 1049.58 136.764 1043.49 134.275 1038.27C131.833 1033.14 129.137 1028.48 126.309 1025.37C125.552 1024.54 124.859 1023.82 124.245 1023.24C123.766 1022.79 122.89 1021.99 121.825 1021.5C121.361 1021.28 119.886 1020.64 118.068 1021.14C115.75 1021.78 114.775 1023.64 114.469 1024.78C114.204 1025.77 114.278 1026.63 114.321 1027.02C114.375 1027.5 114.472 1027.95 114.563 1028.31C114.901 1029.66 115.601 1031.51 116.372 1033.49C116.757 1034.48 117.143 1035.45 117.556 1036.49C118.091 1037.84 118.671 1039.3 119.357 1041.07C123.952 1052.89 130.522 1071.29 133.114 1092.04L133.722 1096.91L138.607 1096.46L145.438 1095.84ZM117.171 1030.23C117.16 1030.23 117.155 1030.22 117.155 1030.22C117.155 1030.22 117.16 1030.22 117.171 1030.23Z" fill="#F0F0F0" stroke="black" stroke-width="10"/>
<path d="M96.7704 1101.47L101.75 1101.02L101.225 1096.05C100.548 1089.64 98.104 1080.01 95.0658 1071.18C93.5334 1066.73 91.8089 1062.36 90.0131 1058.59C88.2648 1054.92 86.2775 1051.45 84.1208 1049.08C83.5737 1048.48 83.0526 1047.94 82.5765 1047.49C82.2361 1047.17 81.4631 1046.45 80.4717 1045.99C80.0441 1045.79 78.5977 1045.16 76.8012 1045.65C74.5048 1046.28 73.5444 1048.12 73.2456 1049.24C72.9888 1050.2 73.063 1051.02 73.1009 1051.36C73.1489 1051.79 73.2341 1052.18 73.3074 1052.47C73.5736 1053.53 74.1079 1054.94 74.6461 1056.32C74.9321 1057.05 75.2056 1057.74 75.4967 1058.47C75.8689 1059.41 76.27 1060.42 76.7629 1061.69C80.0089 1070.04 84.6162 1082.96 86.4319 1097.49L87.0401 1102.36L91.925 1101.92L96.7704 1101.47ZM83.0151 1050.15C83.0152 1050.15 83.016 1050.16 83.0174 1050.16C83.0157 1050.16 83.015 1050.15 83.0151 1050.15ZM75.6717 1054.63C75.6372 1054.6 75.6189 1054.59 75.6185 1054.59C75.618 1054.58 75.6353 1054.6 75.6717 1054.63Z" fill="#F0F0F0" stroke="black" stroke-width="10"/>
<path d="M65.1066 1105.92L70.0858 1105.47L69.561 1100.5C69.0625 1095.77 67.2823 1088.79 65.0987 1082.45C63.9935 1079.23 62.7439 1076.07 61.4336 1073.32C60.1709 1070.66 58.6798 1068.03 56.993 1066.18C56.5927 1065.74 56.1921 1065.32 55.8125 1064.96L55.8047 1064.96C55.554 1064.72 54.8584 1064.07 53.9278 1063.63C53.5258 1063.45 52.0996 1062.82 50.3182 1063.31C48.0369 1063.93 47.0865 1065.77 46.7931 1066.86C46.5415 1067.8 46.6163 1068.6 46.6503 1068.9C46.6944 1069.3 46.7713 1069.64 46.8321 1069.88C47.0484 1070.74 47.4664 1071.84 47.842 1072.8C48.0583 1073.35 48.2529 1073.84 48.4582 1074.36C48.7169 1075.01 48.9926 1075.71 49.3507 1076.63C51.6525 1082.55 54.886 1091.63 56.1584 1101.82L56.7665 1106.68L61.6515 1106.24L65.1066 1105.92ZM48.9894 1072.18C48.9467 1072.14 48.9241 1072.12 48.9234 1072.12C48.9228 1072.12 48.9441 1072.14 48.9894 1072.18Z" fill="#F0F0F0" stroke="black" stroke-width="10"/>
<path d="M402.238 1064.27H407.238V1069.27C407.238 1083.7 404.252 1106.25 399.732 1127.38C397.464 1137.98 394.785 1148.35 391.854 1157.26C388.958 1166.08 385.694 1173.86 382.131 1179.04C381.12 1180.51 380.225 1181.74 379.449 1182.7C378.797 1183.51 377.843 1184.62 376.708 1185.34C376.224 1185.65 374.681 1186.57 372.635 1186.17C370.084 1185.68 368.974 1183.7 368.606 1182.66C368.261 1181.69 368.236 1180.78 368.238 1180.29C368.242 1179.72 368.297 1179.14 368.367 1178.61C368.632 1176.6 369.343 1173.63 370.223 1170.17C370.635 1168.54 371.071 1166.87 371.542 1165.05C372.157 1162.68 372.833 1160.08 373.591 1157.08C378.768 1136.61 385.987 1104.6 386.614 1069.18L386.701 1064.27H391.614H402.238Z" fill="#E5E5E5" stroke="black" stroke-width="10"/>
<path d="M348.296 1069.03L353.292 1068.83L353.491 1073.82C354.026 1087.28 352.08 1108.37 348.659 1128.19C346.941 1138.13 344.833 1147.87 342.434 1156.29C340.065 1164.59 337.309 1171.99 334.161 1176.97C333.274 1178.38 332.482 1179.57 331.789 1180.5C331.214 1181.27 330.338 1182.39 329.258 1183.14C328.799 1183.45 327.304 1184.43 325.252 1184.12C322.692 1183.73 321.511 1181.8 321.105 1180.78C320.727 1179.84 320.668 1178.95 320.652 1178.48C320.633 1177.92 320.664 1177.37 320.71 1176.87C320.884 1174.96 321.44 1172.16 322.129 1168.91C322.454 1167.38 322.797 1165.8 323.167 1164.1C323.651 1161.88 324.18 1159.44 324.775 1156.63C328.828 1137.41 334.348 1107.43 333.622 1074.53L333.513 1069.61L338.422 1069.42L348.296 1069.03Z" fill="#E5E5E5" stroke="black" stroke-width="10"/>
<path d="M294.773 1072.07L299.769 1071.87L299.968 1076.87C300.473 1089.58 298.635 1109.49 295.407 1128.19C293.787 1137.57 291.796 1146.77 289.531 1154.71C287.296 1162.55 284.688 1169.55 281.698 1174.29C280.86 1175.62 280.109 1176.75 279.449 1177.63C278.907 1178.36 278.057 1179.45 276.995 1180.19C276.546 1180.5 275.059 1181.46 273.013 1181.16C270.46 1180.77 269.283 1178.84 268.881 1177.84C268.506 1176.9 268.448 1176.02 268.433 1175.57C268.414 1175.03 268.445 1174.49 268.489 1174.01C268.655 1172.2 269.183 1169.54 269.832 1166.48C270.139 1165.03 270.463 1163.54 270.812 1161.94C271.267 1159.85 271.765 1157.55 272.327 1154.89C276.147 1136.78 281.346 1108.54 280.662 1077.55L280.554 1072.64L285.462 1072.44L294.773 1072.07Z" fill="#E5E5E5" stroke="black" stroke-width="10"/>
<path d="M243.367 1076.3L248.343 1075.82L248.831 1080.79C250.019 1092.89 249.37 1111.95 247.332 1129.94C246.309 1138.97 244.923 1147.84 243.204 1155.53C241.51 1163.12 239.41 1169.96 236.81 1174.66C236.084 1175.98 235.429 1177.1 234.845 1177.99C234.369 1178.71 233.603 1179.82 232.6 1180.61C232.176 1180.94 230.754 1181.99 228.699 1181.8C226.132 1181.56 224.849 1179.71 224.392 1178.74C223.966 1177.83 223.859 1176.96 223.819 1176.52C223.77 1176 223.77 1175.47 223.785 1175.01C223.843 1173.26 224.201 1170.68 224.649 1167.74C224.862 1166.33 225.087 1164.9 225.33 1163.36C225.648 1161.34 225.994 1159.14 226.382 1156.57C229.014 1139.13 232.395 1111.98 230.03 1082.55L229.636 1077.65L234.525 1077.17L243.367 1076.3Z" fill="#E5E5E5" stroke="black" stroke-width="10"/>
<path d="M189.559 1083.92L194.535 1083.44L195.024 1088.41C195.978 1098.12 195.455 1113.36 193.831 1127.68C193.015 1134.88 191.908 1141.97 190.532 1148.13C189.181 1154.19 187.487 1159.74 185.347 1163.61C184.766 1164.66 184.23 1165.58 183.745 1166.32C183.368 1166.89 182.679 1167.91 181.735 1168.64C181.341 1168.95 179.944 1169.99 177.909 1169.8C175.363 1169.57 174.096 1167.73 173.651 1166.79C173.237 1165.9 173.139 1165.07 173.103 1164.69C173.059 1164.21 173.059 1163.75 173.072 1163.35C173.121 1161.89 173.416 1159.78 173.77 1157.45C173.942 1156.32 174.122 1155.18 174.314 1153.95C174.565 1152.37 174.837 1150.63 175.147 1148.58C177.235 1134.75 179.908 1113.26 178.038 1089.99L177.644 1085.09L182.533 1084.61L189.559 1083.92ZM175.152 1161.16C175.148 1161.17 175.147 1161.17 175.147 1161.17C175.147 1161.17 175.148 1161.17 175.152 1161.16Z" fill="#E5E5E5" stroke="black" stroke-width="10"/>
<path d="M145.098 1087.61L150.077 1087.15L150.602 1092.12C151.481 1100.45 150.996 1113.43 149.515 1125.59C148.77 1131.71 147.757 1137.75 146.495 1143.01C145.258 1148.16 143.692 1152.96 141.684 1156.34C141.15 1157.24 140.652 1158.03 140.195 1158.68C139.845 1159.18 139.173 1160.1 138.247 1160.78C137.846 1161.07 136.532 1161.97 134.638 1161.8C132.225 1161.6 130.888 1159.94 130.359 1158.88C129.9 1157.97 129.794 1157.12 129.756 1156.75C129.71 1156.28 129.711 1155.83 129.724 1155.48C129.771 1154.16 130.052 1152.31 130.371 1150.36C130.532 1149.37 130.695 1148.41 130.869 1147.38C131.095 1146.05 131.339 1144.6 131.623 1142.85C133.519 1131.17 135.933 1113.09 134.243 1093.52L133.821 1088.64L138.707 1088.19L145.098 1087.61ZM139.73 1156.03C139.73 1156.03 139.73 1156.03 139.73 1156.03C139.73 1156.03 139.73 1156.03 139.73 1156.03ZM131.81 1153.09C131.797 1153.1 131.79 1153.11 131.79 1153.11C131.79 1153.11 131.796 1153.1 131.81 1153.09Z" fill="#E5E5E5" stroke="black" stroke-width="10"/>
<path d="M96.224 1096.29L101.203 1095.84L101.728 1100.81C102.368 1106.87 102.012 1116.2 100.955 1124.87C100.421 1129.25 99.695 1133.59 98.7836 1137.39C97.8978 1141.08 96.7476 1144.65 95.2103 1147.24C94.8244 1147.89 94.4489 1148.49 94.0933 1149C93.8443 1149.35 93.2511 1150.18 92.3857 1150.81C92.0145 1151.08 90.7261 1151.97 88.8531 1151.81C86.461 1151.61 85.1407 1149.96 84.6239 1148.93C84.1777 1148.05 84.0798 1147.23 84.0468 1146.9C84.0049 1146.48 84.0074 1146.09 84.0177 1145.81C84.0548 1144.76 84.272 1143.35 84.4945 1141.99C84.6141 1141.26 84.7298 1140.58 84.8527 1139.85C85.0096 1138.93 85.1784 1137.93 85.3824 1136.67C86.7215 1128.42 88.4106 1115.74 87.2277 1102.04L86.8057 1097.15L91.6913 1096.71L96.224 1096.29ZM94.0248 1146.31C94.0248 1146.31 94.025 1146.31 94.025 1146.3C94.0248 1146.31 94.0248 1146.31 94.0248 1146.31ZM85.8266 1143.24C85.7963 1143.28 85.7807 1143.3 85.7805 1143.3C85.7803 1143.3 85.7955 1143.29 85.8266 1143.24Z" fill="#E5E5E5" stroke="black" stroke-width="10"/>
<path d="M64.4159 1099.37L69.3951 1098.92L69.92 1103.89C70.3921 1108.36 70.126 1115.13 69.366 1121.37C68.9811 1124.53 68.4548 1127.68 67.789 1130.46C67.1488 1133.12 66.2896 1135.84 65.0823 1137.87C64.7996 1138.35 64.5101 1138.81 64.2253 1139.22C64.2226 1139.22 64.2199 1139.22 64.2171 1139.23C64.031 1139.49 63.4971 1140.25 62.6861 1140.84C62.336 1141.09 61.0653 1141.97 59.2071 1141.82C56.8296 1141.61 55.521 1139.97 55.0129 1138.96C54.5754 1138.1 54.4834 1137.31 54.4537 1137.01C54.4151 1136.62 54.4182 1136.28 54.4268 1136.04C54.4571 1135.18 54.6295 1134.09 54.7845 1133.14C54.8753 1132.58 54.9576 1132.1 55.0443 1131.59C55.1531 1130.94 55.269 1130.26 55.4174 1129.35C56.3666 1123.49 57.5483 1114.59 56.7202 1105L56.2982 1100.12L61.1837 1099.67L64.4159 1099.37ZM56.0139 1133.39C55.9444 1133.47 55.9424 1133.49 56.0135 1133.39C56.0136 1133.39 56.0138 1133.39 56.0139 1133.39Z" fill="#E5E5E5" stroke="black" stroke-width="10"/>
<path d="M421.532 1053.94L421.259 1053.87L420.98 1053.82C404.422 1051.34 377.942 1051.47 346.284 1053.21C314.5 1054.96 277.106 1058.36 238.509 1062.57C161.308 1070.99 79.1033 1082.65 26.9636 1090.83L25.5134 1091.06L24.4163 1092.03C21.7767 1094.38 18.2192 1098.62 17.1146 1103.71C16.5322 1106.39 16.6144 1109.43 18.0369 1112.41C19.4478 1115.36 21.9426 1117.77 25.3099 1119.64L26.7997 1120.47L28.4849 1120.21C76.4252 1112.97 153.574 1102.48 229.16 1094.55C304.894 1086.61 378.589 1081.29 419.88 1084.26C440.756 1085.75 453.865 1085.85 461.085 1084.86C462.918 1084.61 464.585 1084.26 465.991 1083.76C467.249 1083.31 469.057 1082.47 470.26 1080.74C471.813 1078.52 471.6 1076.02 470.668 1074.18C469.903 1072.67 468.675 1071.56 467.707 1070.81C465.678 1069.25 462.763 1067.75 459.599 1066.36C456.344 1064.93 452.48 1063.47 448.326 1062.03C440.013 1059.15 430.312 1056.29 421.532 1053.94Z" fill="#E5E5E5" stroke="black" stroke-width="10"/>
<path d="M37.2378 1099.27C311.638 1061.27 397.238 1058.44 409.238 1062.27L410.238 1057.77C356.238 1050.27 157.238 1076.77 37.2378 1093.77V1099.27Z" fill="#F0F0F0"/>
<path d="M660.833 1125.72C662.55 1133.52 658.647 1134.62 656.149 1134.93C653.651 1135.24 644.908 1126.34 647.874 1122.29C650.997 1118.23 650.529 1116.36 653.495 1116.36C656.461 1116.51 660.833 1121.19 660.833 1122.29C660.833 1123.22 660.833 1125.72 660.833 1125.72Z" fill="black"/>
<path d="M648.342 1110.27C669.419 1116.51 664.111 1132.9 661.457 1133.52C658.959 1134.15 659.583 1132.12 658.959 1127.59C658.334 1123.22 655.524 1119.01 648.498 1116.51C641.472 1114.01 648.342 1110.27 648.342 1110.27Z" fill="black"/>
<path d="M651.777 1119.94C645.532 1127.28 659.583 1132.12 657.398 1135.4C655.212 1138.52 651.621 1136.49 648.498 1133.05C645.376 1129.62 643.658 1124.47 647.249 1120.88C650.684 1117.14 651.777 1119.94 651.777 1119.94Z" fill="black"/>
<path d="M431.467 980.985L430.756 981.801L430.446 982.838C423.704 1005.43 415.614 1041.3 413.249 1075.68C412.067 1092.86 412.3 1109.87 414.939 1124.74C417.564 1139.53 422.668 1152.77 431.702 1161.8C437.567 1167.67 446.068 1171.67 455.89 1174.35C465.775 1177.04 477.425 1178.52 490.029 1179.05C515.242 1180.1 544.867 1177.36 573.095 1172.44C601.321 1167.53 628.412 1160.39 648.557 1152.52C658.599 1148.59 667.148 1144.4 673.279 1140.07C676.343 1137.9 678.986 1135.58 680.904 1133.08C682.82 1130.58 684.237 1127.6 684.237 1124.27C684.237 1103.67 673.99 1082.6 658.954 1062.9C643.849 1043.11 623.481 1024.14 602.243 1007.63C580.986 991.114 558.699 976.943 539.627 966.785C530.092 961.707 521.301 957.6 513.798 954.701C506.423 951.852 499.871 950 494.968 949.774C480.63 949.112 467.021 954.387 456.06 960.894C445.073 967.416 436.293 975.443 431.467 980.985Z" fill="#E6E6E6" stroke="black" stroke-width="10"/>
<path d="M422.238 1127.27C536.638 1168.47 636.571 1123.1 672.238 1095.27C672.238 1082.77 631.737 1034.77 581.737 997.768C516.237 957.768 487.737 932.768 435.238 984.268C411.638 1068.67 416.738 1114.77 422.238 1127.27Z" fill="#F0F0F0"/>
<path d="M499.55 1058.3C499.55 1071.94 506.592 1086.66 517.357 1098.04C528.131 1109.43 542.132 1116.96 555.495 1116.96C568.632 1116.96 579.143 1109.6 586.515 1098.39C593.913 1087.15 597.924 1072.31 597.924 1058.3C597.924 1030.7 575.985 1008.58 548.737 1008.58C521.739 1008.58 499.55 1030.71 499.55 1058.3Z" fill="black" stroke="black"/>
<path d="M698.327 1084.66C670.48 1019.77 592.348 961.229 519.918 937.68C501.391 931.657 433.262 1018.73 416.418 1017.77C387.791 1016.13 397.413 927.044 355.918 931.137C277.473 938.873 192.02 958.833 176.918 976.769C223.807 1137.03 117.418 1094.27 81.553 1037.72C51.9404 1058.87 10.549 1054.07 5.40637 1054.64C0.315143 1055.25 3.29756 1104.1 14.4057 1123.62C25.5138 1143.1 20.5547 1175.54 30.7886 1177.32C41.0225 1179.1 55.9199 1177.27 84.9189 1201.27C96.7022 1211.02 104.461 1213.37 132.418 1218.77C136.918 1155.27 186.575 1133.02 187.918 1133.27C204.418 1129.77 220.418 1126.77 237.418 1139.27C257.418 1158.27 240.423 1234.26 241.918 1234.33C255.021 1234.96 267.701 1235.27 279.418 1235.27C346.418 1235.27 358.418 1227.27 373.415 1194.53C386.22 1194.53 414.586 1194.36 473.418 1200.27C532.25 1206.18 644.192 1177.32 682.266 1168.86C712.093 1155.29 703.419 1110.09 703.419 1101.82C703.419 1093.49 698.327 1084.66 698.327 1084.66Z" fill="black"/>
<path d="M686.496 1103.76C672.685 1045.47 578.418 969.689 513.918 956.269C511.135 955.69 449.418 1031.27 412.918 1031.27C378.589 1031.27 386.889 944.246 354.414 945.769C279.057 949.302 241.435 962.08 213.237 973.005C208.402 974.878 200.268 978.585 194.918 981.269C215.418 1069.14 187.418 1101.77 157.918 1101.77C112.418 1101.77 77.321 1050.41 77.321 1050.41C42.8506 1064.39 25.6997 1060.88 18.0959 1063.1C10.5429 1065.32 24.9297 1145.52 35.0174 1156.17C47.7085 1164.63 31.4597 1153.45 51.9388 1168.86C67.8426 1180.83 97.63 1196.16 120.918 1204.53C120.918 1204.53 132.918 1143.27 168.918 1126.77C204.918 1110.27 243.33 1113.77 253.918 1136.27C265.918 1161.77 255.918 1224.43 255.918 1224.43C306.684 1227.24 354.414 1223.42 354.414 1199.27C354.414 1192.77 347.722 1188.7 354.414 1177.55C361.156 1166.36 372.054 1166.36 374.589 1174.18C377.123 1181.99 385.554 1182.77 404.918 1182.77C472.508 1193.08 510.894 1189.47 552.918 1182.77C594.941 1176.06 652.767 1163.66 673.804 1151.94C694.841 1140.15 686.496 1103.76 686.496 1103.76Z" fill="#9C8854"/>
<path opacity="0.5664" d="M652.654 1046.24C623.633 1009.73 563.418 967.768 515.418 955.768L498.418 970.268C550.091 982.967 609.375 1007.51 652.654 1046.24Z" fill="#FAF7B5"/>
<path opacity="0.3053" d="M413.418 1031.77C458.418 1027.77 504.96 954.519 519.918 956.769C585.918 975.268 665.344 1043.27 686.497 1098.54C686.497 1098.54 686.055 1109.83 665.344 1121.21C589.198 1146.59 553.39 1147.18 511.918 1153.67C470.446 1160.16 428.811 1147.77 409.75 1147.77C390.69 1147.77 381.235 1147.73 378.784 1140.14C377.483 1136.19 373.882 1134.3 369.829 1134.92C355.922 1109.72 348.068 1107.73 348.068 1077.48C350.418 1031.77 363.918 1012.77 381.418 984.769C392.918 1025.27 403.813 1031.74 413.418 1031.77Z" fill="white"/>
<path d="M486.418 1035.52C486.418 1070.59 522.754 1109.42 557.837 1109.42C592.921 1109.42 612.968 1070.28 612.968 1035.52C612.968 1000.45 584.776 972.269 549.693 972.269C514.923 972.269 486.418 1000.45 486.418 1035.52Z" fill="black"/>
<path d="M494.865 1028.95C494.865 1059.32 523.683 1090.32 554.694 1090.32C585.705 1090.32 605.126 1064.02 605.126 1033.96C605.126 1003.59 580.38 977.912 549.369 977.912C518.358 977.599 494.865 998.578 494.865 1028.95Z" fill="#D9D9D9"/>
<path opacity="0.4292" d="M522.126 984.167C514.921 988.551 508.97 993.874 506.151 1000.76C492.995 1032.08 530.271 1102.84 590.727 1074.35C581.956 1084.05 569.739 1090.32 554.704 1090.32C523.692 1090.32 494.874 1059 494.874 1028.94C494.874 1008.59 505.837 992.308 522.126 984.167Z" fill="black"/>
<path d="M549.682 977.598C580.693 977.598 605.439 1003.27 605.439 1033.65C605.439 1045.86 601.994 1057.76 596.042 1067.15C600.741 1043.98 601.993 994.82 547.176 977.911C548.116 977.911 548.742 977.598 549.682 977.598Z" fill="white"/>
<path d="M575.065 1010.47C576.944 1010.47 578.823 1010.78 580.39 1011.1C579.45 1012.35 578.823 1014.23 578.823 1015.79C578.823 1020.18 582.582 1023.93 586.967 1023.93C590.1 1023.93 592.919 1022.06 594.172 1019.24C597.931 1023.62 600.124 1029.26 600.124 1035.21C600.124 1048.98 588.847 1060.26 575.065 1060.26C561.282 1060.26 550.005 1048.98 550.005 1035.21C550.005 1021.74 561.282 1010.47 575.065 1010.47Z" fill="black"/>
<path opacity="0.4602" d="M663.012 1126.72C664.73 1134.52 660.827 1135.62 658.329 1135.93C655.831 1136.24 647.088 1127.34 650.054 1123.29C653.176 1119.23 652.708 1117.36 655.675 1117.36C658.641 1117.51 663.012 1122.19 663.012 1123.29C663.012 1124.22 663.012 1126.72 663.012 1126.72Z" fill="black"/>
<path d="M650.522 1111.27C671.599 1117.51 666.291 1133.9 663.636 1134.52C661.138 1135.15 661.763 1133.12 661.139 1128.59C660.514 1124.22 657.704 1120.01 650.678 1117.51C643.652 1115.01 650.522 1111.27 650.522 1111.27Z" fill="black"/>
<path d="M653.957 1120.94C647.712 1128.28 661.763 1133.12 659.577 1136.4C657.391 1139.52 653.8 1137.49 650.678 1134.05C647.555 1130.62 645.838 1125.47 649.429 1121.88C652.864 1118.14 653.957 1120.94 653.957 1120.94Z" fill="black"/>
<path d="M350.655 1056.9C349.427 1068.74 352.031 1110.87 360.037 1134.61C367.356 1156.41 366.128 1158.81 359.202 1154.23C352.276 1149.66 344.958 1110.42 340.488 1084.31C336.018 1058.23 349.427 1016 361.265 1005.78C373.054 995.566 353.111 1028.39 350.655 1056.9Z" fill="black"/>
<path d="M334.929 1018.27C327.526 1022.43 319.653 1029.6 318.439 1037.92L318.361 1038.46C318.322 1038.97 318.204 1039.48 318.204 1039.99C318.204 1048.78 325.763 1056.54 333.714 1061.17L334.929 1061.8C335.438 1062.07 335.869 1062.35 336.378 1062.62C335.477 1062.62 334.615 1062.66 333.714 1062.54C325.528 1067.45 317.499 1075.29 317.146 1084.43C316.755 1095.25 326.782 1105.09 336.417 1110.27C322.904 1109.56 312.094 1099.99 310.684 1088.07C300.931 1085.33 293.568 1078.07 291.061 1069.33C283.11 1073.29 274.414 1073.25 267.991 1064.58C258.395 1051.64 265.68 1045.21 273.553 1038.82C270.38 1045.45 268.383 1054.7 272.574 1060.7C276.255 1065.95 283.736 1067.68 290.591 1067.45C290.082 1064.94 290.003 1062.35 290.356 1059.72C291.844 1048.66 301.009 1040.31 312.368 1038.31C313.504 1027.6 323.061 1019.09 334.929 1018.27ZM312.329 1041.45C304.926 1045.8 298.268 1052.27 297.21 1060.19C295.918 1069.8 302.694 1079.33 310.645 1085.88C310.645 1085.45 310.566 1085.01 310.566 1084.58C310.958 1073.6 319.262 1064.58 330.346 1061.8C320.319 1059.29 312.838 1051.21 312.329 1041.45Z" fill="black"/>
<path d="M402.238 1371.27H407.238V1366.27C407.238 1350.96 404.05 1327.02 399.22 1304.58C396.798 1293.32 393.937 1282.33 390.808 1272.86C387.713 1263.5 384.235 1255.27 380.452 1249.8C379.373 1248.25 378.421 1246.94 377.6 1245.93C376.902 1245.07 375.912 1243.93 374.751 1243.19C374.253 1242.88 372.707 1241.97 370.664 1242.36C368.116 1242.85 366.993 1244.82 366.614 1245.88C366.263 1246.87 366.236 1247.8 366.238 1248.3C366.242 1248.9 366.3 1249.5 366.373 1250.06C366.654 1252.18 367.409 1255.31 368.351 1258.99C368.79 1260.71 369.256 1262.5 369.759 1264.42C370.418 1266.95 371.141 1269.71 371.951 1272.9C377.488 1294.66 385.211 1328.69 385.882 1366.36L385.969 1371.27H390.881H402.238Z" fill="#F0F0F0" stroke="black" stroke-width="10"/>
<path d="M348.249 1376.87L353.245 1376.67L353.046 1371.67C352.479 1357.41 348.624 1335.25 343.303 1314.56C340.632 1304.18 337.563 1294.05 334.299 1285.36C331.074 1276.77 327.523 1269.2 323.774 1264.22C322.711 1262.81 321.772 1261.63 320.963 1260.71C320.283 1259.93 319.287 1258.86 318.126 1258.2C317.63 1257.91 316.06 1257.07 314.044 1257.54C311.525 1258.12 310.488 1260.13 310.156 1261.2C309.848 1262.18 309.858 1263.09 309.88 1263.58C309.906 1264.15 309.985 1264.73 310.075 1265.25C310.419 1267.23 311.243 1270.13 312.254 1273.52C312.727 1275.11 313.226 1276.75 313.765 1278.52C314.47 1280.84 315.242 1283.38 316.113 1286.31C322.061 1306.32 330.489 1337.63 332.503 1372.58L332.786 1377.48L337.693 1377.29L348.249 1376.87Z" fill="#F0F0F0" stroke="black" stroke-width="10"/>
<path d="M294.753 1380.55L299.749 1380.35L299.55 1375.35C299.014 1361.88 295.374 1340.97 290.354 1321.45C287.834 1311.65 284.938 1302.09 281.856 1293.88C278.813 1285.77 275.452 1278.61 271.892 1273.88C270.888 1272.55 269.998 1271.42 269.228 1270.55C268.587 1269.82 267.621 1268.78 266.481 1268.12C265.996 1267.84 264.435 1267 262.425 1267.47C259.913 1268.06 258.88 1270.06 258.551 1271.11C258.246 1272.09 258.257 1272.99 258.279 1273.46C258.304 1274.02 258.38 1274.57 258.466 1275.07C258.794 1276.96 259.576 1279.71 260.528 1282.9C260.976 1284.4 261.447 1285.95 261.954 1287.62C262.618 1289.8 263.345 1292.19 264.167 1294.96C269.774 1313.82 277.712 1343.32 279.609 1376.24L279.892 1381.14L284.8 1380.94L294.753 1380.55Z" fill="#F0F0F0" stroke="black" stroke-width="10"/>
<path d="M243.363 1385.27L248.339 1384.78L247.851 1379.81C246.592 1366.98 241.965 1347.27 236.103 1328.96C233.16 1319.77 229.871 1310.82 226.479 1303.17C223.131 1295.62 219.525 1288.96 215.853 1284.63C214.822 1283.41 213.908 1282.39 213.12 1281.59C212.47 1280.94 211.47 1279.97 210.311 1279.39C209.818 1279.14 208.218 1278.4 206.243 1278.98C203.775 1279.71 202.864 1281.76 202.598 1282.83C202.352 1283.82 202.415 1284.7 202.463 1285.16C202.519 1285.7 202.624 1286.23 202.735 1286.71C203.155 1288.5 204.058 1291.1 205.139 1294.08C205.651 1295.49 206.185 1296.93 206.76 1298.49C207.511 1300.53 208.334 1302.76 209.27 1305.35C215.649 1322.99 224.831 1350.6 228.457 1381.8L229.024 1386.68L233.912 1386.2L243.363 1385.27Z" fill="#F0F0F0" stroke="black" stroke-width="10"/>
<path d="M189.757 1394.94L194.733 1394.45L194.244 1389.48C193.234 1379.19 189.534 1363.44 184.864 1348.86C182.518 1341.53 179.892 1334.38 177.177 1328.26C174.507 1322.23 171.594 1316.83 168.577 1313.28C167.751 1312.3 167.005 1311.46 166.352 1310.8C165.837 1310.28 164.937 1309.4 163.85 1308.86C163.393 1308.63 161.821 1307.89 159.867 1308.47C157.42 1309.19 156.523 1311.22 156.264 1312.26C156.025 1313.22 156.09 1314.06 156.132 1314.46C156.183 1314.95 156.277 1315.42 156.37 1315.82C156.72 1317.32 157.461 1319.44 158.315 1321.8C158.729 1322.94 159.154 1324.09 159.609 1325.32C160.202 1326.93 160.849 1328.68 161.598 1330.75C166.659 1344.75 173.923 1366.61 176.791 1391.28L177.358 1396.16L182.246 1395.68L189.757 1394.94Z" fill="#F0F0F0" stroke="black" stroke-width="10"/>
<path d="M145.438 1404.84L150.418 1404.38L149.893 1399.41C148.962 1390.59 145.569 1377.18 141.31 1364.8C139.167 1358.58 136.764 1352.49 134.275 1347.27C131.833 1342.14 129.137 1337.48 126.309 1334.37C125.552 1333.54 124.859 1332.82 124.245 1332.24C123.766 1331.79 122.89 1330.99 121.825 1330.5C121.361 1330.28 119.886 1329.64 118.068 1330.14C115.75 1330.78 114.775 1332.64 114.469 1333.78C114.204 1334.77 114.278 1335.63 114.321 1336.02C114.375 1336.5 114.472 1336.95 114.563 1337.31C114.901 1338.66 115.601 1340.51 116.372 1342.49C116.757 1343.48 117.143 1344.45 117.556 1345.49C118.091 1346.84 118.671 1348.3 119.357 1350.07C123.952 1361.89 130.522 1380.29 133.114 1401.04L133.722 1405.91L138.607 1405.46L145.438 1404.84ZM117.171 1339.23C117.16 1339.23 117.155 1339.22 117.155 1339.22C117.155 1339.22 117.16 1339.22 117.171 1339.23Z" fill="#F0F0F0" stroke="black" stroke-width="10"/>
<path d="M96.7704 1410.47L101.75 1410.02L101.225 1405.05C100.548 1398.64 98.104 1389.01 95.0658 1380.18C93.5334 1375.73 91.8089 1371.36 90.0131 1367.59C88.2648 1363.92 86.2775 1360.45 84.1208 1358.08C83.5737 1357.48 83.0526 1356.94 82.5765 1356.49C82.2361 1356.17 81.4631 1355.45 80.4717 1354.99C80.0441 1354.79 78.5977 1354.16 76.8012 1354.65C74.5048 1355.28 73.5444 1357.12 73.2456 1358.24C72.9888 1359.2 73.063 1360.02 73.1009 1360.36C73.1489 1360.79 73.2341 1361.18 73.3074 1361.47C73.5736 1362.53 74.1079 1363.94 74.6461 1365.32C74.9321 1366.05 75.2056 1366.74 75.4967 1367.47C75.8689 1368.41 76.27 1369.42 76.7629 1370.69C80.0089 1379.04 84.6162 1391.96 86.4319 1406.49L87.0401 1411.36L91.925 1410.92L96.7704 1410.47ZM83.0151 1359.15C83.0152 1359.15 83.016 1359.16 83.0174 1359.16C83.0157 1359.16 83.015 1359.15 83.0151 1359.15ZM75.6717 1363.63C75.6372 1363.6 75.6189 1363.59 75.6185 1363.59C75.618 1363.58 75.6353 1363.6 75.6717 1363.63Z" fill="#F0F0F0" stroke="black" stroke-width="10"/>
<path d="M65.1066 1414.92L70.0858 1414.47L69.561 1409.5C69.0625 1404.77 67.2823 1397.79 65.0987 1391.45C63.9935 1388.23 62.7439 1385.07 61.4336 1382.32C60.1709 1379.66 58.6798 1377.03 56.993 1375.18C56.5927 1374.74 56.1921 1374.32 55.8125 1373.96L55.8047 1373.96C55.554 1373.72 54.8584 1373.07 53.9278 1372.63C53.5258 1372.45 52.0996 1371.82 50.3182 1372.31C48.0369 1372.93 47.0865 1374.77 46.7931 1375.86C46.5415 1376.8 46.6163 1377.6 46.6503 1377.9C46.6944 1378.3 46.7713 1378.64 46.8321 1378.88C47.0484 1379.74 47.4664 1380.84 47.842 1381.8C48.0583 1382.35 48.2529 1382.84 48.4582 1383.36C48.7169 1384.01 48.9926 1384.71 49.3507 1385.63C51.6525 1391.55 54.886 1400.63 56.1584 1410.82L56.7665 1415.68L61.6515 1415.24L65.1066 1414.92ZM48.9894 1381.18C48.9467 1381.14 48.9241 1381.12 48.9234 1381.12C48.9228 1381.12 48.9441 1381.14 48.9894 1381.18Z" fill="#F0F0F0" stroke="black" stroke-width="10"/>
<path d="M402.238 1373.27H407.238V1378.27C407.238 1392.7 404.252 1415.25 399.732 1436.38C397.464 1446.98 394.785 1457.35 391.854 1466.26C388.958 1475.08 385.694 1482.86 382.131 1488.04C381.12 1489.51 380.225 1490.74 379.449 1491.7C378.797 1492.51 377.843 1493.62 376.708 1494.34C376.224 1494.65 374.681 1495.57 372.635 1495.17C370.084 1494.68 368.974 1492.7 368.606 1491.66C368.261 1490.69 368.236 1489.78 368.238 1489.29C368.242 1488.72 368.297 1488.14 368.367 1487.61C368.632 1485.6 369.343 1482.63 370.223 1479.17C370.635 1477.54 371.071 1475.87 371.542 1474.05C372.157 1471.68 372.833 1469.08 373.591 1466.08C378.768 1445.61 385.987 1413.6 386.614 1378.18L386.701 1373.27H391.614H402.238Z" fill="#E5E5E5" stroke="black" stroke-width="10"/>
<path d="M348.296 1378.03L353.292 1377.83L353.491 1382.82C354.026 1396.28 352.08 1417.37 348.659 1437.19C346.941 1447.13 344.833 1456.87 342.434 1465.29C340.065 1473.59 337.309 1480.99 334.161 1485.97C333.274 1487.38 332.482 1488.57 331.789 1489.5C331.214 1490.27 330.338 1491.39 329.258 1492.14C328.799 1492.45 327.304 1493.43 325.252 1493.12C322.692 1492.73 321.511 1490.8 321.105 1489.78C320.727 1488.84 320.668 1487.95 320.652 1487.48C320.633 1486.92 320.664 1486.37 320.71 1485.87C320.884 1483.96 321.44 1481.16 322.129 1477.91C322.454 1476.38 322.797 1474.8 323.167 1473.1C323.651 1470.88 324.18 1468.44 324.775 1465.63C328.828 1446.41 334.348 1416.43 333.622 1383.53L333.513 1378.61L338.422 1378.42L348.296 1378.03Z" fill="#E5E5E5" stroke="black" stroke-width="10"/>
<path d="M294.773 1381.07L299.769 1380.87L299.968 1385.87C300.473 1398.58 298.635 1418.49 295.407 1437.19C293.787 1446.57 291.796 1455.77 289.531 1463.71C287.296 1471.55 284.688 1478.55 281.698 1483.29C280.86 1484.62 280.109 1485.75 279.449 1486.63C278.907 1487.36 278.057 1488.45 276.995 1489.19C276.546 1489.5 275.059 1490.46 273.013 1490.16C270.46 1489.77 269.283 1487.84 268.881 1486.84C268.506 1485.9 268.448 1485.02 268.433 1484.57C268.414 1484.03 268.445 1483.49 268.489 1483.01C268.655 1481.2 269.183 1478.54 269.832 1475.48C270.139 1474.03 270.463 1472.54 270.812 1470.94C271.267 1468.85 271.765 1466.55 272.327 1463.89C276.147 1445.78 281.346 1417.54 280.662 1386.55L280.554 1381.64L285.462 1381.44L294.773 1381.07Z" fill="#E5E5E5" stroke="black" stroke-width="10"/>
<path d="M243.367 1385.3L248.343 1384.82L248.831 1389.79C250.019 1401.89 249.37 1420.95 247.332 1438.94C246.309 1447.97 244.923 1456.84 243.204 1464.53C241.51 1472.12 239.41 1478.96 236.81 1483.66C236.084 1484.98 235.429 1486.1 234.845 1486.99C234.369 1487.71 233.603 1488.82 232.6 1489.61C232.176 1489.94 230.754 1490.99 228.699 1490.8C226.132 1490.56 224.849 1488.71 224.392 1487.74C223.966 1486.83 223.859 1485.96 223.819 1485.52C223.77 1485 223.77 1484.47 223.785 1484.01C223.843 1482.26 224.201 1479.68 224.649 1476.74C224.862 1475.33 225.087 1473.9 225.33 1472.36C225.648 1470.34 225.994 1468.14 226.382 1465.57C229.014 1448.13 232.395 1420.98 230.03 1391.55L229.636 1386.65L234.525 1386.17L243.367 1385.3Z" fill="#E5E5E5" stroke="black" stroke-width="10"/>
<path d="M189.559 1392.92L194.535 1392.44L195.024 1397.41C195.978 1407.12 195.455 1422.36 193.831 1436.68C193.015 1443.88 191.908 1450.97 190.532 1457.13C189.181 1463.19 187.487 1468.74 185.347 1472.61C184.766 1473.66 184.23 1474.58 183.745 1475.32C183.368 1475.89 182.679 1476.91 181.735 1477.64C181.341 1477.95 179.944 1478.99 177.909 1478.8C175.363 1478.57 174.096 1476.73 173.651 1475.79C173.237 1474.9 173.139 1474.07 173.103 1473.69C173.059 1473.21 173.059 1472.75 173.072 1472.35C173.121 1470.89 173.416 1468.78 173.77 1466.45C173.942 1465.32 174.122 1464.18 174.314 1462.95C174.565 1461.37 174.837 1459.63 175.147 1457.58C177.235 1443.75 179.908 1422.26 178.038 1398.99L177.644 1394.09L182.533 1393.61L189.559 1392.92ZM175.152 1470.16C175.148 1470.17 175.147 1470.17 175.147 1470.17C175.147 1470.17 175.148 1470.17 175.152 1470.16Z" fill="#E5E5E5" stroke="black" stroke-width="10"/>
<path d="M145.098 1396.61L150.077 1396.15L150.602 1401.12C151.481 1409.45 150.996 1422.43 149.515 1434.59C148.77 1440.71 147.757 1446.75 146.495 1452.01C145.258 1457.16 143.692 1461.96 141.684 1465.34C141.15 1466.24 140.652 1467.03 140.195 1467.68C139.845 1468.18 139.173 1469.1 138.247 1469.78C137.846 1470.07 136.532 1470.97 134.638 1470.8C132.225 1470.6 130.888 1468.94 130.359 1467.88C129.9 1466.97 129.794 1466.12 129.756 1465.75C129.71 1465.28 129.711 1464.83 129.724 1464.48C129.771 1463.16 130.052 1461.31 130.371 1459.36C130.532 1458.37 130.695 1457.41 130.869 1456.38C131.095 1455.05 131.339 1453.6 131.623 1451.85C133.519 1440.17 135.933 1422.09 134.243 1402.52L133.821 1397.64L138.707 1397.19L145.098 1396.61ZM139.73 1465.03C139.73 1465.03 139.73 1465.03 139.73 1465.03C139.73 1465.03 139.73 1465.03 139.73 1465.03ZM131.81 1462.09C131.797 1462.1 131.79 1462.11 131.79 1462.11C131.79 1462.11 131.796 1462.1 131.81 1462.09Z" fill="#E5E5E5" stroke="black" stroke-width="10"/>
<path d="M96.224 1405.29L101.203 1404.84L101.728 1409.81C102.368 1415.87 102.012 1425.2 100.955 1433.87C100.421 1438.25 99.695 1442.59 98.7836 1446.39C97.8978 1450.08 96.7476 1453.65 95.2103 1456.24C94.8244 1456.89 94.4489 1457.49 94.0933 1458C93.8443 1458.35 93.2511 1459.18 92.3857 1459.81C92.0145 1460.08 90.7261 1460.97 88.8531 1460.81C86.461 1460.61 85.1407 1458.96 84.6239 1457.93C84.1777 1457.05 84.0798 1456.23 84.0468 1455.9C84.0049 1455.48 84.0074 1455.09 84.0177 1454.81C84.0548 1453.76 84.272 1452.35 84.4945 1450.99C84.6141 1450.26 84.7298 1449.58 84.8527 1448.85C85.0096 1447.93 85.1784 1446.93 85.3824 1445.67C86.7215 1437.42 88.4106 1424.74 87.2277 1411.04L86.8057 1406.15L91.6913 1405.71L96.224 1405.29ZM94.0248 1455.31C94.0248 1455.31 94.025 1455.31 94.025 1455.3C94.0248 1455.31 94.0248 1455.31 94.0248 1455.31ZM85.8266 1452.24C85.7963 1452.28 85.7807 1452.3 85.7805 1452.3C85.7803 1452.3 85.7955 1452.29 85.8266 1452.24Z" fill="#E5E5E5" stroke="black" stroke-width="10"/>
<path d="M64.4159 1408.37L69.3951 1407.92L69.92 1412.89C70.3921 1417.36 70.126 1424.13 69.366 1430.37C68.9811 1433.53 68.4548 1436.68 67.789 1439.46C67.1488 1442.12 66.2896 1444.84 65.0823 1446.87C64.7996 1447.35 64.5101 1447.81 64.2253 1448.22C64.2226 1448.22 64.2199 1448.22 64.2171 1448.23C64.031 1448.49 63.4971 1449.25 62.6861 1449.84C62.336 1450.09 61.0653 1450.97 59.2071 1450.82C56.8296 1450.61 55.521 1448.97 55.0129 1447.96C54.5754 1447.1 54.4834 1446.31 54.4537 1446.01C54.4151 1445.62 54.4182 1445.28 54.4268 1445.04C54.4571 1444.18 54.6295 1443.09 54.7845 1442.14C54.8753 1441.58 54.9576 1441.1 55.0443 1440.59C55.1531 1439.94 55.269 1439.26 55.4174 1438.35C56.3666 1432.49 57.5483 1423.59 56.7202 1414L56.2982 1409.12L61.1837 1408.67L64.4159 1408.37ZM56.0139 1442.39C55.9444 1442.47 55.9424 1442.49 56.0135 1442.39C56.0136 1442.39 56.0138 1442.39 56.0139 1442.39Z" fill="#E5E5E5" stroke="black" stroke-width="10"/>
<path d="M421.532 1362.94L421.259 1362.87L420.98 1362.82C404.422 1360.34 377.942 1360.47 346.284 1362.21C314.5 1363.96 277.106 1367.36 238.509 1371.57C161.308 1379.99 79.1033 1391.65 26.9636 1399.83L25.5134 1400.06L24.4163 1401.03C21.7767 1403.38 18.2192 1407.62 17.1146 1412.71C16.5322 1415.39 16.6144 1418.43 18.0369 1421.41C19.4478 1424.36 21.9426 1426.77 25.3099 1428.64L26.7997 1429.47L28.4849 1429.21C76.4252 1421.97 153.574 1411.48 229.16 1403.55C304.894 1395.61 378.589 1390.29 419.88 1393.26C440.756 1394.75 453.865 1394.85 461.085 1393.86C462.918 1393.61 464.585 1393.26 465.991 1392.76C467.249 1392.31 469.057 1391.47 470.26 1389.74C471.813 1387.52 471.6 1385.02 470.668 1383.18C469.903 1381.67 468.675 1380.56 467.707 1379.81C465.678 1378.25 462.763 1376.75 459.599 1375.36C456.344 1373.93 452.48 1372.47 448.326 1371.03C440.013 1368.15 430.312 1365.29 421.532 1362.94Z" fill="#E5E5E5" stroke="black" stroke-width="10"/>
<path d="M37.2378 1408.27C311.638 1370.27 397.238 1367.44 409.238 1371.27L410.238 1366.77C356.238 1359.27 157.238 1385.77 37.2378 1402.77V1408.27Z" fill="#F0F0F0"/>
<path d="M660.833 1434.72C662.55 1442.52 658.647 1443.62 656.149 1443.93C653.651 1444.24 644.908 1435.34 647.874 1431.29C650.997 1427.23 650.529 1425.36 653.495 1425.36C656.461 1425.51 660.833 1430.19 660.833 1431.29C660.833 1432.22 660.833 1434.72 660.833 1434.72Z" fill="black"/>
<path d="M648.342 1419.27C669.419 1425.51 664.111 1441.9 661.457 1442.52C658.959 1443.15 659.583 1441.12 658.959 1436.59C658.334 1432.22 655.524 1428.01 648.498 1425.51C641.472 1423.01 648.342 1419.27 648.342 1419.27Z" fill="black"/>
<path d="M651.777 1428.94C645.532 1436.28 659.583 1441.12 657.398 1444.4C655.212 1447.52 651.621 1445.49 648.498 1442.05C645.376 1438.62 643.658 1433.47 647.249 1429.88C650.684 1426.14 651.777 1428.94 651.777 1428.94Z" fill="black"/>
<path d="M431.467 1289.98L430.756 1290.8L430.446 1291.84C423.704 1314.43 415.614 1350.3 413.249 1384.68C412.067 1401.86 412.3 1418.87 414.939 1433.74C417.564 1448.53 422.668 1461.77 431.702 1470.8C437.567 1476.67 446.068 1480.67 455.89 1483.35C465.775 1486.04 477.425 1487.52 490.029 1488.05C515.242 1489.1 544.867 1486.36 573.095 1481.44C601.321 1476.53 628.412 1469.39 648.557 1461.52C658.599 1457.59 667.148 1453.4 673.279 1449.07C676.343 1446.9 678.986 1444.58 680.904 1442.08C682.82 1439.58 684.237 1436.6 684.237 1433.27C684.237 1412.67 673.99 1391.6 658.954 1371.9C643.849 1352.11 623.481 1333.14 602.243 1316.63C580.986 1300.11 558.699 1285.94 539.627 1275.79C530.092 1270.71 521.301 1266.6 513.798 1263.7C506.423 1260.85 499.871 1259 494.968 1258.77C480.63 1258.11 467.021 1263.39 456.06 1269.89C445.073 1276.42 436.293 1284.44 431.467 1289.98Z" fill="#E6E6E6" stroke="black" stroke-width="10"/>
<path d="M422.238 1436.27C536.638 1477.47 636.571 1432.1 672.238 1404.27C672.238 1391.77 631.737 1343.77 581.737 1306.77C516.237 1266.77 487.737 1241.77 435.238 1293.27C411.638 1377.67 416.738 1423.77 422.238 1436.27Z" fill="#F0F0F0"/>
<path d="M499.55 1367.3C499.55 1380.94 506.592 1395.66 517.357 1407.04C528.131 1418.43 542.132 1425.96 555.495 1425.96C568.632 1425.96 579.143 1418.6 586.515 1407.39C593.913 1396.15 597.924 1381.31 597.924 1367.3C597.924 1339.7 575.985 1317.58 548.737 1317.58C521.739 1317.58 499.55 1339.71 499.55 1367.3Z" fill="black" stroke="black"/>
<path d="M492.214 77.5234C492.214 115.482 531.543 157.507 569.516 157.507C607.488 157.507 629.188 115.143 629.188 77.5234C629.188 39.5649 598.673 9.0625 560.7 9.0625C522.727 9.0625 492.214 39.9038 492.214 77.5234Z" fill="black"/>
<path d="M501.357 70.4131C501.357 103.288 532.55 136.841 566.115 136.841C599.68 136.841 620.701 108.372 620.701 75.8358C620.701 42.9611 593.917 15.1699 560.351 15.1699C526.786 15.1699 501.357 37.5383 501.357 70.4131Z" fill="white"/>
<path d="M697.909 158.314C662.938 76.8286 548.669 5.35077 465.975 0.614073C383.229 -4.12262 202.517 19.2403 179.426 46.6633C138.182 69.0708 109.316 88.5458 81.134 111.374C51.5215 132.526 10.1301 127.726 4.98743 128.296C-0.103802 128.901 2.87862 177.759 13.9868 197.276C25.0949 216.757 20.1357 249.196 30.3696 250.977C40.6035 252.757 55.501 250.924 84.5 274.924C113.499 298.924 211.999 308.924 278.999 308.924C345.999 308.924 357.999 300.924 372.996 268.184C385.801 268.184 414.167 268.012 472.999 273.924C531.831 279.836 643.773 250.977 681.847 242.516C711.674 228.947 703 183.743 703 175.48C703 167.146 697.909 158.314 697.909 158.314Z" fill="black"/>
<path d="M686.077 177.418C671.782 117.077 568.37 32.7129 487.72 20.4155C407.018 8.11808 253.169 31.0283 212.818 46.6612C172.467 62.2941 111.322 110.084 76.9021 124.066C42.4317 138.048 25.2808 134.533 17.677 136.757C10.1239 138.981 24.5108 219.179 34.5984 229.825C47.2895 238.286 31.0408 227.108 51.5199 242.516C71.999 257.925 115.499 278.925 138.499 283.425C161.499 287.925 353.995 321.425 353.995 272.925C353.995 266.425 347.303 262.355 353.995 251.203C360.737 240.017 371.635 240.017 374.17 247.834C376.705 255.65 385.135 256.425 404.499 256.425C472.089 266.738 510.476 263.129 552.499 256.425C594.523 249.72 652.348 237.32 673.385 225.595C694.422 213.803 686.077 177.418 686.077 177.418Z" fill="#9C8854"/>
<path opacity="0.5664" d="M435.313 18.3146C453.322 18.401 470.038 19.2931 484.359 21.2787C544.134 29.5091 616.984 75.553 652.235 119.899C546.624 25.3939 375.491 28.358 336.647 31.322C292.966 34.6602 238.939 43.6963 219.11 57.5383C199.233 71.3802 172.267 116.244 141.278 132.475C111.583 148.043 89.8377 146.518 76.9057 142.576C87.3471 142.806 100.279 141.712 115.031 136.302C147.601 124.36 186.492 57.0778 224.618 43.6963C255.607 32.8472 357.386 17.9117 435.313 18.3146Z" fill="#FAF7B5"/>
<path opacity="0.292" d="M21.9062 178.856C28.2074 181.914 39.2088 187.814 56.2533 191.268C79.2891 195.909 90.6004 191.915 91.4268 192.959C91.3751 193.031 91.3752 193.067 91.3235 193.175C89.6191 198.535 87.0366 208.644 92.1499 211.63C97.2632 214.616 41.5848 209.22 31.3065 197.887C27.3294 193.462 24.0755 186.195 21.9062 178.856ZM101.912 203.787C104.133 205.946 106.354 208.176 109.556 211.09C126.497 226.704 134.399 249.872 366.359 241.417H373.022C373.022 241.417 374.829 246.778 377.257 253.001C375.707 251.275 374.571 249.368 373.951 247.389C371.369 239.043 360.264 239.079 353.395 251.023C346.525 262.967 346.474 271.924 337.9 271.924C329.326 271.924 182.899 267.715 147.777 259.981C112.655 252.21 117.872 227.747 110.176 216.415C107.49 212.457 104.649 207.996 101.912 203.787Z" fill="black"/>
<path opacity="0.3053" d="M439.097 16.9286C457.907 17.0264 475.367 18.037 490.324 20.2863C569.967 32.1849 671.971 113.812 686.078 172.197C686.078 172.197 685.636 183.487 664.925 194.864C588.779 220.246 552.971 220.837 511.499 227.324C470.027 233.811 428.392 221.425 409.332 221.425C390.271 221.425 380.816 221.391 378.365 213.796C377.064 209.851 373.463 207.961 369.41 208.58C355.503 183.381 347.649 181.39 347.649 151.138C347.649 98.4909 371.311 50.9944 409.332 17.4176C419.487 17.0264 429.492 16.896 439.097 16.9286Z" fill="white"/>
<path d="M650.995 88.7451C690.906 100.458 680.673 131.608 675.914 132.836C671.104 134.012 672.332 130.125 671.104 121.736C663.634 121.685 662.968 107.619 651.302 100.765C639.226 93.6043 650.995 88.7451 650.995 88.7451Z" fill="black"/>
<path d="M445.449 80.574C445.449 118.533 484.778 160.558 522.751 160.558C560.724 160.558 582.422 118.194 582.422 80.574C582.422 42.6155 551.908 12.1133 513.935 12.1133C476.302 12.1133 445.449 42.6155 445.449 80.574Z" fill="black"/>
<path d="M454.592 73.4637C454.592 106.338 485.784 139.891 519.349 139.891C552.914 139.891 573.935 111.422 573.935 78.8862C573.935 46.0115 547.15 18.2205 513.585 18.2205C480.019 17.8816 454.592 40.5889 454.592 73.4637Z" fill="#D9D9D9"/>
<path opacity="0.4292" d="M484.098 24.9922C476.3 29.737 469.858 35.4985 466.807 42.9547C452.567 76.8462 492.913 153.441 558.349 122.6C548.855 133.106 535.633 139.884 519.359 139.884C485.793 139.884 454.601 105.993 454.601 73.4571C454.601 51.4276 466.467 33.804 484.098 24.9922Z" fill="black"/>
<path d="M513.925 17.8809C547.49 17.8809 574.274 45.672 574.274 78.5468C574.274 91.7645 570.545 104.643 564.103 114.811C569.189 89.731 570.545 36.5213 511.212 18.2199C512.229 18.2199 512.907 17.8809 513.925 17.8809Z" fill="white"/>
<path d="M541.397 53.4609C543.431 53.4609 545.465 53.7999 547.161 54.1388C546.144 55.4945 545.465 57.528 545.465 59.2225C545.465 63.9674 549.533 68.0345 554.28 68.0345C557.67 68.0345 560.722 66.001 562.078 62.9507C566.147 67.6956 568.521 73.7959 568.521 80.2353C568.521 95.1476 556.315 107.349 541.397 107.349C526.479 107.349 514.274 95.1476 514.274 80.2353C514.274 65.662 526.479 53.4609 541.397 53.4609Z" fill="black"/>
<path opacity="0.4602" d="M642.645 130.594C645.89 145.339 638.515 147.403 633.795 147.993C629.075 148.583 612.554 131.774 618.159 124.106C624.059 116.439 623.175 112.9 628.78 112.9C634.385 113.195 642.645 122.042 642.645 124.106C642.645 125.876 642.645 130.594 642.645 130.594Z" fill="black"/>
<path d="M619.044 101.399C658.869 113.195 648.839 144.159 643.824 145.338C639.104 146.518 640.284 142.684 639.104 134.132C637.924 125.875 632.614 117.913 619.338 113.195C606.063 108.477 619.044 101.399 619.044 101.399Z" fill="black"/>
<path d="M625.533 119.683C613.733 133.543 640.284 142.685 636.154 148.878C632.024 154.776 625.238 150.942 619.338 144.454C613.438 137.967 610.193 128.235 616.979 121.453C623.469 114.375 625.533 119.683 625.533 119.683Z" fill="black"/>
<path d="M350.236 130.554C349.008 142.393 351.612 184.525 359.618 208.266C366.937 230.062 365.709 232.462 358.783 227.889C351.857 223.316 344.539 184.071 340.069 157.961C335.599 131.884 349.008 89.655 360.846 79.4383C372.635 69.2216 352.692 102.045 350.236 130.554Z" fill="black"/>
<path d="M320.512 93.9238C313.109 98.0807 305.236 105.257 304.022 113.571L303.944 114.12C303.905 114.63 303.787 115.14 303.787 115.649C303.787 124.434 311.346 132.198 319.297 136.826L320.512 137.453C321.021 137.728 321.452 138.002 321.961 138.277C321.06 138.277 320.198 138.316 319.297 138.198C311.111 143.1 303.082 150.943 302.729 160.081C302.338 170.904 312.365 180.747 322 185.924C308.487 185.218 297.677 175.649 296.267 163.728C286.514 160.983 279.151 153.728 276.644 144.983C268.693 148.943 259.997 148.904 253.574 140.238C243.978 127.296 251.263 120.865 259.136 114.473C255.963 121.1 253.966 130.355 258.157 136.355C261.838 141.61 269.319 143.336 276.174 143.1C275.665 140.59 275.586 138.002 275.939 135.375C277.427 124.316 286.592 115.963 297.951 113.963C299.087 103.257 308.644 94.7474 320.512 93.9238ZM297.912 117.1C290.509 121.453 283.851 127.924 282.793 135.845C281.501 145.453 288.277 154.983 296.228 161.532C296.228 161.1 296.149 160.669 296.149 160.238C296.541 149.257 304.845 140.238 315.929 137.453C305.902 134.943 298.421 126.865 297.912 117.1Z" fill="black"/>
<path d="M161.001 154.924C156.032 157.725 150.748 162.562 149.933 168.164L149.88 168.534C149.854 168.878 149.775 169.221 149.775 169.565C149.775 175.485 154.849 180.718 160.186 183.836L161.001 184.259C161.343 184.444 161.632 184.629 161.974 184.814C161.369 184.814 160.791 184.84 160.186 184.761C154.691 188.064 149.302 193.35 149.065 199.508C148.802 206.802 155.532 213.435 162 216.924C152.93 216.448 145.673 210 144.727 201.966C138.181 200.116 133.238 195.226 131.555 189.333C126.218 192.002 120.382 191.976 116.07 186.135C109.629 177.414 114.519 173.08 119.804 168.772C117.674 173.238 116.333 179.475 119.146 183.519C121.618 187.06 126.639 188.223 131.24 188.064C130.898 186.373 130.846 184.629 131.082 182.858C132.081 175.406 138.233 169.776 145.858 168.429C146.62 161.214 153.035 155.479 161.001 154.924ZM145.831 170.543C140.862 173.476 136.393 177.837 135.683 183.175C134.815 189.65 139.364 196.072 144.701 200.486C144.701 200.195 144.648 199.904 144.648 199.614C144.911 192.214 150.485 186.135 157.925 184.259C151.195 182.567 146.173 177.123 145.831 170.543Z" fill="black"/>
<path d="M400.238 443.269H405.238V438.269C405.238 422.958 402.05 399.025 397.22 376.582C394.798 365.324 391.937 354.325 388.808 344.862C385.713 335.505 382.235 327.269 378.452 321.805C377.373 320.246 376.421 318.942 375.6 317.931C374.902 317.073 373.912 315.926 372.751 315.194C372.253 314.88 370.707 313.973 368.664 314.363C366.116 314.85 364.993 316.823 364.614 317.884C364.263 318.87 364.236 319.797 364.238 320.304C364.242 320.9 364.3 321.503 364.373 322.058C364.654 324.176 365.409 327.309 366.351 330.995C366.79 332.712 367.256 334.496 367.759 336.422C368.418 338.946 369.141 341.715 369.951 344.896C375.488 366.658 383.211 400.688 383.882 438.358L383.969 443.269H388.881H400.238Z" fill="#F0F0F0" stroke="black" stroke-width="10"/>
<path d="M346.249 448.865L351.245 448.667L351.046 443.671C350.479 429.406 346.624 407.253 341.303 386.562C338.632 376.179 335.563 366.05 332.299 357.356C329.074 348.766 325.523 341.201 321.774 336.221C320.711 334.809 319.772 333.625 318.963 332.706C318.283 331.934 317.287 330.865 316.126 330.196C315.63 329.909 314.06 329.068 312.044 329.537C309.525 330.122 308.488 332.132 308.156 333.196C307.848 334.183 307.858 335.093 307.88 335.578C307.906 336.152 307.985 336.726 308.075 337.247C308.419 339.23 309.243 342.135 310.254 345.52C310.727 347.107 311.226 348.748 311.765 350.519C312.47 352.836 313.242 355.376 314.113 358.307C320.061 378.32 328.489 409.631 330.503 444.577L330.786 449.481L335.693 449.285L346.249 448.865Z" fill="#F0F0F0" stroke="black" stroke-width="10"/>
<path d="M292.753 452.549L297.749 452.35L297.55 447.354C297.014 433.876 293.374 412.966 288.354 393.447C285.834 383.651 282.938 374.089 279.856 365.88C276.813 357.774 273.452 350.61 269.892 345.881C268.888 344.547 267.998 343.424 267.228 342.549C266.587 341.822 265.621 340.78 264.481 340.124C263.996 339.844 262.435 339.005 260.425 339.472C257.913 340.056 256.88 342.06 256.551 343.115C256.246 344.093 256.257 344.99 256.279 345.459C256.304 346.017 256.38 346.571 256.466 347.068C256.794 348.958 257.576 351.714 258.528 354.902C258.976 356.405 259.447 357.952 259.954 359.62C260.618 361.803 261.345 364.192 262.167 366.958C267.774 385.822 275.712 415.32 277.609 448.236L277.892 453.14L282.8 452.945L292.753 452.549Z" fill="#F0F0F0" stroke="black" stroke-width="10"/>
<path d="M241.363 457.271L246.339 456.782L245.851 451.806C244.592 438.985 239.965 419.267 234.103 400.959C231.16 391.769 227.871 382.821 224.479 375.169C221.131 367.617 217.525 360.96 213.853 356.629C212.822 355.414 211.908 354.389 211.12 353.593C210.47 352.936 209.47 351.973 208.311 351.392C207.818 351.145 206.218 350.399 204.243 350.981C201.775 351.708 200.864 353.765 200.598 354.83C200.352 355.817 200.415 356.702 200.463 357.157C200.519 357.699 200.624 358.233 200.735 358.707C201.155 360.503 202.058 363.097 203.139 366.075C203.651 367.485 204.185 368.932 204.76 370.491C205.511 372.529 206.334 374.758 207.27 377.348C213.649 394.987 222.831 422.603 226.457 453.8L227.024 458.679L231.912 458.199L241.363 457.271Z" fill="#F0F0F0" stroke="black" stroke-width="10"/>
<path d="M187.757 466.941L192.733 466.452L192.244 461.476C191.234 451.185 187.534 435.438 182.864 420.855C180.518 413.528 177.892 406.38 175.177 400.256C172.507 394.233 169.594 388.832 166.577 385.275C165.751 384.301 165.005 383.464 164.352 382.804C163.837 382.283 162.937 381.404 161.85 380.859C161.393 380.63 159.821 379.89 157.867 380.465C155.42 381.186 154.523 383.225 154.264 384.26C154.025 385.218 154.09 386.062 154.132 386.464C154.183 386.954 154.277 387.424 154.37 387.824C154.72 389.322 155.461 391.443 156.315 393.796C156.729 394.938 157.154 396.088 157.609 397.324C158.202 398.931 158.849 400.684 159.598 402.754C164.659 416.748 171.923 438.606 174.791 463.28L175.358 468.158L180.246 467.678L187.757 466.941Z" fill="#F0F0F0" stroke="black" stroke-width="10"/>
<path d="M143.438 476.837L148.418 476.382L147.893 471.41C146.962 462.589 143.569 449.18 139.31 436.804C137.167 430.578 134.764 424.492 132.275 419.268C129.833 414.143 127.137 409.476 124.309 406.373C123.552 405.543 122.859 404.818 122.245 404.241C121.766 403.792 120.89 402.992 119.825 402.495C119.361 402.279 117.886 401.642 116.068 402.14C113.75 402.776 112.775 404.639 112.469 405.781C112.204 406.767 112.278 407.632 112.321 408.021C112.375 408.501 112.472 408.949 112.563 409.312C112.901 410.655 113.601 412.513 114.372 414.489C114.757 415.477 115.143 416.45 115.556 417.493C116.091 418.84 116.671 420.305 117.357 422.068C121.952 433.889 128.522 452.29 131.114 473.039L131.722 477.908L136.607 477.461L143.438 476.837ZM115.171 411.233C115.16 411.225 115.155 411.221 115.155 411.221C115.155 411.221 115.16 411.225 115.171 411.233Z" fill="#F0F0F0" stroke="black" stroke-width="10"/>
<path d="M94.7704 482.475L99.7496 482.02L99.2248 477.047C98.5482 470.637 96.104 461.009 93.0658 452.181C91.5334 447.728 89.8089 443.358 88.0131 439.589C86.2648 435.92 84.2775 432.449 82.1208 430.083C81.5737 429.483 81.0526 428.937 80.5765 428.489C80.2361 428.169 79.4631 427.45 78.4717 426.987C78.0441 426.788 76.5977 426.156 74.8012 426.649C72.5048 427.278 71.5444 429.124 71.2456 430.238C70.9888 431.196 71.063 432.022 71.1009 432.361C71.1489 432.791 71.2341 433.178 71.3074 433.47C71.5736 434.53 72.1079 435.938 72.6461 437.318C72.9321 438.051 73.2056 438.74 73.4967 439.474C73.8689 440.413 74.27 441.424 74.7629 442.692C78.0089 451.042 82.6162 463.959 84.4319 478.495L85.0401 483.364L89.925 482.917L94.7704 482.475ZM81.0151 431.153C81.0152 431.153 81.016 431.156 81.0174 431.163C81.0157 431.156 81.015 431.153 81.0151 431.153ZM73.6717 435.63C73.6372 435.603 73.6189 435.587 73.6185 435.585C73.618 435.584 73.6353 435.597 73.6717 435.63Z" fill="#F0F0F0" stroke="black" stroke-width="10"/>
<path d="M63.1066 486.923L68.0858 486.468L67.561 481.495C67.0625 476.772 65.2823 469.791 63.0987 463.446C61.9935 460.235 60.7439 457.065 59.4336 454.315C58.1709 451.665 56.6798 449.032 54.993 447.182C54.5927 446.742 54.1921 446.321 53.8125 445.964L53.8047 445.957C53.554 445.721 52.8584 445.068 51.9278 444.633C51.5258 444.446 50.0996 443.818 48.3182 444.307C46.0369 444.932 45.0865 446.766 44.7931 447.86C44.5415 448.798 44.6163 449.596 44.6503 449.901C44.6944 450.296 44.7713 450.641 44.8321 450.883C45.0484 451.743 45.4664 452.837 45.842 453.799C46.0583 454.354 46.2529 454.844 46.4582 455.362C46.7169 456.014 46.9926 456.709 47.3507 457.63C49.6525 463.551 52.886 472.63 54.1584 482.816L54.7665 487.685L59.6515 487.238L63.1066 486.923ZM46.9894 453.179C46.9467 453.145 46.9241 453.124 46.9234 453.122C46.9228 453.12 46.9441 453.137 46.9894 453.179Z" fill="#F0F0F0" stroke="black" stroke-width="10"/>
<path d="M400.238 445.269H405.238V450.269C405.238 464.704 402.252 487.251 397.732 508.382C395.464 518.984 392.785 529.346 389.854 538.264C386.958 547.077 383.694 554.859 380.131 560.037C379.12 561.507 378.225 562.741 377.449 563.701C376.797 564.508 375.843 565.625 374.708 566.345C374.224 566.652 372.681 567.566 370.635 567.173C368.084 566.683 366.974 564.702 366.606 563.661C366.261 562.689 366.236 561.78 366.238 561.292C366.242 560.717 366.297 560.137 366.367 559.609C366.632 557.596 367.343 554.631 368.223 551.166C368.635 549.544 369.071 547.865 369.542 546.053C370.157 543.681 370.833 541.08 371.591 538.083C376.768 517.607 383.987 485.603 384.614 450.18L384.701 445.269H389.614H400.238Z" fill="#E5E5E5" stroke="black" stroke-width="10"/>
<path d="M346.296 450.026L351.292 449.828L351.491 454.824C352.026 468.275 350.08 489.367 346.659 509.186C344.941 519.132 342.833 528.875 340.434 537.287C338.065 545.592 335.309 552.986 332.161 557.973C331.274 559.38 330.482 560.568 329.789 561.5C329.214 562.273 328.338 563.39 327.258 564.137C326.799 564.454 325.304 565.426 323.252 565.116C320.692 564.729 319.511 562.799 319.105 561.785C318.727 560.838 318.668 559.946 318.652 559.479C318.633 558.924 318.664 558.367 318.71 557.866C318.884 555.961 319.44 553.158 320.129 549.91C320.454 548.38 320.797 546.803 321.167 545.103C321.651 542.879 322.18 540.444 322.775 537.626C326.828 518.412 332.348 488.431 331.622 455.526L331.513 450.614L336.422 450.419L346.296 450.026Z" fill="#E5E5E5" stroke="black" stroke-width="10"/>
<path d="M292.773 453.072L297.769 452.873L297.968 457.869C298.473 470.58 296.635 490.49 293.407 509.187C291.787 518.572 289.796 527.768 287.531 535.712C285.296 543.549 282.688 550.553 279.698 555.291C278.86 556.62 278.109 557.747 277.449 558.634C276.907 559.363 276.057 560.451 274.995 561.185C274.546 561.496 273.059 562.465 271.013 562.156C268.46 561.77 267.283 559.844 266.881 558.838C266.506 557.9 266.448 557.02 266.433 556.568C266.414 556.028 266.445 555.491 266.489 555.011C266.655 553.195 267.183 550.535 267.832 547.477C268.139 546.028 268.463 544.541 268.812 542.939C269.267 540.845 269.765 538.555 270.327 535.894C274.147 517.785 279.346 489.542 278.662 458.549L278.554 453.637L283.462 453.442L292.773 453.072Z" fill="#E5E5E5" stroke="black" stroke-width="10"/>
<path d="M241.367 457.304L246.343 456.816L246.831 461.792C248.019 473.885 247.37 492.955 245.332 510.937C244.309 519.965 242.923 528.837 241.204 536.533C239.51 544.122 237.41 550.959 234.81 555.664C234.084 556.977 233.429 558.098 232.845 558.986C232.369 559.709 231.603 560.822 230.6 561.606C230.176 561.937 228.754 562.987 226.699 562.798C224.132 562.562 222.849 560.711 222.392 559.737C221.966 558.828 221.859 557.962 221.819 557.523C221.77 556.997 221.77 556.473 221.785 556.009C221.843 554.255 222.201 551.68 222.649 548.736C222.862 547.335 223.087 545.902 223.33 544.358C223.648 542.343 223.994 540.14 224.382 537.574C227.014 520.131 230.395 492.983 228.03 463.549L227.636 458.653L232.525 458.173L241.367 457.304Z" fill="#E5E5E5" stroke="black" stroke-width="10"/>
<path d="M187.559 464.925L192.535 464.436L193.024 469.412C193.978 479.124 193.455 494.358 191.831 508.684C191.015 515.884 189.908 522.972 188.532 529.134C187.181 535.187 185.487 540.738 183.347 544.61C182.766 545.662 182.23 546.579 181.745 547.317C181.368 547.89 180.679 548.906 179.735 549.644C179.341 549.952 177.944 550.992 175.909 550.805C173.363 550.57 172.096 548.734 171.651 547.785C171.237 546.902 171.139 546.075 171.103 545.685C171.059 545.209 171.059 544.745 171.072 544.353C171.121 542.887 171.416 540.778 171.77 538.453C171.942 537.317 172.122 536.178 172.314 534.955C172.565 533.366 172.837 531.635 173.147 529.584C175.235 515.746 177.908 494.264 176.038 470.991L175.644 466.095L180.533 465.615L187.559 464.925ZM173.152 542.162C173.148 542.166 173.147 542.168 173.147 542.168C173.147 542.168 173.148 542.166 173.152 542.162Z" fill="#E5E5E5" stroke="black" stroke-width="10"/>
<path d="M143.098 468.607L148.077 468.152L148.602 473.125C149.481 481.454 148.996 494.433 147.515 506.592C146.77 512.712 145.757 518.748 144.495 524.008C143.258 529.16 141.692 533.96 139.684 537.343C139.15 538.24 138.652 539.035 138.195 539.681C137.845 540.177 137.173 541.103 136.247 541.776C135.846 542.067 134.532 542.967 132.638 542.805C130.225 542.598 128.888 540.935 128.359 539.884C127.9 538.974 127.794 538.124 127.756 537.746C127.71 537.278 127.711 536.835 127.724 536.478C127.771 535.16 128.052 533.308 128.371 531.358C128.532 530.373 128.695 529.41 128.869 528.378C129.095 527.046 129.339 525.601 129.623 523.853C131.519 512.166 133.933 494.087 132.243 474.524L131.821 469.637L136.707 469.191L143.098 468.607ZM137.73 537.035C137.73 537.035 137.73 537.033 137.73 537.03C137.73 537.033 137.73 537.035 137.73 537.035ZM129.81 534.087C129.797 534.102 129.79 534.11 129.79 534.111C129.79 534.111 129.796 534.104 129.81 534.087Z" fill="#E5E5E5" stroke="black" stroke-width="10"/>
<path d="M94.224 477.293L99.2033 476.838L99.7281 481.811C100.368 487.872 100.012 497.198 98.9548 505.875C98.4215 510.253 97.695 514.591 96.7836 518.389C95.8978 522.08 94.7476 525.654 93.2103 528.243C92.8244 528.893 92.4489 529.493 92.0933 529.996C91.8443 530.349 91.2511 531.183 90.3857 531.812C90.0145 532.082 88.7261 532.971 86.8531 532.811C84.461 532.606 83.1407 530.957 82.6239 529.931C82.1777 529.045 82.0798 528.231 82.0468 527.9C82.0049 527.479 82.0074 527.094 82.0177 526.806C82.0548 525.762 82.272 524.354 82.4945 522.993C82.6141 522.261 82.7298 521.578 82.8527 520.852C83.0096 519.926 83.1784 518.93 83.3824 517.672C84.7215 509.418 86.4106 496.735 85.2277 483.04L84.8057 478.154L89.6913 477.707L94.224 477.293ZM92.0248 527.308C92.0248 527.308 92.025 527.305 92.025 527.299C92.0248 527.305 92.0248 527.309 92.0248 527.308ZM83.8266 524.245C83.7963 524.28 83.7807 524.301 83.7805 524.303C83.7803 524.304 83.7955 524.287 83.8266 524.245Z" fill="#E5E5E5" stroke="black" stroke-width="10"/>
<path d="M62.4159 480.373L67.3951 479.918L67.92 484.891C68.3921 489.364 68.126 496.134 67.366 502.373C66.9811 505.532 66.4548 508.681 65.789 511.456C65.1488 514.123 64.2896 516.84 63.0823 518.873C62.7996 519.349 62.5101 519.814 62.2253 520.217C62.2226 520.221 62.2199 520.224 62.2171 520.228C62.031 520.492 61.4971 521.248 60.6861 521.837C60.336 522.092 59.0653 522.975 57.2071 522.815C54.8296 522.612 53.521 520.972 53.0129 519.963C52.5754 519.095 52.4834 518.307 52.4537 518.008C52.4151 517.62 52.4182 517.276 52.4268 517.035C52.4571 516.184 52.6295 515.086 52.7845 514.138C52.8753 513.582 52.9576 513.097 53.0443 512.586C53.1531 511.943 53.269 511.26 53.4174 510.345C54.3666 504.494 55.5483 495.589 54.7202 486.001L54.2982 481.115L59.1837 480.669L62.4159 480.373ZM54.0139 514.389C53.9444 514.474 53.9424 514.49 54.0135 514.39C54.0136 514.389 54.0138 514.389 54.0139 514.389Z" fill="#E5E5E5" stroke="black" stroke-width="10"/>
<path d="M419.532 434.94L419.259 434.866L418.98 434.824C402.422 432.341 375.942 432.468 344.284 434.211C312.5 435.961 275.106 439.365 236.509 443.574C159.308 451.992 77.1033 463.654 24.9636 471.83L23.5134 472.057L22.4163 473.032C19.7767 475.378 16.2192 479.623 15.1146 484.708C14.5322 487.388 14.6144 490.428 16.0369 493.408C17.4478 496.363 19.9426 498.769 23.3099 500.64L24.7997 501.467L26.4849 501.213C74.4252 493.972 151.574 483.482 227.16 475.554C302.894 467.611 376.589 462.293 417.88 465.256C438.756 466.754 451.865 466.854 459.085 465.863C460.918 465.612 462.585 465.264 463.991 464.758C465.249 464.305 467.057 463.466 468.26 461.743C469.813 459.519 469.6 457.021 468.668 455.18C467.903 453.668 466.675 452.56 465.707 451.812C463.678 450.245 460.763 448.75 457.599 447.361C454.344 445.932 450.48 444.468 446.326 443.029C438.013 440.149 428.312 437.292 419.532 434.94Z" fill="#E5E5E5" stroke="black" stroke-width="10"/>
<path d="M35.2378 480.269C309.638 442.269 395.238 439.435 407.238 443.269L408.238 438.768C354.238 431.269 155.238 457.769 35.2378 474.769V480.269Z" fill="#F0F0F0"/>
<path d="M658.833 506.719C660.55 514.523 656.647 515.615 654.149 515.928C651.651 516.24 642.908 507.344 645.874 503.286C648.997 499.228 648.529 497.355 651.495 497.355C654.461 497.512 658.833 502.194 658.833 503.286C658.833 504.222 658.833 506.719 658.833 506.719Z" fill="black"/>
<path d="M646.342 491.269C667.419 497.511 662.111 513.898 659.457 514.522C656.959 515.147 657.583 513.118 656.959 508.592C656.334 504.222 653.524 500.008 646.498 497.511C639.472 495.014 646.342 491.269 646.342 491.269Z" fill="black"/>
<path d="M649.777 500.945C643.532 508.28 657.583 513.118 655.398 516.396C653.212 519.517 649.621 517.488 646.498 514.055C643.376 510.621 641.658 505.471 645.249 501.881C648.684 498.136 649.777 500.945 649.777 500.945Z" fill="black"/>
<path d="M429.467 361.985L428.756 362.801L428.446 363.838C421.704 386.426 413.614 422.299 411.249 456.675C410.067 473.861 410.3 490.866 412.939 505.736C415.564 520.529 420.668 533.771 429.702 542.804C435.567 548.669 444.068 552.666 453.89 555.346C463.775 558.043 475.425 559.52 488.029 560.045C513.242 561.096 542.867 558.359 571.095 553.444C599.321 548.53 626.412 541.392 646.557 533.519C656.599 529.595 665.148 525.398 671.279 521.067C674.343 518.902 676.986 516.577 678.904 514.077C680.82 511.579 682.237 508.603 682.237 505.269C682.237 484.672 671.99 463.6 656.954 443.899C641.849 424.108 621.481 405.137 600.243 388.633C578.986 372.114 556.699 357.943 537.627 347.785C528.092 342.707 519.301 338.6 511.798 335.701C504.423 332.852 497.871 331 492.968 330.774C478.63 330.112 465.021 335.387 454.06 341.894C443.073 348.416 434.293 356.443 429.467 361.985Z" fill="#E6E6E6" stroke="black" stroke-width="10"/>
<path d="M420.238 508.269C534.638 549.469 634.571 504.102 670.238 476.269C670.238 463.768 629.737 415.768 579.737 378.768C514.237 338.768 485.737 313.768 433.238 365.268C409.638 449.668 414.738 495.769 420.238 508.269Z" fill="#F0F0F0"/>
<path d="M497.55 439.305C497.55 452.941 504.592 467.656 515.357 479.038C526.131 490.427 540.132 497.956 553.495 497.956C566.632 497.956 577.143 490.596 584.515 479.394C591.913 468.152 595.924 453.312 595.924 439.305C595.924 411.696 573.985 389.582 546.737 389.582C519.739 389.582 497.55 411.707 497.55 439.305Z" fill="black" stroke="black"/>
<path d="M696.327 465.658C668.48 400.77 590.348 342.229 517.918 318.68C499.391 312.657 431.262 399.734 414.418 398.769C385.791 397.13 395.413 308.044 353.918 312.137C275.473 319.873 192.947 336.072 177.845 354.008C136.601 376.415 107.735 395.89 79.553 418.719C49.9404 439.871 8.54903 435.071 3.40637 435.64C-1.68486 436.246 1.29756 485.104 12.4057 504.62C23.5138 524.101 18.5547 556.54 28.7886 558.321C39.0225 560.102 53.9199 558.269 82.9189 582.269C111.918 606.269 210.418 616.269 277.418 616.269C344.418 616.269 356.418 608.269 371.415 575.528C384.22 575.528 412.586 575.357 471.418 581.269C530.25 587.181 642.192 558.321 680.266 549.86C710.093 536.291 701.419 491.087 701.419 482.824C701.419 474.491 696.327 465.658 696.327 465.658Z" fill="black"/>
<path d="M684.496 484.762C670.685 426.467 576.418 350.689 511.918 337.269C509.135 336.69 447.418 412.268 410.918 412.269C376.589 412.269 384.889 325.246 352.414 326.769C277.057 330.302 239.435 343.08 211.237 354.005C170.886 369.638 109.741 417.428 75.321 431.41C40.8506 445.392 23.6997 441.877 16.0959 444.101C8.54287 446.325 22.9297 526.522 33.0174 537.169C45.7085 545.63 29.4597 534.452 49.9388 549.86C70.418 565.269 113.918 586.269 136.918 590.769C159.918 595.269 352.414 628.769 352.414 580.269C352.414 573.769 345.722 569.698 352.414 558.546C359.156 547.361 370.054 547.361 372.589 555.177C375.123 562.994 383.554 563.769 402.918 563.769C470.508 574.082 508.894 570.473 550.918 563.769C592.941 557.064 650.767 544.663 671.804 532.939C692.841 521.147 684.496 484.762 684.496 484.762Z" fill="#9C8854"/>
<path opacity="0.5664" d="M650.654 427.243C621.633 390.735 561.418 348.768 513.418 336.768L496.418 351.268C548.091 363.967 607.375 388.514 650.654 427.243Z" fill="#FAF7B5"/>
<path opacity="0.292" d="M20.3251 486.201C26.6264 489.259 37.6278 495.159 54.6722 498.613C77.708 503.253 89.0193 499.26 89.8457 500.303C89.7941 500.375 89.7941 500.411 89.7425 500.519C88.038 505.88 85.4555 515.989 90.5688 518.975C95.6822 521.961 40.0037 516.564 29.7254 505.232C25.7484 500.807 22.4944 493.54 20.3251 486.201ZM100.331 511.132C102.552 513.291 104.773 515.521 107.975 518.435C124.916 534.048 132.818 557.216 364.778 548.762H371.441C371.441 548.762 373.248 554.122 375.676 560.346C374.126 558.619 372.99 556.713 372.37 554.734C369.788 546.388 358.683 546.424 351.814 558.368C344.944 570.311 344.893 579.269 336.319 579.269C327.745 579.269 181.318 575.06 146.196 567.325C111.074 559.555 116.29 535.092 108.595 523.759C105.909 519.802 103.068 515.341 100.331 511.132Z" fill="black"/>
<path opacity="0.3053" d="M411.418 412.768C456.418 408.769 502.96 335.519 517.918 337.769C583.918 356.268 663.344 424.268 684.497 479.54C684.497 479.54 684.055 490.831 663.344 502.208C587.198 527.59 551.39 528.181 509.918 534.668C468.446 541.155 426.811 528.768 407.75 528.768C388.69 528.768 379.235 528.735 376.784 521.139C375.483 517.195 371.882 515.304 367.829 515.924C353.922 490.725 346.068 488.733 346.068 458.482C348.418 412.768 361.918 393.769 379.418 365.769C390.918 406.269 401.813 412.736 411.418 412.768Z" fill="white"/>
<path d="M484.418 416.52C484.418 451.59 520.754 490.417 555.837 490.417C590.921 490.417 610.968 451.277 610.968 416.52C610.968 381.45 582.776 353.269 547.693 353.269C512.923 353.269 484.418 381.45 484.418 416.52Z" fill="black"/>
<path d="M492.865 409.951C492.865 440.324 521.683 471.323 552.694 471.323C583.705 471.323 603.126 445.021 603.126 414.961C603.126 384.588 578.38 358.912 547.369 358.912C516.358 358.599 492.865 379.578 492.865 409.951Z" fill="#D9D9D9"/>
<path opacity="0.4292" d="M520.126 365.167C512.921 369.551 506.97 374.874 504.151 381.763C490.995 413.075 528.271 483.841 588.727 455.347C579.956 465.054 567.739 471.316 552.704 471.316C521.692 471.316 492.874 440.004 492.874 409.944C492.874 389.591 503.837 373.308 520.126 365.167Z" fill="black"/>
<path d="M547.682 358.598C578.693 358.598 603.439 384.274 603.439 414.647C603.439 426.859 599.994 438.758 594.042 448.152C598.741 424.98 599.993 375.82 545.176 358.911C546.116 358.911 546.742 358.598 547.682 358.598Z" fill="white"/>
<path d="M573.065 391.47C574.944 391.47 576.823 391.783 578.39 392.096C577.45 393.349 576.823 395.227 576.823 396.793C576.823 401.177 580.582 404.934 584.967 404.934C588.1 404.934 590.919 403.056 592.172 400.237C595.931 404.621 598.124 410.257 598.124 416.207C598.124 429.984 586.847 441.257 573.065 441.257C559.282 441.257 548.005 429.984 548.005 416.207C548.005 402.742 559.282 391.47 573.065 391.47Z" fill="black"/>
<path opacity="0.4602" d="M661.012 507.719C662.73 515.523 658.827 516.615 656.329 516.928C653.831 517.24 645.088 508.344 648.054 504.286C651.176 500.228 650.708 498.355 653.675 498.355C656.641 498.512 661.012 503.194 661.012 504.286C661.012 505.222 661.012 507.719 661.012 507.719Z" fill="black"/>
<path d="M648.522 492.269C669.599 498.511 664.291 514.898 661.636 515.522C659.138 516.147 659.763 514.118 659.139 509.592C658.514 505.222 655.704 501.008 648.678 498.511C641.652 496.014 648.522 492.269 648.522 492.269Z" fill="black"/>
<path d="M651.957 501.945C645.712 509.28 659.763 514.118 657.577 517.396C655.391 520.517 651.8 518.488 648.678 515.055C645.555 511.621 643.838 506.471 647.429 502.881C650.864 499.136 651.957 501.945 651.957 501.945Z" fill="black"/>
<path d="M348.655 437.899C347.427 449.738 350.031 491.869 358.037 515.611C365.356 537.407 364.128 539.807 357.202 535.234C350.276 530.661 342.958 491.415 338.488 465.306C334.018 439.229 347.427 397 359.265 386.783C371.054 376.566 351.111 409.39 348.655 437.899Z" fill="black"/>
<path d="M332.929 402.269C325.526 406.425 317.653 413.602 316.439 421.916L316.361 422.465C316.322 422.974 316.204 423.484 316.204 423.994C316.204 432.778 323.763 440.543 331.714 445.171L332.929 445.798C333.438 446.072 333.869 446.347 334.378 446.621C333.477 446.621 332.615 446.661 331.714 446.543C323.528 451.445 315.499 459.288 315.146 468.425C314.755 479.249 324.782 489.092 334.417 494.269C320.904 493.563 310.094 483.994 308.684 472.072C298.931 469.327 291.568 462.072 289.061 453.327C281.11 457.288 272.414 457.249 265.991 448.582C256.395 435.641 263.68 429.21 271.553 422.818C268.38 429.445 266.383 438.7 270.574 444.7C274.255 449.955 281.736 451.68 288.591 451.445C288.082 448.935 288.003 446.347 288.356 443.72C289.844 432.661 299.009 424.308 310.368 422.308C311.504 411.602 321.061 403.092 332.929 402.269ZM310.329 425.445C302.926 429.798 296.268 436.269 295.21 444.19C293.918 453.798 300.694 463.327 308.645 469.876C308.645 469.445 308.566 469.014 308.566 468.582C308.958 457.602 317.262 448.582 328.346 445.798C318.319 443.288 310.838 435.21 310.329 425.445Z" fill="black"/>
<path d="M173.418 463.269C168.449 466.07 163.165 470.906 162.35 476.509L162.297 476.879C162.271 477.223 162.192 477.566 162.192 477.91C162.192 483.83 167.266 489.062 172.603 492.181L173.418 492.604C173.76 492.789 174.049 492.974 174.391 493.159C173.787 493.159 173.208 493.185 172.603 493.106C167.109 496.409 161.719 501.695 161.482 507.853C161.22 515.147 167.95 521.78 174.417 525.269C165.347 524.793 158.091 518.344 157.145 510.31C150.598 508.46 145.655 503.571 143.973 497.678C138.636 500.347 132.799 500.321 128.488 494.48C122.046 485.759 126.937 481.425 132.221 477.117C130.091 481.583 128.751 487.82 131.564 491.864C134.035 495.405 139.057 496.568 143.657 496.409C143.316 494.718 143.263 492.974 143.5 491.203C144.499 483.75 150.651 478.121 158.275 476.773C159.037 469.558 165.452 463.824 173.418 463.269ZM158.249 478.887C153.28 481.821 148.81 486.182 148.101 491.52C147.233 497.995 151.781 504.417 157.118 508.83C157.118 508.54 157.066 508.249 157.066 507.958C157.329 500.558 162.902 494.48 170.342 492.604C163.612 490.912 158.591 485.468 158.249 478.887Z" fill="black"/>
<path d="M402.238 752.269H407.238V747.269C407.238 731.958 404.05 708.025 399.22 685.582C396.798 674.324 393.937 663.325 390.808 653.862C387.713 644.505 384.235 636.269 380.452 630.805C379.373 629.246 378.421 627.942 377.6 626.931C376.902 626.073 375.912 624.926 374.751 624.194C374.253 623.88 372.707 622.973 370.664 623.363C368.116 623.85 366.993 625.823 366.614 626.884C366.263 627.87 366.236 628.797 366.238 629.304C366.242 629.9 366.3 630.503 366.373 631.058C366.654 633.176 367.409 636.309 368.351 639.995C368.79 641.712 369.256 643.496 369.759 645.422C370.418 647.946 371.141 650.715 371.951 653.896C377.488 675.658 385.211 709.688 385.882 747.358L385.969 752.269H390.881H402.238Z" fill="#F0F0F0" stroke="black" stroke-width="10"/>
<path d="M348.249 757.865L353.245 757.667L353.046 752.671C352.479 738.406 348.624 716.253 343.303 695.562C340.632 685.179 337.563 675.05 334.299 666.356C331.074 657.766 327.523 650.201 323.774 645.221C322.711 643.809 321.772 642.625 320.963 641.706C320.283 640.934 319.287 639.865 318.126 639.196C317.63 638.909 316.06 638.068 314.044 638.537C311.525 639.122 310.488 641.132 310.156 642.196C309.848 643.183 309.858 644.093 309.88 644.578C309.906 645.152 309.985 645.726 310.075 646.247C310.419 648.23 311.243 651.135 312.254 654.52C312.727 656.107 313.226 657.748 313.765 659.519C314.47 661.836 315.242 664.376 316.113 667.307C322.061 687.32 330.489 718.631 332.503 753.577L332.786 758.481L337.693 758.285L348.249 757.865Z" fill="#F0F0F0" stroke="black" stroke-width="10"/>
<path d="M294.753 761.549L299.749 761.35L299.55 756.354C299.014 742.876 295.374 721.966 290.354 702.447C287.834 692.651 284.938 683.089 281.856 674.88C278.813 666.774 275.452 659.61 271.892 654.881C270.888 653.547 269.998 652.424 269.228 651.549C268.587 650.822 267.621 649.78 266.481 649.124C265.996 648.844 264.435 648.005 262.425 648.472C259.913 649.056 258.88 651.06 258.551 652.115C258.246 653.093 258.257 653.99 258.279 654.459C258.304 655.017 258.38 655.571 258.466 656.068C258.794 657.958 259.576 660.714 260.528 663.902C260.976 665.405 261.447 666.952 261.954 668.62C262.618 670.803 263.345 673.192 264.167 675.958C269.774 694.822 277.712 724.32 279.609 757.236L279.892 762.14L284.8 761.945L294.753 761.549Z" fill="#F0F0F0" stroke="black" stroke-width="10"/>
<path d="M243.363 766.271L248.339 765.782L247.851 760.806C246.592 747.985 241.965 728.267 236.103 709.959C233.16 700.769 229.871 691.821 226.479 684.169C223.131 676.617 219.525 669.96 215.853 665.629C214.822 664.414 213.908 663.389 213.12 662.593C212.47 661.936 211.47 660.973 210.311 660.392C209.818 660.145 208.218 659.399 206.243 659.981C203.775 660.708 202.864 662.765 202.598 663.83C202.352 664.817 202.415 665.702 202.463 666.157C202.519 666.699 202.624 667.233 202.735 667.707C203.155 669.503 204.058 672.097 205.139 675.075C205.651 676.485 206.185 677.932 206.76 679.491C207.511 681.529 208.334 683.758 209.27 686.348C215.649 703.987 224.831 731.603 228.457 762.8L229.024 767.679L233.912 767.199L243.363 766.271Z" fill="#F0F0F0" stroke="black" stroke-width="10"/>
<path d="M189.757 775.941L194.733 775.452L194.244 770.476C193.234 760.185 189.534 744.438 184.864 729.855C182.518 722.528 179.892 715.38 177.177 709.256C174.507 703.233 171.594 697.832 168.577 694.275C167.751 693.301 167.005 692.464 166.352 691.804C165.837 691.283 164.937 690.404 163.85 689.859C163.393 689.63 161.821 688.89 159.867 689.465C157.42 690.186 156.523 692.225 156.264 693.26C156.025 694.218 156.09 695.062 156.132 695.464C156.183 695.954 156.277 696.424 156.37 696.824C156.72 698.322 157.461 700.443 158.315 702.796C158.729 703.938 159.154 705.088 159.609 706.324C160.202 707.931 160.849 709.684 161.598 711.754C166.659 725.748 173.923 747.606 176.791 772.28L177.358 777.158L182.246 776.678L189.757 775.941Z" fill="#F0F0F0" stroke="black" stroke-width="10"/>
<path d="M145.438 785.837L150.418 785.382L149.893 780.41C148.962 771.589 145.569 758.18 141.31 745.804C139.167 739.578 136.764 733.492 134.275 728.268C131.833 723.143 129.137 718.476 126.309 715.373C125.552 714.543 124.859 713.818 124.245 713.241C123.766 712.792 122.89 711.992 121.825 711.495C121.361 711.279 119.886 710.642 118.068 711.14C115.75 711.776 114.775 713.639 114.469 714.781C114.204 715.767 114.278 716.632 114.321 717.021C114.375 717.501 114.472 717.949 114.563 718.312C114.901 719.655 115.601 721.513 116.372 723.489C116.757 724.477 117.143 725.45 117.556 726.493C118.091 727.84 118.671 729.305 119.357 731.068C123.952 742.889 130.522 761.29 133.114 782.039L133.722 786.908L138.607 786.461L145.438 785.837ZM117.171 720.233C117.16 720.225 117.155 720.221 117.155 720.221C117.155 720.221 117.16 720.225 117.171 720.233Z" fill="#F0F0F0" stroke="black" stroke-width="10"/>
<path d="M96.7704 791.475L101.75 791.02L101.225 786.047C100.548 779.637 98.104 770.009 95.0658 761.181C93.5334 756.728 91.8089 752.358 90.0131 748.589C88.2648 744.92 86.2775 741.449 84.1208 739.083C83.5737 738.483 83.0526 737.937 82.5765 737.489C82.2361 737.169 81.4631 736.45 80.4717 735.987C80.0441 735.788 78.5977 735.156 76.8012 735.649C74.5048 736.278 73.5444 738.124 73.2456 739.238C72.9888 740.196 73.063 741.022 73.1009 741.361C73.1489 741.791 73.2341 742.178 73.3074 742.47C73.5736 743.53 74.1079 744.938 74.6461 746.318C74.9321 747.051 75.2056 747.74 75.4967 748.474C75.8689 749.413 76.27 750.424 76.7629 751.692C80.0089 760.042 84.6162 772.959 86.4319 787.495L87.0401 792.364L91.925 791.917L96.7704 791.475ZM83.0151 740.153C83.0152 740.153 83.016 740.156 83.0174 740.163C83.0157 740.156 83.015 740.153 83.0151 740.153ZM75.6717 744.63C75.6372 744.603 75.6189 744.587 75.6185 744.585C75.618 744.584 75.6353 744.597 75.6717 744.63Z" fill="#F0F0F0" stroke="black" stroke-width="10"/>
<path d="M65.1066 795.923L70.0858 795.468L69.561 790.495C69.0625 785.772 67.2823 778.791 65.0987 772.446C63.9935 769.235 62.7439 766.065 61.4336 763.315C60.1709 760.665 58.6798 758.032 56.993 756.182C56.5927 755.742 56.1921 755.321 55.8125 754.964L55.8047 754.957C55.554 754.721 54.8584 754.068 53.9278 753.633C53.5258 753.446 52.0996 752.818 50.3182 753.307C48.0369 753.932 47.0865 755.766 46.7931 756.86C46.5415 757.798 46.6163 758.596 46.6503 758.901C46.6944 759.296 46.7713 759.641 46.8321 759.883C47.0484 760.743 47.4664 761.837 47.842 762.799C48.0583 763.354 48.2529 763.844 48.4582 764.362C48.7169 765.014 48.9926 765.709 49.3507 766.63C51.6525 772.551 54.886 781.63 56.1584 791.816L56.7665 796.685L61.6515 796.238L65.1066 795.923ZM48.9894 762.179C48.9467 762.145 48.9241 762.124 48.9234 762.122C48.9228 762.12 48.9441 762.137 48.9894 762.179Z" fill="#F0F0F0" stroke="black" stroke-width="10"/>
<path d="M402.238 754.269H407.238V759.269C407.238 773.704 404.252 796.251 399.732 817.382C397.464 827.984 394.785 838.346 391.854 847.264C388.958 856.077 385.694 863.859 382.131 869.037C381.12 870.507 380.225 871.741 379.449 872.701C378.797 873.508 377.843 874.625 376.708 875.345C376.224 875.652 374.681 876.566 372.635 876.173C370.084 875.683 368.974 873.702 368.606 872.661C368.261 871.689 368.236 870.78 368.238 870.292C368.242 869.717 368.297 869.137 368.367 868.609C368.632 866.596 369.343 863.631 370.223 860.166C370.635 858.544 371.071 856.865 371.542 855.053C372.157 852.681 372.833 850.08 373.591 847.083C378.768 826.607 385.987 794.603 386.614 759.18L386.701 754.269H391.614H402.238Z" fill="#E5E5E5" stroke="black" stroke-width="10"/>
<path d="M348.296 759.026L353.292 758.828L353.491 763.824C354.026 777.275 352.08 798.367 348.659 818.186C346.941 828.132 344.833 837.875 342.434 846.287C340.065 854.592 337.309 861.986 334.161 866.973C333.274 868.38 332.482 869.568 331.789 870.5C331.214 871.273 330.338 872.39 329.258 873.137C328.799 873.454 327.304 874.426 325.252 874.116C322.692 873.729 321.511 871.799 321.105 870.785C320.727 869.838 320.668 868.946 320.652 868.479C320.633 867.924 320.664 867.367 320.71 866.866C320.884 864.961 321.44 862.158 322.129 858.91C322.454 857.38 322.797 855.803 323.167 854.103C323.651 851.879 324.18 849.444 324.775 846.626C328.828 827.412 334.348 797.431 333.622 764.526L333.513 759.614L338.422 759.419L348.296 759.026Z" fill="#E5E5E5" stroke="black" stroke-width="10"/>
<path d="M294.773 762.072L299.769 761.873L299.968 766.869C300.473 779.58 298.635 799.49 295.407 818.187C293.787 827.572 291.796 836.768 289.531 844.712C287.296 852.549 284.688 859.553 281.698 864.291C280.86 865.62 280.109 866.747 279.449 867.634C278.907 868.363 278.057 869.451 276.995 870.185C276.546 870.496 275.059 871.465 273.013 871.156C270.46 870.77 269.283 868.844 268.881 867.838C268.506 866.9 268.448 866.02 268.433 865.568C268.414 865.028 268.445 864.491 268.489 864.011C268.655 862.195 269.183 859.535 269.832 856.477C270.139 855.028 270.463 853.541 270.812 851.939C271.267 849.845 271.765 847.555 272.327 844.894C276.147 826.785 281.346 798.542 280.662 767.549L280.554 762.637L285.462 762.442L294.773 762.072Z" fill="#E5E5E5" stroke="black" stroke-width="10"/>
<path d="M243.367 766.304L248.343 765.816L248.831 770.792C250.019 782.885 249.37 801.955 247.332 819.937C246.309 828.965 244.923 837.837 243.204 845.533C241.51 853.122 239.41 859.959 236.81 864.664C236.084 865.977 235.429 867.098 234.845 867.986C234.369 868.709 233.603 869.822 232.6 870.606C232.176 870.937 230.754 871.987 228.699 871.798C226.132 871.562 224.849 869.711 224.392 868.737C223.966 867.828 223.859 866.962 223.819 866.523C223.77 865.997 223.77 865.473 223.785 865.009C223.843 863.255 224.201 860.68 224.649 857.736C224.862 856.335 225.087 854.902 225.33 853.358C225.648 851.343 225.994 849.14 226.382 846.574C229.014 829.131 232.395 801.983 230.03 772.549L229.636 767.653L234.525 767.173L243.367 766.304Z" fill="#E5E5E5" stroke="black" stroke-width="10"/>
<path d="M189.559 773.925L194.535 773.436L195.024 778.412C195.978 788.124 195.455 803.358 193.831 817.684C193.015 824.884 191.908 831.972 190.532 838.134C189.181 844.187 187.487 849.738 185.347 853.61C184.766 854.662 184.23 855.579 183.745 856.317C183.368 856.89 182.679 857.906 181.735 858.644C181.341 858.952 179.944 859.992 177.909 859.805C175.363 859.57 174.096 857.734 173.651 856.785C173.237 855.902 173.139 855.075 173.103 854.685C173.059 854.209 173.059 853.745 173.072 853.353C173.121 851.887 173.416 849.778 173.77 847.453C173.942 846.317 174.122 845.178 174.314 843.955C174.565 842.366 174.837 840.635 175.147 838.584C177.235 824.746 179.908 803.264 178.038 779.991L177.644 775.095L182.533 774.615L189.559 773.925ZM175.152 851.162C175.148 851.166 175.147 851.168 175.147 851.168C175.147 851.168 175.148 851.166 175.152 851.162Z" fill="#E5E5E5" stroke="black" stroke-width="10"/>
<path d="M145.098 777.607L150.077 777.152L150.602 782.125C151.481 790.454 150.996 803.433 149.515 815.592C148.77 821.712 147.757 827.748 146.495 833.008C145.258 838.16 143.692 842.96 141.684 846.343C141.15 847.24 140.652 848.035 140.195 848.681C139.845 849.177 139.173 850.103 138.247 850.776C137.846 851.067 136.532 851.967 134.638 851.805C132.225 851.598 130.888 849.935 130.359 848.884C129.9 847.974 129.794 847.124 129.756 846.746C129.71 846.278 129.711 845.835 129.724 845.478C129.771 844.16 130.052 842.308 130.371 840.358C130.532 839.373 130.695 838.41 130.869 837.378C131.095 836.046 131.339 834.601 131.623 832.853C133.519 821.166 135.933 803.087 134.243 783.524L133.821 778.637L138.707 778.191L145.098 777.607ZM139.73 846.035C139.73 846.035 139.73 846.033 139.73 846.03C139.73 846.033 139.73 846.035 139.73 846.035ZM131.81 843.087C131.797 843.102 131.79 843.11 131.79 843.111C131.79 843.111 131.796 843.104 131.81 843.087Z" fill="#E5E5E5" stroke="black" stroke-width="10"/>
<path d="M96.224 786.293L101.203 785.838L101.728 790.811C102.368 796.872 102.012 806.198 100.955 814.875C100.421 819.253 99.695 823.591 98.7836 827.389C97.8978 831.08 96.7476 834.654 95.2103 837.243C94.8244 837.893 94.4489 838.493 94.0933 838.996C93.8443 839.349 93.2511 840.183 92.3857 840.812C92.0145 841.082 90.7261 841.971 88.8531 841.811C86.461 841.606 85.1407 839.957 84.6239 838.931C84.1777 838.045 84.0798 837.231 84.0468 836.9C84.0049 836.479 84.0074 836.094 84.0177 835.806C84.0548 834.762 84.272 833.354 84.4945 831.993C84.6141 831.261 84.7298 830.578 84.8527 829.852C85.0096 828.926 85.1784 827.93 85.3824 826.672C86.7215 818.418 88.4106 805.735 87.2277 792.04L86.8057 787.154L91.6913 786.707L96.224 786.293ZM94.0248 836.308C94.0248 836.308 94.025 836.305 94.025 836.299C94.0248 836.305 94.0248 836.309 94.0248 836.308ZM85.8266 833.245C85.7963 833.28 85.7807 833.301 85.7805 833.303C85.7803 833.304 85.7955 833.287 85.8266 833.245Z" fill="#E5E5E5" stroke="black" stroke-width="10"/>
<path d="M64.4159 789.373L69.3951 788.918L69.92 793.891C70.3921 798.364 70.126 805.134 69.366 811.373C68.9811 814.532 68.4548 817.681 67.789 820.456C67.1488 823.123 66.2896 825.84 65.0823 827.873C64.7996 828.349 64.5101 828.814 64.2253 829.217C64.2226 829.221 64.2199 829.224 64.2171 829.228C64.031 829.492 63.4971 830.248 62.6861 830.837C62.336 831.092 61.0653 831.975 59.2071 831.815C56.8296 831.612 55.521 829.972 55.0129 828.963C54.5754 828.095 54.4834 827.307 54.4537 827.008C54.4151 826.62 54.4182 826.276 54.4268 826.035C54.4571 825.184 54.6295 824.086 54.7845 823.138C54.8753 822.582 54.9576 822.097 55.0443 821.586C55.1531 820.943 55.269 820.26 55.4174 819.345C56.3666 813.494 57.5483 804.589 56.7202 795.001L56.2982 790.115L61.1837 789.669L64.4159 789.373ZM56.0139 823.389C55.9444 823.474 55.9424 823.49 56.0135 823.39C56.0136 823.389 56.0138 823.389 56.0139 823.389Z" fill="#E5E5E5" stroke="black" stroke-width="10"/>
<path d="M421.532 743.94L421.259 743.866L420.98 743.824C404.422 741.341 377.942 741.468 346.284 743.211C314.5 744.961 277.106 748.365 238.509 752.574C161.308 760.992 79.1033 772.654 26.9636 780.83L25.5134 781.057L24.4163 782.032C21.7767 784.378 18.2192 788.623 17.1146 793.708C16.5322 796.388 16.6144 799.428 18.0369 802.408C19.4478 805.363 21.9426 807.769 25.3099 809.64L26.7997 810.467L28.4849 810.213C76.4252 802.972 153.574 792.482 229.16 784.554C304.894 776.611 378.589 771.293 419.88 774.256C440.756 775.754 453.865 775.854 461.085 774.863C462.918 774.612 464.585 774.264 465.991 773.758C467.249 773.305 469.057 772.466 470.26 770.743C471.813 768.519 471.6 766.021 470.668 764.18C469.903 762.668 468.675 761.56 467.707 760.812C465.678 759.245 462.763 757.75 459.599 756.361C456.344 754.932 452.48 753.468 448.326 752.029C440.013 749.149 430.312 746.292 421.532 743.94Z" fill="#E5E5E5" stroke="black" stroke-width="10"/>
<path d="M37.2378 789.269C311.638 751.269 397.238 748.435 409.238 752.269L410.238 747.768C356.238 740.269 157.238 766.769 37.2378 783.769V789.269Z" fill="#F0F0F0"/>
<path d="M660.833 815.719C662.55 823.523 658.647 824.615 656.149 824.928C653.651 825.24 644.908 816.344 647.874 812.286C650.997 808.228 650.529 806.355 653.495 806.355C656.461 806.512 660.833 811.194 660.833 812.286C660.833 813.222 660.833 815.719 660.833 815.719Z" fill="black"/>
<path d="M648.342 800.269C669.419 806.511 664.111 822.898 661.457 823.522C658.959 824.147 659.583 822.118 658.959 817.592C658.334 813.222 655.524 809.008 648.498 806.511C641.472 804.014 648.342 800.269 648.342 800.269Z" fill="black"/>
<path d="M651.777 809.945C645.532 817.28 659.583 822.118 657.398 825.396C655.212 828.517 651.621 826.488 648.498 823.055C645.376 819.621 643.658 814.471 647.249 810.881C650.684 807.136 651.777 809.945 651.777 809.945Z" fill="black"/>
<path d="M431.467 670.985L430.756 671.801L430.446 672.838C423.704 695.426 415.614 731.299 413.249 765.675C412.067 782.861 412.3 799.866 414.939 814.736C417.564 829.529 422.668 842.771 431.702 851.804C437.567 857.669 446.068 861.666 455.89 864.346C465.775 867.043 477.425 868.52 490.029 869.045C515.242 870.096 544.867 867.359 573.095 862.444C601.321 857.53 628.412 850.392 648.557 842.519C658.599 838.595 667.148 834.398 673.279 830.067C676.343 827.902 678.986 825.577 680.904 823.077C682.82 820.579 684.237 817.603 684.237 814.269C684.237 793.672 673.99 772.6 658.954 752.899C643.849 733.108 623.481 714.137 602.243 697.633C580.986 681.114 558.699 666.943 539.627 656.785C530.092 651.707 521.301 647.6 513.798 644.701C506.423 641.852 499.871 640 494.968 639.774C480.63 639.112 467.021 644.387 456.06 650.894C445.073 657.416 436.293 665.443 431.467 670.985Z" fill="#E6E6E6" stroke="black" stroke-width="10"/>
<path d="M422.238 817.269C536.638 858.469 636.571 813.102 672.238 785.269C672.238 772.768 631.737 724.768 581.737 687.768C516.237 647.768 487.737 622.768 435.238 674.268C411.638 758.668 416.738 804.769 422.238 817.269Z" fill="#F0F0F0"/>
<path d="M499.55 748.305C499.55 761.941 506.592 776.656 517.357 788.038C528.131 799.427 542.132 806.956 555.495 806.956C568.632 806.956 579.143 799.596 586.515 788.394C593.913 777.152 597.924 762.312 597.924 748.305C597.924 720.696 575.985 698.582 548.737 698.582C521.739 698.582 499.55 720.707 499.55 748.305Z" fill="black" stroke="black"/>
<path d="M698.327 774.658C670.48 709.77 592.348 651.229 519.918 627.68C501.391 621.657 433.262 708.734 416.418 707.769C387.791 706.13 397.413 617.044 355.918 621.137C277.473 628.873 194.947 645.072 179.845 663.008C138.601 685.415 109.735 704.89 81.553 727.719C51.9404 748.871 10.549 744.071 5.40637 744.64C0.315143 745.246 3.29756 794.104 14.4057 813.62C25.5138 833.101 20.5547 865.54 30.7886 867.321C41.0225 869.102 55.9199 867.269 84.9189 891.269C96.7022 901.021 104.461 903.371 132.418 908.769C136.918 845.269 186.575 823.022 187.918 823.269C204.418 819.769 220.418 816.769 237.418 829.269C257.418 848.269 240.423 924.258 241.918 924.33C255.021 924.963 267.701 925.269 279.418 925.269C346.418 925.269 358.418 917.269 373.415 884.528C386.22 884.528 414.586 884.357 473.418 890.269C532.25 896.181 644.192 867.321 682.266 858.86C712.093 845.291 703.419 800.087 703.419 791.824C703.419 783.491 698.327 774.658 698.327 774.658Z" fill="black"/>
<path d="M686.496 793.762C672.685 735.467 578.418 659.689 513.918 646.269C511.135 645.69 449.418 721.268 412.918 721.269C378.589 721.269 386.889 634.246 354.414 635.769C279.057 639.302 241.435 652.08 213.237 663.005C172.886 678.638 111.741 726.428 77.321 740.41C42.8506 754.392 25.6997 750.877 18.0959 753.101C10.5429 755.325 24.9297 835.522 35.0174 846.169C47.7085 854.63 31.4597 843.452 51.9388 858.86C67.8426 870.826 97.63 886.164 120.918 894.528C120.918 894.528 132.918 833.269 168.918 816.769C204.918 800.269 243.33 803.769 253.918 826.269C265.918 851.769 255.918 914.429 255.918 914.429C306.684 917.238 354.414 913.419 354.414 889.269C354.414 882.769 347.722 878.698 354.414 867.546C361.156 856.361 372.054 856.361 374.589 864.177C377.123 871.994 385.554 872.769 404.918 872.769C472.508 883.082 510.894 879.473 552.918 872.769C594.941 866.064 652.767 853.663 673.804 841.939C694.841 830.147 686.496 793.762 686.496 793.762Z" fill="#9C8854"/>
<path opacity="0.5664" d="M652.654 736.243C623.633 699.735 563.418 657.768 515.418 645.768L498.418 660.268C550.091 672.967 609.375 697.514 652.654 736.243Z" fill="#FAF7B5"/>
<path opacity="0.3053" d="M413.418 721.768C458.418 717.769 504.96 644.519 519.918 646.769C585.918 665.268 665.344 733.268 686.497 788.54C686.497 788.54 686.055 799.831 665.344 811.208C589.198 836.59 553.39 837.181 511.918 843.668C470.446 850.155 428.811 837.768 409.75 837.768C390.69 837.768 381.235 837.735 378.784 830.139C377.483 826.195 373.882 824.304 369.829 824.924C355.922 799.725 348.068 797.733 348.068 767.482C350.418 721.768 363.918 702.769 381.418 674.769C392.918 715.269 403.813 721.736 413.418 721.768Z" fill="white"/>
<path d="M486.418 725.52C486.418 760.59 522.754 799.417 557.837 799.417C592.921 799.417 612.968 760.277 612.968 725.52C612.968 690.45 584.776 662.269 549.693 662.269C514.923 662.269 486.418 690.45 486.418 725.52Z" fill="black"/>
<path d="M494.865 718.951C494.865 749.324 523.683 780.323 554.694 780.323C585.705 780.323 605.126 754.021 605.126 723.961C605.126 693.588 580.38 667.912 549.369 667.912C518.358 667.599 494.865 688.578 494.865 718.951Z" fill="#D9D9D9"/>
<path opacity="0.4292" d="M522.126 674.167C514.921 678.551 508.97 683.874 506.151 690.763C492.995 722.075 530.271 792.841 590.727 764.347C581.956 774.054 569.739 780.316 554.704 780.316C523.692 780.316 494.874 749.004 494.874 718.944C494.874 698.591 505.837 682.308 522.126 674.167Z" fill="black"/>
<path d="M549.682 667.598C580.693 667.598 605.439 693.274 605.439 723.647C605.439 735.859 601.994 747.758 596.042 757.152C600.741 733.98 601.993 684.82 547.176 667.911C548.116 667.911 548.742 667.598 549.682 667.598Z" fill="white"/>
<path d="M575.065 700.47C576.944 700.47 578.823 700.783 580.39 701.096C579.45 702.349 578.823 704.227 578.823 705.793C578.823 710.177 582.582 713.934 586.967 713.934C590.1 713.934 592.919 712.056 594.172 709.237C597.931 713.621 600.124 719.257 600.124 725.207C600.124 738.984 588.847 750.257 575.065 750.257C561.282 750.257 550.005 738.984 550.005 725.207C550.005 711.742 561.282 700.47 575.065 700.47Z" fill="black"/>
<path opacity="0.4602" d="M663.012 816.719C664.73 824.523 660.827 825.615 658.329 825.928C655.831 826.24 647.088 817.344 650.054 813.286C653.176 809.228 652.708 807.355 655.675 807.355C658.641 807.512 663.012 812.194 663.012 813.286C663.012 814.222 663.012 816.719 663.012 816.719Z" fill="black"/>
<path d="M650.522 801.269C671.599 807.511 666.291 823.898 663.636 824.522C661.138 825.147 661.763 823.118 661.139 818.592C660.514 814.222 657.704 810.008 650.678 807.511C643.652 805.014 650.522 801.269 650.522 801.269Z" fill="black"/>
<path d="M653.957 810.945C647.712 818.28 661.763 823.118 659.577 826.396C657.391 829.517 653.8 827.488 650.678 824.055C647.555 820.621 645.838 815.471 649.429 811.881C652.864 808.136 653.957 810.945 653.957 810.945Z" fill="black"/>
<path d="M350.655 746.899C349.427 758.738 352.031 800.869 360.037 824.611C367.356 846.407 366.128 848.807 359.202 844.234C352.276 839.661 344.958 800.415 340.488 774.306C336.018 748.229 349.427 706 361.265 695.783C373.054 685.566 353.111 718.39 350.655 746.899Z" fill="black"/>
<path d="M334.929 708.269C327.526 712.425 319.653 719.602 318.439 727.916L318.361 728.465C318.322 728.974 318.204 729.484 318.204 729.994C318.204 738.778 325.763 746.543 333.714 751.171L334.929 751.798C335.438 752.072 335.869 752.347 336.378 752.621C335.477 752.621 334.615 752.661 333.714 752.543C325.528 757.445 317.499 765.288 317.146 774.425C316.755 785.249 326.782 795.092 336.417 800.269C322.904 799.563 312.094 789.994 310.684 778.072C300.931 775.327 293.568 768.072 291.061 759.327C283.11 763.288 274.414 763.249 267.991 754.582C258.395 741.641 265.68 735.21 273.553 728.818C270.38 735.445 268.383 744.7 272.574 750.7C276.255 755.955 283.736 757.68 290.591 757.445C290.082 754.935 290.003 752.347 290.356 749.72C291.844 738.661 301.009 730.308 312.368 728.308C313.504 717.602 323.061 709.092 334.929 708.269ZM312.329 731.445C304.926 735.798 298.268 742.269 297.21 750.19C295.918 759.798 302.694 769.327 310.645 775.876C310.645 775.445 310.566 775.014 310.566 774.582C310.958 763.602 319.262 754.582 330.346 751.798C320.319 749.288 312.838 741.21 312.329 731.445Z" fill="black"/>
<path d="M175.418 769.269C170.449 772.07 165.165 776.906 164.35 782.509L164.297 782.879C164.271 783.223 164.192 783.566 164.192 783.91C164.192 789.83 169.266 795.062 174.603 798.181L175.418 798.604C175.76 798.789 176.049 798.974 176.391 799.159C175.787 799.159 175.208 799.185 174.603 799.106C169.109 802.409 163.719 807.695 163.482 813.853C163.22 821.147 169.95 827.78 176.417 831.269C167.347 830.793 160.091 824.344 159.145 816.31C152.598 814.46 147.655 809.571 145.973 803.678C140.636 806.347 134.799 806.321 130.488 800.48C124.046 791.759 128.937 787.425 134.221 783.117C132.091 787.583 130.751 793.82 133.564 797.864C136.035 801.405 141.057 802.568 145.657 802.409C145.316 800.718 145.263 798.974 145.5 797.203C146.499 789.75 152.651 784.121 160.275 782.773C161.037 775.558 167.452 769.824 175.418 769.269ZM160.249 784.887C155.28 787.821 150.81 792.182 150.101 797.52C149.233 803.995 153.781 810.417 159.118 814.83C159.118 814.54 159.066 814.249 159.066 813.958C159.329 806.558 164.902 800.48 172.342 798.604C165.612 796.912 160.591 791.468 160.249 784.887Z" fill="black"/>
</svg>
