<svg width="82" height="57" viewBox="0 0 82 57" fill="none" xmlns="http://www.w3.org/2000/svg">
<path d="M78.1651 35.5056C53.902 51.4158 43.6331 54.8304 32.7058 49.9966C22.0362 45.4576 27.877 32.6645 19.1443 17.9472C10.4117 3.22981 7.26978 5.10196 6.16413 -0.000233894C18.1641 2 43.0947 19.6618 54.6646 28.0006C64.9957 35.1034 78.1651 35.5056 78.1651 35.5056Z" fill="black"/>
<path d="M47.0009 22.2801C40.3758 24.9121 36.5697 26.6269 35.1681 26.8444C32.4433 27.2672 30.5009 16.7801 30.5009 16.7801C30.5009 16.7801 33.2114 16.2554 37.0009 15.7801C41.0009 18.1782 44.5009 20.7336 47.0009 22.2801ZM70.0009 34.3308C56.286 42.2271 44.0629 42.6266 42.5994 42.4334C40.5591 42.164 36.2604 34.2926 36.2604 34.2926C36.2604 34.2926 49.9715 32.6019 57.4632 29.7801C61.5 31.7798 65 33.2798 70.0009 34.3308Z" fill="#F2B04C"/>
<path d="M38.407 15.7953C35.4791 17.7564 32.9105 19.2432 32.9105 19.2432C32.9105 19.2432 33.0402 24.9992 38.1983 24.1151C40.5138 23.6579 42.9611 23.1077 46.7388 22.1377L48.6185 23.691C41.8245 26.436 36.3153 27.1457 34.8097 27.3196C32.0849 27.7424 30.2666 16.8073 30.2666 16.8073C30.2666 16.8073 33.5742 16.4615 38.407 15.7953ZM69.9197 34.2935C56.2157 42.2119 44.1178 42.6347 42.6004 42.4343C40.5601 42.1649 36.2615 34.2935 36.2615 34.2935C36.2615 34.2935 45.0189 33.1021 52.3865 31.2055C47.3506 33.41 40.4643 36.1527 40.4643 36.1527C40.4643 36.1527 39.8343 38.678 46.0228 38.9734C49.9711 39.1454 54.8852 38.0418 65.0003 33.2468L69.9197 34.2935Z" fill="#FFF975"/>
</svg>
