<svg width="1017" height="280" viewBox="0 0 1017 280" fill="none" xmlns="http://www.w3.org/2000/svg">
<path d="M1006.27 88.2653C946 34.844 925.631 -4.63823 916.916 0.439862C908.201 5.51808 910.612 99.9399 916.916 111.44C925.366 126.856 927.367 151.94 916.916 168.94C906.465 185.94 894.017 260.466 916.916 278.94C926.212 286.44 957.366 215.44 1016.45 211.546C1017.87 176.94 1008.08 158.94 1006.27 152.94C999.355 129.94 1006.27 88.2653 1006.27 88.2653Z" fill="black"/>
<path d="M993.365 149.94C1001.76 175.14 1005.86 194.773 1006.86 201.44C924.865 213.94 924.866 282.44 917.866 249.94C910.866 217.44 920.864 199.44 930.865 176.94C940.865 154.44 947.948 122.94 930.865 102.44C925.865 96.4398 916.865 15.4398 923.865 21.9398C929.465 27.1398 972.532 71.4398 993.365 92.9398C989.865 101.44 988.199 134.44 993.365 149.94Z" fill="#F2B04C"/>
<path d="M936.367 52.4397C926.767 40.4397 969.7 74.773 992.367 93.4397C978.2 78.9065 948.166 47.8601 941.366 39.9396C915.866 9.43987 918.339 15.4404 925.866 84.4396C928.866 111.94 941.366 103.44 941.366 141.44C941.366 167.94 916.366 200.94 915.866 217.94C915.366 234.94 912.866 278.94 932.866 244.94C948.866 217.74 988.2 204.273 1005.87 200.94C986.033 201.94 943.666 207.34 932.866 220.94C919.366 237.94 923.866 231.94 946.366 185.94C951.438 175.57 954.91 166.064 957.136 157.44C959.788 144.44 980.366 141.44 980.366 141.44C980.366 141.44 959.788 133.44 959.788 123.44C958.28 112.566 954.368 104.862 950.366 100.44C940.866 89.9396 936.367 67.4396 936.367 52.4397Z" fill="#FEF37F"/>
<path d="M102.272 88.2653C42.0003 34.844 21.6306 -4.63823 12.9158 0.439862C4.20106 5.51808 6.61218 99.9399 12.9158 111.44C21.3659 126.856 23.3669 151.94 12.9158 168.94C2.46473 185.94 -9.98311 260.466 12.9158 278.94C22.2123 286.44 53.3659 215.44 112.452 211.546C113.866 176.94 104.076 158.94 102.272 152.94C95.3553 129.94 102.272 88.2653 102.272 88.2653Z" fill="black"/>
<path d="M89.3649 149.94C97.7649 175.14 101.865 194.773 102.865 201.44C20.8652 213.94 20.8664 282.44 13.866 249.94C6.86565 217.44 16.8645 199.44 26.8649 176.94C36.8653 154.44 43.9483 122.94 26.8649 102.44C21.8649 96.4398 12.8649 15.4398 19.8649 21.9398C25.4649 27.1398 68.5316 71.4398 89.3649 92.9398C85.8649 101.44 84.1986 134.44 89.3649 149.94Z" fill="#F2B04C"/>
<path d="M32.3668 52.4397C22.7668 40.4397 65.7001 74.773 88.3668 93.4397C74.1999 78.9065 44.1661 47.8601 37.3662 39.9396C11.8664 9.43987 14.3388 15.4404 21.8662 84.4396C24.8662 111.94 37.3662 103.44 37.3662 141.44C37.3662 167.94 12.3664 200.94 11.8664 217.94C11.3664 234.94 8.86639 278.94 28.8664 244.94C44.8664 217.74 84.1997 204.273 101.866 200.94C82.0331 201.94 39.6664 207.34 28.8664 220.94C15.3664 237.94 19.8664 231.94 42.3664 185.94C47.4384 175.57 50.9098 166.064 53.1355 157.44C55.7878 144.44 76.3662 141.44 76.3662 141.44C76.3662 141.44 55.7878 133.44 55.7878 123.44C54.2801 112.566 50.3676 104.862 46.3664 100.44C36.8664 89.9396 32.3668 67.4396 32.3668 52.4397Z" fill="#FEF37F"/>
<path d="M894.372 88.2653C840.524 34.844 822.325 -4.63823 814.539 0.439862C806.753 5.51808 808.907 99.9399 814.539 111.44C822.088 126.856 823.876 151.94 814.539 168.94C805.202 185.94 794.081 260.466 814.539 278.94C822.845 286.44 850.678 215.44 903.466 211.546C904.73 176.94 895.984 158.94 894.372 152.94C888.192 129.94 894.372 88.2653 894.372 88.2653Z" fill="black"/>
<path d="M882.841 149.94C890.345 175.14 894.008 194.773 894.902 201.44C821.641 213.94 821.642 282.44 815.388 249.94C809.134 217.44 818.067 199.44 827.002 176.94C835.936 154.44 842.264 122.94 827.002 102.44C822.535 96.4398 814.494 15.4398 820.748 21.9398C825.751 27.1398 864.228 71.4398 882.841 92.9398C879.714 101.44 878.225 134.44 882.841 149.94Z" fill="#F2B04C"/>
<path d="M831.916 52.4397C823.339 40.4397 861.697 74.773 881.948 93.4397C869.291 78.9065 842.458 47.8601 836.383 39.9396C813.601 9.43987 815.81 15.4404 822.535 84.4396C825.215 111.94 836.383 103.44 836.383 141.44C836.383 167.94 814.047 200.94 813.601 217.94C813.154 234.94 810.92 278.94 828.789 244.94C843.084 217.74 878.225 204.273 894.009 200.94C876.289 201.94 838.438 207.34 828.789 220.94C816.728 237.94 820.748 231.94 840.85 185.94C845.382 175.57 848.483 166.064 850.471 157.44C852.841 144.44 871.226 141.44 871.226 141.44C871.226 141.44 852.841 133.44 852.841 123.44C851.494 112.566 847.999 104.862 844.424 100.44C835.936 89.9396 831.916 67.4396 831.916 52.4397Z" fill="#FEF37F"/>
<path d="M216.372 88.2653C162.524 34.844 144.325 -4.63823 136.539 0.439862C128.753 5.51808 130.907 99.9399 136.539 111.44C144.088 126.856 145.876 151.94 136.539 168.94C127.202 185.94 116.081 260.466 136.539 278.94C144.845 286.44 172.678 215.44 225.466 211.546C226.73 176.94 217.984 158.94 216.372 152.94C210.192 129.94 216.372 88.2653 216.372 88.2653Z" fill="black"/>
<path d="M204.841 149.94C212.346 175.14 216.009 194.773 216.902 201.44C143.642 213.94 143.643 282.44 137.389 249.94C131.134 217.44 140.068 199.44 149.002 176.94C157.937 154.44 164.265 122.94 149.002 102.44C144.535 96.4398 136.494 15.4398 142.748 21.9398C147.751 27.1398 186.228 71.4398 204.841 92.9398C201.714 101.44 200.225 134.44 204.841 149.94Z" fill="#F2B04C"/>
<path d="M153.917 52.4397C145.34 40.4397 183.697 74.773 203.948 93.4397C191.291 78.9065 164.458 47.8601 158.383 39.9396C135.601 9.43987 137.81 15.4404 144.535 84.4396C147.215 111.94 158.383 103.44 158.383 141.44C158.383 167.94 136.048 200.94 135.601 217.94C135.154 234.94 132.921 278.94 150.789 244.94C165.084 217.74 200.225 204.273 216.009 200.94C198.29 201.94 160.438 207.34 150.789 220.94C138.728 237.94 142.749 231.94 162.851 185.94C167.382 175.57 170.483 166.064 172.472 157.44C174.842 144.44 193.227 141.44 193.227 141.44C193.227 141.44 174.842 133.44 174.842 123.44C173.495 112.566 169.999 104.862 166.424 100.44C157.937 89.9396 153.917 67.4396 153.917 52.4397Z" fill="#FEF37F"/>
<path d="M782.472 88.2653C735.047 34.844 719.02 -4.63823 712.162 0.439862C705.305 5.51808 707.202 99.9399 712.162 111.44C718.811 126.856 720.386 151.94 712.162 168.94C703.939 185.94 694.145 260.466 712.162 278.94C719.477 286.44 743.99 215.44 790.481 211.546C791.594 176.94 783.891 158.94 782.472 152.94C777.029 129.94 782.472 88.2653 782.472 88.2653Z" fill="black"/>
<path d="M772.316 149.94C778.925 175.14 782.151 194.773 782.938 201.44C718.418 213.94 718.418 282.44 712.91 249.94C707.402 217.44 715.27 199.44 723.138 176.94C731.007 154.44 736.58 122.94 723.138 102.44C719.204 96.4398 712.123 15.4398 717.63 21.9398C722.037 27.1398 755.923 71.4398 772.316 92.9398C769.562 101.44 768.251 134.44 772.316 149.94Z" fill="#F2B04C"/>
<path d="M727.467 52.4397C719.914 40.4397 753.695 74.773 771.531 93.4397C760.383 78.9065 736.752 47.8601 731.401 39.9396C711.337 9.43987 713.282 15.4404 719.205 84.4396C721.566 111.94 731.401 103.44 731.401 141.44C731.401 167.94 711.73 200.94 711.337 217.94C710.943 234.94 708.976 278.94 724.713 244.94C737.303 217.74 768.252 204.273 782.153 200.94C766.547 201.94 733.211 207.34 724.713 220.94C714.091 237.94 717.632 231.94 735.336 185.94C739.326 175.57 742.058 166.064 743.809 157.44C745.896 144.44 762.088 141.44 762.088 141.44C762.088 141.44 745.896 133.44 745.896 123.44C744.71 112.566 741.631 104.862 738.483 100.44C731.008 89.9396 727.467 67.4396 727.467 52.4397Z" fill="#FEF37F"/>
<path d="M330.472 88.2653C283.047 34.844 267.02 -4.63823 260.162 0.439862C253.305 5.51808 255.202 99.9399 260.162 111.44C266.811 126.856 268.386 151.94 260.162 168.94C251.939 185.94 242.145 260.466 260.162 278.94C267.477 286.44 291.99 215.44 338.481 211.546C339.594 176.94 331.891 158.94 330.472 152.94C325.029 129.94 330.472 88.2653 330.472 88.2653Z" fill="black"/>
<path d="M320.316 149.94C326.925 175.14 330.151 194.773 330.938 201.44C266.418 213.94 266.418 282.44 260.91 249.94C255.402 217.44 263.27 199.44 271.138 176.94C279.007 154.44 284.58 122.94 271.138 102.44C267.204 96.4398 260.123 15.4398 265.63 21.9398C270.037 27.1398 303.923 71.4398 320.316 92.9398C317.562 101.44 316.251 134.44 320.316 149.94Z" fill="#F2B04C"/>
<path d="M275.467 52.4397C267.914 40.4397 301.695 74.773 319.531 93.4397C308.383 78.9065 284.752 47.8601 279.401 39.9396C259.337 9.43987 261.282 15.4404 267.205 84.4396C269.566 111.94 279.401 103.44 279.401 141.44C279.401 167.94 259.73 200.94 259.337 217.94C258.943 234.94 256.976 278.94 272.713 244.94C285.303 217.74 316.252 204.273 330.153 200.94C314.547 201.94 281.211 207.34 272.713 220.94C262.091 237.94 265.632 231.94 283.336 185.94C287.326 175.57 290.058 166.064 291.809 157.44C293.896 144.44 310.088 141.44 310.088 141.44C310.088 141.44 293.896 133.44 293.896 123.44C292.71 112.566 289.631 104.862 286.483 100.44C279.008 89.9396 275.467 67.4396 275.467 52.4397Z" fill="#FEF37F"/>
<path d="M670.938 88.2653C632.079 34.844 618.946 -4.63823 613.327 0.439862C607.708 5.51808 609.263 99.9399 613.327 111.44C618.775 126.856 620.065 151.94 613.327 168.94C606.589 185.94 598.563 260.466 613.327 278.94C619.321 286.44 639.407 215.44 677.501 211.546C678.413 176.94 672.101 158.94 670.938 152.94C666.479 129.94 670.938 88.2653 670.938 88.2653Z" fill="black"/>
<path d="M662.617 149.94C668.033 175.14 670.676 194.773 671.321 201.44C618.453 213.94 618.453 282.44 613.94 249.94C609.427 217.44 615.873 199.44 622.321 176.94C628.768 154.44 633.335 122.94 622.321 102.44C619.097 96.4398 613.295 15.4398 617.808 21.9398C621.418 27.1398 649.185 71.4398 662.617 92.9398C660.36 101.44 659.286 134.44 662.617 149.94Z" fill="#F2B04C"/>
<path d="M625.868 52.4397C619.679 40.4397 647.359 74.773 661.973 93.4397C652.839 78.9065 633.476 47.8601 629.092 39.9396C612.651 9.43987 614.245 15.4404 619.098 84.4396C621.032 111.94 629.092 103.44 629.092 141.44C629.092 167.94 612.973 200.94 612.651 217.94C612.329 234.94 610.717 278.94 623.611 244.94C633.927 217.74 659.287 204.273 670.677 200.94C657.89 201.94 630.575 207.34 623.611 220.94C614.907 237.94 617.809 231.94 632.315 185.94C635.585 175.57 637.823 166.064 639.258 157.44C640.969 144.44 654.236 141.44 654.236 141.44C654.236 141.44 640.969 133.44 640.969 123.44C639.996 112.566 637.474 104.862 634.894 100.44C628.769 89.9396 625.868 67.4396 625.868 52.4397Z" fill="#FEF37F"/>
<path d="M444.938 88.2653C406.079 34.844 392.946 -4.63823 387.327 0.439862C381.708 5.51808 383.263 99.9399 387.327 111.44C392.775 126.856 394.065 151.94 387.327 168.94C380.589 185.94 372.563 260.466 387.327 278.94C393.321 286.44 413.407 215.44 451.501 211.546C452.413 176.94 446.101 158.94 444.938 152.94C440.479 129.94 444.938 88.2653 444.938 88.2653Z" fill="black"/>
<path d="M436.616 149.94C442.032 175.14 444.675 194.773 445.32 201.44C392.452 213.94 392.453 282.44 387.94 249.94C383.426 217.44 389.873 199.44 396.32 176.94C402.768 154.44 407.335 122.94 396.32 102.44C393.097 96.4398 387.294 15.4398 391.807 21.9398C395.418 27.1398 423.184 71.4398 436.616 92.9398C434.36 101.44 433.285 134.44 436.616 149.94Z" fill="#F2B04C"/>
<path d="M399.868 52.4397C393.678 40.4397 421.359 74.773 435.973 93.4397C426.839 78.9065 407.475 47.8601 403.091 39.9396C386.65 9.43987 388.244 15.4404 393.098 84.4396C395.032 111.94 403.091 103.44 403.091 141.44C403.091 167.94 386.973 200.94 386.65 217.94C386.328 234.94 384.716 278.94 397.611 244.94C407.927 217.74 433.286 204.273 444.676 200.94C431.889 201.94 404.574 207.34 397.611 220.94C388.907 237.94 391.808 231.94 406.315 185.94C409.585 175.57 411.823 166.064 413.258 157.44C414.968 144.44 428.236 141.44 428.236 141.44C428.236 141.44 414.968 133.44 414.968 123.44C413.996 112.566 411.473 104.862 408.894 100.44C402.769 89.9396 399.868 67.4396 399.868 52.4397Z" fill="#FEF37F"/>
<path d="M558.855 88.2653C525.348 34.844 514.025 -4.63823 509.18 0.439862C504.335 5.51808 505.676 99.9399 509.18 111.44C513.877 126.856 514.99 151.94 509.18 168.94C503.37 185.94 496.45 260.466 509.18 278.94C514.348 286.44 531.667 215.44 564.513 211.546C565.3 176.94 559.858 158.94 558.854 152.94C555.009 129.94 558.855 88.2653 558.855 88.2653Z" fill="black"/>
<path d="M551.68 149.94C556.35 175.14 558.629 194.773 559.185 201.44C513.6 213.94 513.6 282.44 509.709 249.94C505.817 217.44 511.376 199.44 516.935 176.94C522.494 154.44 526.432 122.94 516.935 102.44C514.156 96.4398 509.152 15.4398 513.044 21.9398C516.157 27.1398 540.098 71.4398 551.68 92.9398C549.734 101.44 548.808 134.44 551.68 149.94Z" fill="#F2B04C"/>
<path d="M519.992 52.4397C514.656 40.4397 538.523 74.773 551.124 93.4397C543.248 78.9065 526.552 47.8601 522.772 39.9396C508.596 9.43987 509.97 15.4404 514.155 84.4396C515.823 111.94 522.772 103.44 522.772 141.44C522.772 167.94 508.874 200.94 508.596 217.94C508.318 234.94 506.928 278.94 518.046 244.94C526.941 217.74 548.807 204.273 558.628 200.94C547.603 201.94 524.05 207.34 518.046 220.94C510.542 237.94 513.043 231.94 525.551 185.94C528.371 175.57 530.301 166.064 531.538 157.44C533.012 144.44 544.452 141.44 544.452 141.44C544.452 141.44 533.012 133.44 533.012 123.44C532.174 112.566 529.999 104.862 527.775 100.44C522.494 89.9396 519.992 67.4396 519.992 52.4397Z" fill="#FEF37F"/>
</svg>
