<svg width="1017" height="129" viewBox="0 0 1017 129" fill="none" xmlns="http://www.w3.org/2000/svg">
<path d="M1015.98 38.4694C1023.03 95.5852 977.312 125.96 961.898 128.816C946.485 131.932 918.271 94.5468 911.478 83.9025C904.686 73.2581 901.028 30.9405 907.037 19.7769C913.045 8.61338 949.881 0.824763 962.16 0.0459106C974.438 -0.732942 974.177 8.61329 974.961 11.7287C975.744 14.8441 976.528 26.7866 986.194 35.354C996.122 43.6617 1015.98 38.4694 1015.98 38.4694Z" fill="black"/>
<path d="M965.292 4.46395C975.48 4.98319 977.048 10.9544 980.706 17.9641C984.886 25.493 987.498 36.1373 995.597 36.9161C1003.96 37.695 1014.41 35.8778 1014.41 35.8778C1014.15 57.426 990.372 95.5897 968.95 111.686C962.941 116.099 956.671 115.58 950.662 112.205C966.337 103.897 988.02 85.205 994.029 45.7432C994.029 45.7432 994.029 42.8874 992.462 42.6277C991.678 42.3681 990.11 43.1469 988.02 46.0027C982.273 53.5316 982.012 61.3201 972.868 76.6376C965.031 89.878 949.617 101.821 941.519 104.936C930.546 93.5127 922.186 75.3396 920.88 70.4068C919.312 63.9164 916.7 53.0124 917.223 41.5892C925.844 45.2239 948.572 49.6375 967.12 34.5797C967.12 34.5797 972.346 28.0892 966.076 27.57C965.553 27.57 965.03 27.57 964.508 27.57C955.887 27.8296 951.446 37.6951 939.69 37.1758C928.195 36.9162 920.619 33.2815 918.529 30.945C918.79 30.1661 918.79 29.3872 919.051 28.6083C923.231 12.5121 950.662 4.98328 962.679 4.72366C963.724 4.20443 964.508 4.20434 965.292 4.46395ZM977.048 40.5508C976.525 40.5508 975.742 40.5508 974.697 41.3297C969.472 44.7047 964.508 55.0893 954.842 61.5798C945.176 67.8106 936.032 66.5125 929.24 69.3683C922.447 72.4837 924.799 82.8684 936.294 78.9742C948.05 75.3395 958.499 73.7819 977.57 46.2624C977.57 46.2624 979.138 40.8105 977.048 40.5508Z" fill="#F2B04C"/>
<path d="M928.719 15.9019C922.972 25.2481 928.72 34.3348 932.377 34.5944C936.818 34.854 945.701 34.075 952.493 33.0366C949.097 35.1135 945.439 36.9308 940.214 36.9308C928.72 36.6712 921.143 33.0367 919.053 30.7001C919.315 29.9213 919.314 29.1423 919.576 28.3635C920.621 23.4307 924.017 19.2769 928.719 15.9019ZM969.212 31.4789H969.474C969.474 31.4789 968.69 32.2577 968.168 33.0366C968.69 32.777 968.951 32.2578 969.212 31.4789ZM967.645 34.3347C964.249 38.7482 956.15 47.3155 944.133 50.6906C927.675 55.6233 923.494 51.7291 923.494 51.7291L926.368 65.2293C930.287 67.0466 962.42 61.335 966.078 50.9503C963.204 54.5849 959.547 58.4791 955.105 61.5945C945.439 67.8254 936.296 66.5273 929.503 69.3831C922.711 72.4985 925.062 82.8832 936.557 78.989C940.475 77.6909 944.133 76.6524 948.052 75.0947C944.394 78.7294 941.259 82.1044 939.953 83.6621C936.296 88.0756 945.178 98.2007 945.178 98.2007C946.223 102.614 969.735 82.6236 979.662 62.8926C980.185 62.1138 980.446 61.5946 980.968 60.8157C979.14 65.2292 977.05 70.1619 973.131 76.6523C965.294 89.8929 949.88 101.835 941.782 104.951C930.809 93.5276 922.45 75.3544 921.143 70.4216C919.576 63.9312 916.963 53.0271 917.486 41.6039C926.368 44.7193 948.836 49.1329 967.645 34.3347ZM1013.89 41.6039C1010.23 63.6715 988.806 96.9026 968.952 111.701C965.033 114.557 960.853 115.336 956.934 114.557C958.763 114.037 961.114 112.739 964.51 109.624C980.446 102.614 997.688 79.7679 1005.79 57.4407C1008.4 50.6907 1011.27 45.7578 1013.89 41.6039Z" fill="#FFFA7D"/>
<path d="M111.977 38.4694C119.031 95.5852 73.3123 125.96 57.8988 128.816C42.4853 131.932 14.2712 94.5468 7.47875 83.9025C0.686339 73.2581 -2.97162 30.9405 3.03705 19.7769C9.04571 8.61338 45.8817 0.824763 58.1603 0.0459106C70.4389 -0.732942 70.1774 8.61329 70.9611 11.7287C71.7449 14.8441 72.5287 26.7866 82.1949 35.354C92.1222 43.6617 111.977 38.4694 111.977 38.4694Z" fill="black"/>
<path d="M61.2918 4.46395C71.4804 4.98319 73.0483 10.9544 76.7057 17.9641C80.8857 25.493 83.498 36.1373 91.5966 36.9161C99.9565 37.695 110.406 35.8778 110.406 35.8778C110.145 57.426 86.3718 95.5897 64.9496 111.686C58.941 116.099 52.6711 115.58 46.6624 112.205C62.3372 103.897 84.0202 85.205 90.0289 45.7432C90.0289 45.7432 90.0293 42.8874 88.4618 42.6277C87.6781 42.3681 86.1101 43.1469 84.0201 46.0027C78.2727 53.5316 78.012 61.3201 68.8683 76.6376C61.031 89.878 45.6174 101.821 37.5188 104.936C26.5464 93.5127 18.1862 75.3396 16.8799 70.4068C15.3125 63.9164 12.7003 53.0124 13.2228 41.5892C21.8439 45.2239 44.5719 49.6375 63.1204 34.5797C63.1204 34.5797 68.3456 28.0892 62.0757 27.57C61.5532 27.57 61.0304 27.57 60.508 27.57C51.8868 27.8296 47.4456 37.6951 35.6896 37.1758C24.1947 36.9162 16.619 33.2815 14.529 30.945C14.7902 30.1661 14.7901 29.3872 15.0514 28.6083C19.2313 12.5121 46.662 4.98328 58.6794 4.72366C59.7243 4.20443 60.5081 4.20434 61.2918 4.46395ZM73.0479 40.5508C72.5254 40.5508 71.7419 40.5508 70.6969 41.3297C65.472 44.7047 60.5081 55.0893 50.842 61.5798C41.1759 67.8106 32.0321 66.5125 25.2397 69.3683C18.4473 72.4837 20.799 82.8684 32.2939 78.9742C44.0499 75.3395 54.4993 73.7819 73.5703 46.2624C73.5703 46.2624 75.1379 40.8105 73.0479 40.5508Z" fill="#F2B04C"/>
<path d="M24.7202 15.9019C18.9728 25.2481 24.7206 34.3348 28.3781 34.5944C32.8193 34.854 41.7015 34.075 48.4939 33.0366C45.0977 35.1135 41.4404 36.9308 36.2155 36.9308C24.7206 36.6712 17.1442 33.0367 15.0543 30.7001C15.3155 29.9213 15.3154 29.1423 15.5766 28.3635C16.6216 23.4307 20.0178 19.2769 24.7202 15.9019ZM65.2134 31.4789H65.4749C65.4749 31.4789 64.6912 32.2577 64.1687 33.0366C64.6912 32.777 64.9521 32.2578 65.2134 31.4789ZM63.6463 34.3347C60.2501 38.7482 52.1515 47.3155 40.1341 50.6906C23.6756 55.6233 19.4953 51.7291 19.4953 51.7291L22.3693 65.2293C26.288 67.0466 58.4211 61.335 62.0786 50.9503C59.2049 54.5849 55.5475 58.4791 51.1064 61.5945C41.4403 67.8254 32.2965 66.5273 25.5041 69.3831C18.7117 72.4985 21.0628 82.8832 32.5576 78.989C36.4763 77.6909 40.1341 76.6524 44.0528 75.0947C40.3954 78.7294 37.2602 82.1044 35.954 83.6621C32.2965 88.0756 41.1789 98.2007 41.1789 98.2007C42.2239 102.614 65.7359 82.6236 75.6632 62.8926C76.1857 62.1138 76.447 61.5946 76.9695 60.8157C75.1407 65.2292 73.0508 70.1619 69.1321 76.6523C61.2947 89.8929 45.8812 101.835 37.7826 104.951C26.8102 93.5276 18.4506 75.3544 17.1444 70.4216C15.5769 63.9312 12.964 53.0271 13.4865 41.6039C22.3689 44.7193 44.8366 49.1329 63.6463 34.3347ZM109.887 41.6039C106.229 63.6715 84.8072 96.9026 64.9525 111.701C61.0338 114.557 56.8536 115.336 52.935 114.557C54.7637 114.037 57.1146 112.739 60.5108 109.624C76.4468 102.614 93.6892 79.7679 101.788 57.4407C104.4 50.6907 107.274 45.7578 109.887 41.6039Z" fill="#FFFA7D"/>
<path d="M677.361 38.4694C680.722 95.5852 658.936 125.96 651.591 128.816C644.246 131.932 630.801 94.5468 627.564 83.9025C624.327 73.2581 622.584 30.9405 625.447 19.7769C628.311 8.61338 645.864 0.824763 651.715 0.0459106C657.567 -0.732942 657.442 8.61329 657.815 11.7287C658.189 14.8441 658.562 26.7866 663.169 35.354C667.899 43.6617 677.361 38.4694 677.361 38.4694Z" fill="black"/>
<path d="M653.208 4.46395C658.063 4.98319 658.81 10.9544 660.553 17.9641C662.545 25.493 663.79 36.1373 667.649 36.9161C671.633 37.695 676.612 35.8778 676.612 35.8778C676.488 57.426 665.159 95.5897 654.951 111.686C652.087 116.099 649.099 115.58 646.236 112.205C653.706 103.897 664.038 85.205 666.902 45.7432C666.902 45.7432 666.902 42.8874 666.155 42.6277C665.782 42.3681 665.034 43.1469 664.038 46.0027C661.3 53.5316 661.175 61.3201 656.818 76.6376C653.083 89.878 645.738 101.821 641.879 104.936C636.65 93.5127 632.666 75.3396 632.044 70.4068C631.297 63.9164 630.052 53.0124 630.301 41.5892C634.409 45.2239 645.24 49.6375 654.079 34.5797C654.079 34.5797 656.569 28.0892 653.581 27.57C653.332 27.57 653.083 27.57 652.834 27.57C648.726 27.8296 646.609 37.6951 641.007 37.1758C635.529 36.9162 631.919 33.2815 630.923 30.945C631.048 30.1661 631.048 29.3872 631.172 28.6083C633.164 12.5121 646.236 4.98328 651.963 4.72366C652.461 4.20443 652.834 4.20434 653.208 4.46395ZM658.81 40.5508C658.561 40.5508 658.187 40.5508 657.689 41.3297C655.2 44.7047 652.834 55.0893 648.228 61.5798C643.622 67.8106 639.264 66.5125 636.027 69.3683C632.791 72.4837 633.911 82.8684 639.389 78.9742C644.991 75.3395 649.971 73.7819 659.059 46.2624C659.059 46.2624 659.806 40.8105 658.81 40.5508Z" fill="#F2B04C"/>
<path d="M635.779 15.9019C633.041 25.2481 635.78 34.3348 637.522 34.5944C639.639 34.854 643.872 34.075 647.108 33.0366C645.49 35.1135 643.747 36.9308 641.257 36.9308C635.78 36.6712 632.169 33.0367 631.173 30.7001C631.298 29.9213 631.298 29.1423 631.422 28.3635C631.92 23.4307 633.539 19.2769 635.779 15.9019ZM655.076 31.4789H655.2C655.2 31.4789 654.827 32.2577 654.578 33.0366C654.827 32.777 654.951 32.2578 655.076 31.4789ZM654.329 34.3347C652.711 38.7482 648.851 47.3155 643.125 50.6906C635.282 55.6233 633.29 51.7291 633.29 51.7291L634.659 65.2293C636.526 67.0466 651.839 61.335 653.582 50.9503C652.213 54.5849 650.47 58.4791 648.353 61.5945C643.747 67.8254 639.39 66.5273 636.153 69.3831C632.916 72.4985 634.036 82.8832 639.514 78.989C641.382 77.6909 643.125 76.6524 644.992 75.0947C643.249 78.7294 641.755 82.1044 641.133 83.6621C639.39 88.0756 643.623 98.2007 643.623 98.2007C644.12 102.614 655.325 82.6236 660.056 62.8926C660.305 62.1138 660.429 61.5946 660.678 60.8157C659.807 65.2292 658.811 70.1619 656.943 76.6523C653.208 89.8929 645.863 101.835 642.004 104.951C636.775 93.5276 632.792 75.3544 632.169 70.4216C631.422 63.9312 630.177 53.0271 630.426 41.6039C634.659 44.7193 645.366 49.1329 654.329 34.3347ZM676.364 41.6039C674.621 63.6715 664.413 96.9026 654.952 111.701C653.084 114.557 651.092 115.336 649.225 114.557C650.096 114.037 651.216 112.739 652.835 109.624C660.429 102.614 668.646 79.7679 672.505 57.4407C673.75 50.6907 675.119 45.7578 676.364 41.6039Z" fill="#FFFA7D"/>
<path d="M451.361 38.4694C454.722 95.5852 432.936 125.96 425.591 128.816C418.246 131.932 404.801 94.5468 401.564 83.9025C398.327 73.2581 396.584 30.9405 399.447 19.7769C402.311 8.61338 419.864 0.824763 425.715 0.0459106C431.567 -0.732942 431.442 8.61329 431.815 11.7287C432.189 14.8441 432.562 26.7866 437.169 35.354C441.899 43.6617 451.361 38.4694 451.361 38.4694Z" fill="black"/>
<path d="M427.208 4.46395C432.063 4.98319 432.81 10.9544 434.553 17.9641C436.545 25.493 437.79 36.1373 441.649 36.9161C445.633 37.695 450.612 35.8778 450.612 35.8778C450.488 57.426 439.159 95.5897 428.951 111.686C426.087 116.099 423.099 115.58 420.236 112.205C427.706 103.897 438.038 85.205 440.902 45.7432C440.902 45.7432 440.902 42.8874 440.155 42.6277C439.782 42.3681 439.034 43.1469 438.038 46.0027C435.3 53.5316 435.175 61.3201 430.818 76.6376C427.083 89.878 419.738 101.821 415.879 104.936C410.65 93.5127 406.666 75.3396 406.044 70.4068C405.297 63.9164 404.052 53.0124 404.301 41.5892C408.409 45.2239 419.24 49.6375 428.079 34.5797C428.079 34.5797 430.569 28.0892 427.581 27.57C427.332 27.57 427.083 27.57 426.834 27.57C422.726 27.8296 420.609 37.6951 415.007 37.1758C409.529 36.9162 405.919 33.2815 404.923 30.945C405.048 30.1661 405.048 29.3872 405.172 28.6083C407.164 12.5121 420.236 4.98328 425.963 4.72366C426.461 4.20443 426.834 4.20434 427.208 4.46395ZM432.81 40.5508C432.561 40.5508 432.187 40.5508 431.689 41.3297C429.2 44.7047 426.834 55.0893 422.228 61.5798C417.622 67.8106 413.264 66.5125 410.027 69.3683C406.791 72.4837 407.911 82.8684 413.389 78.9742C418.991 75.3395 423.971 73.7819 433.059 46.2624C433.059 46.2624 433.806 40.8105 432.81 40.5508Z" fill="#F2B04C"/>
<path d="M409.78 15.9019C407.041 25.2481 409.78 34.3348 411.523 34.5944C413.639 34.854 417.872 34.075 421.109 33.0366C419.49 35.1135 417.748 36.9308 415.258 36.9308C409.78 36.6712 406.17 33.0367 405.174 30.7001C405.298 29.9213 405.298 29.1423 405.423 28.3635C405.921 23.4307 407.539 19.2769 409.78 15.9019ZM429.076 31.4789H429.201C429.201 31.4789 428.827 32.2577 428.578 33.0366C428.827 32.777 428.952 32.2578 429.076 31.4789ZM428.33 34.3347C426.711 38.7482 422.852 47.3155 417.125 50.6906C409.282 55.6233 407.29 51.7291 407.29 51.7291L408.66 65.2293C410.527 67.0466 425.84 61.335 427.582 50.9503C426.213 54.5849 424.47 58.4791 422.354 61.5945C417.748 67.8254 413.39 66.5273 410.153 69.3831C406.917 72.4985 408.037 82.8832 413.515 78.989C415.382 77.6909 417.125 76.6524 418.993 75.0947C417.25 78.7294 415.756 82.1044 415.133 83.6621C413.39 88.0756 417.623 98.2007 417.623 98.2007C418.121 102.614 429.325 82.6236 434.056 62.8926C434.305 62.1138 434.43 61.5946 434.678 60.8157C433.807 65.2292 432.811 70.1619 430.944 76.6523C427.209 89.8929 419.864 101.835 416.005 104.951C410.776 93.5276 406.792 75.3544 406.17 70.4216C405.423 63.9312 404.178 53.0271 404.427 41.6039C408.659 44.7193 419.366 49.1329 428.33 34.3347ZM450.365 41.6039C448.622 63.6715 438.413 96.9026 428.952 111.701C427.085 114.557 425.093 115.336 423.225 114.557C424.097 114.037 425.217 112.739 426.835 109.624C434.429 102.614 442.646 79.7679 446.505 57.4407C447.75 50.6907 449.12 45.7578 450.365 41.6039Z" fill="#FFFA7D"/>
<path d="M903.127 38.4694C908.741 95.5852 872.352 125.96 860.084 128.816C847.815 131.932 825.359 94.5468 819.952 83.9025C814.546 73.2581 811.635 30.9405 816.417 19.7769C821.2 8.61338 850.519 0.824763 860.292 0.0459106C870.065 -0.732942 869.857 8.61329 870.48 11.7287C871.104 14.8441 871.728 26.7866 879.422 35.354C887.323 43.6617 903.127 38.4694 903.127 38.4694Z" fill="black"/>
<path d="M862.784 4.46395C870.894 4.98319 872.141 10.9544 875.053 17.9641C878.379 25.493 880.459 36.1373 886.905 36.9161C893.559 37.695 901.876 35.8778 901.876 35.8778C901.668 57.426 882.746 95.5897 865.695 111.686C860.913 116.099 855.922 115.58 851.14 112.205C863.616 103.897 880.874 85.205 885.657 45.7432C885.657 45.7432 885.657 42.8874 884.41 42.6277C883.786 42.3681 882.538 43.1469 880.874 46.0027C876.3 53.5316 876.092 61.3201 868.814 76.6376C862.576 89.878 850.308 101.821 843.862 104.936C835.129 93.5127 828.475 75.3396 827.435 70.4068C826.187 63.9164 824.108 53.0124 824.524 41.5892C831.386 45.2239 849.476 49.6375 864.239 34.5797C864.239 34.5797 868.398 28.0892 863.408 27.57C862.992 27.57 862.576 27.57 862.16 27.57C855.298 27.8296 851.763 37.6951 842.406 37.1758C833.257 36.9162 827.227 33.2815 825.564 30.945C825.772 30.1661 825.772 29.3872 825.98 28.6083C829.307 12.5121 851.14 4.98328 860.705 4.72366C861.536 4.20443 862.16 4.20434 862.784 4.46395ZM872.141 40.5508C871.725 40.5508 871.102 40.5508 870.27 41.3297C866.111 44.7047 862.16 55.0893 854.467 61.5798C846.773 67.8106 839.495 66.5125 834.089 69.3683C828.683 72.4837 830.554 82.8684 839.704 78.9742C849.061 75.3395 857.378 73.7819 872.557 46.2624C872.557 46.2624 873.805 40.8105 872.141 40.5508Z" fill="#F2B04C"/>
<path d="M833.675 15.9019C829.1 25.2481 833.675 34.3348 836.586 34.5944C840.121 34.854 847.191 34.075 852.597 33.0366C849.894 35.1135 846.983 36.9308 842.824 36.9308C833.675 36.6712 827.645 33.0367 825.981 30.7001C826.189 29.9213 826.189 29.1423 826.397 28.3635C827.229 23.4307 829.932 19.2769 833.675 15.9019ZM865.905 31.4789H866.113C866.113 31.4789 865.489 32.2577 865.073 33.0366C865.489 32.777 865.697 32.2578 865.905 31.4789ZM864.657 34.3347C861.954 38.7482 855.508 47.3155 845.943 50.6906C832.843 55.6233 829.516 51.7291 829.516 51.7291L831.804 65.2293C834.923 67.0466 860.499 61.335 863.41 50.9503C861.122 54.5849 858.211 58.4791 854.676 61.5945C846.983 67.8254 839.705 66.5273 834.299 69.3831C828.892 72.4985 830.764 82.8832 839.913 78.989C843.032 77.6909 845.943 76.6524 849.062 75.0947C846.151 78.7294 843.656 82.1044 842.616 83.6621C839.705 88.0756 846.775 98.2007 846.775 98.2007C847.607 102.614 866.321 82.6236 874.222 62.8926C874.638 62.1138 874.846 61.5946 875.262 60.8157C873.806 65.2292 872.143 70.1619 869.024 76.6523C862.786 89.8929 850.518 101.835 844.072 104.951C835.338 93.5276 828.685 75.3544 827.645 70.4216C826.397 63.9312 824.318 53.0271 824.734 41.6039C831.803 44.7193 849.686 49.1329 864.657 34.3347ZM901.462 41.6039C898.551 63.6715 881.5 96.9026 865.697 111.701C862.578 114.557 859.251 115.336 856.132 114.557C857.587 114.037 859.459 112.739 862.162 109.624C874.846 102.614 888.57 79.7679 895.016 57.4407C897.095 50.6907 899.383 45.7578 901.462 41.6039Z" fill="#FFFA7D"/>
<path d="M225.127 38.4694C230.741 95.5852 194.352 125.96 182.084 128.816C169.815 131.932 147.359 94.5468 141.952 83.9025C136.546 73.2581 133.635 30.9405 138.417 19.7769C143.2 8.61338 172.519 0.824763 182.292 0.0459106C192.065 -0.732942 191.857 8.61329 192.48 11.7287C193.104 14.8441 193.728 26.7866 201.422 35.354C209.323 43.6617 225.127 38.4694 225.127 38.4694Z" fill="black"/>
<path d="M184.784 4.46395C192.894 4.98319 194.141 10.9544 197.053 17.9641C200.379 25.493 202.459 36.1373 208.905 36.9161C215.559 37.695 223.876 35.8778 223.876 35.8778C223.668 57.426 204.746 95.5897 187.695 111.686C182.913 116.099 177.922 115.58 173.14 112.205C185.616 103.897 202.874 85.205 207.657 45.7432C207.657 45.7432 207.657 42.8874 206.41 42.6277C205.786 42.3681 204.538 43.1469 202.874 46.0027C198.3 53.5316 198.092 61.3201 190.814 76.6376C184.576 89.878 172.308 101.821 165.862 104.936C157.129 93.5127 150.475 75.3396 149.435 70.4068C148.187 63.9164 146.108 53.0124 146.524 41.5892C153.386 45.2239 171.476 49.6375 186.239 34.5797C186.239 34.5797 190.398 28.0892 185.408 27.57C184.992 27.57 184.576 27.57 184.16 27.57C177.298 27.8296 173.763 37.6951 164.406 37.1758C155.257 36.9162 149.227 33.2815 147.564 30.945C147.772 30.1661 147.772 29.3872 147.98 28.6083C151.307 12.5121 173.14 4.98328 182.705 4.72366C183.536 4.20443 184.16 4.20434 184.784 4.46395ZM194.141 40.5508C193.725 40.5508 193.102 40.5508 192.27 41.3297C188.111 44.7047 184.16 55.0893 176.467 61.5798C168.773 67.8106 161.495 66.5125 156.089 69.3683C150.683 72.4837 152.554 82.8684 161.704 78.9742C171.061 75.3395 179.378 73.7819 194.557 46.2624C194.557 46.2624 195.805 40.8105 194.141 40.5508Z" fill="#F2B04C"/>
<path d="M155.674 15.9019C151.1 25.2481 155.675 34.3348 158.586 34.5944C162.121 34.854 169.19 34.075 174.597 33.0366C171.894 35.1135 168.983 36.9308 164.824 36.9308C155.675 36.6712 149.644 33.0367 147.981 30.7001C148.189 29.9213 148.189 29.1423 148.397 28.3635C149.228 23.4307 151.932 19.2769 155.674 15.9019ZM187.904 31.4789H188.112C188.112 31.4789 187.489 32.2577 187.073 33.0366C187.489 32.777 187.696 32.2578 187.904 31.4789ZM186.657 34.3347C183.954 38.7482 177.508 47.3155 167.943 50.6906C154.843 55.6233 151.516 51.7291 151.516 51.7291L153.803 65.2293C156.922 67.0466 182.498 61.335 185.409 50.9503C183.122 54.5849 180.211 58.4791 176.676 61.5945C168.982 67.8254 161.705 66.5273 156.298 69.3831C150.892 72.4985 152.763 82.8832 161.912 78.989C165.031 77.6909 167.943 76.6524 171.062 75.0947C168.151 78.7294 165.655 82.1044 164.616 83.6621C161.705 88.0756 168.774 98.2007 168.774 98.2007C169.606 102.614 188.32 82.6236 196.222 62.8926C196.638 62.1138 196.846 61.5946 197.261 60.8157C195.806 65.2292 194.142 70.1619 191.023 76.6523C184.785 89.8929 172.517 101.835 166.071 104.951C157.338 93.5276 150.684 75.3544 149.644 70.4216C148.397 63.9312 146.317 53.0271 146.733 41.6039C153.803 44.7193 171.686 49.1329 186.657 34.3347ZM223.461 41.6039C220.55 63.6715 203.5 96.9026 187.697 111.701C184.578 114.557 181.25 115.336 178.131 114.557C179.587 114.037 181.458 112.739 184.161 109.624C196.845 102.614 210.569 79.7679 217.015 57.4407C219.095 50.6907 221.382 45.7578 223.461 41.6039Z" fill="#FFFA7D"/>
<path d="M790.244 38.4694C794.732 95.5852 765.644 125.96 755.837 128.816C746.031 131.932 728.08 94.5468 723.758 83.9025C719.437 73.2581 717.109 30.9405 720.932 19.7769C724.755 8.61338 748.191 0.824763 756.004 0.0459106C763.816 -0.732942 763.649 8.61329 764.148 11.7287C764.647 14.8441 765.145 26.7866 771.295 35.354C777.611 43.6617 790.244 38.4694 790.244 38.4694Z" fill="black"/>
<path d="M757.996 4.46395C764.478 4.98319 765.476 10.9544 767.803 17.9641C770.462 25.493 772.124 36.1373 777.277 36.9161C782.596 37.695 789.244 35.8778 789.244 35.8778C789.078 57.426 773.953 95.5897 760.323 111.686C756.5 116.099 752.511 115.58 748.688 112.205C758.661 103.897 772.456 85.205 776.279 45.7432C776.279 45.7432 776.28 42.8874 775.282 42.6277C774.784 42.3681 773.786 43.1469 772.456 46.0027C768.8 53.5316 768.634 61.3201 762.816 76.6376C757.83 89.878 748.023 101.821 742.871 104.936C735.89 93.5127 730.57 75.3396 729.739 70.4068C728.742 63.9164 727.08 53.0124 727.413 41.5892C732.898 45.2239 747.358 49.6375 759.159 34.5797C759.159 34.5797 762.484 28.0892 758.494 27.57C758.162 27.57 757.829 27.57 757.497 27.57C752.012 27.8296 749.186 37.6951 741.707 37.1758C734.393 36.9162 729.573 33.2815 728.244 30.945C728.41 30.1661 728.41 29.3872 728.576 28.6083C731.235 12.5121 748.688 4.98328 756.334 4.72366C756.998 4.20443 757.497 4.20434 757.996 4.46395ZM765.475 40.5508C765.143 40.5508 764.645 40.5508 763.98 41.3297C760.655 44.7047 757.497 55.0893 751.347 61.5798C745.197 67.8106 739.38 66.5125 735.058 69.3683C730.737 72.4837 732.233 82.8684 739.546 78.9742C747.026 75.3395 753.674 73.7819 765.808 46.2624C765.808 46.2624 766.805 40.8105 765.475 40.5508Z" fill="#F2B04C"/>
<path d="M734.727 15.9019C731.07 25.2481 734.727 34.3348 737.054 34.5944C739.88 34.854 745.531 34.075 749.853 33.0366C747.692 35.1135 745.365 36.9308 742.041 36.9308C734.727 36.6712 729.907 33.0367 728.577 30.7001C728.743 29.9213 728.743 29.1423 728.91 28.3635C729.574 23.4307 731.735 19.2769 734.727 15.9019ZM760.49 31.4789H760.657C760.657 31.4789 760.158 32.2577 759.826 33.0366C760.158 32.777 760.324 32.2578 760.49 31.4789ZM759.493 34.3347C757.332 38.7482 752.18 47.3155 744.534 50.6906C734.063 55.6233 731.403 51.7291 731.403 51.7291L733.231 65.2293C735.725 67.0466 756.169 61.335 758.496 50.9503C756.667 54.5849 754.341 58.4791 751.515 61.5945C745.365 67.8254 739.547 66.5273 735.226 69.3831C730.904 72.4985 732.4 82.8832 739.714 78.989C742.207 77.6909 744.534 76.6524 747.027 75.0947C744.7 78.7294 742.705 82.1044 741.874 83.6621C739.547 88.0756 745.199 98.2007 745.199 98.2007C745.864 102.614 760.823 82.6236 767.139 62.8926C767.471 62.1138 767.638 61.5946 767.97 60.8157C766.806 65.2292 765.477 70.1619 762.984 76.6523C757.997 89.8929 748.19 101.835 743.038 104.951C736.057 93.5276 730.738 75.3544 729.907 70.4216C728.91 63.9312 727.247 53.0271 727.58 41.6039C733.231 44.7193 747.526 49.1329 759.493 34.3347ZM788.913 41.6039C786.586 63.6715 772.957 96.9026 760.324 111.701C757.831 114.557 755.172 115.336 752.678 114.557C753.842 114.037 755.338 112.739 757.498 109.624C767.637 102.614 778.608 79.7679 783.76 57.4407C785.422 50.6907 787.251 45.7578 788.913 41.6039Z" fill="#FFFA7D"/>
<path d="M338.244 38.4694C342.732 95.5852 313.644 125.96 303.837 128.816C294.031 131.932 276.08 94.5468 271.758 83.9025C267.437 73.2581 265.109 30.9405 268.932 19.7769C272.755 8.61338 296.191 0.824763 304.004 0.0459106C311.816 -0.732942 311.649 8.61329 312.148 11.7287C312.647 14.8441 313.145 26.7866 319.295 35.354C325.611 43.6617 338.244 38.4694 338.244 38.4694Z" fill="black"/>
<path d="M305.996 4.46395C312.478 4.98319 313.476 10.9544 315.803 17.9641C318.462 25.493 320.124 36.1373 325.277 36.9161C330.596 37.695 337.244 35.8778 337.244 35.8778C337.078 57.426 321.953 95.5897 308.323 111.686C304.5 116.099 300.511 115.58 296.688 112.205C306.661 103.897 320.456 85.205 324.279 45.7432C324.279 45.7432 324.28 42.8874 323.282 42.6277C322.784 42.3681 321.786 43.1469 320.456 46.0027C316.8 53.5316 316.634 61.3201 310.816 76.6376C305.83 89.878 296.023 101.821 290.871 104.936C283.89 93.5127 278.57 75.3396 277.739 70.4068C276.742 63.9164 275.08 53.0124 275.413 41.5892C280.898 45.2239 295.358 49.6375 307.159 34.5797C307.159 34.5797 310.484 28.0892 306.494 27.57C306.162 27.57 305.829 27.57 305.497 27.57C300.012 27.8296 297.186 37.6951 289.707 37.1758C282.393 36.9162 277.573 33.2815 276.244 30.945C276.41 30.1661 276.41 29.3872 276.576 28.6083C279.235 12.5121 296.688 4.98328 304.334 4.72366C304.998 4.20443 305.497 4.20434 305.996 4.46395ZM313.475 40.5508C313.143 40.5508 312.645 40.5508 311.98 41.3297C308.655 44.7047 305.497 55.0893 299.347 61.5798C293.197 67.8106 287.38 66.5125 283.058 69.3683C278.737 72.4837 280.233 82.8684 287.546 78.9742C295.026 75.3395 301.674 73.7819 313.808 46.2624C313.808 46.2624 314.805 40.8105 313.475 40.5508Z" fill="#F2B04C"/>
<path d="M282.727 15.9019C279.07 25.2481 282.727 34.3348 285.054 34.5944C287.88 34.854 293.531 34.075 297.853 33.0366C295.692 35.1135 293.365 36.9308 290.041 36.9308C282.727 36.6712 277.907 33.0367 276.577 30.7001C276.743 29.9213 276.743 29.1423 276.91 28.3635C277.574 23.4307 279.735 19.2769 282.727 15.9019ZM308.49 31.4789H308.657C308.657 31.4789 308.158 32.2577 307.826 33.0366C308.158 32.777 308.324 32.2578 308.49 31.4789ZM307.493 34.3347C305.332 38.7482 300.18 47.3155 292.534 50.6906C282.063 55.6233 279.403 51.7291 279.403 51.7291L281.231 65.2293C283.725 67.0466 304.169 61.335 306.496 50.9503C304.667 54.5849 302.341 58.4791 299.515 61.5945C293.365 67.8254 287.547 66.5273 283.226 69.3831C278.904 72.4985 280.4 82.8832 287.714 78.989C290.207 77.6909 292.534 76.6524 295.027 75.0947C292.7 78.7294 290.705 82.1044 289.874 83.6621C287.547 88.0756 293.199 98.2007 293.199 98.2007C293.864 102.614 308.823 82.6236 315.139 62.8926C315.471 62.1138 315.638 61.5946 315.97 60.8157C314.806 65.2292 313.477 70.1619 310.984 76.6523C305.997 89.8929 296.19 101.835 291.038 104.951C284.057 93.5276 278.738 75.3544 277.907 70.4216C276.91 63.9312 275.247 53.0271 275.58 41.6039C281.231 44.7193 295.526 49.1329 307.493 34.3347ZM336.913 41.6039C334.586 63.6715 320.957 96.9026 308.324 111.701C305.831 114.557 303.172 115.336 300.678 114.557C301.842 114.037 303.338 112.739 305.498 109.624C315.637 102.614 326.608 79.7679 331.76 57.4407C333.422 50.6907 335.251 45.7578 336.913 41.6039Z" fill="#FFFA7D"/>
<path d="M564.465 38.4694C566.825 95.5852 551.529 125.96 546.372 128.816C541.215 131.932 531.775 94.5468 529.502 83.9025C527.23 73.2581 526.006 30.9405 528.016 19.7769C530.026 8.61338 542.351 0.824763 546.459 0.0459106C550.567 -0.732942 550.48 8.61329 550.742 11.7287C551.004 14.8441 551.267 26.7866 554.501 35.354C557.822 43.6617 564.465 38.4694 564.465 38.4694Z" fill="black"/>
<path d="M547.507 4.46395C550.916 4.98319 551.44 10.9544 552.664 17.9641C554.062 25.493 554.936 36.1373 557.646 36.9161C560.443 37.695 563.939 35.8778 563.939 35.8778C563.852 57.426 555.898 95.5897 548.731 111.686C546.72 116.099 544.622 115.58 542.612 112.205C547.857 103.897 555.111 85.205 557.122 45.7432C557.122 45.7432 557.122 42.8874 556.597 42.6277C556.335 42.3681 555.81 43.1469 555.111 46.0027C553.188 53.5316 553.101 61.3201 550.042 76.6376C547.419 89.878 542.262 101.821 539.553 104.936C535.882 93.5127 533.084 75.3396 532.647 70.4068C532.123 63.9164 531.249 53.0124 531.424 41.5892C534.308 45.2239 541.913 49.6375 548.119 34.5797C548.119 34.5797 549.867 28.0892 547.769 27.57C547.594 27.57 547.419 27.57 547.244 27.57C544.36 27.8296 542.874 37.6951 538.941 37.1758C535.095 36.9162 532.56 33.2815 531.861 30.945C531.948 30.1661 531.948 29.3872 532.036 28.6083C533.434 12.5121 542.612 4.98328 546.633 4.72366C546.982 4.20443 547.245 4.20434 547.507 4.46395ZM551.44 40.5508C551.265 40.5508 551.003 40.5508 550.654 41.3297C548.905 44.7047 547.245 55.0893 544.01 61.5798C540.776 67.8106 537.717 66.5125 535.444 69.3683C533.172 72.4837 533.959 82.8684 537.805 78.9742C541.738 75.3395 545.234 73.7819 551.615 46.2624C551.615 46.2624 552.139 40.8105 551.44 40.5508Z" fill="#F2B04C"/>
<path d="M535.271 15.9019C533.348 25.2481 535.271 34.3348 536.494 34.5944C537.98 34.854 540.952 34.075 543.225 33.0366C542.089 35.1135 540.865 36.9308 539.117 36.9308C535.271 36.6712 532.736 33.0367 532.037 30.7001C532.124 29.9213 532.124 29.1423 532.211 28.3635C532.561 23.4307 533.697 19.2769 535.271 15.9019ZM548.819 31.4789H548.906C548.906 31.4789 548.644 32.2577 548.469 33.0366C548.644 32.777 548.731 32.2578 548.819 31.4789ZM548.294 34.3347C547.158 38.7482 544.449 47.3155 540.428 50.6906C534.921 55.6233 533.522 51.7291 533.522 51.7291L534.484 65.2293C535.795 67.0466 546.546 61.335 547.77 50.9503C546.808 54.5849 545.585 58.4791 544.099 61.5945C540.865 67.8254 537.805 66.5273 535.533 69.3831C533.26 72.4985 534.047 82.8832 537.893 78.989C539.204 77.6909 540.428 76.6524 541.739 75.0947C540.515 78.7294 539.466 82.1044 539.029 83.6621C537.805 88.0756 540.777 98.2007 540.777 98.2007C541.127 102.614 548.994 82.6236 552.315 62.8926C552.49 62.1138 552.577 61.5946 552.752 60.8157C552.14 65.2292 551.441 70.1619 550.13 76.6523C547.508 89.8929 542.351 101.835 539.641 104.951C535.97 93.5276 533.173 75.3544 532.736 70.4216C532.211 63.9312 531.337 53.0271 531.512 41.6039C534.484 44.7193 542.001 49.1329 548.294 34.3347ZM563.766 41.6039C562.542 63.6715 555.375 96.9026 548.732 111.701C547.42 114.557 546.022 115.336 544.711 114.557C545.323 114.037 546.109 112.739 547.245 109.624C552.577 102.614 558.346 79.7679 561.056 57.4407C561.93 50.6907 562.892 45.7578 563.766 41.6039Z" fill="#FFFA7D"/>
</svg>
